%TF.GenerationSoftware,KiCad,Pcbnew,9.0.6*%
%TF.CreationDate,2025-12-09T13:44:13+01:00*%
%TF.ProjectId,PCB Schematic Eclipse 1,50434220-5363-4686-956d-617469632045,rev?*%
%TF.SameCoordinates,Original*%
%TF.FileFunction,Soldermask,Top*%
%TF.FilePolarity,Negative*%
%FSLAX46Y46*%
G04 Gerber Fmt 4.6, Leading zero omitted, Abs format (unit mm)*
G04 Created by KiCad (PCBNEW 9.0.6) date 2025-12-09 13:44:13*
%MOMM*%
%LPD*%
G01*
G04 APERTURE LIST*
G04 Aperture macros list*
%AMRoundRect*
0 Rectangle with rounded corners*
0 $1 Rounding radius*
0 $2 $3 $4 $5 $6 $7 $8 $9 X,Y pos of 4 corners*
0 Add a 4 corners polygon primitive as box body*
4,1,4,$2,$3,$4,$5,$6,$7,$8,$9,$2,$3,0*
0 Add four circle primitives for the rounded corners*
1,1,$1+$1,$2,$3*
1,1,$1+$1,$4,$5*
1,1,$1+$1,$6,$7*
1,1,$1+$1,$8,$9*
0 Add four rect primitives between the rounded corners*
20,1,$1+$1,$2,$3,$4,$5,0*
20,1,$1+$1,$4,$5,$6,$7,0*
20,1,$1+$1,$6,$7,$8,$9,0*
20,1,$1+$1,$8,$9,$2,$3,0*%
G04 Aperture macros list end*
%ADD10RoundRect,0.250000X0.475000X-0.337500X0.475000X0.337500X-0.475000X0.337500X-0.475000X-0.337500X0*%
%ADD11RoundRect,0.250000X-1.050000X-1.050000X1.050000X-1.050000X1.050000X1.050000X-1.050000X1.050000X0*%
%ADD12C,2.600000*%
%ADD13R,1.800000X1.800000*%
%ADD14C,1.800000*%
%ADD15RoundRect,0.250000X-0.337500X-0.475000X0.337500X-0.475000X0.337500X0.475000X-0.337500X0.475000X0*%
%ADD16R,1.700000X1.700000*%
%ADD17C,1.700000*%
%ADD18RoundRect,0.250000X-0.550000X-0.550000X0.550000X-0.550000X0.550000X0.550000X-0.550000X0.550000X0*%
%ADD19C,1.600000*%
%ADD20RoundRect,0.250000X0.550000X-0.550000X0.550000X0.550000X-0.550000X0.550000X-0.550000X-0.550000X0*%
%ADD21RoundRect,0.150000X0.150000X-0.825000X0.150000X0.825000X-0.150000X0.825000X-0.150000X-0.825000X0*%
%ADD22R,3.000000X2.290000*%
%ADD23R,1.350000X1.350000*%
%ADD24C,1.350000*%
%ADD25RoundRect,0.317500X-1.157500X-0.317500X1.157500X-0.317500X1.157500X0.317500X-1.157500X0.317500X0*%
G04 APERTURE END LIST*
D10*
%TO.C,C1*%
X143000000Y-140000000D03*
X143000000Y-137925000D03*
%TD*%
D11*
%TO.C,J5*%
X123920000Y-139000000D03*
D12*
X129000000Y-139000000D03*
%TD*%
D13*
%TO.C,D2*%
X169460000Y-80000000D03*
D14*
X172000000Y-80000000D03*
%TD*%
D15*
%TO.C,C6*%
X159962500Y-74000000D03*
X162037500Y-74000000D03*
%TD*%
D16*
%TO.C,J4*%
X165840000Y-108000000D03*
D17*
X168380000Y-108000000D03*
X170920000Y-108000000D03*
%TD*%
D18*
%TO.C,IC1*%
X141760000Y-71300000D03*
D19*
X141760000Y-73840000D03*
X141760000Y-76380000D03*
X141760000Y-78920000D03*
X141760000Y-81460000D03*
X141760000Y-84000000D03*
X141760000Y-86540000D03*
X141760000Y-89080000D03*
X141760000Y-91620000D03*
X141760000Y-94160000D03*
X141760000Y-96700000D03*
X141760000Y-99240000D03*
X141760000Y-101780000D03*
X141760000Y-104320000D03*
X141760000Y-106860000D03*
X141760000Y-109400000D03*
X141760000Y-111940000D03*
X141760000Y-114480000D03*
X141760000Y-117020000D03*
X141760000Y-119560000D03*
X141760000Y-122100000D03*
X141760000Y-124640000D03*
X141760000Y-127180000D03*
X141760000Y-129720000D03*
X157000000Y-129720000D03*
X157000000Y-127180000D03*
X157000000Y-124640000D03*
X157000000Y-122100000D03*
X157000000Y-119560000D03*
X157000000Y-117020000D03*
X157000000Y-114480000D03*
X157000000Y-111940000D03*
X157000000Y-109400000D03*
X157000000Y-106860000D03*
X157000000Y-104320000D03*
X157000000Y-101780000D03*
X157000000Y-99240000D03*
X157000000Y-96700000D03*
X157000000Y-94160000D03*
X157000000Y-91620000D03*
X157000000Y-89080000D03*
X157000000Y-86540000D03*
X157000000Y-84000000D03*
X157000000Y-81460000D03*
X157000000Y-78920000D03*
X157000000Y-76380000D03*
X157000000Y-73840000D03*
X157000000Y-71300000D03*
%TD*%
%TO.C,R3*%
X120920000Y-129000000D03*
X131080000Y-129000000D03*
%TD*%
D15*
%TO.C,C3*%
X124962500Y-106000000D03*
X127037500Y-106000000D03*
%TD*%
%TO.C,C2*%
X136962500Y-119000000D03*
X139037500Y-119000000D03*
%TD*%
D16*
%TO.C,J7*%
X138000000Y-70000000D03*
%TD*%
D19*
%TO.C,R2*%
X164920000Y-95000000D03*
X175080000Y-95000000D03*
%TD*%
D16*
%TO.C,J3*%
X165840000Y-117000000D03*
D17*
X168380000Y-117000000D03*
X170920000Y-117000000D03*
%TD*%
D20*
%TO.C,U1*%
X116760000Y-100620000D03*
D19*
X119300000Y-100620000D03*
X121840000Y-100620000D03*
X124380000Y-100620000D03*
X126920000Y-100620000D03*
X129460000Y-100620000D03*
X132000000Y-100620000D03*
X134540000Y-100620000D03*
X134540000Y-93000000D03*
X132000000Y-93000000D03*
X129460000Y-93000000D03*
X126920000Y-93000000D03*
X124380000Y-93000000D03*
X121840000Y-93000000D03*
X119300000Y-93000000D03*
X116760000Y-93000000D03*
%TD*%
D10*
%TO.C,C4*%
X156000000Y-140000000D03*
X156000000Y-137925000D03*
%TD*%
D16*
%TO.C,J6*%
X137000000Y-136920000D03*
D17*
X137000000Y-139460000D03*
X137000000Y-142000000D03*
%TD*%
D21*
%TO.C,U4*%
X147845000Y-141437500D03*
X149115000Y-141437500D03*
X150385000Y-141437500D03*
X151655000Y-141437500D03*
X151655000Y-136487500D03*
X150385000Y-136487500D03*
X149115000Y-136487500D03*
X147845000Y-136487500D03*
D22*
X149750000Y-138962500D03*
%TD*%
D23*
%TO.C,U2*%
X118962500Y-110000000D03*
D24*
X120962500Y-110000000D03*
X122962500Y-110000000D03*
X124962500Y-110000000D03*
X126962500Y-110000000D03*
X128962500Y-110000000D03*
X130962500Y-110000000D03*
X132962500Y-110000000D03*
%TD*%
D15*
%TO.C,C5*%
X124962500Y-89000000D03*
X127037500Y-89000000D03*
%TD*%
D16*
%TO.C,J1*%
X165920000Y-136000000D03*
D17*
X168460000Y-136000000D03*
X171000000Y-136000000D03*
%TD*%
D19*
%TO.C,R4*%
X120840000Y-122000000D03*
X131000000Y-122000000D03*
%TD*%
D25*
%TO.C,U3*%
X117950000Y-71000000D03*
X117950000Y-73000000D03*
X117950000Y-75000000D03*
X117950000Y-77000000D03*
X117950000Y-79000000D03*
X117950000Y-81000000D03*
X117950000Y-83000000D03*
X117950000Y-85000000D03*
X133000000Y-85000000D03*
X133000000Y-83000000D03*
X133000000Y-81000000D03*
X133000000Y-79000000D03*
X133000000Y-77000000D03*
X133000000Y-75000000D03*
X133000000Y-73000000D03*
X133000000Y-71000000D03*
%TD*%
D13*
%TO.C,D1*%
X169460000Y-72530000D03*
D14*
X172000000Y-72530000D03*
%TD*%
D19*
%TO.C,R1*%
X164920000Y-88000000D03*
X175080000Y-88000000D03*
%TD*%
D16*
%TO.C,J2*%
X165840000Y-127000000D03*
D17*
X168380000Y-127000000D03*
X170920000Y-127000000D03*
%TD*%
M02*
