%TF.GenerationSoftware,KiCad,Pcbnew,9.0.6*%
%TF.CreationDate,2025-12-09T13:44:12+01:00*%
%TF.ProjectId,PCB Schematic Eclipse 1,50434220-5363-4686-956d-617469632045,rev?*%
%TF.SameCoordinates,Original*%
%TF.FileFunction,Copper,L1,Top*%
%TF.FilePolarity,Positive*%
%FSLAX46Y46*%
G04 Gerber Fmt 4.6, Leading zero omitted, Abs format (unit mm)*
G04 Created by KiCad (PCBNEW 9.0.6) date 2025-12-09 13:44:12*
%MOMM*%
%LPD*%
G01*
G04 APERTURE LIST*
G04 Aperture macros list*
%AMRoundRect*
0 Rectangle with rounded corners*
0 $1 Rounding radius*
0 $2 $3 $4 $5 $6 $7 $8 $9 X,Y pos of 4 corners*
0 Add a 4 corners polygon primitive as box body*
4,1,4,$2,$3,$4,$5,$6,$7,$8,$9,$2,$3,0*
0 Add four circle primitives for the rounded corners*
1,1,$1+$1,$2,$3*
1,1,$1+$1,$4,$5*
1,1,$1+$1,$6,$7*
1,1,$1+$1,$8,$9*
0 Add four rect primitives between the rounded corners*
20,1,$1+$1,$2,$3,$4,$5,0*
20,1,$1+$1,$4,$5,$6,$7,0*
20,1,$1+$1,$6,$7,$8,$9,0*
20,1,$1+$1,$8,$9,$2,$3,0*%
G04 Aperture macros list end*
%TA.AperFunction,SMDPad,CuDef*%
%ADD10RoundRect,0.250000X0.475000X-0.337500X0.475000X0.337500X-0.475000X0.337500X-0.475000X-0.337500X0*%
%TD*%
%TA.AperFunction,ComponentPad*%
%ADD11RoundRect,0.250000X-1.050000X-1.050000X1.050000X-1.050000X1.050000X1.050000X-1.050000X1.050000X0*%
%TD*%
%TA.AperFunction,ComponentPad*%
%ADD12C,2.600000*%
%TD*%
%TA.AperFunction,ComponentPad*%
%ADD13R,1.800000X1.800000*%
%TD*%
%TA.AperFunction,ComponentPad*%
%ADD14C,1.800000*%
%TD*%
%TA.AperFunction,SMDPad,CuDef*%
%ADD15RoundRect,0.250000X-0.337500X-0.475000X0.337500X-0.475000X0.337500X0.475000X-0.337500X0.475000X0*%
%TD*%
%TA.AperFunction,ComponentPad*%
%ADD16R,1.700000X1.700000*%
%TD*%
%TA.AperFunction,ComponentPad*%
%ADD17C,1.700000*%
%TD*%
%TA.AperFunction,ComponentPad*%
%ADD18RoundRect,0.250000X-0.550000X-0.550000X0.550000X-0.550000X0.550000X0.550000X-0.550000X0.550000X0*%
%TD*%
%TA.AperFunction,ComponentPad*%
%ADD19C,1.600000*%
%TD*%
%TA.AperFunction,ComponentPad*%
%ADD20RoundRect,0.250000X0.550000X-0.550000X0.550000X0.550000X-0.550000X0.550000X-0.550000X-0.550000X0*%
%TD*%
%TA.AperFunction,SMDPad,CuDef*%
%ADD21RoundRect,0.150000X0.150000X-0.825000X0.150000X0.825000X-0.150000X0.825000X-0.150000X-0.825000X0*%
%TD*%
%TA.AperFunction,HeatsinkPad*%
%ADD22R,3.000000X2.290000*%
%TD*%
%TA.AperFunction,ComponentPad*%
%ADD23R,1.350000X1.350000*%
%TD*%
%TA.AperFunction,ComponentPad*%
%ADD24C,1.350000*%
%TD*%
%TA.AperFunction,SMDPad,CuDef*%
%ADD25RoundRect,0.317500X-1.157500X-0.317500X1.157500X-0.317500X1.157500X0.317500X-1.157500X0.317500X0*%
%TD*%
%TA.AperFunction,ViaPad*%
%ADD26C,0.600000*%
%TD*%
%TA.AperFunction,Conductor*%
%ADD27C,0.800000*%
%TD*%
%TA.AperFunction,Conductor*%
%ADD28C,0.200000*%
%TD*%
G04 APERTURE END LIST*
D10*
%TO.P,C1,1*%
%TO.N,VCC_5V*%
X143000000Y-140000000D03*
%TO.P,C1,2*%
X143000000Y-137925000D03*
%TD*%
D11*
%TO.P,J5,1,Pin_1*%
%TO.N,Net-(J5-Pin_1)*%
X123920000Y-139000000D03*
D12*
%TO.P,J5,2,Pin_2*%
%TO.N,GND*%
X129000000Y-139000000D03*
%TD*%
D13*
%TO.P,D2,1,K*%
%TO.N,Net-(D1-K)*%
X169460000Y-80000000D03*
D14*
%TO.P,D2,2,A*%
%TO.N,Net-(D2-A)*%
X172000000Y-80000000D03*
%TD*%
D15*
%TO.P,C6,1*%
%TO.N,VCC_5V*%
X159962500Y-74000000D03*
%TO.P,C6,2*%
%TO.N,Net-(IC1-GND_5)*%
X162037500Y-74000000D03*
%TD*%
D16*
%TO.P,J4,1,Pin_1*%
%TO.N,Net-(IC1-OUT1D)*%
X165840000Y-108000000D03*
D17*
%TO.P,J4,2,Pin_2*%
%TO.N,VCC_5V*%
X168380000Y-108000000D03*
%TO.P,J4,3,Pin_3*%
%TO.N,GND*%
X170920000Y-108000000D03*
%TD*%
D18*
%TO.P,IC1,1,TX1*%
%TO.N,unconnected-(IC1-TX1-Pad1)*%
X141760000Y-71300000D03*
D19*
%TO.P,IC1,2,OUT2*%
%TO.N,unconnected-(IC1-OUT2-Pad2)*%
X141760000Y-73840000D03*
%TO.P,IC1,3,LRCLK2*%
%TO.N,Net-(IC1-LRCLK2)*%
X141760000Y-76380000D03*
%TO.P,IC1,4,BCLK2*%
%TO.N,Net-(IC1-BCLK2)*%
X141760000Y-78920000D03*
%TO.P,IC1,5,IN2*%
%TO.N,Net-(IC1-IN2)*%
X141760000Y-81460000D03*
%TO.P,IC1,6,OUT1D*%
%TO.N,Net-(IC1-OUT1D)*%
X141760000Y-84000000D03*
%TO.P,IC1,7,RX2*%
%TO.N,Net-(IC1-RX2)*%
X141760000Y-86540000D03*
%TO.P,IC1,8,TX2*%
%TO.N,Net-(IC1-TX2)*%
X141760000Y-89080000D03*
%TO.P,IC1,9,OUT1C*%
%TO.N,unconnected-(IC1-OUT1C-Pad9)*%
X141760000Y-91620000D03*
%TO.P,IC1,10,CS_1*%
%TO.N,unconnected-(IC1-CS_1-Pad10)*%
X141760000Y-94160000D03*
%TO.P,IC1,11,MOSI*%
%TO.N,/SPI_MOSI*%
X141760000Y-96700000D03*
%TO.P,IC1,12,MISO*%
%TO.N,/SPI_MISO*%
X141760000Y-99240000D03*
%TO.P,IC1,13,SCK*%
%TO.N,/SPI_SCK*%
X141760000Y-101780000D03*
%TO.P,IC1,14,A0*%
%TO.N,unconnected-(IC1-A0-Pad14)*%
X141760000Y-104320000D03*
%TO.P,IC1,15,A1*%
%TO.N,unconnected-(IC1-A1-Pad15)*%
X141760000Y-106860000D03*
%TO.P,IC1,16,A2*%
%TO.N,unconnected-(IC1-A2-Pad16)*%
X141760000Y-109400000D03*
%TO.P,IC1,17,A3*%
%TO.N,unconnected-(IC1-A3-Pad17)*%
X141760000Y-111940000D03*
%TO.P,IC1,18,A4*%
%TO.N,/I2C_SDA*%
X141760000Y-114480000D03*
%TO.P,IC1,19,A5*%
%TO.N,/I2C_SCL*%
X141760000Y-117020000D03*
%TO.P,IC1,20,A6*%
%TO.N,unconnected-(IC1-A6-Pad20)*%
X141760000Y-119560000D03*
%TO.P,IC1,21,A7*%
%TO.N,unconnected-(IC1-A7-Pad21)*%
X141760000Y-122100000D03*
%TO.P,IC1,22,A8*%
%TO.N,unconnected-(IC1-A8-Pad22)*%
X141760000Y-124640000D03*
%TO.P,IC1,23,A9*%
%TO.N,unconnected-(IC1-A9-Pad23)*%
X141760000Y-127180000D03*
%TO.P,IC1,24,A10*%
%TO.N,unconnected-(IC1-A10-Pad24)*%
X141760000Y-129720000D03*
%TO.P,IC1,25,A11*%
%TO.N,unconnected-(IC1-A11-Pad25)*%
X157000000Y-129720000D03*
%TO.P,IC1,26,A12*%
%TO.N,unconnected-(IC1-A12-Pad26)*%
X157000000Y-127180000D03*
%TO.P,IC1,27,A13*%
%TO.N,unconnected-(IC1-A13-Pad27)*%
X157000000Y-124640000D03*
%TO.P,IC1,28,RX7*%
%TO.N,unconnected-(IC1-RX7-Pad28)*%
X157000000Y-122100000D03*
%TO.P,IC1,29,TX7*%
%TO.N,unconnected-(IC1-TX7-Pad29)*%
X157000000Y-119560000D03*
%TO.P,IC1,30,CRX3*%
%TO.N,unconnected-(IC1-CRX3-Pad30)*%
X157000000Y-117020000D03*
%TO.P,IC1,31,CTX3*%
%TO.N,unconnected-(IC1-CTX3-Pad31)*%
X157000000Y-114480000D03*
%TO.P,IC1,32,OUT1B*%
%TO.N,unconnected-(IC1-OUT1B-Pad32)*%
X157000000Y-111940000D03*
%TO.P,IC1,33,MCLK2*%
%TO.N,unconnected-(IC1-MCLK2-Pad33)*%
X157000000Y-109400000D03*
%TO.P,IC1,34,RX8*%
%TO.N,unconnected-(IC1-RX8-Pad34)*%
X157000000Y-106860000D03*
%TO.P,IC1,35,TX8*%
%TO.N,unconnected-(IC1-TX8-Pad35)*%
X157000000Y-104320000D03*
%TO.P,IC1,36,CS_2*%
%TO.N,unconnected-(IC1-CS_2-Pad36)*%
X157000000Y-101780000D03*
%TO.P,IC1,37,CS_3*%
%TO.N,unconnected-(IC1-CS_3-Pad37)*%
X157000000Y-99240000D03*
%TO.P,IC1,38,A14*%
%TO.N,unconnected-(IC1-A14-Pad38)*%
X157000000Y-96700000D03*
%TO.P,IC1,39,A15*%
%TO.N,unconnected-(IC1-A15-Pad39)*%
X157000000Y-94160000D03*
%TO.P,IC1,40,A16*%
%TO.N,unconnected-(IC1-A16-Pad40)*%
X157000000Y-91620000D03*
%TO.P,IC1,41,A17*%
%TO.N,unconnected-(IC1-A17-Pad41)*%
X157000000Y-89080000D03*
%TO.P,IC1,42,3.3V_1*%
%TO.N,unconnected-(IC1-3.3V_1-Pad42)*%
X157000000Y-86540000D03*
%TO.P,IC1,43,VBAT*%
%TO.N,unconnected-(IC1-VBAT-Pad43)*%
X157000000Y-84000000D03*
%TO.P,IC1,44,3.3V_2*%
%TO.N,unconnected-(IC1-3.3V_2-Pad44)*%
X157000000Y-81460000D03*
%TO.P,IC1,45,GND_1*%
%TO.N,unconnected-(IC1-GND_1-Pad45)*%
X157000000Y-78920000D03*
%TO.P,IC1,46,PROGRAM*%
%TO.N,unconnected-(IC1-PROGRAM-Pad46)*%
X157000000Y-76380000D03*
%TO.P,IC1,47,ON/OFF*%
%TO.N,unconnected-(IC1-ON{slash}OFF-Pad47)*%
X157000000Y-73840000D03*
%TO.P,IC1,48,GND_2*%
%TO.N,Net-(D1-K)*%
X157000000Y-71300000D03*
%TD*%
%TO.P,R3,1*%
%TO.N,Net-(U2-SCLK)*%
X120920000Y-129000000D03*
%TO.P,R3,2*%
%TO.N,/I2C_SCL*%
X131080000Y-129000000D03*
%TD*%
D15*
%TO.P,C3,1*%
%TO.N,/VCC_3V3*%
X124962500Y-106000000D03*
%TO.P,C3,2*%
%TO.N,Net-(U2-GND)*%
X127037500Y-106000000D03*
%TD*%
%TO.P,C2,1*%
%TO.N,/VCC_3V3*%
X136962500Y-119000000D03*
%TO.P,C2,2*%
%TO.N,Net-(U1-GNDA)*%
X139037500Y-119000000D03*
%TD*%
D16*
%TO.P,J7,1,Pin_1*%
%TO.N,Net-(J7-Pin_1)*%
X138000000Y-70000000D03*
%TD*%
D19*
%TO.P,R2,1*%
%TO.N,Net-(D2-A)*%
X164920000Y-95000000D03*
%TO.P,R2,2*%
%TO.N,Net-(IC1-TX2)*%
X175080000Y-95000000D03*
%TD*%
D16*
%TO.P,J3,1,Pin_1*%
%TO.N,Net-(IC1-IN2)*%
X165840000Y-117000000D03*
D17*
%TO.P,J3,2,Pin_2*%
%TO.N,VCC_5V*%
X168380000Y-117000000D03*
%TO.P,J3,3,Pin_3*%
%TO.N,GND*%
X170920000Y-117000000D03*
%TD*%
D20*
%TO.P,U1,1,INT2*%
%TO.N,unconnected-(U1-INT2-Pad1)*%
X116760000Y-100620000D03*
D19*
%TO.P,U1,2,NC*%
%TO.N,unconnected-(U1-NC-Pad2)*%
X119300000Y-100620000D03*
%TO.P,U1,3,VDD*%
%TO.N,/VCC_3V3*%
X121840000Y-100620000D03*
%TO.P,U1,4,GNDA*%
%TO.N,Net-(U1-GNDA)*%
X124380000Y-100620000D03*
%TO.P,U1,5,CSB2*%
%TO.N,unconnected-(U1-CSB2-Pad5)*%
X126920000Y-100620000D03*
%TO.P,U1,6,GNDIO*%
%TO.N,unconnected-(U1-GNDIO-Pad6)*%
X129460000Y-100620000D03*
%TO.P,U1,7,PS*%
%TO.N,unconnected-(U1-PS-Pad7)*%
X132000000Y-100620000D03*
%TO.P,U1,8,SCL/SCK*%
%TO.N,/I2C_SCL*%
X134540000Y-100620000D03*
%TO.P,U1,9,SDA/SDI*%
%TO.N,/I2C_SDA*%
X134540000Y-93000000D03*
%TO.P,U1,10,SDO2*%
%TO.N,unconnected-(U1-SDO2-Pad10)*%
X132000000Y-93000000D03*
%TO.P,U1,11,VDDIO*%
%TO.N,/VCC_3V3*%
X129460000Y-93000000D03*
%TO.P,U1,12,INT3*%
%TO.N,unconnected-(U1-INT3-Pad12)*%
X126920000Y-93000000D03*
%TO.P,U1,13,INT4*%
%TO.N,unconnected-(U1-INT4-Pad13)*%
X124380000Y-93000000D03*
%TO.P,U1,14,CSB1*%
%TO.N,unconnected-(U1-CSB1-Pad14)*%
X121840000Y-93000000D03*
%TO.P,U1,15,SDO1*%
%TO.N,unconnected-(U1-SDO1-Pad15)*%
X119300000Y-93000000D03*
%TO.P,U1,16,INT1*%
%TO.N,unconnected-(U1-INT1-Pad16)*%
X116760000Y-93000000D03*
%TD*%
D10*
%TO.P,C4,1*%
%TO.N,/Vcc_3V3*%
X156000000Y-140000000D03*
%TO.P,C4,2*%
%TO.N,Net-(C4-Pad2)*%
X156000000Y-137925000D03*
%TD*%
D16*
%TO.P,J6,1,Pin_1*%
%TO.N,Net-(J5-Pin_1)*%
X137000000Y-136920000D03*
D17*
%TO.P,J6,2,Pin_2*%
%TO.N,VCC_5V*%
X137000000Y-139460000D03*
%TO.P,J6,3,Pin_3*%
X137000000Y-142000000D03*
%TD*%
D21*
%TO.P,U4,1,VOUT*%
%TO.N,/Vcc_3V3*%
X147845000Y-141437500D03*
%TO.P,U4,2,VOUT*%
X149115000Y-141437500D03*
%TO.P,U4,3,SENSE/ADJ*%
%TO.N,unconnected-(U4-SENSE{slash}ADJ-Pad3)*%
X150385000Y-141437500D03*
%TO.P,U4,4,GND*%
%TO.N,Net-(C4-Pad2)*%
X151655000Y-141437500D03*
%TO.P,U4,5,EN*%
%TO.N,unconnected-(U4-EN-Pad5)*%
X151655000Y-136487500D03*
%TO.P,U4,6,SS*%
%TO.N,unconnected-(U4-SS-Pad6)*%
X150385000Y-136487500D03*
%TO.P,U4,7,VIN*%
%TO.N,VCC_5V*%
X149115000Y-136487500D03*
%TO.P,U4,8,VIN*%
X147845000Y-136487500D03*
D22*
%TO.P,U4,9,GND*%
%TO.N,Net-(C4-Pad2)*%
X149750000Y-138962500D03*
%TD*%
D23*
%TO.P,U2,1,VDD*%
%TO.N,/VCC_3V3*%
X118962500Y-110000000D03*
D24*
%TO.P,U2,2,PS*%
%TO.N,unconnected-(U2-PS-Pad2)*%
X120962500Y-110000000D03*
%TO.P,U2,3,GND*%
%TO.N,Net-(U2-GND)*%
X122962500Y-110000000D03*
%TO.P,U2,4,CSB*%
%TO.N,unconnected-(U2-CSB-Pad4)*%
X124962500Y-110000000D03*
%TO.P,U2,5,CSB*%
%TO.N,unconnected-(U2-CSB-Pad4)_1*%
X126962500Y-110000000D03*
%TO.P,U2,6,SDO*%
%TO.N,unconnected-(U2-SDO-Pad6)*%
X128962500Y-110000000D03*
%TO.P,U2,7,SDI/SDA*%
%TO.N,/SPI_SCK*%
X130962500Y-110000000D03*
%TO.P,U2,8,SCLK*%
%TO.N,Net-(U2-SCLK)*%
X132962500Y-110000000D03*
%TD*%
D15*
%TO.P,C5,1*%
%TO.N,/VCC_3V3*%
X124962500Y-89000000D03*
%TO.P,C5,2*%
%TO.N,GND*%
X127037500Y-89000000D03*
%TD*%
D16*
%TO.P,J1,1,Pin_1*%
%TO.N,Net-(IC1-LRCLK2)*%
X165920000Y-136000000D03*
D17*
%TO.P,J1,2,Pin_2*%
%TO.N,VCC_5V*%
X168460000Y-136000000D03*
%TO.P,J1,3,Pin_3*%
%TO.N,GND*%
X171000000Y-136000000D03*
%TD*%
D19*
%TO.P,R4,1*%
%TO.N,/I2C_SDA*%
X120840000Y-122000000D03*
%TO.P,R4,2*%
%TO.N,/SPI_SCK*%
X131000000Y-122000000D03*
%TD*%
D25*
%TO.P,U3,1,GND*%
%TO.N,GND*%
X117950000Y-71000000D03*
%TO.P,U3,2,MISO*%
%TO.N,/SPI_MISO*%
X117950000Y-73000000D03*
%TO.P,U3,3,MOSI*%
%TO.N,/SPI_MOSI*%
X117950000Y-75000000D03*
%TO.P,U3,4,SCK*%
%TO.N,/SPI_SCK*%
X117950000Y-77000000D03*
%TO.P,U3,5,NSS*%
%TO.N,unconnected-(U3-NSS-Pad5)*%
X117950000Y-79000000D03*
%TO.P,U3,6,RESET*%
%TO.N,unconnected-(U3-RESET-Pad6)*%
X117950000Y-81000000D03*
%TO.P,U3,7,DIO5*%
%TO.N,unconnected-(U3-DIO5-Pad7)*%
X117950000Y-83000000D03*
%TO.P,U3,8,GND@1*%
%TO.N,GND*%
X117950000Y-85000000D03*
%TO.P,U3,9,ANT*%
%TO.N,Net-(J7-Pin_1)*%
X133000000Y-85000000D03*
%TO.P,U3,10,GND@2*%
%TO.N,GND*%
X133000000Y-83000000D03*
%TO.P,U3,11,DIO3*%
%TO.N,unconnected-(U3-DIO3-Pad11)*%
X133000000Y-81000000D03*
%TO.P,U3,12,DIO4*%
%TO.N,unconnected-(U3-DIO4-Pad12)*%
X133000000Y-79000000D03*
%TO.P,U3,13,3_3V*%
%TO.N,/VCC_3V3*%
X133000000Y-77000000D03*
%TO.P,U3,14,DIO0*%
%TO.N,unconnected-(U3-DIO0-Pad14)*%
X133000000Y-75000000D03*
%TO.P,U3,15,DIO1*%
%TO.N,unconnected-(U3-DIO1-Pad15)*%
X133000000Y-73000000D03*
%TO.P,U3,16,DIO2*%
%TO.N,unconnected-(U3-DIO2-Pad16)*%
X133000000Y-71000000D03*
%TD*%
D13*
%TO.P,D1,1,K*%
%TO.N,Net-(D1-K)*%
X169460000Y-72530000D03*
D14*
%TO.P,D1,2,A*%
%TO.N,Net-(D1-A)*%
X172000000Y-72530000D03*
%TD*%
D19*
%TO.P,R1,1*%
%TO.N,Net-(D1-A)*%
X164920000Y-88000000D03*
%TO.P,R1,2*%
%TO.N,Net-(IC1-RX2)*%
X175080000Y-88000000D03*
%TD*%
D16*
%TO.P,J2,1,Pin_1*%
%TO.N,Net-(IC1-BCLK2)*%
X165840000Y-127000000D03*
D17*
%TO.P,J2,2,Pin_2*%
%TO.N,VCC_5V*%
X168380000Y-127000000D03*
%TO.P,J2,3,Pin_3*%
%TO.N,GND*%
X170920000Y-127000000D03*
%TD*%
D26*
%TO.N,VCC_5V*%
X160000000Y-94000000D03*
X160000000Y-88000000D03*
%TO.N,Net-(U1-GNDA)*%
X139000000Y-115080000D03*
X131000000Y-104000000D03*
%TO.N,/VCC_3V3*%
X136000000Y-115080000D03*
X131000000Y-105000000D03*
%TO.N,Net-(D2-A)*%
X168000000Y-91000000D03*
X169000000Y-85400000D03*
%TO.N,Net-(IC1-IN2)*%
X149000000Y-88000000D03*
X149000000Y-97000000D03*
%TO.N,/I2C_SCL*%
X136000000Y-106000000D03*
X139000000Y-108000000D03*
%TO.N,Net-(IC1-LRCLK2)*%
X154000000Y-87000000D03*
X154000000Y-110000000D03*
%TO.N,/SPI_SCK*%
X130000000Y-107000000D03*
X139000000Y-103000000D03*
X121000000Y-82000000D03*
X128000000Y-113000000D03*
X131000000Y-116000000D03*
%TO.N,Net-(IC1-BCLK2)*%
X152000000Y-87000000D03*
X152000000Y-105000000D03*
%TO.N,/SPI_MISO*%
X128000000Y-84000000D03*
X124000000Y-78000000D03*
%TO.N,Net-(IC1-OUT1D)*%
X147000000Y-94000000D03*
X147000000Y-88000000D03*
%TO.N,/SPI_MOSI*%
X121000000Y-77000000D03*
X129000000Y-82000000D03*
%TD*%
D27*
%TO.N,VCC_5V*%
X150332500Y-134000000D02*
X149115000Y-135217500D01*
X168380000Y-108000000D02*
X168380000Y-106380000D01*
X168460000Y-127080000D02*
X168380000Y-127000000D01*
X146407500Y-137925000D02*
X143000000Y-137925000D01*
X155673660Y-136000000D02*
X153673660Y-134000000D01*
X168460000Y-136000000D02*
X168460000Y-127080000D01*
X157000000Y-136000000D02*
X155673660Y-136000000D01*
X168460000Y-137540000D02*
X168000000Y-138000000D01*
X147845000Y-136487500D02*
X146407500Y-137925000D01*
X168380000Y-127000000D02*
X168380000Y-117000000D01*
X160000000Y-98000000D02*
X160000000Y-94000000D01*
X168000000Y-138000000D02*
X159000000Y-138000000D01*
X149115000Y-135217500D02*
X149115000Y-136487500D01*
X168380000Y-106380000D02*
X160000000Y-98000000D01*
X149115000Y-136487500D02*
X147845000Y-136487500D01*
X143000000Y-137925000D02*
X143000000Y-140000000D01*
X160000000Y-88000000D02*
X160000000Y-87000000D01*
X142000000Y-140000000D02*
X141460000Y-139460000D01*
X141460000Y-139460000D02*
X137000000Y-139460000D01*
X160000000Y-87000000D02*
X159962500Y-86962500D01*
X153673660Y-134000000D02*
X150332500Y-134000000D01*
X168460000Y-136000000D02*
X168460000Y-137540000D01*
X159962500Y-86962500D02*
X159962500Y-74000000D01*
X137000000Y-139460000D02*
X137000000Y-142000000D01*
X143000000Y-140000000D02*
X142000000Y-140000000D01*
X168380000Y-117000000D02*
X168380000Y-108000000D01*
X159000000Y-138000000D02*
X157000000Y-136000000D01*
D28*
%TO.N,Net-(U1-GNDA)*%
X139037500Y-115117500D02*
X139000000Y-115080000D01*
X139037500Y-119000000D02*
X139037500Y-115117500D01*
X131000000Y-104000000D02*
X127760000Y-104000000D01*
X127760000Y-104000000D02*
X124380000Y-100620000D01*
%TO.N,/VCC_3V3*%
X131000000Y-105000000D02*
X130974000Y-104974000D01*
X124962500Y-106000000D02*
X122962500Y-106000000D01*
X125168000Y-106000000D02*
X126194000Y-104974000D01*
X124962500Y-84687808D02*
X132650308Y-77000000D01*
X136962500Y-116042500D02*
X136000000Y-115080000D01*
X129460000Y-93000000D02*
X121840000Y-100620000D01*
X130974000Y-104974000D02*
X126194000Y-104974000D01*
X136962500Y-119000000D02*
X136962500Y-116042500D01*
X122962500Y-106000000D02*
X118962500Y-110000000D01*
X124962500Y-106000000D02*
X125168000Y-106000000D01*
X132650308Y-77000000D02*
X133000000Y-77000000D01*
X124962500Y-89000000D02*
X128962500Y-93000000D01*
X126194000Y-104974000D02*
X121840000Y-100620000D01*
X128962500Y-93000000D02*
X129460000Y-93000000D01*
X124962500Y-89000000D02*
X124962500Y-84687808D01*
%TO.N,Net-(U2-GND)*%
X127037500Y-106000000D02*
X126962500Y-106000000D01*
X126962500Y-106000000D02*
X122962500Y-110000000D01*
%TO.N,/Vcc_3V3*%
X149115000Y-141437500D02*
X147845000Y-141437500D01*
X149416001Y-142713500D02*
X149115000Y-142412499D01*
X153286500Y-142713500D02*
X149416001Y-142713500D01*
X156000000Y-140000000D02*
X153286500Y-142713500D01*
X149115000Y-142412499D02*
X149115000Y-141437500D01*
%TO.N,Net-(C4-Pad2)*%
X156000000Y-137925000D02*
X155167500Y-137925000D01*
X156000000Y-137925000D02*
X150787500Y-137925000D01*
X150787500Y-137925000D02*
X149750000Y-138962500D01*
X155167500Y-137925000D02*
X151655000Y-141437500D01*
%TO.N,Net-(D1-K)*%
X169460000Y-80000000D02*
X164000000Y-74540000D01*
X169460000Y-72530000D02*
X164000000Y-72530000D01*
X158230000Y-72530000D02*
X157000000Y-71300000D01*
X164000000Y-72530000D02*
X158230000Y-72530000D01*
X164000000Y-74540000D02*
X164000000Y-72530000D01*
%TO.N,Net-(D1-A)*%
X165000000Y-86000000D02*
X165000000Y-87920000D01*
X172000000Y-72530000D02*
X175000000Y-75530000D01*
X165000000Y-87920000D02*
X164920000Y-88000000D01*
X175000000Y-75530000D02*
X175000000Y-86000000D01*
X175000000Y-86000000D02*
X165000000Y-86000000D01*
%TO.N,Net-(D2-A)*%
X168000000Y-91000000D02*
X168000000Y-91920000D01*
X172000000Y-82400000D02*
X169000000Y-85400000D01*
X172000000Y-80000000D02*
X172000000Y-82400000D01*
X168000000Y-91920000D02*
X164920000Y-95000000D01*
%TO.N,Net-(IC1-IN2)*%
X144460000Y-81460000D02*
X141760000Y-81460000D01*
X149000000Y-86000000D02*
X144460000Y-81460000D01*
X149000000Y-100417050D02*
X149000000Y-97000000D01*
X157851000Y-107961000D02*
X156543950Y-107961000D01*
X165840000Y-115950000D02*
X157851000Y-107961000D01*
X149000000Y-88000000D02*
X149000000Y-86000000D01*
X165840000Y-117000000D02*
X165840000Y-115950000D01*
X156543950Y-107961000D02*
X149000000Y-100417050D01*
%TO.N,Net-(IC1-TX2)*%
X161083950Y-92721000D02*
X145401000Y-92721000D01*
X145401000Y-92721000D02*
X141760000Y-89080000D01*
X175080000Y-95000000D02*
X173979000Y-96101000D01*
X173979000Y-96101000D02*
X164463950Y-96101000D01*
X164463950Y-96101000D02*
X161083950Y-92721000D01*
%TO.N,/I2C_SCL*%
X139000000Y-108197050D02*
X141303950Y-110501000D01*
X134540000Y-104540000D02*
X136000000Y-106000000D01*
X131080000Y-128682950D02*
X141760000Y-118002950D01*
X141878050Y-110501000D02*
X144000000Y-112622950D01*
X144000000Y-112622950D02*
X144000000Y-117000000D01*
X143980000Y-117020000D02*
X141760000Y-117020000D01*
X144000000Y-117000000D02*
X143980000Y-117020000D01*
X131080000Y-129000000D02*
X131080000Y-128682950D01*
X139000000Y-108000000D02*
X139000000Y-108197050D01*
X141303950Y-110501000D02*
X141878050Y-110501000D01*
X134540000Y-100620000D02*
X134540000Y-104540000D01*
X141760000Y-118002950D02*
X141760000Y-117020000D01*
%TO.N,/I2C_SDA*%
X122000000Y-118000000D02*
X125529600Y-118000000D01*
X134540000Y-93000000D02*
X137000000Y-95460000D01*
X129049600Y-114480000D02*
X137000000Y-114480000D01*
X125529600Y-118000000D02*
X129049600Y-114480000D01*
X120840000Y-119160000D02*
X122000000Y-118000000D01*
X137000000Y-95460000D02*
X137000000Y-114480000D01*
X120840000Y-122000000D02*
X120840000Y-119160000D01*
X137000000Y-114480000D02*
X141760000Y-114480000D01*
%TO.N,Net-(IC1-LRCLK2)*%
X165920000Y-136000000D02*
X165920000Y-129462950D01*
X154000000Y-87000000D02*
X143380000Y-76380000D01*
X154000000Y-118117050D02*
X154000000Y-110000000D01*
X157118050Y-120661000D02*
X156543950Y-120661000D01*
X165920000Y-129462950D02*
X157118050Y-120661000D01*
X143380000Y-76380000D02*
X141760000Y-76380000D01*
X156543950Y-120661000D02*
X154000000Y-118117050D01*
%TO.N,/SPI_SCK*%
X139000000Y-103000000D02*
X140540000Y-103000000D01*
X129000000Y-112000000D02*
X129000000Y-111962500D01*
X140540000Y-103000000D02*
X141760000Y-101780000D01*
X121000000Y-79700308D02*
X118299692Y-77000000D01*
X131000000Y-122000000D02*
X131000000Y-116000000D01*
X128000000Y-113000000D02*
X129000000Y-112000000D01*
X129000000Y-111962500D02*
X130962500Y-110000000D01*
X130962500Y-110000000D02*
X130962500Y-107962500D01*
X121000000Y-82000000D02*
X121000000Y-79700308D01*
X130962500Y-107962500D02*
X130000000Y-107000000D01*
X118299692Y-77000000D02*
X117950000Y-77000000D01*
%TO.N,Net-(IC1-BCLK2)*%
X156543950Y-110501000D02*
X152000000Y-105957050D01*
X152000000Y-87000000D02*
X143920000Y-78920000D01*
X143920000Y-78920000D02*
X141760000Y-78920000D01*
X158101000Y-119261000D02*
X158101000Y-111145950D01*
X158101000Y-111145950D02*
X157456050Y-110501000D01*
X152000000Y-105957050D02*
X152000000Y-105000000D01*
X165840000Y-127000000D02*
X158101000Y-119261000D01*
X157456050Y-110501000D02*
X156543950Y-110501000D01*
%TO.N,/SPI_MISO*%
X119000000Y-73000000D02*
X117950000Y-73000000D01*
X141760000Y-99240000D02*
X140659000Y-98139000D01*
X124000000Y-78000000D02*
X119000000Y-73000000D01*
X140659000Y-96659000D02*
X128000000Y-84000000D01*
X140659000Y-98139000D02*
X140659000Y-96659000D01*
%TO.N,Net-(IC1-OUT1D)*%
X150801000Y-97801000D02*
X147000000Y-94000000D01*
X157118050Y-97801000D02*
X150801000Y-97801000D01*
X165840000Y-108000000D02*
X165840000Y-106522950D01*
X147000000Y-88000000D02*
X143000000Y-84000000D01*
X165840000Y-106522950D02*
X157118050Y-97801000D01*
X143000000Y-84000000D02*
X141760000Y-84000000D01*
%TO.N,/SPI_MOSI*%
X132060000Y-87000000D02*
X132000000Y-87000000D01*
X119000000Y-75000000D02*
X117950000Y-75000000D01*
X121000000Y-77000000D02*
X119000000Y-75000000D01*
X129000000Y-84000000D02*
X129000000Y-82000000D01*
X141760000Y-96700000D02*
X132060000Y-87000000D01*
X132000000Y-87000000D02*
X129000000Y-84000000D01*
%TO.N,Net-(IC1-RX2)*%
X145401000Y-90181000D02*
X141760000Y-86540000D01*
X175080000Y-88000000D02*
X172899000Y-90181000D01*
X172899000Y-90181000D02*
X145401000Y-90181000D01*
D27*
%TO.N,Net-(J5-Pin_1)*%
X137000000Y-136920000D02*
X126000000Y-136920000D01*
X126000000Y-136920000D02*
X123920000Y-139000000D01*
D28*
%TO.N,Net-(J7-Pin_1)*%
X138000000Y-81000000D02*
X138000000Y-70000000D01*
X134000000Y-85000000D02*
X138000000Y-81000000D01*
X133000000Y-85000000D02*
X134000000Y-85000000D01*
%TO.N,Net-(U2-SCLK)*%
X120920000Y-129000000D02*
X120920000Y-125920000D01*
X120920000Y-125920000D02*
X118000000Y-123000000D01*
X118000000Y-115000000D02*
X127962500Y-115000000D01*
X118000000Y-123000000D02*
X118000000Y-115000000D01*
X127962500Y-115000000D02*
X132962500Y-110000000D01*
%TD*%
%TA.AperFunction,Conductor*%
%TO.N,GND*%
G36*
X128246591Y-82355464D02*
G01*
X128302524Y-82397336D01*
X128306358Y-82402754D01*
X128357342Y-82479057D01*
X128378602Y-82510874D01*
X128399480Y-82577552D01*
X128399500Y-82579765D01*
X128399500Y-83113444D01*
X128379815Y-83180483D01*
X128327011Y-83226238D01*
X128257853Y-83236182D01*
X128239575Y-83231202D01*
X128239324Y-83232031D01*
X128233500Y-83230264D01*
X128233497Y-83230263D01*
X128233492Y-83230262D01*
X128233489Y-83230261D01*
X128078845Y-83199500D01*
X128078842Y-83199500D01*
X127921158Y-83199500D01*
X127921155Y-83199500D01*
X127766510Y-83230261D01*
X127766498Y-83230264D01*
X127620827Y-83290602D01*
X127620814Y-83290609D01*
X127489711Y-83378210D01*
X127489707Y-83378213D01*
X127378213Y-83489707D01*
X127378210Y-83489711D01*
X127290609Y-83620814D01*
X127290602Y-83620827D01*
X127230264Y-83766498D01*
X127230261Y-83766510D01*
X127199500Y-83921153D01*
X127199500Y-84078846D01*
X127230261Y-84233489D01*
X127230264Y-84233501D01*
X127290602Y-84379172D01*
X127290609Y-84379185D01*
X127378210Y-84510288D01*
X127378213Y-84510292D01*
X127489707Y-84621786D01*
X127489711Y-84621789D01*
X127620814Y-84709390D01*
X127620827Y-84709397D01*
X127766498Y-84769735D01*
X127766503Y-84769737D01*
X127831147Y-84782595D01*
X127921849Y-84800638D01*
X127983760Y-84833023D01*
X127985339Y-84834574D01*
X134638584Y-91487819D01*
X134672069Y-91549142D01*
X134667085Y-91618834D01*
X134625213Y-91674767D01*
X134559749Y-91699184D01*
X134550903Y-91699500D01*
X134437648Y-91699500D01*
X134413329Y-91703351D01*
X134235465Y-91731522D01*
X134040776Y-91794781D01*
X133858386Y-91887715D01*
X133692786Y-92008028D01*
X133548028Y-92152786D01*
X133427715Y-92318386D01*
X133380485Y-92411080D01*
X133332510Y-92461876D01*
X133264689Y-92478671D01*
X133198554Y-92456134D01*
X133159515Y-92411080D01*
X133158883Y-92409840D01*
X133112287Y-92318390D01*
X133100096Y-92301610D01*
X132991971Y-92152786D01*
X132847213Y-92008028D01*
X132681613Y-91887715D01*
X132681612Y-91887714D01*
X132681610Y-91887713D01*
X132589817Y-91840942D01*
X132499223Y-91794781D01*
X132304534Y-91731522D01*
X132129995Y-91703878D01*
X132102352Y-91699500D01*
X131897648Y-91699500D01*
X131873329Y-91703351D01*
X131695465Y-91731522D01*
X131500776Y-91794781D01*
X131318386Y-91887715D01*
X131152786Y-92008028D01*
X131008028Y-92152786D01*
X130887715Y-92318386D01*
X130840485Y-92411080D01*
X130792510Y-92461876D01*
X130724689Y-92478671D01*
X130658554Y-92456134D01*
X130619515Y-92411080D01*
X130618883Y-92409840D01*
X130572287Y-92318390D01*
X130560096Y-92301610D01*
X130451971Y-92152786D01*
X130307213Y-92008028D01*
X130141613Y-91887715D01*
X130141612Y-91887714D01*
X130141610Y-91887713D01*
X130049817Y-91840942D01*
X129959223Y-91794781D01*
X129764534Y-91731522D01*
X129589995Y-91703878D01*
X129562352Y-91699500D01*
X129357648Y-91699500D01*
X129333329Y-91703351D01*
X129155465Y-91731522D01*
X128960773Y-91794782D01*
X128806364Y-91873458D01*
X128737695Y-91886354D01*
X128672955Y-91860077D01*
X128662389Y-91850654D01*
X127248415Y-90436680D01*
X127214930Y-90375357D01*
X127219914Y-90305665D01*
X127261786Y-90249732D01*
X127327250Y-90225315D01*
X127336096Y-90224999D01*
X127424972Y-90224999D01*
X127424986Y-90224998D01*
X127527697Y-90214505D01*
X127694119Y-90159358D01*
X127694124Y-90159356D01*
X127843345Y-90067315D01*
X127967315Y-89943345D01*
X128059356Y-89794124D01*
X128059358Y-89794119D01*
X128114505Y-89627697D01*
X128114506Y-89627690D01*
X128124999Y-89524986D01*
X128125000Y-89524973D01*
X128125000Y-89250000D01*
X127161500Y-89250000D01*
X127094461Y-89230315D01*
X127048706Y-89177511D01*
X127037500Y-89126000D01*
X127037500Y-89000000D01*
X126911500Y-89000000D01*
X126844461Y-88980315D01*
X126798706Y-88927511D01*
X126787500Y-88876000D01*
X126787500Y-88750000D01*
X127287500Y-88750000D01*
X128124999Y-88750000D01*
X128124999Y-88475028D01*
X128124998Y-88475013D01*
X128114505Y-88372302D01*
X128059358Y-88205880D01*
X128059356Y-88205875D01*
X127967315Y-88056654D01*
X127843345Y-87932684D01*
X127694124Y-87840643D01*
X127694119Y-87840641D01*
X127527697Y-87785494D01*
X127527690Y-87785493D01*
X127424986Y-87775000D01*
X127287500Y-87775000D01*
X127287500Y-88750000D01*
X126787500Y-88750000D01*
X126787500Y-87775000D01*
X126650027Y-87775000D01*
X126650012Y-87775001D01*
X126547302Y-87785494D01*
X126380880Y-87840641D01*
X126380875Y-87840643D01*
X126231654Y-87932684D01*
X126107683Y-88056655D01*
X126107679Y-88056660D01*
X126105826Y-88059665D01*
X126104018Y-88061290D01*
X126103202Y-88062323D01*
X126103025Y-88062183D01*
X126053874Y-88106385D01*
X125984911Y-88117601D01*
X125920831Y-88089752D01*
X125894753Y-88059653D01*
X125894737Y-88059628D01*
X125892712Y-88056344D01*
X125768656Y-87932288D01*
X125621902Y-87841770D01*
X125575179Y-87789823D01*
X125563000Y-87736232D01*
X125563000Y-84987904D01*
X125582685Y-84920865D01*
X125599314Y-84900228D01*
X128115578Y-82383963D01*
X128176899Y-82350480D01*
X128246591Y-82355464D01*
G37*
%TD.AperFunction*%
%TA.AperFunction,Conductor*%
G36*
X177442539Y-67520185D02*
G01*
X177488294Y-67572989D01*
X177499500Y-67624500D01*
X177499500Y-146375500D01*
X177479815Y-146442539D01*
X177427011Y-146488294D01*
X177375500Y-146499500D01*
X114624500Y-146499500D01*
X114557461Y-146479815D01*
X114511706Y-146427011D01*
X114500500Y-146375500D01*
X114500500Y-92897648D01*
X115459500Y-92897648D01*
X115459500Y-93102351D01*
X115491522Y-93304534D01*
X115554781Y-93499223D01*
X115616736Y-93620814D01*
X115634546Y-93655769D01*
X115647715Y-93681613D01*
X115768028Y-93847213D01*
X115912786Y-93991971D01*
X116032362Y-94078846D01*
X116078390Y-94112287D01*
X116157864Y-94152781D01*
X116260776Y-94205218D01*
X116260778Y-94205218D01*
X116260781Y-94205220D01*
X116347784Y-94233489D01*
X116455465Y-94268477D01*
X116556557Y-94284488D01*
X116657648Y-94300500D01*
X116657649Y-94300500D01*
X116862351Y-94300500D01*
X116862352Y-94300500D01*
X117064534Y-94268477D01*
X117259219Y-94205220D01*
X117441610Y-94112287D01*
X117534590Y-94044732D01*
X117607213Y-93991971D01*
X117607215Y-93991968D01*
X117607219Y-93991966D01*
X117751966Y-93847219D01*
X117751968Y-93847215D01*
X117751971Y-93847213D01*
X117872284Y-93681614D01*
X117872285Y-93681613D01*
X117872287Y-93681610D01*
X117919516Y-93588917D01*
X117967489Y-93538123D01*
X118035310Y-93521328D01*
X118101445Y-93543865D01*
X118140483Y-93588917D01*
X118174546Y-93655769D01*
X118187715Y-93681614D01*
X118308028Y-93847213D01*
X118452786Y-93991971D01*
X118572362Y-94078846D01*
X118618390Y-94112287D01*
X118697864Y-94152781D01*
X118800776Y-94205218D01*
X118800778Y-94205218D01*
X118800781Y-94205220D01*
X118887784Y-94233489D01*
X118995465Y-94268477D01*
X119096557Y-94284488D01*
X119197648Y-94300500D01*
X119197649Y-94300500D01*
X119402351Y-94300500D01*
X119402352Y-94300500D01*
X119604534Y-94268477D01*
X119799219Y-94205220D01*
X119981610Y-94112287D01*
X120074590Y-94044732D01*
X120147213Y-93991971D01*
X120147215Y-93991968D01*
X120147219Y-93991966D01*
X120291966Y-93847219D01*
X120291968Y-93847215D01*
X120291971Y-93847213D01*
X120412284Y-93681614D01*
X120412285Y-93681613D01*
X120412287Y-93681610D01*
X120459516Y-93588917D01*
X120507489Y-93538123D01*
X120575310Y-93521328D01*
X120641445Y-93543865D01*
X120680483Y-93588917D01*
X120714546Y-93655769D01*
X120727715Y-93681614D01*
X120848028Y-93847213D01*
X120992786Y-93991971D01*
X121112362Y-94078846D01*
X121158390Y-94112287D01*
X121237864Y-94152781D01*
X121340776Y-94205218D01*
X121340778Y-94205218D01*
X121340781Y-94205220D01*
X121427784Y-94233489D01*
X121535465Y-94268477D01*
X121636557Y-94284488D01*
X121737648Y-94300500D01*
X121737649Y-94300500D01*
X121942351Y-94300500D01*
X121942352Y-94300500D01*
X122144534Y-94268477D01*
X122339219Y-94205220D01*
X122521610Y-94112287D01*
X122614590Y-94044732D01*
X122687213Y-93991971D01*
X122687215Y-93991968D01*
X122687219Y-93991966D01*
X122831966Y-93847219D01*
X122831968Y-93847215D01*
X122831971Y-93847213D01*
X122952284Y-93681614D01*
X122952285Y-93681613D01*
X122952287Y-93681610D01*
X122999516Y-93588917D01*
X123047489Y-93538123D01*
X123115310Y-93521328D01*
X123181445Y-93543865D01*
X123220483Y-93588917D01*
X123254546Y-93655769D01*
X123267715Y-93681614D01*
X123388028Y-93847213D01*
X123532786Y-93991971D01*
X123652362Y-94078846D01*
X123698390Y-94112287D01*
X123777864Y-94152781D01*
X123880776Y-94205218D01*
X123880778Y-94205218D01*
X123880781Y-94205220D01*
X123967784Y-94233489D01*
X124075465Y-94268477D01*
X124176557Y-94284488D01*
X124277648Y-94300500D01*
X124277649Y-94300500D01*
X124482351Y-94300500D01*
X124482352Y-94300500D01*
X124684534Y-94268477D01*
X124879219Y-94205220D01*
X125061610Y-94112287D01*
X125154590Y-94044732D01*
X125227213Y-93991971D01*
X125227215Y-93991968D01*
X125227219Y-93991966D01*
X125371966Y-93847219D01*
X125371968Y-93847215D01*
X125371971Y-93847213D01*
X125492284Y-93681614D01*
X125492285Y-93681613D01*
X125492287Y-93681610D01*
X125539516Y-93588917D01*
X125587489Y-93538123D01*
X125655310Y-93521328D01*
X125721445Y-93543865D01*
X125760483Y-93588917D01*
X125794546Y-93655769D01*
X125807715Y-93681614D01*
X125928028Y-93847213D01*
X126072786Y-93991971D01*
X126192362Y-94078846D01*
X126238390Y-94112287D01*
X126317864Y-94152781D01*
X126420776Y-94205218D01*
X126420778Y-94205218D01*
X126420781Y-94205220D01*
X126507784Y-94233489D01*
X126615465Y-94268477D01*
X126716557Y-94284488D01*
X126817648Y-94300500D01*
X126817649Y-94300500D01*
X127010902Y-94300500D01*
X127077941Y-94320185D01*
X127123696Y-94372989D01*
X127133640Y-94442147D01*
X127104615Y-94505703D01*
X127098583Y-94512181D01*
X122284842Y-99325921D01*
X122223519Y-99359406D01*
X122158848Y-99356173D01*
X122144534Y-99351522D01*
X121969995Y-99323878D01*
X121942352Y-99319500D01*
X121737648Y-99319500D01*
X121713329Y-99323351D01*
X121535465Y-99351522D01*
X121340776Y-99414781D01*
X121158386Y-99507715D01*
X120992786Y-99628028D01*
X120848028Y-99772786D01*
X120727715Y-99938386D01*
X120680485Y-100031080D01*
X120632510Y-100081876D01*
X120564689Y-100098671D01*
X120498554Y-100076134D01*
X120459515Y-100031080D01*
X120453861Y-100019983D01*
X120412287Y-99938390D01*
X120391019Y-99909117D01*
X120291971Y-99772786D01*
X120147213Y-99628028D01*
X119981613Y-99507715D01*
X119981612Y-99507714D01*
X119981610Y-99507713D01*
X119921898Y-99477288D01*
X119799223Y-99414781D01*
X119604534Y-99351522D01*
X119429995Y-99323878D01*
X119402352Y-99319500D01*
X119197648Y-99319500D01*
X119173329Y-99323351D01*
X118995465Y-99351522D01*
X118800776Y-99414781D01*
X118618386Y-99507715D01*
X118452786Y-99628028D01*
X118308032Y-99772782D01*
X118308028Y-99772787D01*
X118239978Y-99866451D01*
X118184648Y-99909117D01*
X118115035Y-99915096D01*
X118053240Y-99882490D01*
X118021954Y-99832570D01*
X117994814Y-99750666D01*
X117902712Y-99601344D01*
X117778656Y-99477288D01*
X117629334Y-99385186D01*
X117462797Y-99330001D01*
X117462795Y-99330000D01*
X117360010Y-99319500D01*
X116159998Y-99319500D01*
X116159981Y-99319501D01*
X116057203Y-99330000D01*
X116057200Y-99330001D01*
X115890668Y-99385185D01*
X115890663Y-99385187D01*
X115741342Y-99477289D01*
X115617289Y-99601342D01*
X115525187Y-99750663D01*
X115525186Y-99750666D01*
X115470001Y-99917203D01*
X115470001Y-99917204D01*
X115470000Y-99917204D01*
X115459500Y-100019983D01*
X115459500Y-101220001D01*
X115459501Y-101220018D01*
X115470000Y-101322796D01*
X115470001Y-101322799D01*
X115486818Y-101373548D01*
X115525186Y-101489334D01*
X115617288Y-101638656D01*
X115741344Y-101762712D01*
X115890666Y-101854814D01*
X116057203Y-101909999D01*
X116159991Y-101920500D01*
X117360008Y-101920499D01*
X117462797Y-101909999D01*
X117629334Y-101854814D01*
X117778656Y-101762712D01*
X117902712Y-101638656D01*
X117994814Y-101489334D01*
X118021955Y-101407427D01*
X118061726Y-101349984D01*
X118126242Y-101323161D01*
X118195018Y-101335476D01*
X118239977Y-101373547D01*
X118308030Y-101467213D01*
X118308034Y-101467219D01*
X118452786Y-101611971D01*
X118607749Y-101724556D01*
X118618390Y-101732287D01*
X118699499Y-101773614D01*
X118800776Y-101825218D01*
X118800778Y-101825218D01*
X118800781Y-101825220D01*
X118875818Y-101849601D01*
X118995465Y-101888477D01*
X119096557Y-101904488D01*
X119197648Y-101920500D01*
X119197649Y-101920500D01*
X119402351Y-101920500D01*
X119402352Y-101920500D01*
X119604534Y-101888477D01*
X119799219Y-101825220D01*
X119981610Y-101732287D01*
X120110482Y-101638657D01*
X120147213Y-101611971D01*
X120147215Y-101611968D01*
X120147219Y-101611966D01*
X120291966Y-101467219D01*
X120291968Y-101467215D01*
X120291971Y-101467213D01*
X120412284Y-101301614D01*
X120412285Y-101301613D01*
X120412287Y-101301610D01*
X120459516Y-101208917D01*
X120507489Y-101158123D01*
X120575310Y-101141328D01*
X120641445Y-101163865D01*
X120680483Y-101208917D01*
X120686140Y-101220018D01*
X120727715Y-101301614D01*
X120848028Y-101467213D01*
X120992786Y-101611971D01*
X121147749Y-101724556D01*
X121158390Y-101732287D01*
X121239499Y-101773614D01*
X121340776Y-101825218D01*
X121340778Y-101825218D01*
X121340781Y-101825220D01*
X121415818Y-101849601D01*
X121535465Y-101888477D01*
X121636557Y-101904488D01*
X121737648Y-101920500D01*
X121737649Y-101920500D01*
X121942351Y-101920500D01*
X121942352Y-101920500D01*
X122144534Y-101888477D01*
X122158842Y-101883827D01*
X122228682Y-101881831D01*
X122284842Y-101914077D01*
X124933584Y-104562819D01*
X124967069Y-104624142D01*
X124962085Y-104693834D01*
X124920213Y-104749767D01*
X124854749Y-104774184D01*
X124845903Y-104774500D01*
X124574999Y-104774500D01*
X124574980Y-104774501D01*
X124472203Y-104785000D01*
X124472200Y-104785001D01*
X124305668Y-104840185D01*
X124305663Y-104840187D01*
X124156342Y-104932289D01*
X124032289Y-105056342D01*
X123940187Y-105205663D01*
X123940186Y-105205666D01*
X123907541Y-105304184D01*
X123904121Y-105314504D01*
X123864348Y-105371949D01*
X123799833Y-105398772D01*
X123786415Y-105399500D01*
X122883442Y-105399500D01*
X122730714Y-105440423D01*
X122711460Y-105451539D01*
X122706299Y-105454520D01*
X122663006Y-105479515D01*
X122593785Y-105519479D01*
X122593782Y-105519481D01*
X122481978Y-105631286D01*
X119325082Y-108788181D01*
X119263759Y-108821666D01*
X119237401Y-108824500D01*
X118239629Y-108824500D01*
X118239623Y-108824501D01*
X118180016Y-108830908D01*
X118045171Y-108881202D01*
X118045164Y-108881206D01*
X117929955Y-108967452D01*
X117929952Y-108967455D01*
X117843706Y-109082664D01*
X117843702Y-109082671D01*
X117793408Y-109217517D01*
X117787001Y-109277116D01*
X117787000Y-109277135D01*
X117787000Y-110722870D01*
X117787001Y-110722876D01*
X117793408Y-110782483D01*
X117843702Y-110917328D01*
X117843706Y-110917335D01*
X117929952Y-111032544D01*
X117929955Y-111032547D01*
X118045164Y-111118793D01*
X118045171Y-111118797D01*
X118180017Y-111169091D01*
X118180016Y-111169091D01*
X118186944Y-111169835D01*
X118239627Y-111175500D01*
X119685372Y-111175499D01*
X119744983Y-111169091D01*
X119879831Y-111118796D01*
X119995046Y-111032546D01*
X120058741Y-110947459D01*
X120114674Y-110905590D01*
X120184366Y-110900606D01*
X120230892Y-110921453D01*
X120346404Y-111005378D01*
X120427263Y-111046577D01*
X120511264Y-111089379D01*
X120511267Y-111089380D01*
X120599250Y-111117967D01*
X120687236Y-111146555D01*
X120869986Y-111175500D01*
X120869987Y-111175500D01*
X121055013Y-111175500D01*
X121055014Y-111175500D01*
X121237764Y-111146555D01*
X121413735Y-111089379D01*
X121578596Y-111005378D01*
X121728287Y-110896621D01*
X121859121Y-110765787D01*
X121862180Y-110761576D01*
X121917506Y-110718909D01*
X121987119Y-110712926D01*
X122048915Y-110745529D01*
X122062815Y-110761570D01*
X122065879Y-110765787D01*
X122196713Y-110896621D01*
X122346404Y-111005378D01*
X122427263Y-111046577D01*
X122511264Y-111089379D01*
X122511267Y-111089380D01*
X122599250Y-111117967D01*
X122687236Y-111146555D01*
X122869986Y-111175500D01*
X122869987Y-111175500D01*
X123055013Y-111175500D01*
X123055014Y-111175500D01*
X123237764Y-111146555D01*
X123413735Y-111089379D01*
X123578596Y-111005378D01*
X123728287Y-110896621D01*
X123859121Y-110765787D01*
X123862180Y-110761576D01*
X123917506Y-110718909D01*
X123987119Y-110712926D01*
X124048915Y-110745529D01*
X124062815Y-110761570D01*
X124065879Y-110765787D01*
X124196713Y-110896621D01*
X124346404Y-111005378D01*
X124427263Y-111046577D01*
X124511264Y-111089379D01*
X124511267Y-111089380D01*
X124599250Y-111117967D01*
X124687236Y-111146555D01*
X124869986Y-111175500D01*
X124869987Y-111175500D01*
X125055013Y-111175500D01*
X125055014Y-111175500D01*
X125237764Y-111146555D01*
X125413735Y-111089379D01*
X125578596Y-111005378D01*
X125728287Y-110896621D01*
X125859121Y-110765787D01*
X125862180Y-110761576D01*
X125917506Y-110718909D01*
X125987119Y-110712926D01*
X126048915Y-110745529D01*
X126062815Y-110761570D01*
X126065879Y-110765787D01*
X126196713Y-110896621D01*
X126346404Y-111005378D01*
X126427263Y-111046577D01*
X126511264Y-111089379D01*
X126511267Y-111089380D01*
X126599250Y-111117967D01*
X126687236Y-111146555D01*
X126869986Y-111175500D01*
X126869987Y-111175500D01*
X127055013Y-111175500D01*
X127055014Y-111175500D01*
X127237764Y-111146555D01*
X127413735Y-111089379D01*
X127578596Y-111005378D01*
X127728287Y-110896621D01*
X127859121Y-110765787D01*
X127862180Y-110761576D01*
X127917506Y-110718909D01*
X127987119Y-110712926D01*
X128048915Y-110745529D01*
X128062815Y-110761570D01*
X128065879Y-110765787D01*
X128196713Y-110896621D01*
X128346404Y-111005378D01*
X128427263Y-111046577D01*
X128511264Y-111089379D01*
X128511267Y-111089380D01*
X128593330Y-111116043D01*
X128687236Y-111146555D01*
X128688117Y-111146694D01*
X128688426Y-111146841D01*
X128691967Y-111147691D01*
X128691788Y-111148434D01*
X128699498Y-111152088D01*
X128712065Y-111152987D01*
X128730474Y-111166767D01*
X128751253Y-111176615D01*
X128757912Y-111187307D01*
X128767999Y-111194858D01*
X128776035Y-111216403D01*
X128788192Y-111235922D01*
X128788013Y-111248518D01*
X128792416Y-111260322D01*
X128787528Y-111282789D01*
X128787203Y-111305784D01*
X128779886Y-111317919D01*
X128777564Y-111328595D01*
X128756414Y-111356850D01*
X128631286Y-111481978D01*
X128631285Y-111481978D01*
X128631284Y-111481979D01*
X128519481Y-111593782D01*
X128519477Y-111593787D01*
X128476419Y-111668368D01*
X128456713Y-111694049D01*
X127985339Y-112165425D01*
X127924016Y-112198910D01*
X127921850Y-112199361D01*
X127766508Y-112230261D01*
X127766498Y-112230264D01*
X127620827Y-112290602D01*
X127620814Y-112290609D01*
X127489711Y-112378210D01*
X127489707Y-112378213D01*
X127378213Y-112489707D01*
X127378210Y-112489711D01*
X127290609Y-112620814D01*
X127290602Y-112620827D01*
X127230264Y-112766498D01*
X127230261Y-112766510D01*
X127199500Y-112921153D01*
X127199500Y-113078846D01*
X127230261Y-113233489D01*
X127230264Y-113233501D01*
X127290602Y-113379172D01*
X127290609Y-113379185D01*
X127378210Y-113510288D01*
X127378213Y-113510292D01*
X127489707Y-113621786D01*
X127489711Y-113621789D01*
X127620814Y-113709390D01*
X127620827Y-113709397D01*
X127766498Y-113769735D01*
X127766503Y-113769737D01*
X127921153Y-113800499D01*
X127921156Y-113800500D01*
X128013402Y-113800500D01*
X128080441Y-113820185D01*
X128126196Y-113872989D01*
X128136140Y-113942147D01*
X128107115Y-114005703D01*
X128101083Y-114012181D01*
X127750084Y-114363181D01*
X127688761Y-114396666D01*
X127662403Y-114399500D01*
X117920943Y-114399500D01*
X117768216Y-114440423D01*
X117768209Y-114440426D01*
X117631290Y-114519475D01*
X117631282Y-114519481D01*
X117519481Y-114631282D01*
X117519475Y-114631290D01*
X117440426Y-114768209D01*
X117440423Y-114768216D01*
X117399500Y-114920943D01*
X117399500Y-122913330D01*
X117399499Y-122913348D01*
X117399499Y-123079054D01*
X117399498Y-123079054D01*
X117399499Y-123079057D01*
X117440423Y-123231785D01*
X117456433Y-123259515D01*
X117469358Y-123281900D01*
X117469359Y-123281904D01*
X117469360Y-123281904D01*
X117519479Y-123368714D01*
X117519481Y-123368717D01*
X117638349Y-123487585D01*
X117638355Y-123487590D01*
X120283181Y-126132416D01*
X120316666Y-126193739D01*
X120319500Y-126220097D01*
X120319500Y-127770397D01*
X120299815Y-127837436D01*
X120251800Y-127880879D01*
X120238389Y-127887712D01*
X120072786Y-128008028D01*
X119928028Y-128152786D01*
X119807715Y-128318386D01*
X119714781Y-128500776D01*
X119651522Y-128695465D01*
X119619500Y-128897648D01*
X119619500Y-129102351D01*
X119651522Y-129304534D01*
X119714781Y-129499223D01*
X119807715Y-129681613D01*
X119928028Y-129847213D01*
X120072786Y-129991971D01*
X120227749Y-130104556D01*
X120238390Y-130112287D01*
X120354607Y-130171503D01*
X120420776Y-130205218D01*
X120420778Y-130205218D01*
X120420781Y-130205220D01*
X120463878Y-130219223D01*
X120615465Y-130268477D01*
X120716557Y-130284488D01*
X120817648Y-130300500D01*
X120817649Y-130300500D01*
X121022351Y-130300500D01*
X121022352Y-130300500D01*
X121224534Y-130268477D01*
X121419219Y-130205220D01*
X121601610Y-130112287D01*
X121722393Y-130024534D01*
X121767213Y-129991971D01*
X121767215Y-129991968D01*
X121767219Y-129991966D01*
X121911966Y-129847219D01*
X121911968Y-129847215D01*
X121911971Y-129847213D01*
X122010436Y-129711685D01*
X122032287Y-129681610D01*
X122125220Y-129499219D01*
X122188477Y-129304534D01*
X122220500Y-129102352D01*
X122220500Y-128897648D01*
X122193635Y-128728034D01*
X122188477Y-128695465D01*
X122131934Y-128521446D01*
X122125220Y-128500781D01*
X122125218Y-128500778D01*
X122125218Y-128500776D01*
X122089749Y-128431165D01*
X122032287Y-128318390D01*
X122014419Y-128293796D01*
X121911971Y-128152786D01*
X121767213Y-128008028D01*
X121601610Y-127887712D01*
X121588200Y-127880879D01*
X121537406Y-127832903D01*
X121520500Y-127770397D01*
X121520500Y-126009060D01*
X121520501Y-126009047D01*
X121520501Y-125840944D01*
X121507508Y-125792454D01*
X121479577Y-125688216D01*
X121447104Y-125631971D01*
X121400524Y-125551290D01*
X121400518Y-125551282D01*
X118636819Y-122787583D01*
X118603334Y-122726260D01*
X118600500Y-122699902D01*
X118600500Y-115724500D01*
X118620185Y-115657461D01*
X118672989Y-115611706D01*
X118724500Y-115600500D01*
X126780502Y-115600500D01*
X126847541Y-115620185D01*
X126893296Y-115672989D01*
X126903240Y-115742147D01*
X126874215Y-115805703D01*
X126868183Y-115812181D01*
X125317184Y-117363181D01*
X125255861Y-117396666D01*
X125229503Y-117399500D01*
X122086670Y-117399500D01*
X122086654Y-117399499D01*
X122079058Y-117399499D01*
X121920943Y-117399499D01*
X121844579Y-117419961D01*
X121768214Y-117440423D01*
X121768209Y-117440426D01*
X121631290Y-117519475D01*
X121631282Y-117519481D01*
X120359481Y-118791282D01*
X120359475Y-118791290D01*
X120319498Y-118860534D01*
X120319498Y-118860536D01*
X120280423Y-118928214D01*
X120280423Y-118928215D01*
X120239499Y-119080943D01*
X120239499Y-119080945D01*
X120239499Y-119249046D01*
X120239500Y-119249059D01*
X120239500Y-120770397D01*
X120219815Y-120837436D01*
X120171800Y-120880879D01*
X120158389Y-120887712D01*
X119992786Y-121008028D01*
X119848028Y-121152786D01*
X119727715Y-121318386D01*
X119634781Y-121500776D01*
X119571522Y-121695465D01*
X119539500Y-121897648D01*
X119539500Y-122102351D01*
X119571522Y-122304534D01*
X119634781Y-122499223D01*
X119727715Y-122681613D01*
X119848028Y-122847213D01*
X119992786Y-122991971D01*
X120112648Y-123079054D01*
X120158390Y-123112287D01*
X120274607Y-123171503D01*
X120340776Y-123205218D01*
X120340778Y-123205218D01*
X120340781Y-123205220D01*
X120422540Y-123231785D01*
X120535465Y-123268477D01*
X120620214Y-123281900D01*
X120737648Y-123300500D01*
X120737649Y-123300500D01*
X120942351Y-123300500D01*
X120942352Y-123300500D01*
X121144534Y-123268477D01*
X121339219Y-123205220D01*
X121521610Y-123112287D01*
X121614590Y-123044732D01*
X121687213Y-122991971D01*
X121687215Y-122991968D01*
X121687219Y-122991966D01*
X121831966Y-122847219D01*
X121831968Y-122847215D01*
X121831971Y-122847213D01*
X121901681Y-122751264D01*
X121952287Y-122681610D01*
X122045220Y-122499219D01*
X122108477Y-122304534D01*
X122140500Y-122102352D01*
X122140500Y-121897648D01*
X122108477Y-121695466D01*
X122045220Y-121500781D01*
X122045218Y-121500778D01*
X122045218Y-121500776D01*
X122011503Y-121434607D01*
X121952287Y-121318390D01*
X121944556Y-121307749D01*
X121831971Y-121152786D01*
X121687213Y-121008028D01*
X121521610Y-120887712D01*
X121508200Y-120880879D01*
X121457406Y-120832903D01*
X121440500Y-120770397D01*
X121440500Y-119460097D01*
X121460185Y-119393058D01*
X121476819Y-119372416D01*
X122212417Y-118636819D01*
X122273740Y-118603334D01*
X122300098Y-118600500D01*
X125442931Y-118600500D01*
X125442947Y-118600501D01*
X125450543Y-118600501D01*
X125608654Y-118600501D01*
X125608657Y-118600501D01*
X125761385Y-118559577D01*
X125811504Y-118530639D01*
X125898316Y-118480520D01*
X126010120Y-118368716D01*
X126010120Y-118368714D01*
X126020328Y-118358507D01*
X126020329Y-118358504D01*
X129262017Y-115116819D01*
X129323340Y-115083334D01*
X129349698Y-115080500D01*
X130526493Y-115080500D01*
X130593532Y-115100185D01*
X130639287Y-115152989D01*
X130649231Y-115222147D01*
X130620206Y-115285703D01*
X130595384Y-115307602D01*
X130489711Y-115378210D01*
X130489707Y-115378213D01*
X130378213Y-115489707D01*
X130378210Y-115489711D01*
X130290609Y-115620814D01*
X130290602Y-115620827D01*
X130230264Y-115766498D01*
X130230261Y-115766510D01*
X130199500Y-115921153D01*
X130199500Y-116078846D01*
X130230261Y-116233489D01*
X130230264Y-116233501D01*
X130290602Y-116379172D01*
X130290609Y-116379185D01*
X130378602Y-116510874D01*
X130399480Y-116577551D01*
X130399500Y-116579765D01*
X130399500Y-120770397D01*
X130379815Y-120837436D01*
X130331800Y-120880879D01*
X130318389Y-120887712D01*
X130152786Y-121008028D01*
X130008028Y-121152786D01*
X129887715Y-121318386D01*
X129794781Y-121500776D01*
X129731522Y-121695465D01*
X129699500Y-121897648D01*
X129699500Y-122102351D01*
X129731522Y-122304534D01*
X129794781Y-122499223D01*
X129887715Y-122681613D01*
X130008028Y-122847213D01*
X130152786Y-122991971D01*
X130272648Y-123079054D01*
X130318390Y-123112287D01*
X130434607Y-123171503D01*
X130500776Y-123205218D01*
X130500778Y-123205218D01*
X130500781Y-123205220D01*
X130582540Y-123231785D01*
X130695465Y-123268477D01*
X130780214Y-123281900D01*
X130897648Y-123300500D01*
X130897649Y-123300500D01*
X131102351Y-123300500D01*
X131102352Y-123300500D01*
X131304534Y-123268477D01*
X131499219Y-123205220D01*
X131681610Y-123112287D01*
X131774590Y-123044732D01*
X131847213Y-122991971D01*
X131847215Y-122991968D01*
X131847219Y-122991966D01*
X131991966Y-122847219D01*
X131991968Y-122847215D01*
X131991971Y-122847213D01*
X132061681Y-122751264D01*
X132112287Y-122681610D01*
X132205220Y-122499219D01*
X132268477Y-122304534D01*
X132300500Y-122102352D01*
X132300500Y-121897648D01*
X132268477Y-121695466D01*
X132205220Y-121500781D01*
X132205218Y-121500778D01*
X132205218Y-121500776D01*
X132171503Y-121434607D01*
X132112287Y-121318390D01*
X132104556Y-121307749D01*
X131991971Y-121152786D01*
X131847213Y-121008028D01*
X131681610Y-120887712D01*
X131668200Y-120880879D01*
X131617406Y-120832903D01*
X131600500Y-120770397D01*
X131600500Y-116579765D01*
X131620185Y-116512726D01*
X131621398Y-116510874D01*
X131709390Y-116379185D01*
X131709390Y-116379184D01*
X131709394Y-116379179D01*
X131716287Y-116362539D01*
X131769735Y-116233501D01*
X131769737Y-116233497D01*
X131800500Y-116078842D01*
X131800500Y-115921158D01*
X131800500Y-115921155D01*
X131800499Y-115921153D01*
X131797816Y-115907664D01*
X131769737Y-115766503D01*
X131762447Y-115748904D01*
X131709397Y-115620827D01*
X131709390Y-115620814D01*
X131621789Y-115489711D01*
X131621786Y-115489707D01*
X131510292Y-115378213D01*
X131510288Y-115378210D01*
X131404616Y-115307602D01*
X131359811Y-115253990D01*
X131351104Y-115184665D01*
X131381258Y-115121637D01*
X131440702Y-115084918D01*
X131473507Y-115080500D01*
X135082152Y-115080500D01*
X135149191Y-115100185D01*
X135194946Y-115152989D01*
X135203769Y-115180308D01*
X135230261Y-115313491D01*
X135230264Y-115313501D01*
X135290602Y-115459172D01*
X135290609Y-115459185D01*
X135378210Y-115590288D01*
X135378213Y-115590292D01*
X135489707Y-115701786D01*
X135489711Y-115701789D01*
X135620814Y-115789390D01*
X135620827Y-115789397D01*
X135755972Y-115845375D01*
X135766503Y-115849737D01*
X135831147Y-115862595D01*
X135921849Y-115880638D01*
X135983760Y-115913023D01*
X135985339Y-115914574D01*
X136325681Y-116254916D01*
X136359166Y-116316239D01*
X136362000Y-116342597D01*
X136362000Y-117736232D01*
X136342315Y-117803271D01*
X136303098Y-117841769D01*
X136241454Y-117879792D01*
X136156342Y-117932289D01*
X136032289Y-118056342D01*
X135940187Y-118205663D01*
X135940185Y-118205668D01*
X135935229Y-118220624D01*
X135885001Y-118372203D01*
X135885001Y-118372204D01*
X135885000Y-118372204D01*
X135874500Y-118474983D01*
X135874500Y-119525001D01*
X135874501Y-119525019D01*
X135885000Y-119627796D01*
X135885001Y-119627799D01*
X135896451Y-119662351D01*
X135940186Y-119794334D01*
X136032288Y-119943656D01*
X136156344Y-120067712D01*
X136305666Y-120159814D01*
X136472203Y-120214999D01*
X136574991Y-120225500D01*
X137350008Y-120225499D01*
X137350016Y-120225498D01*
X137350019Y-120225498D01*
X137406302Y-120219748D01*
X137452797Y-120214999D01*
X137619334Y-120159814D01*
X137768656Y-120067712D01*
X137892712Y-119943656D01*
X137894461Y-119940819D01*
X137896169Y-119939283D01*
X137897193Y-119937989D01*
X137897414Y-119938163D01*
X137946406Y-119894096D01*
X138015368Y-119882872D01*
X138079451Y-119910713D01*
X138105537Y-119940817D01*
X138107288Y-119943656D01*
X138231344Y-120067712D01*
X138380666Y-120159814D01*
X138470176Y-120189474D01*
X138527620Y-120229247D01*
X138554443Y-120293763D01*
X138542128Y-120362538D01*
X138518852Y-120394861D01*
X131250533Y-127663181D01*
X131189210Y-127696666D01*
X131162852Y-127699500D01*
X130977648Y-127699500D01*
X130953329Y-127703351D01*
X130775465Y-127731522D01*
X130580776Y-127794781D01*
X130398386Y-127887715D01*
X130232786Y-128008028D01*
X130088028Y-128152786D01*
X129967715Y-128318386D01*
X129874781Y-128500776D01*
X129811522Y-128695465D01*
X129779500Y-128897648D01*
X129779500Y-129102351D01*
X129811522Y-129304534D01*
X129874781Y-129499223D01*
X129967715Y-129681613D01*
X130088028Y-129847213D01*
X130232786Y-129991971D01*
X130387749Y-130104556D01*
X130398390Y-130112287D01*
X130514607Y-130171503D01*
X130580776Y-130205218D01*
X130580778Y-130205218D01*
X130580781Y-130205220D01*
X130623878Y-130219223D01*
X130775465Y-130268477D01*
X130876557Y-130284488D01*
X130977648Y-130300500D01*
X130977649Y-130300500D01*
X131182351Y-130300500D01*
X131182352Y-130300500D01*
X131384534Y-130268477D01*
X131579219Y-130205220D01*
X131761610Y-130112287D01*
X131882393Y-130024534D01*
X131927213Y-129991971D01*
X131927215Y-129991968D01*
X131927219Y-129991966D01*
X132071966Y-129847219D01*
X132071968Y-129847215D01*
X132071971Y-129847213D01*
X132170436Y-129711685D01*
X132192287Y-129681610D01*
X132285220Y-129499219D01*
X132348477Y-129304534D01*
X132380500Y-129102352D01*
X132380500Y-128897648D01*
X132348477Y-128695466D01*
X132348476Y-128695462D01*
X132348476Y-128695461D01*
X132285221Y-128500783D01*
X132267450Y-128465905D01*
X132254554Y-128397235D01*
X132280830Y-128332495D01*
X132290245Y-128321938D01*
X140433486Y-120178697D01*
X140494807Y-120145214D01*
X140564499Y-120150198D01*
X140620432Y-120192070D01*
X140631649Y-120210084D01*
X140647713Y-120241611D01*
X140768028Y-120407213D01*
X140912786Y-120551971D01*
X141025872Y-120634131D01*
X141078390Y-120672287D01*
X141169840Y-120718883D01*
X141171080Y-120719515D01*
X141221876Y-120767490D01*
X141238671Y-120835311D01*
X141216134Y-120901446D01*
X141171080Y-120940485D01*
X141078386Y-120987715D01*
X140912786Y-121108028D01*
X140768028Y-121252786D01*
X140647715Y-121418386D01*
X140554781Y-121600776D01*
X140491522Y-121795465D01*
X140459500Y-121997648D01*
X140459500Y-122202351D01*
X140491522Y-122404534D01*
X140554781Y-122599223D01*
X140647715Y-122781613D01*
X140768028Y-122947213D01*
X140912786Y-123091971D01*
X141067749Y-123204556D01*
X141078390Y-123212287D01*
X141169840Y-123258883D01*
X141171080Y-123259515D01*
X141221876Y-123307490D01*
X141238671Y-123375311D01*
X141216134Y-123441446D01*
X141171080Y-123480485D01*
X141078386Y-123527715D01*
X140912786Y-123648028D01*
X140768028Y-123792786D01*
X140647715Y-123958386D01*
X140554781Y-124140776D01*
X140491522Y-124335465D01*
X140459500Y-124537648D01*
X140459500Y-124742351D01*
X140491522Y-124944534D01*
X140554781Y-125139223D01*
X140647715Y-125321613D01*
X140768028Y-125487213D01*
X140912786Y-125631971D01*
X141014964Y-125706206D01*
X141078390Y-125752287D01*
X141157218Y-125792452D01*
X141171080Y-125799515D01*
X141221876Y-125847490D01*
X141238671Y-125915311D01*
X141216134Y-125981446D01*
X141171080Y-126020485D01*
X141078386Y-126067715D01*
X140912786Y-126188028D01*
X140768028Y-126332786D01*
X140647715Y-126498386D01*
X140554781Y-126680776D01*
X140491522Y-126875465D01*
X140459500Y-127077648D01*
X140459500Y-127282351D01*
X140491522Y-127484534D01*
X140554781Y-127679223D01*
X140613661Y-127794780D01*
X140639955Y-127846385D01*
X140647715Y-127861613D01*
X140768028Y-128027213D01*
X140912786Y-128171971D01*
X141067749Y-128284556D01*
X141078390Y-128292287D01*
X141136566Y-128321929D01*
X141171080Y-128339515D01*
X141221876Y-128387490D01*
X141238671Y-128455311D01*
X141216134Y-128521446D01*
X141171080Y-128560485D01*
X141078386Y-128607715D01*
X140912786Y-128728028D01*
X140768028Y-128872786D01*
X140647715Y-129038386D01*
X140554781Y-129220776D01*
X140491522Y-129415465D01*
X140459500Y-129617648D01*
X140459500Y-129822351D01*
X140491522Y-130024534D01*
X140554781Y-130219223D01*
X140647715Y-130401613D01*
X140768028Y-130567213D01*
X140912786Y-130711971D01*
X141067749Y-130824556D01*
X141078390Y-130832287D01*
X141194607Y-130891503D01*
X141260776Y-130925218D01*
X141260778Y-130925218D01*
X141260781Y-130925220D01*
X141365137Y-130959127D01*
X141455465Y-130988477D01*
X141556557Y-131004488D01*
X141657648Y-131020500D01*
X141657649Y-131020500D01*
X141862351Y-131020500D01*
X141862352Y-131020500D01*
X142064534Y-130988477D01*
X142259219Y-130925220D01*
X142441610Y-130832287D01*
X142534590Y-130764732D01*
X142607213Y-130711971D01*
X142607215Y-130711968D01*
X142607219Y-130711966D01*
X142751966Y-130567219D01*
X142751968Y-130567215D01*
X142751971Y-130567213D01*
X142804732Y-130494590D01*
X142872287Y-130401610D01*
X142965220Y-130219219D01*
X143028477Y-130024534D01*
X143060500Y-129822352D01*
X143060500Y-129617648D01*
X143028477Y-129415466D01*
X143018218Y-129383893D01*
X142965218Y-129220776D01*
X142904877Y-129102352D01*
X142872287Y-129038390D01*
X142831629Y-128982428D01*
X142751971Y-128872786D01*
X142607213Y-128728028D01*
X142441614Y-128607715D01*
X142435006Y-128604348D01*
X142348917Y-128560483D01*
X142298123Y-128512511D01*
X142281328Y-128444690D01*
X142303865Y-128378555D01*
X142348917Y-128339516D01*
X142441610Y-128292287D01*
X142462770Y-128276913D01*
X142607213Y-128171971D01*
X142607215Y-128171968D01*
X142607219Y-128171966D01*
X142751966Y-128027219D01*
X142751968Y-128027215D01*
X142751971Y-128027213D01*
X142840774Y-127904984D01*
X142872287Y-127861610D01*
X142965220Y-127679219D01*
X143028477Y-127484534D01*
X143060500Y-127282352D01*
X143060500Y-127077648D01*
X143058628Y-127065826D01*
X143028477Y-126875465D01*
X142965218Y-126680776D01*
X142931503Y-126614607D01*
X142872287Y-126498390D01*
X142846151Y-126462416D01*
X142751971Y-126332786D01*
X142607213Y-126188028D01*
X142441614Y-126067715D01*
X142392160Y-126042517D01*
X142348917Y-126020483D01*
X142298123Y-125972511D01*
X142281328Y-125904690D01*
X142303865Y-125838555D01*
X142348917Y-125799516D01*
X142441610Y-125752287D01*
X142505036Y-125706206D01*
X142607213Y-125631971D01*
X142607215Y-125631968D01*
X142607219Y-125631966D01*
X142751966Y-125487219D01*
X142751968Y-125487215D01*
X142751971Y-125487213D01*
X142804732Y-125414590D01*
X142872287Y-125321610D01*
X142965220Y-125139219D01*
X143028477Y-124944534D01*
X143060500Y-124742352D01*
X143060500Y-124537648D01*
X143028477Y-124335466D01*
X142965220Y-124140781D01*
X142965218Y-124140778D01*
X142965218Y-124140776D01*
X142931503Y-124074607D01*
X142872287Y-123958390D01*
X142864556Y-123947749D01*
X142751971Y-123792786D01*
X142607213Y-123648028D01*
X142441614Y-123527715D01*
X142435006Y-123524348D01*
X142348917Y-123480483D01*
X142298123Y-123432511D01*
X142281328Y-123364690D01*
X142303865Y-123298555D01*
X142348917Y-123259516D01*
X142441610Y-123212287D01*
X142462770Y-123196913D01*
X142607213Y-123091971D01*
X142607215Y-123091968D01*
X142607219Y-123091966D01*
X142751966Y-122947219D01*
X142751968Y-122947215D01*
X142751971Y-122947213D01*
X142804732Y-122874590D01*
X142872287Y-122781610D01*
X142965220Y-122599219D01*
X143028477Y-122404534D01*
X143060500Y-122202352D01*
X143060500Y-121997648D01*
X143028477Y-121795466D01*
X142965220Y-121600781D01*
X142965218Y-121600778D01*
X142965218Y-121600776D01*
X142914265Y-121500776D01*
X142872287Y-121418390D01*
X142864556Y-121407749D01*
X142751971Y-121252786D01*
X142607213Y-121108028D01*
X142441614Y-120987715D01*
X142435006Y-120984348D01*
X142348917Y-120940483D01*
X142298123Y-120892511D01*
X142281328Y-120824690D01*
X142303865Y-120758555D01*
X142348917Y-120719516D01*
X142441610Y-120672287D01*
X142497252Y-120631861D01*
X142607213Y-120551971D01*
X142607215Y-120551968D01*
X142607219Y-120551966D01*
X142751966Y-120407219D01*
X142751968Y-120407215D01*
X142751971Y-120407213D01*
X142841377Y-120284154D01*
X142872287Y-120241610D01*
X142965220Y-120059219D01*
X143028477Y-119864534D01*
X143060500Y-119662352D01*
X143060500Y-119457648D01*
X143028477Y-119255466D01*
X143026395Y-119249059D01*
X142999127Y-119165137D01*
X142965220Y-119060781D01*
X142965218Y-119060778D01*
X142965218Y-119060776D01*
X142914329Y-118960902D01*
X142872287Y-118878390D01*
X142809006Y-118791290D01*
X142751971Y-118712786D01*
X142607213Y-118568028D01*
X142441611Y-118447713D01*
X142394107Y-118423509D01*
X142368729Y-118410578D01*
X142363536Y-118405673D01*
X142356707Y-118403577D01*
X142338470Y-118382000D01*
X142317934Y-118362605D01*
X142316216Y-118355671D01*
X142311605Y-118350215D01*
X142307928Y-118322201D01*
X142301138Y-118294784D01*
X142303220Y-118286337D01*
X142302512Y-118280939D01*
X142309274Y-118261784D01*
X142312871Y-118247200D01*
X142315061Y-118242556D01*
X142319577Y-118234735D01*
X142320665Y-118230674D01*
X142325405Y-118220624D01*
X142341484Y-118202521D01*
X142354068Y-118181837D01*
X142369074Y-118171460D01*
X142371806Y-118168386D01*
X142374691Y-118167577D01*
X142381254Y-118163038D01*
X142441610Y-118132287D01*
X142607219Y-118011966D01*
X142751966Y-117867219D01*
X142751968Y-117867215D01*
X142751971Y-117867213D01*
X142867968Y-117707554D01*
X142872287Y-117701610D01*
X142879117Y-117688204D01*
X142927091Y-117637409D01*
X142989602Y-117620500D01*
X143893331Y-117620500D01*
X143893347Y-117620501D01*
X143900943Y-117620501D01*
X144059054Y-117620501D01*
X144059057Y-117620501D01*
X144211785Y-117579577D01*
X144261904Y-117550639D01*
X144348716Y-117500520D01*
X144460520Y-117388716D01*
X144480520Y-117368716D01*
X144530639Y-117281904D01*
X144559577Y-117231785D01*
X144600500Y-117079058D01*
X144600500Y-116920943D01*
X144600500Y-112543893D01*
X144594654Y-112522077D01*
X144573471Y-112443019D01*
X144559577Y-112391166D01*
X144552099Y-112378213D01*
X144480524Y-112254240D01*
X144480521Y-112254236D01*
X144480520Y-112254234D01*
X144368716Y-112142430D01*
X144368715Y-112142429D01*
X144364385Y-112138099D01*
X144364374Y-112138089D01*
X142700416Y-110474131D01*
X142666931Y-110412808D01*
X142671915Y-110343116D01*
X142700416Y-110298769D01*
X142723921Y-110275264D01*
X142751966Y-110247219D01*
X142751968Y-110247215D01*
X142751971Y-110247213D01*
X142839271Y-110127053D01*
X142872287Y-110081610D01*
X142965220Y-109899219D01*
X143028477Y-109704534D01*
X143060500Y-109502352D01*
X143060500Y-109297648D01*
X143037847Y-109154622D01*
X143028477Y-109095465D01*
X142984759Y-108960916D01*
X142965220Y-108900781D01*
X142965218Y-108900778D01*
X142965218Y-108900776D01*
X142919874Y-108811784D01*
X142872287Y-108718390D01*
X142864409Y-108707547D01*
X142751971Y-108552786D01*
X142607213Y-108408028D01*
X142441614Y-108287715D01*
X142392317Y-108262597D01*
X142348917Y-108240483D01*
X142298123Y-108192511D01*
X142281328Y-108124690D01*
X142303865Y-108058555D01*
X142348917Y-108019516D01*
X142441610Y-107972287D01*
X142462770Y-107956913D01*
X142607213Y-107851971D01*
X142607215Y-107851968D01*
X142607219Y-107851966D01*
X142751966Y-107707219D01*
X142751968Y-107707215D01*
X142751971Y-107707213D01*
X142834376Y-107593790D01*
X142872287Y-107541610D01*
X142965220Y-107359219D01*
X143028477Y-107164534D01*
X143060500Y-106962352D01*
X143060500Y-106757648D01*
X143052352Y-106706202D01*
X143028477Y-106555465D01*
X142992225Y-106443893D01*
X142965220Y-106360781D01*
X142965218Y-106360778D01*
X142965218Y-106360776D01*
X142929748Y-106291163D01*
X142872287Y-106178390D01*
X142827927Y-106117333D01*
X142751971Y-106012786D01*
X142607213Y-105868028D01*
X142441614Y-105747715D01*
X142435006Y-105744348D01*
X142348917Y-105700483D01*
X142298123Y-105652511D01*
X142281328Y-105584690D01*
X142303865Y-105518555D01*
X142348917Y-105479516D01*
X142441610Y-105432287D01*
X142487740Y-105398772D01*
X142607213Y-105311971D01*
X142607215Y-105311968D01*
X142607219Y-105311966D01*
X142751966Y-105167219D01*
X142751968Y-105167215D01*
X142751971Y-105167213D01*
X142824935Y-105066785D01*
X142872287Y-105001610D01*
X142965220Y-104819219D01*
X143028477Y-104624534D01*
X143060500Y-104422352D01*
X143060500Y-104217648D01*
X143028477Y-104015466D01*
X142965220Y-103820781D01*
X142965218Y-103820778D01*
X142965218Y-103820776D01*
X142908463Y-103709390D01*
X142872287Y-103638390D01*
X142859527Y-103620827D01*
X142751971Y-103472786D01*
X142607213Y-103328028D01*
X142441614Y-103207715D01*
X142425491Y-103199500D01*
X142348917Y-103160483D01*
X142298123Y-103112511D01*
X142281328Y-103044690D01*
X142303865Y-102978555D01*
X142348917Y-102939516D01*
X142441610Y-102892287D01*
X142462770Y-102876913D01*
X142607213Y-102771971D01*
X142607215Y-102771968D01*
X142607219Y-102771966D01*
X142751966Y-102627219D01*
X142751968Y-102627215D01*
X142751971Y-102627213D01*
X142804732Y-102554590D01*
X142872287Y-102461610D01*
X142965220Y-102279219D01*
X143028477Y-102084534D01*
X143060500Y-101882352D01*
X143060500Y-101677648D01*
X143028477Y-101475466D01*
X143025797Y-101467219D01*
X142978872Y-101322797D01*
X142965220Y-101280781D01*
X142965218Y-101280778D01*
X142965218Y-101280776D01*
X142905648Y-101163865D01*
X142872287Y-101098390D01*
X142808876Y-101011111D01*
X142751971Y-100932786D01*
X142607213Y-100788028D01*
X142441614Y-100667715D01*
X142404560Y-100648835D01*
X142348917Y-100620483D01*
X142298123Y-100572511D01*
X142281328Y-100504690D01*
X142303865Y-100438555D01*
X142348917Y-100399516D01*
X142441610Y-100352287D01*
X142492292Y-100315465D01*
X142607213Y-100231971D01*
X142607215Y-100231968D01*
X142607219Y-100231966D01*
X142751966Y-100087219D01*
X142751968Y-100087215D01*
X142751971Y-100087213D01*
X142804732Y-100014590D01*
X142872287Y-99921610D01*
X142965220Y-99739219D01*
X143028477Y-99544534D01*
X143060500Y-99342352D01*
X143060500Y-99137648D01*
X143028477Y-98935466D01*
X142965220Y-98740781D01*
X142965218Y-98740778D01*
X142965218Y-98740776D01*
X142931503Y-98674607D01*
X142872287Y-98558390D01*
X142835471Y-98507717D01*
X142751968Y-98392783D01*
X142607213Y-98248028D01*
X142441614Y-98127715D01*
X142435006Y-98124348D01*
X142348917Y-98080483D01*
X142298123Y-98032511D01*
X142281328Y-97964690D01*
X142303865Y-97898555D01*
X142348917Y-97859516D01*
X142441610Y-97812287D01*
X142494128Y-97774131D01*
X142607213Y-97691971D01*
X142607215Y-97691968D01*
X142607219Y-97691966D01*
X142751966Y-97547219D01*
X142751968Y-97547215D01*
X142751971Y-97547213D01*
X142804732Y-97474590D01*
X142872287Y-97381610D01*
X142965220Y-97199219D01*
X143028477Y-97004534D01*
X143060500Y-96802352D01*
X143060500Y-96597648D01*
X143028477Y-96395466D01*
X142965220Y-96200781D01*
X142965218Y-96200778D01*
X142965218Y-96200776D01*
X142920128Y-96112284D01*
X142872287Y-96018390D01*
X142853089Y-95991966D01*
X142751971Y-95852786D01*
X142607213Y-95708028D01*
X142441614Y-95587715D01*
X142435006Y-95584348D01*
X142348917Y-95540483D01*
X142298123Y-95492511D01*
X142281328Y-95424690D01*
X142303865Y-95358555D01*
X142348917Y-95319516D01*
X142441610Y-95272287D01*
X142502279Y-95228209D01*
X142607213Y-95151971D01*
X142607215Y-95151968D01*
X142607219Y-95151966D01*
X142751966Y-95007219D01*
X142751968Y-95007215D01*
X142751971Y-95007213D01*
X142831573Y-94897648D01*
X142872287Y-94841610D01*
X142965220Y-94659219D01*
X143028477Y-94464534D01*
X143060500Y-94262352D01*
X143060500Y-94057648D01*
X143028477Y-93855466D01*
X143025797Y-93847219D01*
X142990096Y-93737341D01*
X142965220Y-93660781D01*
X142965218Y-93660778D01*
X142965218Y-93660776D01*
X142905648Y-93543865D01*
X142872287Y-93478390D01*
X142837920Y-93431087D01*
X142751971Y-93312786D01*
X142607213Y-93168028D01*
X142441614Y-93047715D01*
X142435006Y-93044348D01*
X142348917Y-93000483D01*
X142298123Y-92952511D01*
X142281328Y-92884690D01*
X142303865Y-92818555D01*
X142348917Y-92779516D01*
X142441610Y-92732287D01*
X142492292Y-92695465D01*
X142607213Y-92611971D01*
X142607215Y-92611968D01*
X142607219Y-92611966D01*
X142751966Y-92467219D01*
X142751968Y-92467215D01*
X142751971Y-92467213D01*
X142835470Y-92352284D01*
X142872287Y-92301610D01*
X142965220Y-92119219D01*
X143028477Y-91924534D01*
X143060500Y-91722352D01*
X143060500Y-91529098D01*
X143080185Y-91462059D01*
X143132989Y-91416304D01*
X143202147Y-91406360D01*
X143265703Y-91435385D01*
X143272181Y-91441417D01*
X145032284Y-93201520D01*
X145032286Y-93201521D01*
X145032290Y-93201524D01*
X145169209Y-93280573D01*
X145169216Y-93280577D01*
X145321943Y-93321501D01*
X145321945Y-93321501D01*
X145487654Y-93321501D01*
X145487670Y-93321500D01*
X146258618Y-93321500D01*
X146325657Y-93341185D01*
X146371412Y-93393989D01*
X146381356Y-93463147D01*
X146361720Y-93514391D01*
X146290609Y-93620814D01*
X146290602Y-93620827D01*
X146230264Y-93766498D01*
X146230261Y-93766510D01*
X146199500Y-93921153D01*
X146199500Y-94078846D01*
X146230261Y-94233489D01*
X146230264Y-94233501D01*
X146290602Y-94379172D01*
X146290609Y-94379185D01*
X146378210Y-94510288D01*
X146378213Y-94510292D01*
X146489707Y-94621786D01*
X146489711Y-94621789D01*
X146620814Y-94709390D01*
X146620827Y-94709397D01*
X146766498Y-94769735D01*
X146766503Y-94769737D01*
X146831147Y-94782595D01*
X146921849Y-94800638D01*
X146983760Y-94833023D01*
X146985339Y-94834574D01*
X148421662Y-96270897D01*
X148455147Y-96332220D01*
X148450163Y-96401912D01*
X148421662Y-96446259D01*
X148378213Y-96489707D01*
X148378210Y-96489711D01*
X148290609Y-96620814D01*
X148290602Y-96620827D01*
X148230264Y-96766498D01*
X148230261Y-96766510D01*
X148199500Y-96921153D01*
X148199500Y-97078846D01*
X148230261Y-97233489D01*
X148230264Y-97233501D01*
X148290602Y-97379172D01*
X148290609Y-97379185D01*
X148378602Y-97510874D01*
X148399480Y-97577551D01*
X148399500Y-97579765D01*
X148399500Y-100330380D01*
X148399499Y-100330398D01*
X148399499Y-100496104D01*
X148399498Y-100496104D01*
X148440423Y-100648835D01*
X148469358Y-100698950D01*
X148469359Y-100698954D01*
X148469360Y-100698954D01*
X148519479Y-100785764D01*
X148519481Y-100785767D01*
X148638349Y-100904635D01*
X148638355Y-100904640D01*
X151774914Y-104041199D01*
X151808399Y-104102522D01*
X151803415Y-104172214D01*
X151761543Y-104228147D01*
X151734686Y-104243441D01*
X151620824Y-104290604D01*
X151620814Y-104290609D01*
X151489711Y-104378210D01*
X151489707Y-104378213D01*
X151378213Y-104489707D01*
X151378210Y-104489711D01*
X151290609Y-104620814D01*
X151290602Y-104620827D01*
X151230264Y-104766498D01*
X151230261Y-104766510D01*
X151199500Y-104921153D01*
X151199500Y-105078846D01*
X151230261Y-105233489D01*
X151230264Y-105233501D01*
X151290602Y-105379172D01*
X151290609Y-105379185D01*
X151378602Y-105510874D01*
X151399480Y-105577551D01*
X151399500Y-105579765D01*
X151399500Y-105870380D01*
X151399499Y-105870398D01*
X151399499Y-106036104D01*
X151399498Y-106036104D01*
X151440423Y-106188835D01*
X151466205Y-106233491D01*
X151466209Y-106233497D01*
X151499587Y-106291310D01*
X151519479Y-106325764D01*
X151519481Y-106325767D01*
X151638349Y-106444635D01*
X151638355Y-106444640D01*
X154182507Y-108988793D01*
X154215992Y-109050116D01*
X154211008Y-109119808D01*
X154169136Y-109175741D01*
X154103672Y-109200158D01*
X154082675Y-109199877D01*
X154078846Y-109199500D01*
X154078842Y-109199500D01*
X153921158Y-109199500D01*
X153921155Y-109199500D01*
X153766510Y-109230261D01*
X153766498Y-109230264D01*
X153620827Y-109290602D01*
X153620814Y-109290609D01*
X153489711Y-109378210D01*
X153489707Y-109378213D01*
X153378213Y-109489707D01*
X153378210Y-109489711D01*
X153290609Y-109620814D01*
X153290602Y-109620827D01*
X153230264Y-109766498D01*
X153230261Y-109766510D01*
X153199500Y-109921153D01*
X153199500Y-110078846D01*
X153230261Y-110233489D01*
X153230264Y-110233501D01*
X153290602Y-110379172D01*
X153290609Y-110379185D01*
X153378602Y-110510874D01*
X153399480Y-110577551D01*
X153399500Y-110579765D01*
X153399500Y-118030380D01*
X153399499Y-118030398D01*
X153399499Y-118196104D01*
X153399498Y-118196104D01*
X153411656Y-118241477D01*
X153440423Y-118348835D01*
X153440424Y-118348837D01*
X153440423Y-118348837D01*
X153453605Y-118371667D01*
X153453606Y-118371669D01*
X153519475Y-118485759D01*
X153519481Y-118485767D01*
X153638349Y-118604635D01*
X153638355Y-118604640D01*
X156059582Y-121025868D01*
X156093067Y-121087191D01*
X156088083Y-121156883D01*
X156059584Y-121201229D01*
X156008030Y-121252784D01*
X155887715Y-121418386D01*
X155794781Y-121600776D01*
X155731522Y-121795465D01*
X155699500Y-121997648D01*
X155699500Y-122202351D01*
X155731522Y-122404534D01*
X155794781Y-122599223D01*
X155887715Y-122781613D01*
X156008028Y-122947213D01*
X156152786Y-123091971D01*
X156307749Y-123204556D01*
X156318390Y-123212287D01*
X156409840Y-123258883D01*
X156411080Y-123259515D01*
X156461876Y-123307490D01*
X156478671Y-123375311D01*
X156456134Y-123441446D01*
X156411080Y-123480485D01*
X156318386Y-123527715D01*
X156152786Y-123648028D01*
X156008028Y-123792786D01*
X155887715Y-123958386D01*
X155794781Y-124140776D01*
X155731522Y-124335465D01*
X155699500Y-124537648D01*
X155699500Y-124742351D01*
X155731522Y-124944534D01*
X155794781Y-125139223D01*
X155887715Y-125321613D01*
X156008028Y-125487213D01*
X156152786Y-125631971D01*
X156254964Y-125706206D01*
X156318390Y-125752287D01*
X156397218Y-125792452D01*
X156411080Y-125799515D01*
X156461876Y-125847490D01*
X156478671Y-125915311D01*
X156456134Y-125981446D01*
X156411080Y-126020485D01*
X156318386Y-126067715D01*
X156152786Y-126188028D01*
X156008028Y-126332786D01*
X155887715Y-126498386D01*
X155794781Y-126680776D01*
X155731522Y-126875465D01*
X155699500Y-127077648D01*
X155699500Y-127282351D01*
X155731522Y-127484534D01*
X155794781Y-127679223D01*
X155853661Y-127794780D01*
X155879955Y-127846385D01*
X155887715Y-127861613D01*
X156008028Y-128027213D01*
X156152786Y-128171971D01*
X156307749Y-128284556D01*
X156318390Y-128292287D01*
X156376566Y-128321929D01*
X156411080Y-128339515D01*
X156461876Y-128387490D01*
X156478671Y-128455311D01*
X156456134Y-128521446D01*
X156411080Y-128560485D01*
X156318386Y-128607715D01*
X156152786Y-128728028D01*
X156008028Y-128872786D01*
X155887715Y-129038386D01*
X155794781Y-129220776D01*
X155731522Y-129415465D01*
X155699500Y-129617648D01*
X155699500Y-129822351D01*
X155731522Y-130024534D01*
X155794781Y-130219223D01*
X155887715Y-130401613D01*
X156008028Y-130567213D01*
X156152786Y-130711971D01*
X156307749Y-130824556D01*
X156318390Y-130832287D01*
X156434607Y-130891503D01*
X156500776Y-130925218D01*
X156500778Y-130925218D01*
X156500781Y-130925220D01*
X156605137Y-130959127D01*
X156695465Y-130988477D01*
X156796557Y-131004488D01*
X156897648Y-131020500D01*
X156897649Y-131020500D01*
X157102351Y-131020500D01*
X157102352Y-131020500D01*
X157304534Y-130988477D01*
X157499219Y-130925220D01*
X157681610Y-130832287D01*
X157774590Y-130764732D01*
X157847213Y-130711971D01*
X157847215Y-130711968D01*
X157847219Y-130711966D01*
X157991966Y-130567219D01*
X157991968Y-130567215D01*
X157991971Y-130567213D01*
X158044732Y-130494590D01*
X158112287Y-130401610D01*
X158205220Y-130219219D01*
X158268477Y-130024534D01*
X158300500Y-129822352D01*
X158300500Y-129617648D01*
X158268477Y-129415466D01*
X158258218Y-129383893D01*
X158205218Y-129220776D01*
X158144877Y-129102352D01*
X158112287Y-129038390D01*
X158071629Y-128982428D01*
X157991971Y-128872786D01*
X157847213Y-128728028D01*
X157681614Y-128607715D01*
X157675006Y-128604348D01*
X157588917Y-128560483D01*
X157538123Y-128512511D01*
X157521328Y-128444690D01*
X157543865Y-128378555D01*
X157588917Y-128339516D01*
X157681610Y-128292287D01*
X157702770Y-128276913D01*
X157847213Y-128171971D01*
X157847215Y-128171968D01*
X157847219Y-128171966D01*
X157991966Y-128027219D01*
X157991968Y-128027215D01*
X157991971Y-128027213D01*
X158080774Y-127904984D01*
X158112287Y-127861610D01*
X158205220Y-127679219D01*
X158268477Y-127484534D01*
X158300500Y-127282352D01*
X158300500Y-127077648D01*
X158298628Y-127065826D01*
X158268477Y-126875465D01*
X158205218Y-126680776D01*
X158171503Y-126614607D01*
X158112287Y-126498390D01*
X158086151Y-126462416D01*
X157991971Y-126332786D01*
X157847213Y-126188028D01*
X157681614Y-126067715D01*
X157632160Y-126042517D01*
X157588917Y-126020483D01*
X157538123Y-125972511D01*
X157521328Y-125904690D01*
X157543865Y-125838555D01*
X157588917Y-125799516D01*
X157681610Y-125752287D01*
X157745036Y-125706206D01*
X157847213Y-125631971D01*
X157847215Y-125631968D01*
X157847219Y-125631966D01*
X157991966Y-125487219D01*
X157991968Y-125487215D01*
X157991971Y-125487213D01*
X158044732Y-125414590D01*
X158112287Y-125321610D01*
X158205220Y-125139219D01*
X158268477Y-124944534D01*
X158300500Y-124742352D01*
X158300500Y-124537648D01*
X158268477Y-124335466D01*
X158205220Y-124140781D01*
X158205218Y-124140778D01*
X158205218Y-124140776D01*
X158171503Y-124074607D01*
X158112287Y-123958390D01*
X158104556Y-123947749D01*
X157991971Y-123792786D01*
X157847213Y-123648028D01*
X157681614Y-123527715D01*
X157675006Y-123524348D01*
X157588917Y-123480483D01*
X157538123Y-123432511D01*
X157521328Y-123364690D01*
X157543865Y-123298555D01*
X157588917Y-123259516D01*
X157681610Y-123212287D01*
X157702770Y-123196913D01*
X157847213Y-123091971D01*
X157847215Y-123091968D01*
X157847219Y-123091966D01*
X157991966Y-122947219D01*
X157991968Y-122947215D01*
X157991971Y-122947213D01*
X158112284Y-122781614D01*
X158112285Y-122781613D01*
X158112287Y-122781610D01*
X158128349Y-122750085D01*
X158176323Y-122699290D01*
X158244144Y-122682495D01*
X158310279Y-122705032D01*
X158326515Y-122718700D01*
X165283181Y-129675366D01*
X165316666Y-129736689D01*
X165319500Y-129763047D01*
X165319500Y-134525500D01*
X165299815Y-134592539D01*
X165247011Y-134638294D01*
X165195501Y-134649500D01*
X165022130Y-134649500D01*
X165022123Y-134649501D01*
X164962516Y-134655908D01*
X164827671Y-134706202D01*
X164827664Y-134706206D01*
X164712455Y-134792452D01*
X164712452Y-134792455D01*
X164626206Y-134907664D01*
X164626202Y-134907671D01*
X164575908Y-135042517D01*
X164569501Y-135102116D01*
X164569500Y-135102135D01*
X164569500Y-136897870D01*
X164569501Y-136897876D01*
X164576421Y-136962247D01*
X164564014Y-137031006D01*
X164516403Y-137082143D01*
X164453131Y-137099500D01*
X159424362Y-137099500D01*
X159357323Y-137079815D01*
X159336681Y-137063181D01*
X157574041Y-135300540D01*
X157574038Y-135300537D01*
X157514318Y-135260634D01*
X157426544Y-135201985D01*
X157426542Y-135201984D01*
X157344607Y-135168046D01*
X157344606Y-135168046D01*
X157262666Y-135134105D01*
X157262658Y-135134103D01*
X157088696Y-135099500D01*
X157088692Y-135099500D01*
X157088691Y-135099500D01*
X156098022Y-135099500D01*
X156030983Y-135079815D01*
X156010341Y-135063181D01*
X154247695Y-133300535D01*
X154247690Y-133300531D01*
X154193282Y-133264178D01*
X154193276Y-133264175D01*
X154188619Y-133261063D01*
X154100207Y-133201987D01*
X154018266Y-133168046D01*
X153936326Y-133134105D01*
X153936318Y-133134103D01*
X153762356Y-133099500D01*
X153762352Y-133099500D01*
X153762351Y-133099500D01*
X150421192Y-133099500D01*
X150243808Y-133099500D01*
X150243803Y-133099500D01*
X150069841Y-133134103D01*
X150069829Y-133134106D01*
X149987892Y-133168045D01*
X149987893Y-133168046D01*
X149905955Y-133201985D01*
X149817540Y-133261063D01*
X149817539Y-133261064D01*
X149758461Y-133300537D01*
X149758460Y-133300538D01*
X148415538Y-134643461D01*
X148415536Y-134643464D01*
X148407222Y-134655908D01*
X148407221Y-134655909D01*
X148316988Y-134790949D01*
X148285946Y-134865893D01*
X148285946Y-134865894D01*
X148253121Y-134945138D01*
X148209279Y-134999541D01*
X148142984Y-135021605D01*
X148103969Y-135016761D01*
X148097569Y-135014902D01*
X148097567Y-135014901D01*
X148097563Y-135014901D01*
X148060701Y-135012000D01*
X148060694Y-135012000D01*
X147629306Y-135012000D01*
X147629298Y-135012000D01*
X147592432Y-135014901D01*
X147592426Y-135014902D01*
X147434606Y-135060754D01*
X147434603Y-135060755D01*
X147293137Y-135144417D01*
X147293129Y-135144423D01*
X147176923Y-135260629D01*
X147176917Y-135260637D01*
X147093255Y-135402103D01*
X147093254Y-135402106D01*
X147047402Y-135559926D01*
X147047401Y-135559932D01*
X147044500Y-135596798D01*
X147044500Y-135963138D01*
X147024815Y-136030177D01*
X147008181Y-136050819D01*
X146070819Y-136988181D01*
X146009496Y-137021666D01*
X145983138Y-137024500D01*
X144024333Y-137024500D01*
X143957294Y-137004815D01*
X143947422Y-136997766D01*
X143943658Y-136994790D01*
X143943656Y-136994788D01*
X143829218Y-136924202D01*
X143794336Y-136902687D01*
X143794331Y-136902685D01*
X143747437Y-136887146D01*
X143627797Y-136847501D01*
X143627795Y-136847500D01*
X143525010Y-136837000D01*
X142474998Y-136837000D01*
X142474980Y-136837001D01*
X142372203Y-136847500D01*
X142372200Y-136847501D01*
X142205668Y-136902685D01*
X142205663Y-136902687D01*
X142056342Y-136994789D01*
X141932289Y-137118842D01*
X141840187Y-137268163D01*
X141840185Y-137268168D01*
X141821519Y-137324500D01*
X141785001Y-137434703D01*
X141785001Y-137434704D01*
X141785000Y-137434704D01*
X141774500Y-137537483D01*
X141774500Y-138312501D01*
X141774501Y-138312519D01*
X141785000Y-138415296D01*
X141785002Y-138415303D01*
X141785838Y-138417825D01*
X141785894Y-138419472D01*
X141786419Y-138421922D01*
X141785982Y-138422015D01*
X141788239Y-138487653D01*
X141752507Y-138547695D01*
X141689987Y-138578887D01*
X141643942Y-138578446D01*
X141615346Y-138572758D01*
X141548692Y-138559500D01*
X141548691Y-138559500D01*
X138060758Y-138559500D01*
X138031317Y-138550855D01*
X138001331Y-138544332D01*
X137996315Y-138540577D01*
X137993719Y-138539815D01*
X137973077Y-138523181D01*
X137916569Y-138466673D01*
X137883084Y-138405350D01*
X137888068Y-138335658D01*
X137929940Y-138279725D01*
X137960915Y-138262810D01*
X138092331Y-138213796D01*
X138207546Y-138127546D01*
X138293796Y-138012331D01*
X138344091Y-137877483D01*
X138350500Y-137817873D01*
X138350499Y-136022128D01*
X138344091Y-135962517D01*
X138335257Y-135938833D01*
X138293797Y-135827671D01*
X138293793Y-135827664D01*
X138207547Y-135712455D01*
X138207544Y-135712452D01*
X138092335Y-135626206D01*
X138092328Y-135626202D01*
X137957482Y-135575908D01*
X137957483Y-135575908D01*
X137897883Y-135569501D01*
X137897881Y-135569500D01*
X137897873Y-135569500D01*
X137897864Y-135569500D01*
X136102129Y-135569500D01*
X136102123Y-135569501D01*
X136042516Y-135575908D01*
X135907671Y-135626202D01*
X135907664Y-135626206D01*
X135792455Y-135712452D01*
X135792452Y-135712455D01*
X135706206Y-135827664D01*
X135706202Y-135827671D01*
X135664742Y-135938833D01*
X135622871Y-135994767D01*
X135557407Y-136019184D01*
X135548560Y-136019500D01*
X125911303Y-136019500D01*
X125737341Y-136054103D01*
X125737333Y-136054105D01*
X125682583Y-136076783D01*
X125682573Y-136076788D01*
X125677096Y-136079057D01*
X125573453Y-136121987D01*
X125485040Y-136181063D01*
X125479861Y-136184522D01*
X125479856Y-136184526D01*
X125425961Y-136220537D01*
X124483317Y-137163181D01*
X124421994Y-137196666D01*
X124395636Y-137199500D01*
X122819998Y-137199500D01*
X122819981Y-137199501D01*
X122717203Y-137210000D01*
X122717200Y-137210001D01*
X122550668Y-137265185D01*
X122550663Y-137265187D01*
X122401342Y-137357289D01*
X122277289Y-137481342D01*
X122185187Y-137630663D01*
X122185185Y-137630668D01*
X122160671Y-137704648D01*
X122130001Y-137797203D01*
X122130001Y-137797204D01*
X122130000Y-137797204D01*
X122119500Y-137899983D01*
X122119500Y-140100001D01*
X122119501Y-140100018D01*
X122130000Y-140202796D01*
X122130001Y-140202799D01*
X122170462Y-140324901D01*
X122185186Y-140369334D01*
X122277288Y-140518656D01*
X122401344Y-140642712D01*
X122550666Y-140734814D01*
X122717203Y-140789999D01*
X122819991Y-140800500D01*
X125020008Y-140800499D01*
X125122797Y-140789999D01*
X125289334Y-140734814D01*
X125438656Y-140642712D01*
X125562712Y-140518656D01*
X125654814Y-140369334D01*
X125709999Y-140202797D01*
X125720500Y-140100009D01*
X125720499Y-138524361D01*
X125740184Y-138457323D01*
X125756818Y-138436681D01*
X126336681Y-137856819D01*
X126398004Y-137823334D01*
X126424362Y-137820500D01*
X127387750Y-137820500D01*
X127454789Y-137840185D01*
X127500544Y-137892989D01*
X127510488Y-137962147D01*
X127495137Y-138006501D01*
X127382165Y-138202171D01*
X127382160Y-138202180D01*
X127291870Y-138420162D01*
X127230799Y-138648085D01*
X127200000Y-138882014D01*
X127200000Y-139117985D01*
X127230799Y-139351914D01*
X127291870Y-139579837D01*
X127382160Y-139797819D01*
X127382165Y-139797828D01*
X127500144Y-140002171D01*
X127500145Y-140002172D01*
X127562721Y-140083723D01*
X128398957Y-139247486D01*
X128423978Y-139307890D01*
X128495112Y-139414351D01*
X128585649Y-139504888D01*
X128692110Y-139576022D01*
X128752511Y-139601041D01*
X127916275Y-140437277D01*
X127997827Y-140499854D01*
X127997828Y-140499855D01*
X128202171Y-140617834D01*
X128202180Y-140617839D01*
X128420163Y-140708129D01*
X128420161Y-140708129D01*
X128648085Y-140769200D01*
X128882014Y-140799999D01*
X128882029Y-140800000D01*
X129117971Y-140800000D01*
X129117985Y-140799999D01*
X129351914Y-140769200D01*
X129579837Y-140708129D01*
X129797819Y-140617839D01*
X129797828Y-140617834D01*
X130002181Y-140499850D01*
X130083723Y-140437279D01*
X130083723Y-140437276D01*
X129247487Y-139601041D01*
X129307890Y-139576022D01*
X129414351Y-139504888D01*
X129504888Y-139414351D01*
X129576022Y-139307890D01*
X129601041Y-139247488D01*
X130437276Y-140083723D01*
X130437279Y-140083723D01*
X130499850Y-140002181D01*
X130617834Y-139797828D01*
X130617839Y-139797819D01*
X130708129Y-139579837D01*
X130769200Y-139351914D01*
X130799999Y-139117985D01*
X130800000Y-139117971D01*
X130800000Y-138882028D01*
X130799999Y-138882014D01*
X130769200Y-138648085D01*
X130708129Y-138420162D01*
X130617839Y-138202180D01*
X130617834Y-138202171D01*
X130504863Y-138006501D01*
X130488390Y-137938600D01*
X130511242Y-137872573D01*
X130566163Y-137829383D01*
X130612250Y-137820500D01*
X135548560Y-137820500D01*
X135615599Y-137840185D01*
X135661354Y-137892989D01*
X135664742Y-137901167D01*
X135706202Y-138012328D01*
X135706206Y-138012335D01*
X135792452Y-138127544D01*
X135792455Y-138127547D01*
X135907664Y-138213793D01*
X135907671Y-138213797D01*
X136039082Y-138262810D01*
X136095016Y-138304681D01*
X136119433Y-138370145D01*
X136104582Y-138438418D01*
X136083431Y-138466673D01*
X135969889Y-138580215D01*
X135844951Y-138752179D01*
X135748444Y-138941585D01*
X135682753Y-139143760D01*
X135654323Y-139323261D01*
X135649500Y-139353713D01*
X135649500Y-139566287D01*
X135682754Y-139776243D01*
X135744053Y-139964902D01*
X135748444Y-139978414D01*
X135844951Y-140167820D01*
X135969890Y-140339786D01*
X136063181Y-140433077D01*
X136096666Y-140494400D01*
X136099500Y-140520758D01*
X136099500Y-140939242D01*
X136079815Y-141006281D01*
X136063181Y-141026923D01*
X135969894Y-141120209D01*
X135969890Y-141120213D01*
X135844951Y-141292179D01*
X135748444Y-141481585D01*
X135682753Y-141683760D01*
X135649500Y-141893713D01*
X135649500Y-142106287D01*
X135682754Y-142316243D01*
X135686639Y-142328201D01*
X135748444Y-142518414D01*
X135844951Y-142707820D01*
X135969890Y-142879786D01*
X136120213Y-143030109D01*
X136292179Y-143155048D01*
X136292181Y-143155049D01*
X136292184Y-143155051D01*
X136481588Y-143251557D01*
X136683757Y-143317246D01*
X136893713Y-143350500D01*
X136893714Y-143350500D01*
X137106286Y-143350500D01*
X137106287Y-143350500D01*
X137316243Y-143317246D01*
X137518412Y-143251557D01*
X137707816Y-143155051D01*
X137729789Y-143139086D01*
X137879786Y-143030109D01*
X137879788Y-143030106D01*
X137879792Y-143030104D01*
X138030104Y-142879792D01*
X138030106Y-142879788D01*
X138030109Y-142879786D01*
X138155048Y-142707820D01*
X138155047Y-142707820D01*
X138155051Y-142707816D01*
X138251557Y-142518412D01*
X138317246Y-142316243D01*
X138350500Y-142106287D01*
X138350500Y-141893713D01*
X138317246Y-141683757D01*
X138251557Y-141481588D01*
X138155051Y-141292184D01*
X138155049Y-141292181D01*
X138155048Y-141292179D01*
X138030109Y-141120213D01*
X137936819Y-141026923D01*
X137903334Y-140965600D01*
X137900500Y-140939242D01*
X137900500Y-140520758D01*
X137909144Y-140491317D01*
X137915668Y-140461331D01*
X137919422Y-140456315D01*
X137920185Y-140453719D01*
X137936819Y-140433077D01*
X137973077Y-140396819D01*
X138034400Y-140363334D01*
X138060758Y-140360500D01*
X141035638Y-140360500D01*
X141102677Y-140380185D01*
X141123319Y-140396819D01*
X141216796Y-140490295D01*
X141300536Y-140574035D01*
X141369211Y-140642710D01*
X141425966Y-140699465D01*
X141561458Y-140789998D01*
X141573453Y-140798013D01*
X141686768Y-140844949D01*
X141686771Y-140844950D01*
X141686772Y-140844951D01*
X141737329Y-140865892D01*
X141737334Y-140865894D01*
X141737338Y-140865894D01*
X141737339Y-140865895D01*
X141911305Y-140900500D01*
X141911308Y-140900500D01*
X141911309Y-140900500D01*
X141975667Y-140900500D01*
X142042706Y-140920185D01*
X142052578Y-140927234D01*
X142056341Y-140930209D01*
X142056344Y-140930212D01*
X142205666Y-141022314D01*
X142372203Y-141077499D01*
X142474991Y-141088000D01*
X143525008Y-141087999D01*
X143525016Y-141087998D01*
X143525019Y-141087998D01*
X143581302Y-141082248D01*
X143627797Y-141077499D01*
X143794334Y-141022314D01*
X143943656Y-140930212D01*
X144067712Y-140806156D01*
X144159814Y-140656834D01*
X144214999Y-140490297D01*
X144225500Y-140387509D01*
X144225499Y-139612492D01*
X144214999Y-139509703D01*
X144159814Y-139343166D01*
X144067712Y-139193844D01*
X143943656Y-139069788D01*
X143938549Y-139064681D01*
X143939614Y-139063615D01*
X143925851Y-139042199D01*
X143907212Y-139015875D01*
X143906608Y-139012255D01*
X143905523Y-139010567D01*
X143900500Y-138975632D01*
X143900500Y-138949500D01*
X143920185Y-138882461D01*
X143972989Y-138836706D01*
X144024500Y-138825500D01*
X146496193Y-138825500D01*
X146496194Y-138825499D01*
X146670166Y-138790895D01*
X146763621Y-138752184D01*
X146834047Y-138723013D01*
X146917656Y-138667147D01*
X146925377Y-138661988D01*
X146946184Y-138648085D01*
X146981536Y-138624464D01*
X147537819Y-138068181D01*
X147599142Y-138034696D01*
X147668833Y-138039680D01*
X147724767Y-138081551D01*
X147749184Y-138147016D01*
X147749500Y-138155862D01*
X147749500Y-139838053D01*
X147729815Y-139905092D01*
X147677011Y-139950847D01*
X147631719Y-139961639D01*
X147631733Y-139961809D01*
X147630651Y-139961894D01*
X147630392Y-139961956D01*
X147629334Y-139961997D01*
X147592432Y-139964901D01*
X147592426Y-139964902D01*
X147434606Y-140010754D01*
X147434603Y-140010755D01*
X147293137Y-140094417D01*
X147293129Y-140094423D01*
X147176923Y-140210629D01*
X147176917Y-140210637D01*
X147093255Y-140352103D01*
X147093254Y-140352106D01*
X147047402Y-140509926D01*
X147047401Y-140509932D01*
X147044500Y-140546798D01*
X147044500Y-142328201D01*
X147047401Y-142365067D01*
X147047402Y-142365073D01*
X147093254Y-142522893D01*
X147093255Y-142522896D01*
X147176917Y-142664362D01*
X147176923Y-142664370D01*
X147293129Y-142780576D01*
X147293133Y-142780579D01*
X147293135Y-142780581D01*
X147434602Y-142864244D01*
X147452793Y-142869529D01*
X147592426Y-142910097D01*
X147592429Y-142910097D01*
X147592431Y-142910098D01*
X147629306Y-142913000D01*
X147629314Y-142913000D01*
X148060686Y-142913000D01*
X148060694Y-142913000D01*
X148097569Y-142910098D01*
X148097571Y-142910097D01*
X148097573Y-142910097D01*
X148163937Y-142890816D01*
X148255398Y-142864244D01*
X148396865Y-142780581D01*
X148396870Y-142780575D01*
X148403031Y-142775798D01*
X148404933Y-142778250D01*
X148453579Y-142751655D01*
X148523274Y-142756604D01*
X148543731Y-142766439D01*
X148556857Y-142774303D01*
X148563135Y-142780581D01*
X148704602Y-142864244D01*
X148709203Y-142865580D01*
X148720131Y-142872128D01*
X148726107Y-142878602D01*
X148744081Y-142890816D01*
X148763720Y-142910455D01*
X148763725Y-142910459D01*
X149047285Y-143194020D01*
X149047287Y-143194021D01*
X149047291Y-143194024D01*
X149146939Y-143251555D01*
X149184217Y-143273077D01*
X149336944Y-143314001D01*
X149336946Y-143314001D01*
X149502655Y-143314001D01*
X149502671Y-143314000D01*
X153199831Y-143314000D01*
X153199847Y-143314001D01*
X153207443Y-143314001D01*
X153365554Y-143314001D01*
X153365557Y-143314001D01*
X153518285Y-143273077D01*
X153568404Y-143244139D01*
X153655216Y-143194020D01*
X153767020Y-143082216D01*
X153767020Y-143082214D01*
X153777228Y-143072007D01*
X153777229Y-143072004D01*
X155724917Y-141124318D01*
X155786240Y-141090833D01*
X155812598Y-141087999D01*
X156525002Y-141087999D01*
X156525008Y-141087999D01*
X156627797Y-141077499D01*
X156794334Y-141022314D01*
X156943656Y-140930212D01*
X157067712Y-140806156D01*
X157159814Y-140656834D01*
X157214999Y-140490297D01*
X157225500Y-140387509D01*
X157225499Y-139612492D01*
X157214999Y-139509703D01*
X157159814Y-139343166D01*
X157067712Y-139193844D01*
X156943656Y-139069788D01*
X156940819Y-139068038D01*
X156939283Y-139066330D01*
X156937989Y-139065307D01*
X156938163Y-139065085D01*
X156894096Y-139016094D01*
X156882872Y-138947132D01*
X156910713Y-138883049D01*
X156940817Y-138856962D01*
X156943656Y-138855212D01*
X157067712Y-138731156D01*
X157159814Y-138581834D01*
X157214999Y-138415297D01*
X157225500Y-138312509D01*
X157225499Y-137798359D01*
X157245183Y-137731322D01*
X157297987Y-137685567D01*
X157367146Y-137675623D01*
X157430702Y-137704648D01*
X157437180Y-137710680D01*
X158425958Y-138699459D01*
X158425961Y-138699462D01*
X158425964Y-138699464D01*
X158472735Y-138730715D01*
X158573453Y-138798013D01*
X158655393Y-138831953D01*
X158737334Y-138865895D01*
X158911303Y-138900499D01*
X158911307Y-138900500D01*
X158911308Y-138900500D01*
X168088693Y-138900500D01*
X168088694Y-138900499D01*
X168262666Y-138865895D01*
X168344606Y-138831953D01*
X168426547Y-138798013D01*
X168527265Y-138730715D01*
X168574036Y-138699464D01*
X169159463Y-138114036D01*
X169162494Y-138109500D01*
X169258013Y-137966547D01*
X169306495Y-137849500D01*
X169325895Y-137802666D01*
X169360500Y-137628692D01*
X169360500Y-137451308D01*
X169360500Y-137060758D01*
X169380185Y-136993719D01*
X169396819Y-136973077D01*
X169429383Y-136940513D01*
X169490104Y-136879792D01*
X169490106Y-136879788D01*
X169490109Y-136879786D01*
X169575890Y-136761717D01*
X169615051Y-136707816D01*
X169619793Y-136698508D01*
X169667763Y-136647711D01*
X169735583Y-136630911D01*
X169801719Y-136653445D01*
X169840763Y-136698500D01*
X169845373Y-136707547D01*
X169884728Y-136761716D01*
X170517037Y-136129408D01*
X170534075Y-136192993D01*
X170599901Y-136307007D01*
X170692993Y-136400099D01*
X170807007Y-136465925D01*
X170870590Y-136482962D01*
X170238282Y-137115269D01*
X170238282Y-137115270D01*
X170292449Y-137154624D01*
X170481782Y-137251095D01*
X170683870Y-137316757D01*
X170893754Y-137350000D01*
X171106246Y-137350000D01*
X171316127Y-137316757D01*
X171316130Y-137316757D01*
X171518217Y-137251095D01*
X171707554Y-137154622D01*
X171761716Y-137115270D01*
X171761717Y-137115270D01*
X171129408Y-136482962D01*
X171192993Y-136465925D01*
X171307007Y-136400099D01*
X171400099Y-136307007D01*
X171465925Y-136192993D01*
X171482962Y-136129408D01*
X172115270Y-136761717D01*
X172115270Y-136761716D01*
X172154622Y-136707554D01*
X172251095Y-136518217D01*
X172316757Y-136316130D01*
X172316757Y-136316127D01*
X172350000Y-136106246D01*
X172350000Y-135893753D01*
X172316757Y-135683872D01*
X172316757Y-135683869D01*
X172251095Y-135481782D01*
X172154624Y-135292449D01*
X172115270Y-135238282D01*
X172115269Y-135238282D01*
X171482962Y-135870590D01*
X171465925Y-135807007D01*
X171400099Y-135692993D01*
X171307007Y-135599901D01*
X171192993Y-135534075D01*
X171129409Y-135517037D01*
X171761716Y-134884728D01*
X171707550Y-134845375D01*
X171518217Y-134748904D01*
X171316129Y-134683242D01*
X171106246Y-134650000D01*
X170893754Y-134650000D01*
X170683872Y-134683242D01*
X170683869Y-134683242D01*
X170481782Y-134748904D01*
X170292439Y-134845380D01*
X170238282Y-134884727D01*
X170238282Y-134884728D01*
X170870591Y-135517037D01*
X170807007Y-135534075D01*
X170692993Y-135599901D01*
X170599901Y-135692993D01*
X170534075Y-135807007D01*
X170517037Y-135870591D01*
X169884728Y-135238282D01*
X169884727Y-135238282D01*
X169845380Y-135292440D01*
X169845376Y-135292446D01*
X169840760Y-135301505D01*
X169792781Y-135352297D01*
X169724959Y-135369087D01*
X169658826Y-135346543D01*
X169619794Y-135301493D01*
X169615051Y-135292184D01*
X169615049Y-135292181D01*
X169615048Y-135292179D01*
X169490109Y-135120213D01*
X169396819Y-135026923D01*
X169382115Y-134999995D01*
X169365523Y-134974177D01*
X169364631Y-134967976D01*
X169363334Y-134965600D01*
X169360500Y-134939242D01*
X169360500Y-127980758D01*
X169380185Y-127913719D01*
X169396819Y-127893077D01*
X169402184Y-127887712D01*
X169410104Y-127879792D01*
X169410106Y-127879788D01*
X169410109Y-127879786D01*
X169477515Y-127787007D01*
X169535051Y-127707816D01*
X169539793Y-127698508D01*
X169587763Y-127647711D01*
X169655583Y-127630911D01*
X169721719Y-127653445D01*
X169760763Y-127698500D01*
X169765373Y-127707547D01*
X169804728Y-127761716D01*
X170437037Y-127129408D01*
X170454075Y-127192993D01*
X170519901Y-127307007D01*
X170612993Y-127400099D01*
X170727007Y-127465925D01*
X170790590Y-127482962D01*
X170158282Y-128115269D01*
X170158282Y-128115270D01*
X170212449Y-128154624D01*
X170401782Y-128251095D01*
X170603870Y-128316757D01*
X170813754Y-128350000D01*
X171026246Y-128350000D01*
X171236127Y-128316757D01*
X171236130Y-128316757D01*
X171438217Y-128251095D01*
X171627554Y-128154622D01*
X171681716Y-128115270D01*
X171681717Y-128115270D01*
X171049408Y-127482962D01*
X171112993Y-127465925D01*
X171227007Y-127400099D01*
X171320099Y-127307007D01*
X171385925Y-127192993D01*
X171402962Y-127129408D01*
X172035270Y-127761717D01*
X172035270Y-127761716D01*
X172074622Y-127707554D01*
X172171095Y-127518217D01*
X172236757Y-127316130D01*
X172236757Y-127316127D01*
X172270000Y-127106246D01*
X172270000Y-126893753D01*
X172236757Y-126683872D01*
X172236757Y-126683869D01*
X172171095Y-126481782D01*
X172074624Y-126292449D01*
X172035270Y-126238282D01*
X172035269Y-126238282D01*
X171402962Y-126870590D01*
X171385925Y-126807007D01*
X171320099Y-126692993D01*
X171227007Y-126599901D01*
X171112993Y-126534075D01*
X171049409Y-126517037D01*
X171681716Y-125884728D01*
X171627550Y-125845375D01*
X171438217Y-125748904D01*
X171236129Y-125683242D01*
X171026246Y-125650000D01*
X170813754Y-125650000D01*
X170603872Y-125683242D01*
X170603869Y-125683242D01*
X170401782Y-125748904D01*
X170212439Y-125845380D01*
X170158282Y-125884727D01*
X170158282Y-125884728D01*
X170790591Y-126517037D01*
X170727007Y-126534075D01*
X170612993Y-126599901D01*
X170519901Y-126692993D01*
X170454075Y-126807007D01*
X170437037Y-126870591D01*
X169804728Y-126238282D01*
X169804727Y-126238282D01*
X169765380Y-126292440D01*
X169765376Y-126292446D01*
X169760760Y-126301505D01*
X169712781Y-126352297D01*
X169644959Y-126369087D01*
X169578826Y-126346543D01*
X169539794Y-126301493D01*
X169535051Y-126292184D01*
X169535049Y-126292181D01*
X169535048Y-126292179D01*
X169410109Y-126120213D01*
X169316819Y-126026923D01*
X169302115Y-125999995D01*
X169285523Y-125974177D01*
X169284631Y-125967976D01*
X169283334Y-125965600D01*
X169280500Y-125939242D01*
X169280500Y-118060758D01*
X169300185Y-117993719D01*
X169316819Y-117973077D01*
X169357608Y-117932288D01*
X169410104Y-117879792D01*
X169410106Y-117879788D01*
X169410109Y-117879786D01*
X169495890Y-117761717D01*
X169535051Y-117707816D01*
X169539793Y-117698508D01*
X169587763Y-117647711D01*
X169655583Y-117630911D01*
X169721719Y-117653445D01*
X169760763Y-117698500D01*
X169765373Y-117707547D01*
X169804728Y-117761716D01*
X170437037Y-117129408D01*
X170454075Y-117192993D01*
X170519901Y-117307007D01*
X170612993Y-117400099D01*
X170727007Y-117465925D01*
X170790590Y-117482962D01*
X170158282Y-118115269D01*
X170158282Y-118115270D01*
X170212449Y-118154624D01*
X170401782Y-118251095D01*
X170603870Y-118316757D01*
X170813754Y-118350000D01*
X171026246Y-118350000D01*
X171236127Y-118316757D01*
X171236130Y-118316757D01*
X171438217Y-118251095D01*
X171627554Y-118154622D01*
X171681716Y-118115270D01*
X171681717Y-118115270D01*
X171049408Y-117482962D01*
X171112993Y-117465925D01*
X171227007Y-117400099D01*
X171320099Y-117307007D01*
X171385925Y-117192993D01*
X171402962Y-117129408D01*
X172035270Y-117761717D01*
X172035270Y-117761716D01*
X172074622Y-117707554D01*
X172171095Y-117518217D01*
X172236757Y-117316130D01*
X172236757Y-117316127D01*
X172270000Y-117106246D01*
X172270000Y-116893753D01*
X172236757Y-116683872D01*
X172236757Y-116683869D01*
X172171095Y-116481782D01*
X172074624Y-116292449D01*
X172035270Y-116238282D01*
X172035269Y-116238282D01*
X171402962Y-116870590D01*
X171385925Y-116807007D01*
X171320099Y-116692993D01*
X171227007Y-116599901D01*
X171112993Y-116534075D01*
X171049409Y-116517037D01*
X171681716Y-115884728D01*
X171627550Y-115845375D01*
X171438217Y-115748904D01*
X171236129Y-115683242D01*
X171026246Y-115650000D01*
X170813754Y-115650000D01*
X170603872Y-115683242D01*
X170603869Y-115683242D01*
X170401782Y-115748904D01*
X170212439Y-115845380D01*
X170158282Y-115884727D01*
X170158282Y-115884728D01*
X170790591Y-116517037D01*
X170727007Y-116534075D01*
X170612993Y-116599901D01*
X170519901Y-116692993D01*
X170454075Y-116807007D01*
X170437037Y-116870591D01*
X169804728Y-116238282D01*
X169804727Y-116238282D01*
X169765380Y-116292440D01*
X169765376Y-116292446D01*
X169760760Y-116301505D01*
X169712781Y-116352297D01*
X169644959Y-116369087D01*
X169578826Y-116346543D01*
X169539794Y-116301493D01*
X169535051Y-116292184D01*
X169535049Y-116292181D01*
X169535048Y-116292179D01*
X169410109Y-116120213D01*
X169316819Y-116026923D01*
X169302115Y-115999995D01*
X169285523Y-115974177D01*
X169284631Y-115967976D01*
X169283334Y-115965600D01*
X169280500Y-115939242D01*
X169280500Y-109060758D01*
X169300185Y-108993719D01*
X169316819Y-108973077D01*
X169332413Y-108957483D01*
X169410104Y-108879792D01*
X169410106Y-108879788D01*
X169410109Y-108879786D01*
X169495890Y-108761717D01*
X169535051Y-108707816D01*
X169539793Y-108698508D01*
X169587763Y-108647711D01*
X169655583Y-108630911D01*
X169721719Y-108653445D01*
X169760763Y-108698500D01*
X169765373Y-108707547D01*
X169804728Y-108761716D01*
X170437037Y-108129408D01*
X170454075Y-108192993D01*
X170519901Y-108307007D01*
X170612993Y-108400099D01*
X170727007Y-108465925D01*
X170790590Y-108482962D01*
X170158282Y-109115269D01*
X170158282Y-109115270D01*
X170212449Y-109154624D01*
X170401782Y-109251095D01*
X170603870Y-109316757D01*
X170813754Y-109350000D01*
X171026246Y-109350000D01*
X171236127Y-109316757D01*
X171236130Y-109316757D01*
X171438217Y-109251095D01*
X171627554Y-109154622D01*
X171681716Y-109115270D01*
X171681717Y-109115270D01*
X171049408Y-108482962D01*
X171112993Y-108465925D01*
X171227007Y-108400099D01*
X171320099Y-108307007D01*
X171385925Y-108192993D01*
X171402962Y-108129408D01*
X172035270Y-108761717D01*
X172035270Y-108761716D01*
X172074622Y-108707554D01*
X172171095Y-108518217D01*
X172236757Y-108316130D01*
X172236757Y-108316127D01*
X172270000Y-108106246D01*
X172270000Y-107893753D01*
X172236757Y-107683872D01*
X172236757Y-107683869D01*
X172171095Y-107481782D01*
X172074624Y-107292449D01*
X172035270Y-107238282D01*
X172035269Y-107238282D01*
X171402962Y-107870590D01*
X171385925Y-107807007D01*
X171320099Y-107692993D01*
X171227007Y-107599901D01*
X171112993Y-107534075D01*
X171049409Y-107517037D01*
X171681716Y-106884728D01*
X171627550Y-106845375D01*
X171438217Y-106748904D01*
X171236129Y-106683242D01*
X171026246Y-106650000D01*
X170813754Y-106650000D01*
X170603872Y-106683242D01*
X170603869Y-106683242D01*
X170401782Y-106748904D01*
X170212439Y-106845380D01*
X170158282Y-106884727D01*
X170158282Y-106884728D01*
X170790591Y-107517037D01*
X170727007Y-107534075D01*
X170612993Y-107599901D01*
X170519901Y-107692993D01*
X170454075Y-107807007D01*
X170437037Y-107870591D01*
X169804728Y-107238282D01*
X169804727Y-107238282D01*
X169765380Y-107292440D01*
X169765376Y-107292446D01*
X169760760Y-107301505D01*
X169712781Y-107352297D01*
X169644959Y-107369087D01*
X169578826Y-107346543D01*
X169539794Y-107301493D01*
X169535051Y-107292184D01*
X169535049Y-107292181D01*
X169535048Y-107292179D01*
X169410109Y-107120213D01*
X169316819Y-107026923D01*
X169302115Y-106999995D01*
X169285523Y-106974177D01*
X169284631Y-106967976D01*
X169283334Y-106965600D01*
X169280500Y-106939242D01*
X169280500Y-106291310D01*
X169280359Y-106290602D01*
X169279437Y-106285965D01*
X169245895Y-106117334D01*
X169182122Y-105963373D01*
X169178013Y-105953453D01*
X169122505Y-105870380D01*
X169079465Y-105805966D01*
X169018132Y-105744633D01*
X168954035Y-105680536D01*
X160936819Y-97663319D01*
X160903334Y-97601996D01*
X160900500Y-97575638D01*
X160900500Y-93911306D01*
X160900499Y-93911304D01*
X160865896Y-93737341D01*
X160865893Y-93737332D01*
X160863486Y-93731522D01*
X160832108Y-93655768D01*
X160824640Y-93586300D01*
X160855916Y-93523821D01*
X160916005Y-93488169D01*
X160985830Y-93490663D01*
X161034351Y-93520636D01*
X163979089Y-96465374D01*
X163979099Y-96465385D01*
X163983429Y-96469715D01*
X163983430Y-96469716D01*
X164095234Y-96581520D01*
X164181429Y-96631284D01*
X164181431Y-96631286D01*
X164232161Y-96660575D01*
X164232165Y-96660577D01*
X164384893Y-96701501D01*
X164384896Y-96701501D01*
X164550603Y-96701501D01*
X164550619Y-96701500D01*
X173892331Y-96701500D01*
X173892347Y-96701501D01*
X173899943Y-96701501D01*
X174058054Y-96701501D01*
X174058057Y-96701501D01*
X174210785Y-96660577D01*
X174224530Y-96652640D01*
X174261498Y-96631298D01*
X174261509Y-96631290D01*
X174261521Y-96631284D01*
X174347716Y-96581520D01*
X174459520Y-96469716D01*
X174459520Y-96469714D01*
X174469723Y-96459512D01*
X174469727Y-96459506D01*
X174635158Y-96294075D01*
X174696479Y-96260592D01*
X174761151Y-96263825D01*
X174775466Y-96268477D01*
X174977648Y-96300500D01*
X174977649Y-96300500D01*
X175182351Y-96300500D01*
X175182352Y-96300500D01*
X175384534Y-96268477D01*
X175579219Y-96205220D01*
X175761610Y-96112287D01*
X175854590Y-96044732D01*
X175927213Y-95991971D01*
X175927215Y-95991968D01*
X175927219Y-95991966D01*
X176071966Y-95847219D01*
X176071968Y-95847215D01*
X176071971Y-95847213D01*
X176154413Y-95733739D01*
X176192287Y-95681610D01*
X176285220Y-95499219D01*
X176348477Y-95304534D01*
X176380500Y-95102352D01*
X176380500Y-94897648D01*
X176360240Y-94769735D01*
X176348477Y-94695465D01*
X176319127Y-94605137D01*
X176285220Y-94500781D01*
X176285218Y-94500778D01*
X176285218Y-94500776D01*
X176242788Y-94417504D01*
X176192287Y-94318390D01*
X176156024Y-94268478D01*
X176071971Y-94152786D01*
X175927213Y-94008028D01*
X175761613Y-93887715D01*
X175761612Y-93887714D01*
X175761610Y-93887713D01*
X175698320Y-93855465D01*
X175579223Y-93794781D01*
X175384534Y-93731522D01*
X175209995Y-93703878D01*
X175182352Y-93699500D01*
X174977648Y-93699500D01*
X174953329Y-93703351D01*
X174775465Y-93731522D01*
X174580776Y-93794781D01*
X174398386Y-93887715D01*
X174232786Y-94008028D01*
X174088028Y-94152786D01*
X173967715Y-94318386D01*
X173874781Y-94500776D01*
X173811522Y-94695465D01*
X173779500Y-94897648D01*
X173779500Y-95102351D01*
X173811523Y-95304535D01*
X173816172Y-95318845D01*
X173816605Y-95334052D01*
X173821924Y-95348308D01*
X173817582Y-95368269D01*
X173818165Y-95388687D01*
X173810078Y-95402770D01*
X173807075Y-95416581D01*
X173785926Y-95444837D01*
X173766588Y-95464177D01*
X173705266Y-95497665D01*
X173678902Y-95500500D01*
X166295476Y-95500500D01*
X166228437Y-95480815D01*
X166182682Y-95428011D01*
X166172738Y-95358853D01*
X166177545Y-95338183D01*
X166188475Y-95304542D01*
X166188475Y-95304538D01*
X166188477Y-95304534D01*
X166220500Y-95102352D01*
X166220500Y-94897648D01*
X166200240Y-94769735D01*
X166188478Y-94695472D01*
X166188477Y-94695471D01*
X166188477Y-94695466D01*
X166183825Y-94681151D01*
X166181832Y-94611312D01*
X166214075Y-94555158D01*
X168480520Y-92288716D01*
X168559577Y-92151784D01*
X168600501Y-91999057D01*
X168600501Y-91840942D01*
X168600501Y-91833347D01*
X168600500Y-91833329D01*
X168600500Y-91579765D01*
X168620185Y-91512726D01*
X168621398Y-91510874D01*
X168709390Y-91379185D01*
X168709390Y-91379184D01*
X168709394Y-91379179D01*
X168769737Y-91233497D01*
X168800500Y-91078842D01*
X168800500Y-90921158D01*
X168800500Y-90921155D01*
X168800155Y-90917652D01*
X168800500Y-90915833D01*
X168800500Y-90915066D01*
X168800645Y-90915066D01*
X168813175Y-90849006D01*
X168861241Y-90798297D01*
X168923558Y-90781500D01*
X172812331Y-90781500D01*
X172812347Y-90781501D01*
X172819943Y-90781501D01*
X172978054Y-90781501D01*
X172978057Y-90781501D01*
X173130785Y-90740577D01*
X173180904Y-90711639D01*
X173267716Y-90661520D01*
X173379520Y-90549716D01*
X173379520Y-90549714D01*
X173389728Y-90539507D01*
X173389729Y-90539504D01*
X174635159Y-89294075D01*
X174696480Y-89260592D01*
X174761154Y-89263826D01*
X174775466Y-89268477D01*
X174977648Y-89300500D01*
X174977649Y-89300500D01*
X175182351Y-89300500D01*
X175182352Y-89300500D01*
X175384534Y-89268477D01*
X175579219Y-89205220D01*
X175761610Y-89112287D01*
X175854590Y-89044732D01*
X175927213Y-88991971D01*
X175927215Y-88991968D01*
X175927219Y-88991966D01*
X176071966Y-88847219D01*
X176071968Y-88847215D01*
X176071971Y-88847213D01*
X176128259Y-88769738D01*
X176192287Y-88681610D01*
X176285220Y-88499219D01*
X176348477Y-88304534D01*
X176380500Y-88102352D01*
X176380500Y-87897648D01*
X176366618Y-87810000D01*
X176348477Y-87695465D01*
X176295354Y-87531971D01*
X176285220Y-87500781D01*
X176285218Y-87500778D01*
X176285218Y-87500776D01*
X176227354Y-87387213D01*
X176192287Y-87318390D01*
X176144004Y-87251933D01*
X176071971Y-87152786D01*
X175927213Y-87008028D01*
X175761613Y-86887715D01*
X175761612Y-86887714D01*
X175761610Y-86887713D01*
X175676859Y-86844530D01*
X175579223Y-86794781D01*
X175384537Y-86731523D01*
X175376812Y-86730300D01*
X175313678Y-86700369D01*
X175276748Y-86641057D01*
X175277748Y-86571194D01*
X175316359Y-86512962D01*
X175334209Y-86500442D01*
X175368716Y-86480520D01*
X175480520Y-86368716D01*
X175559577Y-86231784D01*
X175600500Y-86079057D01*
X175600500Y-75619060D01*
X175600501Y-75619047D01*
X175600501Y-75450944D01*
X175583644Y-75388034D01*
X175559577Y-75298216D01*
X175559573Y-75298209D01*
X175480524Y-75161290D01*
X175480518Y-75161282D01*
X174463770Y-74144534D01*
X173373437Y-73054202D01*
X173339953Y-72992880D01*
X173343187Y-72928205D01*
X173366015Y-72857951D01*
X173400500Y-72640222D01*
X173400500Y-72419778D01*
X173366015Y-72202049D01*
X173314331Y-72042980D01*
X173297896Y-71992396D01*
X173297895Y-71992393D01*
X173255818Y-71909815D01*
X173197815Y-71795978D01*
X173139501Y-71715715D01*
X173068247Y-71617641D01*
X173068243Y-71617636D01*
X172912363Y-71461756D01*
X172912358Y-71461752D01*
X172734025Y-71332187D01*
X172734024Y-71332186D01*
X172734022Y-71332185D01*
X172616791Y-71272452D01*
X172537606Y-71232104D01*
X172537603Y-71232103D01*
X172327952Y-71163985D01*
X172219086Y-71146742D01*
X172110222Y-71129500D01*
X171889778Y-71129500D01*
X171817201Y-71140995D01*
X171672047Y-71163985D01*
X171462396Y-71232103D01*
X171462393Y-71232104D01*
X171265974Y-71332187D01*
X171087641Y-71461752D01*
X171087636Y-71461756D01*
X171037463Y-71511929D01*
X170976140Y-71545413D01*
X170906448Y-71540428D01*
X170850515Y-71498557D01*
X170833601Y-71467580D01*
X170803797Y-71387671D01*
X170803793Y-71387664D01*
X170717547Y-71272455D01*
X170717544Y-71272452D01*
X170602335Y-71186206D01*
X170602328Y-71186202D01*
X170467482Y-71135908D01*
X170467483Y-71135908D01*
X170407883Y-71129501D01*
X170407881Y-71129500D01*
X170407873Y-71129500D01*
X170407864Y-71129500D01*
X168512129Y-71129500D01*
X168512123Y-71129501D01*
X168452516Y-71135908D01*
X168317671Y-71186202D01*
X168317664Y-71186206D01*
X168202455Y-71272452D01*
X168202452Y-71272455D01*
X168116206Y-71387664D01*
X168116202Y-71387671D01*
X168065908Y-71522517D01*
X168059501Y-71582116D01*
X168059500Y-71582135D01*
X168059500Y-71805500D01*
X168039815Y-71872539D01*
X167987011Y-71918294D01*
X167935500Y-71929500D01*
X158530098Y-71929500D01*
X158500657Y-71920855D01*
X158470671Y-71914332D01*
X158465655Y-71910577D01*
X158463059Y-71909815D01*
X158442417Y-71893181D01*
X158294077Y-71744841D01*
X158260592Y-71683518D01*
X158263827Y-71618842D01*
X158268477Y-71604534D01*
X158300500Y-71402352D01*
X158300500Y-71197648D01*
X158268477Y-70995466D01*
X158205220Y-70800781D01*
X158205218Y-70800778D01*
X158205218Y-70800776D01*
X158153865Y-70699991D01*
X158112287Y-70618390D01*
X158096892Y-70597200D01*
X157991971Y-70452786D01*
X157847213Y-70308028D01*
X157681613Y-70187715D01*
X157681612Y-70187714D01*
X157681610Y-70187713D01*
X157621898Y-70157288D01*
X157499223Y-70094781D01*
X157304534Y-70031522D01*
X157129995Y-70003878D01*
X157102352Y-69999500D01*
X156897648Y-69999500D01*
X156873329Y-70003351D01*
X156695465Y-70031522D01*
X156500776Y-70094781D01*
X156318386Y-70187715D01*
X156152786Y-70308028D01*
X156008028Y-70452786D01*
X155887715Y-70618386D01*
X155794781Y-70800776D01*
X155731522Y-70995465D01*
X155699500Y-71197648D01*
X155699500Y-71402351D01*
X155731522Y-71604534D01*
X155794781Y-71799223D01*
X155852227Y-71911965D01*
X155883653Y-71973642D01*
X155887715Y-71981613D01*
X156008028Y-72147213D01*
X156152786Y-72291971D01*
X156307749Y-72404556D01*
X156318390Y-72412287D01*
X156409840Y-72458883D01*
X156411080Y-72459515D01*
X156461876Y-72507490D01*
X156478671Y-72575311D01*
X156456134Y-72641446D01*
X156411080Y-72680485D01*
X156318386Y-72727715D01*
X156152786Y-72848028D01*
X156008028Y-72992786D01*
X155887715Y-73158386D01*
X155794781Y-73340776D01*
X155731522Y-73535465D01*
X155699500Y-73737648D01*
X155699500Y-73942351D01*
X155731522Y-74144534D01*
X155794781Y-74339223D01*
X155887715Y-74521613D01*
X156008028Y-74687213D01*
X156152786Y-74831971D01*
X156298710Y-74937989D01*
X156318390Y-74952287D01*
X156409840Y-74998883D01*
X156411080Y-74999515D01*
X156461876Y-75047490D01*
X156478671Y-75115311D01*
X156456134Y-75181446D01*
X156411080Y-75220485D01*
X156318386Y-75267715D01*
X156152786Y-75388028D01*
X156008028Y-75532786D01*
X155887715Y-75698386D01*
X155794781Y-75880776D01*
X155731522Y-76075465D01*
X155707005Y-76230263D01*
X155699500Y-76277648D01*
X155699500Y-76482352D01*
X155702189Y-76499328D01*
X155731522Y-76684534D01*
X155794781Y-76879223D01*
X155887715Y-77061613D01*
X156008028Y-77227213D01*
X156152786Y-77371971D01*
X156307749Y-77484556D01*
X156318390Y-77492287D01*
X156409840Y-77538883D01*
X156411080Y-77539515D01*
X156461876Y-77587490D01*
X156478671Y-77655311D01*
X156456134Y-77721446D01*
X156411080Y-77760485D01*
X156318386Y-77807715D01*
X156152786Y-77928028D01*
X156008028Y-78072786D01*
X155887715Y-78238386D01*
X155794781Y-78420776D01*
X155731522Y-78615465D01*
X155699500Y-78817648D01*
X155699500Y-79022351D01*
X155731522Y-79224534D01*
X155794781Y-79419223D01*
X155822559Y-79473739D01*
X155886754Y-79599728D01*
X155887715Y-79601613D01*
X156008028Y-79767213D01*
X156152786Y-79911971D01*
X156307749Y-80024556D01*
X156318390Y-80032287D01*
X156409840Y-80078883D01*
X156411080Y-80079515D01*
X156461876Y-80127490D01*
X156478671Y-80195311D01*
X156456134Y-80261446D01*
X156411080Y-80300485D01*
X156318386Y-80347715D01*
X156152786Y-80468028D01*
X156008028Y-80612786D01*
X155887715Y-80778386D01*
X155794781Y-80960776D01*
X155731522Y-81155465D01*
X155699500Y-81357648D01*
X155699500Y-81562351D01*
X155731522Y-81764534D01*
X155794781Y-81959223D01*
X155887715Y-82141613D01*
X156008028Y-82307213D01*
X156152786Y-82451971D01*
X156262358Y-82531578D01*
X156318390Y-82572287D01*
X156409840Y-82618883D01*
X156411080Y-82619515D01*
X156461876Y-82667490D01*
X156478671Y-82735311D01*
X156456134Y-82801446D01*
X156411080Y-82840485D01*
X156318386Y-82887715D01*
X156152786Y-83008028D01*
X156008028Y-83152786D01*
X155887715Y-83318386D01*
X155794781Y-83500776D01*
X155731522Y-83695465D01*
X155699500Y-83897648D01*
X155699500Y-84102351D01*
X155731522Y-84304534D01*
X155794781Y-84499223D01*
X155887715Y-84681613D01*
X156008028Y-84847213D01*
X156152786Y-84991971D01*
X156307749Y-85104556D01*
X156318390Y-85112287D01*
X156409840Y-85158883D01*
X156411080Y-85159515D01*
X156461876Y-85207490D01*
X156478671Y-85275311D01*
X156456134Y-85341446D01*
X156411080Y-85380485D01*
X156318386Y-85427715D01*
X156152786Y-85548028D01*
X156008028Y-85692786D01*
X155887715Y-85858386D01*
X155794781Y-86040776D01*
X155731522Y-86235465D01*
X155699500Y-86437648D01*
X155699500Y-86642351D01*
X155731522Y-86844534D01*
X155794781Y-87039223D01*
X155852643Y-87152781D01*
X155876447Y-87199500D01*
X155887715Y-87221613D01*
X156008028Y-87387213D01*
X156152786Y-87531971D01*
X156307749Y-87644556D01*
X156318390Y-87652287D01*
X156409840Y-87698883D01*
X156411080Y-87699515D01*
X156461876Y-87747490D01*
X156478671Y-87815311D01*
X156456134Y-87881446D01*
X156411080Y-87920485D01*
X156318386Y-87967715D01*
X156152786Y-88088028D01*
X156008028Y-88232786D01*
X155887715Y-88398386D01*
X155794781Y-88580776D01*
X155731522Y-88775465D01*
X155707441Y-88927511D01*
X155699500Y-88977648D01*
X155699500Y-89182352D01*
X155710215Y-89250000D01*
X155731523Y-89384535D01*
X155731524Y-89384542D01*
X155742455Y-89418183D01*
X155744450Y-89488024D01*
X155708369Y-89547856D01*
X155645668Y-89578684D01*
X155624524Y-89580500D01*
X145701098Y-89580500D01*
X145634059Y-89560815D01*
X145613417Y-89544181D01*
X144373770Y-88304534D01*
X143054076Y-86984841D01*
X143020592Y-86923519D01*
X143023828Y-86858841D01*
X143023887Y-86858660D01*
X143028477Y-86844534D01*
X143060500Y-86642352D01*
X143060500Y-86437648D01*
X143037211Y-86290609D01*
X143028477Y-86235465D01*
X142980907Y-86089060D01*
X142965220Y-86040781D01*
X142965218Y-86040778D01*
X142965218Y-86040776D01*
X142924412Y-85960691D01*
X142872287Y-85858390D01*
X142851972Y-85830428D01*
X142751971Y-85692786D01*
X142607213Y-85548028D01*
X142441614Y-85427715D01*
X142435006Y-85424348D01*
X142348917Y-85380483D01*
X142298123Y-85332511D01*
X142281328Y-85264690D01*
X142303865Y-85198555D01*
X142348917Y-85159516D01*
X142441610Y-85112287D01*
X142462770Y-85096913D01*
X142607213Y-84991971D01*
X142607215Y-84991968D01*
X142607219Y-84991966D01*
X142751966Y-84847219D01*
X142770152Y-84822186D01*
X142825480Y-84779519D01*
X142895094Y-84773538D01*
X142956890Y-84806142D01*
X142958153Y-84807388D01*
X146165425Y-88014660D01*
X146198910Y-88075983D01*
X146199361Y-88078149D01*
X146230261Y-88233491D01*
X146230264Y-88233501D01*
X146290602Y-88379172D01*
X146290609Y-88379185D01*
X146378210Y-88510288D01*
X146378213Y-88510292D01*
X146489707Y-88621786D01*
X146489711Y-88621789D01*
X146620814Y-88709390D01*
X146620827Y-88709397D01*
X146718853Y-88750000D01*
X146766503Y-88769737D01*
X146908635Y-88798009D01*
X146921153Y-88800499D01*
X146921156Y-88800500D01*
X146921158Y-88800500D01*
X147078844Y-88800500D01*
X147078845Y-88800499D01*
X147233497Y-88769737D01*
X147379179Y-88709394D01*
X147510289Y-88621789D01*
X147621789Y-88510289D01*
X147709394Y-88379179D01*
X147769737Y-88233497D01*
X147800500Y-88078842D01*
X147800500Y-87921158D01*
X147800500Y-87921155D01*
X147800499Y-87921153D01*
X147800366Y-87920485D01*
X147769737Y-87766503D01*
X147758161Y-87738555D01*
X147709397Y-87620827D01*
X147709390Y-87620814D01*
X147621789Y-87489711D01*
X147621786Y-87489707D01*
X147510292Y-87378213D01*
X147510288Y-87378210D01*
X147379185Y-87290609D01*
X147379172Y-87290602D01*
X147233501Y-87230264D01*
X147233491Y-87230261D01*
X147078149Y-87199361D01*
X147016238Y-87166976D01*
X147014660Y-87165425D01*
X143487590Y-83638355D01*
X143487588Y-83638352D01*
X143368717Y-83519481D01*
X143368716Y-83519480D01*
X143281904Y-83469360D01*
X143281904Y-83469359D01*
X143281900Y-83469358D01*
X143231785Y-83440423D01*
X143079057Y-83399499D01*
X142989602Y-83399499D01*
X142922563Y-83379814D01*
X142879118Y-83331796D01*
X142872285Y-83318386D01*
X142751971Y-83152786D01*
X142607213Y-83008028D01*
X142441614Y-82887715D01*
X142435006Y-82884348D01*
X142348917Y-82840483D01*
X142298123Y-82792511D01*
X142281328Y-82724690D01*
X142303865Y-82658555D01*
X142348917Y-82619516D01*
X142441610Y-82572287D01*
X142497642Y-82531578D01*
X142607213Y-82451971D01*
X142607215Y-82451968D01*
X142607219Y-82451966D01*
X142751966Y-82307219D01*
X142751968Y-82307215D01*
X142751971Y-82307213D01*
X142872284Y-82141614D01*
X142872285Y-82141613D01*
X142872287Y-82141610D01*
X142879117Y-82128204D01*
X142927091Y-82077409D01*
X142989602Y-82060500D01*
X144159903Y-82060500D01*
X144226942Y-82080185D01*
X144247584Y-82096819D01*
X148363181Y-86212416D01*
X148396666Y-86273739D01*
X148399500Y-86300097D01*
X148399500Y-87420234D01*
X148379815Y-87487273D01*
X148378602Y-87489125D01*
X148290609Y-87620814D01*
X148290602Y-87620827D01*
X148230264Y-87766498D01*
X148230261Y-87766510D01*
X148199500Y-87921153D01*
X148199500Y-88078846D01*
X148230261Y-88233489D01*
X148230264Y-88233501D01*
X148290602Y-88379172D01*
X148290609Y-88379185D01*
X148378210Y-88510288D01*
X148378213Y-88510292D01*
X148489707Y-88621786D01*
X148489711Y-88621789D01*
X148620814Y-88709390D01*
X148620827Y-88709397D01*
X148718853Y-88750000D01*
X148766503Y-88769737D01*
X148908635Y-88798009D01*
X148921153Y-88800499D01*
X148921156Y-88800500D01*
X148921158Y-88800500D01*
X149078844Y-88800500D01*
X149078845Y-88800499D01*
X149233497Y-88769737D01*
X149379179Y-88709394D01*
X149510289Y-88621789D01*
X149621789Y-88510289D01*
X149709394Y-88379179D01*
X149769737Y-88233497D01*
X149800500Y-88078842D01*
X149800500Y-87921158D01*
X149800500Y-87921155D01*
X149800499Y-87921153D01*
X149800366Y-87920485D01*
X149769737Y-87766503D01*
X149758161Y-87738555D01*
X149709397Y-87620827D01*
X149709390Y-87620814D01*
X149621398Y-87489125D01*
X149600520Y-87422447D01*
X149600500Y-87420234D01*
X149600500Y-86089060D01*
X149600501Y-86089047D01*
X149600501Y-85920944D01*
X149600501Y-85920943D01*
X149559577Y-85768216D01*
X149539557Y-85733541D01*
X149523085Y-85665642D01*
X149545938Y-85599615D01*
X149600859Y-85556424D01*
X149670412Y-85549783D01*
X149732515Y-85581799D01*
X149734626Y-85583861D01*
X151165425Y-87014660D01*
X151198910Y-87075983D01*
X151199361Y-87078149D01*
X151230261Y-87233491D01*
X151230264Y-87233501D01*
X151290602Y-87379172D01*
X151290609Y-87379185D01*
X151378210Y-87510288D01*
X151378213Y-87510292D01*
X151489707Y-87621786D01*
X151489711Y-87621789D01*
X151620814Y-87709390D01*
X151620827Y-87709397D01*
X151758683Y-87766498D01*
X151766503Y-87769737D01*
X151921153Y-87800499D01*
X151921156Y-87800500D01*
X151921158Y-87800500D01*
X152078844Y-87800500D01*
X152078845Y-87800499D01*
X152233497Y-87769737D01*
X152379179Y-87709394D01*
X152510289Y-87621789D01*
X152621789Y-87510289D01*
X152709394Y-87379179D01*
X152769737Y-87233497D01*
X152800500Y-87078842D01*
X152800500Y-86949097D01*
X152806738Y-86927851D01*
X152808318Y-86905763D01*
X152816390Y-86894979D01*
X152820185Y-86882058D01*
X152836918Y-86867558D01*
X152850190Y-86849830D01*
X152862810Y-86845122D01*
X152872989Y-86836303D01*
X152894906Y-86833151D01*
X152915654Y-86825413D01*
X152928814Y-86828275D01*
X152942147Y-86826359D01*
X152962290Y-86835558D01*
X152983927Y-86840265D01*
X153001652Y-86853533D01*
X153005703Y-86855384D01*
X153012181Y-86861416D01*
X153165425Y-87014660D01*
X153198910Y-87075983D01*
X153199361Y-87078149D01*
X153230261Y-87233491D01*
X153230264Y-87233501D01*
X153290602Y-87379172D01*
X153290609Y-87379185D01*
X153378210Y-87510288D01*
X153378213Y-87510292D01*
X153489707Y-87621786D01*
X153489711Y-87621789D01*
X153620814Y-87709390D01*
X153620827Y-87709397D01*
X153758683Y-87766498D01*
X153766503Y-87769737D01*
X153921153Y-87800499D01*
X153921156Y-87800500D01*
X153921158Y-87800500D01*
X154078844Y-87800500D01*
X154078845Y-87800499D01*
X154233497Y-87769737D01*
X154379179Y-87709394D01*
X154510289Y-87621789D01*
X154621789Y-87510289D01*
X154709394Y-87379179D01*
X154769737Y-87233497D01*
X154800500Y-87078842D01*
X154800500Y-86921158D01*
X154800500Y-86921155D01*
X154800499Y-86921153D01*
X154789838Y-86867558D01*
X154769737Y-86766503D01*
X154769735Y-86766498D01*
X154709397Y-86620827D01*
X154709390Y-86620814D01*
X154621789Y-86489711D01*
X154621786Y-86489707D01*
X154510292Y-86378213D01*
X154510288Y-86378210D01*
X154379185Y-86290609D01*
X154379172Y-86290602D01*
X154233501Y-86230264D01*
X154233491Y-86230261D01*
X154078149Y-86199361D01*
X154016238Y-86166976D01*
X154014660Y-86165425D01*
X143867590Y-76018355D01*
X143867588Y-76018352D01*
X143748717Y-75899481D01*
X143748716Y-75899480D01*
X143661904Y-75849360D01*
X143661904Y-75849359D01*
X143661900Y-75849358D01*
X143611785Y-75820423D01*
X143459057Y-75779499D01*
X143300943Y-75779499D01*
X143293347Y-75779499D01*
X143293331Y-75779500D01*
X142989602Y-75779500D01*
X142922563Y-75759815D01*
X142879117Y-75711795D01*
X142872284Y-75698385D01*
X142751971Y-75532786D01*
X142607213Y-75388028D01*
X142441614Y-75267715D01*
X142358760Y-75225499D01*
X142348917Y-75220483D01*
X142298123Y-75172511D01*
X142281328Y-75104690D01*
X142303865Y-75038555D01*
X142348917Y-74999516D01*
X142441610Y-74952287D01*
X142498832Y-74910713D01*
X142607213Y-74831971D01*
X142607215Y-74831968D01*
X142607219Y-74831966D01*
X142751966Y-74687219D01*
X142751968Y-74687215D01*
X142751971Y-74687213D01*
X142804732Y-74614590D01*
X142872287Y-74521610D01*
X142965220Y-74339219D01*
X143028477Y-74144534D01*
X143060500Y-73942352D01*
X143060500Y-73737648D01*
X143037498Y-73592420D01*
X143028477Y-73535465D01*
X142975430Y-73372204D01*
X142965220Y-73340781D01*
X142965218Y-73340778D01*
X142965218Y-73340776D01*
X142923430Y-73258763D01*
X142872287Y-73158390D01*
X142861500Y-73143543D01*
X142751971Y-72992786D01*
X142607219Y-72848034D01*
X142607211Y-72848028D01*
X142513547Y-72779978D01*
X142470882Y-72724649D01*
X142464903Y-72655036D01*
X142497508Y-72593240D01*
X142547426Y-72561955D01*
X142629334Y-72534814D01*
X142778656Y-72442712D01*
X142902712Y-72318656D01*
X142994814Y-72169334D01*
X143049999Y-72002797D01*
X143060500Y-71900009D01*
X143060499Y-70699992D01*
X143049999Y-70597203D01*
X142994814Y-70430666D01*
X142902712Y-70281344D01*
X142778656Y-70157288D01*
X142629334Y-70065186D01*
X142462797Y-70010001D01*
X142462795Y-70010000D01*
X142360010Y-69999500D01*
X141159998Y-69999500D01*
X141159981Y-69999501D01*
X141057203Y-70010000D01*
X141057200Y-70010001D01*
X140890668Y-70065185D01*
X140890663Y-70065187D01*
X140741342Y-70157289D01*
X140617289Y-70281342D01*
X140525187Y-70430663D01*
X140525185Y-70430668D01*
X140497349Y-70514670D01*
X140470001Y-70597203D01*
X140470001Y-70597204D01*
X140470000Y-70597204D01*
X140459500Y-70699983D01*
X140459500Y-71900001D01*
X140459501Y-71900018D01*
X140470000Y-72002796D01*
X140470001Y-72002799D01*
X140517856Y-72147213D01*
X140525186Y-72169334D01*
X140617288Y-72318656D01*
X140741344Y-72442712D01*
X140890666Y-72534814D01*
X140972570Y-72561954D01*
X141030015Y-72601727D01*
X141056838Y-72666243D01*
X141044523Y-72735018D01*
X141006451Y-72779978D01*
X140912787Y-72848028D01*
X140912782Y-72848032D01*
X140768028Y-72992786D01*
X140647715Y-73158386D01*
X140554781Y-73340776D01*
X140491522Y-73535465D01*
X140459500Y-73737648D01*
X140459500Y-73942351D01*
X140491522Y-74144534D01*
X140554781Y-74339223D01*
X140647715Y-74521613D01*
X140768028Y-74687213D01*
X140912786Y-74831971D01*
X141058710Y-74937989D01*
X141078390Y-74952287D01*
X141169840Y-74998883D01*
X141171080Y-74999515D01*
X141221876Y-75047490D01*
X141238671Y-75115311D01*
X141216134Y-75181446D01*
X141171080Y-75220485D01*
X141078386Y-75267715D01*
X140912786Y-75388028D01*
X140768028Y-75532786D01*
X140647715Y-75698386D01*
X140554781Y-75880776D01*
X140491522Y-76075465D01*
X140467005Y-76230263D01*
X140459500Y-76277648D01*
X140459500Y-76482352D01*
X140462189Y-76499328D01*
X140491522Y-76684534D01*
X140554781Y-76879223D01*
X140647715Y-77061613D01*
X140768028Y-77227213D01*
X140912786Y-77371971D01*
X141067749Y-77484556D01*
X141078390Y-77492287D01*
X141169840Y-77538883D01*
X141171080Y-77539515D01*
X141221876Y-77587490D01*
X141238671Y-77655311D01*
X141216134Y-77721446D01*
X141171080Y-77760485D01*
X141078386Y-77807715D01*
X140912786Y-77928028D01*
X140768028Y-78072786D01*
X140647715Y-78238386D01*
X140554781Y-78420776D01*
X140491522Y-78615465D01*
X140459500Y-78817648D01*
X140459500Y-79022351D01*
X140491522Y-79224534D01*
X140554781Y-79419223D01*
X140582559Y-79473739D01*
X140646754Y-79599728D01*
X140647715Y-79601613D01*
X140768028Y-79767213D01*
X140912786Y-79911971D01*
X141067749Y-80024556D01*
X141078390Y-80032287D01*
X141169840Y-80078883D01*
X141171080Y-80079515D01*
X141221876Y-80127490D01*
X141238671Y-80195311D01*
X141216134Y-80261446D01*
X141171080Y-80300485D01*
X141078386Y-80347715D01*
X140912786Y-80468028D01*
X140768028Y-80612786D01*
X140647715Y-80778386D01*
X140554781Y-80960776D01*
X140491522Y-81155465D01*
X140459500Y-81357648D01*
X140459500Y-81562351D01*
X140491522Y-81764534D01*
X140554781Y-81959223D01*
X140647715Y-82141613D01*
X140768028Y-82307213D01*
X140912786Y-82451971D01*
X141022358Y-82531578D01*
X141078390Y-82572287D01*
X141169840Y-82618883D01*
X141171080Y-82619515D01*
X141221876Y-82667490D01*
X141238671Y-82735311D01*
X141216134Y-82801446D01*
X141171080Y-82840485D01*
X141078386Y-82887715D01*
X140912786Y-83008028D01*
X140768028Y-83152786D01*
X140647715Y-83318386D01*
X140554781Y-83500776D01*
X140491522Y-83695465D01*
X140459500Y-83897648D01*
X140459500Y-84102351D01*
X140491522Y-84304534D01*
X140554781Y-84499223D01*
X140647715Y-84681613D01*
X140768028Y-84847213D01*
X140912786Y-84991971D01*
X141067749Y-85104556D01*
X141078390Y-85112287D01*
X141169840Y-85158883D01*
X141171080Y-85159515D01*
X141221876Y-85207490D01*
X141238671Y-85275311D01*
X141216134Y-85341446D01*
X141171080Y-85380485D01*
X141078386Y-85427715D01*
X140912786Y-85548028D01*
X140768028Y-85692786D01*
X140647715Y-85858386D01*
X140554781Y-86040776D01*
X140491522Y-86235465D01*
X140459500Y-86437648D01*
X140459500Y-86642351D01*
X140491522Y-86844534D01*
X140554781Y-87039223D01*
X140612643Y-87152781D01*
X140636447Y-87199500D01*
X140647715Y-87221613D01*
X140768028Y-87387213D01*
X140912786Y-87531971D01*
X141067749Y-87644556D01*
X141078390Y-87652287D01*
X141169840Y-87698883D01*
X141171080Y-87699515D01*
X141221876Y-87747490D01*
X141238671Y-87815311D01*
X141216134Y-87881446D01*
X141171080Y-87920485D01*
X141078386Y-87967715D01*
X140912786Y-88088028D01*
X140768028Y-88232786D01*
X140647715Y-88398386D01*
X140554781Y-88580776D01*
X140491522Y-88775465D01*
X140459500Y-88977648D01*
X140459500Y-89182351D01*
X140491522Y-89384534D01*
X140554781Y-89579223D01*
X140647715Y-89761613D01*
X140768028Y-89927213D01*
X140912786Y-90071971D01*
X141033694Y-90159814D01*
X141078390Y-90192287D01*
X141169840Y-90238883D01*
X141171080Y-90239515D01*
X141221876Y-90287490D01*
X141238671Y-90355311D01*
X141216134Y-90421446D01*
X141171080Y-90460485D01*
X141078386Y-90507715D01*
X140912786Y-90628028D01*
X140768028Y-90772786D01*
X140647715Y-90938386D01*
X140554781Y-91120776D01*
X140491522Y-91315465D01*
X140460666Y-91510289D01*
X140459500Y-91517648D01*
X140459500Y-91722352D01*
X140460953Y-91731523D01*
X140491522Y-91924534D01*
X140554781Y-92119223D01*
X140591028Y-92190360D01*
X140641143Y-92288716D01*
X140647715Y-92301613D01*
X140768028Y-92467213D01*
X140912786Y-92611971D01*
X141040944Y-92705081D01*
X141078390Y-92732287D01*
X141169840Y-92778883D01*
X141171080Y-92779515D01*
X141221876Y-92827490D01*
X141238671Y-92895311D01*
X141216134Y-92961446D01*
X141171080Y-93000485D01*
X141078386Y-93047715D01*
X140912786Y-93168028D01*
X140768028Y-93312786D01*
X140647715Y-93478386D01*
X140554781Y-93660776D01*
X140491522Y-93855465D01*
X140459500Y-94057648D01*
X140459500Y-94250902D01*
X140439815Y-94317941D01*
X140387011Y-94363696D01*
X140317853Y-94373640D01*
X140254297Y-94344615D01*
X140247819Y-94338583D01*
X132547590Y-86638355D01*
X132547588Y-86638352D01*
X132428717Y-86519481D01*
X132428716Y-86519480D01*
X132327326Y-86460943D01*
X132300889Y-86445679D01*
X132275211Y-86425975D01*
X132196417Y-86347181D01*
X132162932Y-86285858D01*
X132167916Y-86216166D01*
X132209788Y-86160233D01*
X132275252Y-86135816D01*
X132284098Y-86135500D01*
X134203442Y-86135500D01*
X134203442Y-86135499D01*
X134265673Y-86128487D01*
X134340671Y-86120038D01*
X134342074Y-86119547D01*
X134514663Y-86059156D01*
X134670742Y-85961085D01*
X134801085Y-85830742D01*
X134899156Y-85674663D01*
X134960037Y-85500674D01*
X134960037Y-85500673D01*
X134960038Y-85500671D01*
X134973579Y-85380485D01*
X134975500Y-85363438D01*
X134975500Y-84925096D01*
X134995185Y-84858057D01*
X135011814Y-84837420D01*
X138368713Y-81480521D01*
X138368716Y-81480520D01*
X138480520Y-81368716D01*
X138530639Y-81281904D01*
X138559577Y-81231785D01*
X138600500Y-81079058D01*
X138600500Y-80920943D01*
X138600500Y-71474499D01*
X138620185Y-71407460D01*
X138672989Y-71361705D01*
X138724500Y-71350499D01*
X138897871Y-71350499D01*
X138897872Y-71350499D01*
X138957483Y-71344091D01*
X139092331Y-71293796D01*
X139207546Y-71207546D01*
X139293796Y-71092331D01*
X139344091Y-70957483D01*
X139350500Y-70897873D01*
X139350499Y-69102128D01*
X139344091Y-69042517D01*
X139293796Y-68907669D01*
X139293795Y-68907668D01*
X139293793Y-68907664D01*
X139207547Y-68792455D01*
X139207544Y-68792452D01*
X139092335Y-68706206D01*
X139092328Y-68706202D01*
X138957482Y-68655908D01*
X138957483Y-68655908D01*
X138897883Y-68649501D01*
X138897881Y-68649500D01*
X138897873Y-68649500D01*
X138897864Y-68649500D01*
X137102129Y-68649500D01*
X137102123Y-68649501D01*
X137042516Y-68655908D01*
X136907671Y-68706202D01*
X136907664Y-68706206D01*
X136792455Y-68792452D01*
X136792452Y-68792455D01*
X136706206Y-68907664D01*
X136706202Y-68907671D01*
X136655908Y-69042517D01*
X136649501Y-69102116D01*
X136649501Y-69102123D01*
X136649500Y-69102135D01*
X136649500Y-70897870D01*
X136649501Y-70897876D01*
X136655908Y-70957483D01*
X136706202Y-71092328D01*
X136706206Y-71092335D01*
X136792452Y-71207544D01*
X136792455Y-71207547D01*
X136907664Y-71293793D01*
X136907671Y-71293797D01*
X136952618Y-71310561D01*
X137042517Y-71344091D01*
X137102127Y-71350500D01*
X137275500Y-71350499D01*
X137342539Y-71370183D01*
X137388294Y-71422987D01*
X137399500Y-71474499D01*
X137399500Y-80699902D01*
X137379815Y-80766941D01*
X137363181Y-80787583D01*
X134937083Y-83213681D01*
X134875760Y-83247166D01*
X134849402Y-83250000D01*
X131025000Y-83250000D01*
X131025000Y-83363418D01*
X131040451Y-83500553D01*
X131040452Y-83500559D01*
X131101296Y-83674443D01*
X131199308Y-83830428D01*
X131280845Y-83911965D01*
X131314330Y-83973288D01*
X131309346Y-84042980D01*
X131280846Y-84087327D01*
X131198914Y-84169259D01*
X131100845Y-84325334D01*
X131039961Y-84499328D01*
X131024500Y-84636557D01*
X131024500Y-84875902D01*
X131004815Y-84942941D01*
X130952011Y-84988696D01*
X130882853Y-84998640D01*
X130819297Y-84969615D01*
X130812819Y-84963583D01*
X129636819Y-83787583D01*
X129603334Y-83726260D01*
X129600500Y-83699902D01*
X129600500Y-82579765D01*
X129620185Y-82512726D01*
X129621398Y-82510874D01*
X129642658Y-82479057D01*
X129709394Y-82379179D01*
X129769737Y-82233497D01*
X129800500Y-82078842D01*
X129800500Y-81921158D01*
X129800500Y-81921155D01*
X129800499Y-81921153D01*
X129769738Y-81766510D01*
X129769737Y-81766503D01*
X129731696Y-81674663D01*
X129709397Y-81620827D01*
X129709390Y-81620814D01*
X129621789Y-81489711D01*
X129621786Y-81489707D01*
X129510289Y-81378210D01*
X129402755Y-81306359D01*
X129357950Y-81252747D01*
X129349243Y-81183422D01*
X129379397Y-81120395D01*
X129383946Y-81115595D01*
X130889768Y-79609773D01*
X130951089Y-79576290D01*
X131020781Y-79581274D01*
X131076714Y-79623146D01*
X131094488Y-79656501D01*
X131100842Y-79674659D01*
X131100843Y-79674663D01*
X131198915Y-79830742D01*
X131280492Y-79912319D01*
X131313977Y-79973642D01*
X131308993Y-80043334D01*
X131280492Y-80087681D01*
X131198915Y-80169257D01*
X131100845Y-80325334D01*
X131039961Y-80499328D01*
X131024500Y-80636557D01*
X131024500Y-81363442D01*
X131039961Y-81500671D01*
X131100845Y-81674665D01*
X131198915Y-81830742D01*
X131280845Y-81912672D01*
X131314330Y-81973995D01*
X131309346Y-82043687D01*
X131280846Y-82088034D01*
X131199307Y-82169573D01*
X131101296Y-82325556D01*
X131040452Y-82499440D01*
X131040451Y-82499446D01*
X131025000Y-82636581D01*
X131025000Y-82750000D01*
X134975000Y-82750000D01*
X134975000Y-82636585D01*
X134974999Y-82636581D01*
X134959548Y-82499446D01*
X134959547Y-82499440D01*
X134898703Y-82325556D01*
X134800691Y-82169571D01*
X134719154Y-82088034D01*
X134685669Y-82026711D01*
X134690653Y-81957019D01*
X134719150Y-81912676D01*
X134801085Y-81830742D01*
X134899156Y-81674663D01*
X134960037Y-81500674D01*
X134960037Y-81500673D01*
X134960038Y-81500671D01*
X134968851Y-81422447D01*
X134975500Y-81363438D01*
X134975500Y-80636562D01*
X134969925Y-80587090D01*
X134960038Y-80499328D01*
X134906986Y-80347715D01*
X134899156Y-80325337D01*
X134801085Y-80169258D01*
X134719508Y-80087681D01*
X134686023Y-80026358D01*
X134691007Y-79956666D01*
X134719508Y-79912319D01*
X134742049Y-79889778D01*
X134801085Y-79830742D01*
X134899156Y-79674663D01*
X134960037Y-79500674D01*
X134960037Y-79500673D01*
X134960038Y-79500671D01*
X134972046Y-79394090D01*
X134975500Y-79363438D01*
X134975500Y-78636562D01*
X134965892Y-78551286D01*
X134960038Y-78499328D01*
X134923028Y-78393560D01*
X134899156Y-78325337D01*
X134801085Y-78169258D01*
X134719508Y-78087681D01*
X134686023Y-78026358D01*
X134691007Y-77956666D01*
X134719508Y-77912319D01*
X134801085Y-77830742D01*
X134899156Y-77674663D01*
X134960037Y-77500674D01*
X134960037Y-77500673D01*
X134960038Y-77500671D01*
X134968487Y-77425673D01*
X134975500Y-77363438D01*
X134975500Y-76636562D01*
X134969925Y-76587090D01*
X134960038Y-76499328D01*
X134917657Y-76378211D01*
X134899156Y-76325337D01*
X134801085Y-76169258D01*
X134719508Y-76087681D01*
X134686023Y-76026358D01*
X134691007Y-75956666D01*
X134719508Y-75912319D01*
X134751051Y-75880776D01*
X134801085Y-75830742D01*
X134899156Y-75674663D01*
X134960037Y-75500674D01*
X134960037Y-75500673D01*
X134960038Y-75500671D01*
X134968487Y-75425673D01*
X134975500Y-75363438D01*
X134975500Y-74636562D01*
X134962930Y-74525001D01*
X134960038Y-74499328D01*
X134943942Y-74453330D01*
X134899156Y-74325337D01*
X134801085Y-74169258D01*
X134719508Y-74087681D01*
X134686023Y-74026358D01*
X134691007Y-73956666D01*
X134719508Y-73912319D01*
X134758639Y-73873188D01*
X134801085Y-73830742D01*
X134899156Y-73674663D01*
X134960037Y-73500674D01*
X134960037Y-73500673D01*
X134960038Y-73500671D01*
X134974512Y-73372203D01*
X134975500Y-73363438D01*
X134975500Y-72636562D01*
X134964036Y-72534814D01*
X134960038Y-72499328D01*
X134929580Y-72412284D01*
X134899156Y-72325337D01*
X134801085Y-72169258D01*
X134719508Y-72087681D01*
X134686023Y-72026358D01*
X134691007Y-71956666D01*
X134719508Y-71912319D01*
X134759288Y-71872539D01*
X134801085Y-71830742D01*
X134899156Y-71674663D01*
X134960037Y-71500674D01*
X134960037Y-71500673D01*
X134960038Y-71500671D01*
X134971115Y-71402351D01*
X134975500Y-71363438D01*
X134975500Y-70636562D01*
X134960051Y-70499446D01*
X134960038Y-70499328D01*
X134943750Y-70452781D01*
X134899156Y-70325337D01*
X134801085Y-70169258D01*
X134670742Y-70038915D01*
X134608015Y-69999501D01*
X134514665Y-69940845D01*
X134514664Y-69940844D01*
X134514663Y-69940844D01*
X134472896Y-69926229D01*
X134340671Y-69879961D01*
X134203442Y-69864500D01*
X134203438Y-69864500D01*
X131796562Y-69864500D01*
X131796558Y-69864500D01*
X131659328Y-69879961D01*
X131485334Y-69940845D01*
X131329257Y-70038915D01*
X131198915Y-70169257D01*
X131100845Y-70325334D01*
X131039961Y-70499328D01*
X131024500Y-70636557D01*
X131024500Y-71363442D01*
X131039961Y-71500671D01*
X131100845Y-71674665D01*
X131198915Y-71830742D01*
X131280492Y-71912319D01*
X131313977Y-71973642D01*
X131308993Y-72043334D01*
X131280492Y-72087681D01*
X131198915Y-72169257D01*
X131100845Y-72325334D01*
X131039961Y-72499328D01*
X131024500Y-72636557D01*
X131024500Y-73363442D01*
X131039961Y-73500671D01*
X131074105Y-73598247D01*
X131100029Y-73672335D01*
X131100845Y-73674665D01*
X131198915Y-73830742D01*
X131280492Y-73912319D01*
X131313977Y-73973642D01*
X131308993Y-74043334D01*
X131280492Y-74087681D01*
X131198915Y-74169257D01*
X131100845Y-74325334D01*
X131039961Y-74499328D01*
X131024500Y-74636557D01*
X131024500Y-75363442D01*
X131039961Y-75500671D01*
X131100845Y-75674665D01*
X131198915Y-75830742D01*
X131280492Y-75912319D01*
X131313977Y-75973642D01*
X131308993Y-76043334D01*
X131280492Y-76087681D01*
X131198915Y-76169257D01*
X131100845Y-76325334D01*
X131039961Y-76499328D01*
X131024500Y-76636557D01*
X131024500Y-77363442D01*
X131039962Y-77500672D01*
X131081737Y-77620060D01*
X131085298Y-77689839D01*
X131052376Y-77748695D01*
X124597186Y-84203885D01*
X124597180Y-84203891D01*
X124593786Y-84207286D01*
X124593784Y-84207288D01*
X124481980Y-84319092D01*
X124453330Y-84368716D01*
X124447601Y-84378638D01*
X124447599Y-84378641D01*
X124402924Y-84456021D01*
X124402923Y-84456023D01*
X124361999Y-84608751D01*
X124361999Y-84608753D01*
X124361999Y-84776854D01*
X124362000Y-84776867D01*
X124362000Y-87736232D01*
X124342315Y-87803271D01*
X124303098Y-87841769D01*
X124212505Y-87897648D01*
X124156342Y-87932289D01*
X124032289Y-88056342D01*
X123940187Y-88205663D01*
X123940185Y-88205668D01*
X123930962Y-88233501D01*
X123885001Y-88372203D01*
X123885001Y-88372204D01*
X123885000Y-88372204D01*
X123874500Y-88474983D01*
X123874500Y-89525001D01*
X123874501Y-89525019D01*
X123885000Y-89627796D01*
X123885001Y-89627799D01*
X123929342Y-89761610D01*
X123940186Y-89794334D01*
X124032288Y-89943656D01*
X124156344Y-90067712D01*
X124305666Y-90159814D01*
X124472203Y-90214999D01*
X124574991Y-90225500D01*
X125287402Y-90225499D01*
X125354441Y-90245183D01*
X125375083Y-90261818D01*
X126645467Y-91532202D01*
X126678952Y-91593525D01*
X126673968Y-91663217D01*
X126632096Y-91719150D01*
X126596104Y-91737814D01*
X126420778Y-91794781D01*
X126238386Y-91887715D01*
X126072786Y-92008028D01*
X125928028Y-92152786D01*
X125807715Y-92318386D01*
X125760485Y-92411080D01*
X125712510Y-92461876D01*
X125644689Y-92478671D01*
X125578554Y-92456134D01*
X125539515Y-92411080D01*
X125538883Y-92409840D01*
X125492287Y-92318390D01*
X125480096Y-92301610D01*
X125371971Y-92152786D01*
X125227213Y-92008028D01*
X125061613Y-91887715D01*
X125061612Y-91887714D01*
X125061610Y-91887713D01*
X124969817Y-91840942D01*
X124879223Y-91794781D01*
X124684534Y-91731522D01*
X124509995Y-91703878D01*
X124482352Y-91699500D01*
X124277648Y-91699500D01*
X124253329Y-91703351D01*
X124075465Y-91731522D01*
X123880776Y-91794781D01*
X123698386Y-91887715D01*
X123532786Y-92008028D01*
X123388028Y-92152786D01*
X123267715Y-92318386D01*
X123220485Y-92411080D01*
X123172510Y-92461876D01*
X123104689Y-92478671D01*
X123038554Y-92456134D01*
X122999515Y-92411080D01*
X122998883Y-92409840D01*
X122952287Y-92318390D01*
X122940096Y-92301610D01*
X122831971Y-92152786D01*
X122687213Y-92008028D01*
X122521613Y-91887715D01*
X122521612Y-91887714D01*
X122521610Y-91887713D01*
X122429817Y-91840942D01*
X122339223Y-91794781D01*
X122144534Y-91731522D01*
X121969995Y-91703878D01*
X121942352Y-91699500D01*
X121737648Y-91699500D01*
X121713329Y-91703351D01*
X121535465Y-91731522D01*
X121340776Y-91794781D01*
X121158386Y-91887715D01*
X120992786Y-92008028D01*
X120848028Y-92152786D01*
X120727715Y-92318386D01*
X120680485Y-92411080D01*
X120632510Y-92461876D01*
X120564689Y-92478671D01*
X120498554Y-92456134D01*
X120459515Y-92411080D01*
X120458883Y-92409840D01*
X120412287Y-92318390D01*
X120400096Y-92301610D01*
X120291971Y-92152786D01*
X120147213Y-92008028D01*
X119981613Y-91887715D01*
X119981612Y-91887714D01*
X119981610Y-91887713D01*
X119889817Y-91840942D01*
X119799223Y-91794781D01*
X119604534Y-91731522D01*
X119429995Y-91703878D01*
X119402352Y-91699500D01*
X119197648Y-91699500D01*
X119173329Y-91703351D01*
X118995465Y-91731522D01*
X118800776Y-91794781D01*
X118618386Y-91887715D01*
X118452786Y-92008028D01*
X118308028Y-92152786D01*
X118187715Y-92318386D01*
X118140485Y-92411080D01*
X118092510Y-92461876D01*
X118024689Y-92478671D01*
X117958554Y-92456134D01*
X117919515Y-92411080D01*
X117918883Y-92409840D01*
X117872287Y-92318390D01*
X117860096Y-92301610D01*
X117751971Y-92152786D01*
X117607213Y-92008028D01*
X117441613Y-91887715D01*
X117441612Y-91887714D01*
X117441610Y-91887713D01*
X117349817Y-91840942D01*
X117259223Y-91794781D01*
X117064534Y-91731522D01*
X116889995Y-91703878D01*
X116862352Y-91699500D01*
X116657648Y-91699500D01*
X116633329Y-91703351D01*
X116455465Y-91731522D01*
X116260776Y-91794781D01*
X116078386Y-91887715D01*
X115912786Y-92008028D01*
X115768028Y-92152786D01*
X115647715Y-92318386D01*
X115554781Y-92500776D01*
X115491522Y-92695465D01*
X115459500Y-92897648D01*
X114500500Y-92897648D01*
X114500500Y-85363418D01*
X115975000Y-85363418D01*
X115990451Y-85500553D01*
X115990452Y-85500559D01*
X116051296Y-85674443D01*
X116149308Y-85830428D01*
X116279571Y-85960691D01*
X116435556Y-86058703D01*
X116609440Y-86119547D01*
X116609446Y-86119548D01*
X116746581Y-86134999D01*
X116746585Y-86135000D01*
X117700000Y-86135000D01*
X118200000Y-86135000D01*
X119153415Y-86135000D01*
X119153418Y-86134999D01*
X119290553Y-86119548D01*
X119290559Y-86119547D01*
X119464443Y-86058703D01*
X119620428Y-85960691D01*
X119750691Y-85830428D01*
X119848703Y-85674443D01*
X119909547Y-85500559D01*
X119909548Y-85500553D01*
X119924999Y-85363418D01*
X119925000Y-85363414D01*
X119925000Y-85250000D01*
X118200000Y-85250000D01*
X118200000Y-86135000D01*
X117700000Y-86135000D01*
X117700000Y-85250000D01*
X115975000Y-85250000D01*
X115975000Y-85363418D01*
X114500500Y-85363418D01*
X114500500Y-72636557D01*
X115974500Y-72636557D01*
X115974500Y-73363442D01*
X115989961Y-73500671D01*
X116024105Y-73598247D01*
X116050029Y-73672335D01*
X116050845Y-73674665D01*
X116148915Y-73830742D01*
X116230492Y-73912319D01*
X116263977Y-73973642D01*
X116258993Y-74043334D01*
X116230492Y-74087681D01*
X116148915Y-74169257D01*
X116050845Y-74325334D01*
X115989961Y-74499328D01*
X115974500Y-74636557D01*
X115974500Y-75363442D01*
X115989961Y-75500671D01*
X116050845Y-75674665D01*
X116148915Y-75830742D01*
X116230492Y-75912319D01*
X116263977Y-75973642D01*
X116258993Y-76043334D01*
X116230492Y-76087681D01*
X116148915Y-76169257D01*
X116050845Y-76325334D01*
X115989961Y-76499328D01*
X115974500Y-76636557D01*
X115974500Y-77363442D01*
X115989961Y-77500671D01*
X116032004Y-77620821D01*
X116044072Y-77655311D01*
X116050845Y-77674665D01*
X116148915Y-77830742D01*
X116230492Y-77912319D01*
X116263977Y-77973642D01*
X116258993Y-78043334D01*
X116230492Y-78087681D01*
X116148915Y-78169257D01*
X116050845Y-78325334D01*
X115989961Y-78499328D01*
X115974500Y-78636557D01*
X115974500Y-79363442D01*
X115989961Y-79500671D01*
X116036229Y-79632896D01*
X116049929Y-79672049D01*
X116050845Y-79674665D01*
X116148915Y-79830742D01*
X116230492Y-79912319D01*
X116263977Y-79973642D01*
X116258993Y-80043334D01*
X116230492Y-80087681D01*
X116148915Y-80169257D01*
X116050845Y-80325334D01*
X115989961Y-80499328D01*
X115974500Y-80636557D01*
X115974500Y-81363442D01*
X115989961Y-81500671D01*
X116050845Y-81674665D01*
X116148915Y-81830742D01*
X116230492Y-81912319D01*
X116263977Y-81973642D01*
X116258993Y-82043334D01*
X116230492Y-82087681D01*
X116148915Y-82169257D01*
X116050845Y-82325334D01*
X115989961Y-82499328D01*
X115974500Y-82636557D01*
X115974500Y-83363442D01*
X115989961Y-83500671D01*
X116050845Y-83674665D01*
X116148915Y-83830742D01*
X116230845Y-83912672D01*
X116264330Y-83973995D01*
X116259346Y-84043687D01*
X116230846Y-84088034D01*
X116149307Y-84169573D01*
X116051296Y-84325556D01*
X115990452Y-84499440D01*
X115990451Y-84499446D01*
X115975000Y-84636581D01*
X115975000Y-84750000D01*
X119925000Y-84750000D01*
X119925000Y-84636585D01*
X119924999Y-84636581D01*
X119909548Y-84499446D01*
X119909547Y-84499440D01*
X119848703Y-84325556D01*
X119750691Y-84169571D01*
X119669154Y-84088034D01*
X119635669Y-84026711D01*
X119640653Y-83957019D01*
X119669150Y-83912676D01*
X119751085Y-83830742D01*
X119849156Y-83674663D01*
X119910037Y-83500674D01*
X119910037Y-83500673D01*
X119910038Y-83500671D01*
X119921437Y-83399499D01*
X119925500Y-83363438D01*
X119925500Y-82636562D01*
X119911547Y-82512726D01*
X119910038Y-82499328D01*
X119893465Y-82451966D01*
X119849156Y-82325337D01*
X119751085Y-82169258D01*
X119669508Y-82087681D01*
X119636023Y-82026358D01*
X119641007Y-81956666D01*
X119669508Y-81912319D01*
X119751085Y-81830742D01*
X119849156Y-81674663D01*
X119910037Y-81500674D01*
X119910037Y-81500673D01*
X119910038Y-81500671D01*
X119918851Y-81422447D01*
X119925500Y-81363438D01*
X119925500Y-80636562D01*
X119919925Y-80587090D01*
X119910038Y-80499328D01*
X119856986Y-80347715D01*
X119849156Y-80325337D01*
X119751085Y-80169258D01*
X119669508Y-80087681D01*
X119636023Y-80026358D01*
X119641007Y-79956666D01*
X119669508Y-79912319D01*
X119692049Y-79889778D01*
X119751085Y-79830742D01*
X119849156Y-79674663D01*
X119855510Y-79656503D01*
X119896231Y-79599728D01*
X119961183Y-79573979D01*
X120029745Y-79587434D01*
X120060233Y-79609776D01*
X120363181Y-79912724D01*
X120396666Y-79974047D01*
X120399500Y-80000405D01*
X120399500Y-81420234D01*
X120379815Y-81487273D01*
X120378602Y-81489125D01*
X120290609Y-81620814D01*
X120290602Y-81620827D01*
X120230264Y-81766498D01*
X120230261Y-81766510D01*
X120199500Y-81921153D01*
X120199500Y-82078846D01*
X120230261Y-82233489D01*
X120230264Y-82233501D01*
X120290602Y-82379172D01*
X120290609Y-82379185D01*
X120378210Y-82510288D01*
X120378213Y-82510292D01*
X120489707Y-82621786D01*
X120489711Y-82621789D01*
X120620814Y-82709390D01*
X120620827Y-82709397D01*
X120718853Y-82750000D01*
X120766503Y-82769737D01*
X120880995Y-82792511D01*
X120921153Y-82800499D01*
X120921156Y-82800500D01*
X120921158Y-82800500D01*
X121078844Y-82800500D01*
X121078845Y-82800499D01*
X121233497Y-82769737D01*
X121379179Y-82709394D01*
X121510289Y-82621789D01*
X121621789Y-82510289D01*
X121709394Y-82379179D01*
X121769737Y-82233497D01*
X121800500Y-82078842D01*
X121800500Y-81921158D01*
X121800500Y-81921155D01*
X121800499Y-81921153D01*
X121769738Y-81766510D01*
X121769737Y-81766503D01*
X121731696Y-81674663D01*
X121709397Y-81620827D01*
X121709390Y-81620814D01*
X121621398Y-81489125D01*
X121600520Y-81422447D01*
X121600500Y-81420234D01*
X121600500Y-79621254D01*
X121600500Y-79621251D01*
X121581347Y-79549769D01*
X121559577Y-79468523D01*
X121516604Y-79394092D01*
X121480520Y-79331592D01*
X121368716Y-79219788D01*
X121368715Y-79219787D01*
X121364385Y-79215457D01*
X121364374Y-79215447D01*
X119897622Y-77748695D01*
X119864137Y-77687372D01*
X119868262Y-77620060D01*
X119910037Y-77500674D01*
X119925500Y-77363438D01*
X119925500Y-77074097D01*
X119931738Y-77052851D01*
X119933318Y-77030763D01*
X119941390Y-77019979D01*
X119945185Y-77007058D01*
X119961918Y-76992558D01*
X119975190Y-76974830D01*
X119987810Y-76970122D01*
X119997989Y-76961303D01*
X120019906Y-76958151D01*
X120040654Y-76950413D01*
X120053814Y-76953275D01*
X120067147Y-76951359D01*
X120087290Y-76960558D01*
X120108927Y-76965265D01*
X120126652Y-76978533D01*
X120130703Y-76980384D01*
X120137181Y-76986416D01*
X120165425Y-77014660D01*
X120198910Y-77075983D01*
X120199361Y-77078149D01*
X120230261Y-77233491D01*
X120230264Y-77233501D01*
X120290602Y-77379172D01*
X120290609Y-77379185D01*
X120378210Y-77510288D01*
X120378213Y-77510292D01*
X120489707Y-77621786D01*
X120489711Y-77621789D01*
X120620814Y-77709390D01*
X120620827Y-77709397D01*
X120758683Y-77766498D01*
X120766503Y-77769737D01*
X120921153Y-77800499D01*
X120921156Y-77800500D01*
X120921158Y-77800500D01*
X121078844Y-77800500D01*
X121078845Y-77800499D01*
X121233497Y-77769737D01*
X121379179Y-77709394D01*
X121510289Y-77621789D01*
X121621789Y-77510289D01*
X121709394Y-77379179D01*
X121769737Y-77233497D01*
X121800500Y-77078842D01*
X121800500Y-76949097D01*
X121820185Y-76882058D01*
X121872989Y-76836303D01*
X121942147Y-76826359D01*
X122005703Y-76855384D01*
X122012181Y-76861416D01*
X123165425Y-78014660D01*
X123198910Y-78075983D01*
X123199361Y-78078149D01*
X123230261Y-78233491D01*
X123230264Y-78233501D01*
X123290602Y-78379172D01*
X123290607Y-78379181D01*
X123378210Y-78510288D01*
X123378213Y-78510292D01*
X123489707Y-78621786D01*
X123489711Y-78621789D01*
X123620814Y-78709390D01*
X123620827Y-78709397D01*
X123766498Y-78769735D01*
X123766503Y-78769737D01*
X123921153Y-78800499D01*
X123921156Y-78800500D01*
X123921158Y-78800500D01*
X124078844Y-78800500D01*
X124078845Y-78800499D01*
X124233497Y-78769737D01*
X124379179Y-78709394D01*
X124510289Y-78621789D01*
X124621789Y-78510289D01*
X124681600Y-78420776D01*
X124709393Y-78379181D01*
X124709397Y-78379172D01*
X124756309Y-78265915D01*
X124769737Y-78233497D01*
X124800500Y-78078842D01*
X124800500Y-77921158D01*
X124800500Y-77921155D01*
X124800499Y-77921153D01*
X124782515Y-77830742D01*
X124769737Y-77766503D01*
X124731696Y-77674663D01*
X124709397Y-77620827D01*
X124709390Y-77620814D01*
X124621789Y-77489711D01*
X124621786Y-77489707D01*
X124510292Y-77378213D01*
X124510288Y-77378210D01*
X124379185Y-77290609D01*
X124379172Y-77290602D01*
X124233501Y-77230264D01*
X124233491Y-77230261D01*
X124078149Y-77199361D01*
X124016238Y-77166976D01*
X124014660Y-77165425D01*
X119961819Y-73112584D01*
X119928334Y-73051261D01*
X119925500Y-73024903D01*
X119925500Y-72636558D01*
X119925499Y-72636557D01*
X119924557Y-72628198D01*
X119914036Y-72534814D01*
X119910038Y-72499328D01*
X119879580Y-72412284D01*
X119849156Y-72325337D01*
X119751085Y-72169258D01*
X119669154Y-72087327D01*
X119635669Y-72026004D01*
X119640653Y-71956312D01*
X119669154Y-71911964D01*
X119750693Y-71830425D01*
X119848703Y-71674443D01*
X119909547Y-71500559D01*
X119909548Y-71500553D01*
X119924999Y-71363418D01*
X119925000Y-71363414D01*
X119925000Y-71250000D01*
X115975000Y-71250000D01*
X115975000Y-71363418D01*
X115990451Y-71500553D01*
X115990452Y-71500559D01*
X116051296Y-71674443D01*
X116149308Y-71830428D01*
X116230845Y-71911965D01*
X116264330Y-71973288D01*
X116259346Y-72042980D01*
X116230846Y-72087327D01*
X116148914Y-72169259D01*
X116050845Y-72325334D01*
X115989961Y-72499328D01*
X115974500Y-72636557D01*
X114500500Y-72636557D01*
X114500500Y-70636581D01*
X115975000Y-70636581D01*
X115975000Y-70750000D01*
X117700000Y-70750000D01*
X118200000Y-70750000D01*
X119925000Y-70750000D01*
X119925000Y-70636585D01*
X119924999Y-70636581D01*
X119909548Y-70499446D01*
X119909547Y-70499440D01*
X119848703Y-70325556D01*
X119750691Y-70169571D01*
X119620428Y-70039308D01*
X119464443Y-69941296D01*
X119290559Y-69880452D01*
X119290553Y-69880451D01*
X119153418Y-69865000D01*
X118200000Y-69865000D01*
X118200000Y-70750000D01*
X117700000Y-70750000D01*
X117700000Y-69865000D01*
X116746581Y-69865000D01*
X116609446Y-69880451D01*
X116609440Y-69880452D01*
X116435556Y-69941296D01*
X116279571Y-70039308D01*
X116149308Y-70169571D01*
X116051296Y-70325556D01*
X115990452Y-70499440D01*
X115990451Y-70499446D01*
X115975000Y-70636581D01*
X114500500Y-70636581D01*
X114500500Y-67624500D01*
X114520185Y-67557461D01*
X114572989Y-67511706D01*
X114624500Y-67500500D01*
X177375500Y-67500500D01*
X177442539Y-67520185D01*
G37*
%TD.AperFunction*%
%TD*%
M02*
