%TF.GenerationSoftware,KiCad,Pcbnew,9.0.6*%
%TF.CreationDate,2025-12-09T12:16:43+01:00*%
%TF.ProjectId,PCB Schematic Eclipse 1,50434220-5363-4686-956d-617469632045,rev?*%
%TF.SameCoordinates,Original*%
%TF.FileFunction,Copper,L2,Bot*%
%TF.FilePolarity,Positive*%
%FSLAX46Y46*%
G04 Gerber Fmt 4.6, Leading zero omitted, Abs format (unit mm)*
G04 Created by KiCad (PCBNEW 9.0.6) date 2025-12-09 12:16:43*
%MOMM*%
%LPD*%
G01*
G04 APERTURE LIST*
G04 Aperture macros list*
%AMRoundRect*
0 Rectangle with rounded corners*
0 $1 Rounding radius*
0 $2 $3 $4 $5 $6 $7 $8 $9 X,Y pos of 4 corners*
0 Add a 4 corners polygon primitive as box body*
4,1,4,$2,$3,$4,$5,$6,$7,$8,$9,$2,$3,0*
0 Add four circle primitives for the rounded corners*
1,1,$1+$1,$2,$3*
1,1,$1+$1,$4,$5*
1,1,$1+$1,$6,$7*
1,1,$1+$1,$8,$9*
0 Add four rect primitives between the rounded corners*
20,1,$1+$1,$2,$3,$4,$5,0*
20,1,$1+$1,$4,$5,$6,$7,0*
20,1,$1+$1,$6,$7,$8,$9,0*
20,1,$1+$1,$8,$9,$2,$3,0*%
G04 Aperture macros list end*
%TA.AperFunction,ComponentPad*%
%ADD10R,1.700000X1.700000*%
%TD*%
%TA.AperFunction,ComponentPad*%
%ADD11C,1.700000*%
%TD*%
%TA.AperFunction,ComponentPad*%
%ADD12RoundRect,0.250000X-1.050000X-1.050000X1.050000X-1.050000X1.050000X1.050000X-1.050000X1.050000X0*%
%TD*%
%TA.AperFunction,ComponentPad*%
%ADD13C,2.600000*%
%TD*%
%TA.AperFunction,ComponentPad*%
%ADD14C,1.600000*%
%TD*%
%TA.AperFunction,ComponentPad*%
%ADD15C,1.350000*%
%TD*%
%TA.AperFunction,ComponentPad*%
%ADD16R,1.350000X1.350000*%
%TD*%
%TA.AperFunction,ComponentPad*%
%ADD17RoundRect,0.250000X0.550000X-0.550000X0.550000X0.550000X-0.550000X0.550000X-0.550000X-0.550000X0*%
%TD*%
%TA.AperFunction,ComponentPad*%
%ADD18RoundRect,0.250000X-0.550000X-0.550000X0.550000X-0.550000X0.550000X0.550000X-0.550000X0.550000X0*%
%TD*%
%TA.AperFunction,ComponentPad*%
%ADD19R,1.800000X1.800000*%
%TD*%
%TA.AperFunction,ComponentPad*%
%ADD20C,1.800000*%
%TD*%
%TA.AperFunction,ViaPad*%
%ADD21C,0.600000*%
%TD*%
%TA.AperFunction,Conductor*%
%ADD22C,0.200000*%
%TD*%
%TA.AperFunction,Conductor*%
%ADD23C,0.800000*%
%TD*%
G04 APERTURE END LIST*
D10*
%TO.P,J1,1,Pin_1*%
%TO.N,Net-(IC1-LRCLK2)*%
X165920000Y-136000000D03*
D11*
%TO.P,J1,2,Pin_2*%
%TO.N,VCC_5V*%
X168460000Y-136000000D03*
%TO.P,J1,3,Pin_3*%
%TO.N,GND*%
X171000000Y-136000000D03*
%TD*%
D12*
%TO.P,J5,1,Pin_1*%
%TO.N,Net-(J5-Pin_1)*%
X123920000Y-139000000D03*
D13*
%TO.P,J5,2,Pin_2*%
%TO.N,GND*%
X129000000Y-139000000D03*
%TD*%
D10*
%TO.P,J6,1,Pin_1*%
%TO.N,Net-(J5-Pin_1)*%
X137000000Y-136920000D03*
D11*
%TO.P,J6,2,Pin_2*%
%TO.N,VCC_5V*%
X137000000Y-139460000D03*
%TO.P,J6,3,Pin_3*%
X137000000Y-142000000D03*
%TD*%
D14*
%TO.P,R4,1*%
%TO.N,/I2C_SDA*%
X120840000Y-122000000D03*
%TO.P,R4,2*%
%TO.N,/SPI_SCK*%
X131000000Y-122000000D03*
%TD*%
D11*
%TO.P,J2,3,Pin_3*%
%TO.N,GND*%
X170920000Y-127000000D03*
%TO.P,J2,2,Pin_2*%
%TO.N,VCC_5V*%
X168380000Y-127000000D03*
D10*
%TO.P,J2,1,Pin_1*%
%TO.N,Net-(IC1-BCLK2)*%
X165840000Y-127000000D03*
%TD*%
%TO.P,J3,1,Pin_1*%
%TO.N,Net-(IC1-IN2)*%
X165840000Y-117000000D03*
D11*
%TO.P,J3,2,Pin_2*%
%TO.N,VCC_5V*%
X168380000Y-117000000D03*
%TO.P,J3,3,Pin_3*%
%TO.N,GND*%
X170920000Y-117000000D03*
%TD*%
D14*
%TO.P,R1,2*%
%TO.N,Net-(IC1-RX2)*%
X175080000Y-88000000D03*
%TO.P,R1,1*%
%TO.N,Net-(D1-A)*%
X164920000Y-88000000D03*
%TD*%
D11*
%TO.P,J4,3,Pin_3*%
%TO.N,GND*%
X170920000Y-108000000D03*
%TO.P,J4,2,Pin_2*%
%TO.N,VCC_5V*%
X168380000Y-108000000D03*
D10*
%TO.P,J4,1,Pin_1*%
%TO.N,Net-(IC1-OUT1D)*%
X165840000Y-108000000D03*
%TD*%
D14*
%TO.P,R2,2*%
%TO.N,Net-(IC1-TX2)*%
X175080000Y-95000000D03*
%TO.P,R2,1*%
%TO.N,Net-(D2-A)*%
X164920000Y-95000000D03*
%TD*%
%TO.P,R3,2*%
%TO.N,/I2C_SCL*%
X131080000Y-129000000D03*
%TO.P,R3,1*%
%TO.N,Net-(U2-SCLK)*%
X120920000Y-129000000D03*
%TD*%
D15*
%TO.P,U2,8,SCLK*%
%TO.N,Net-(U2-SCLK)*%
X132962500Y-110000000D03*
%TO.P,U2,7,SDI/SDA*%
%TO.N,/SPI_SCK*%
X130962500Y-110000000D03*
%TO.P,U2,6,SDO*%
%TO.N,unconnected-(U2-SDO-Pad6)*%
X128962500Y-110000000D03*
%TO.P,U2,5,CSB*%
%TO.N,unconnected-(U2-CSB-Pad4)_1*%
X126962500Y-110000000D03*
%TO.P,U2,4,CSB*%
%TO.N,unconnected-(U2-CSB-Pad4)*%
X124962500Y-110000000D03*
%TO.P,U2,3,GND*%
%TO.N,Net-(U2-GND)*%
X122962500Y-110000000D03*
%TO.P,U2,2,PS*%
%TO.N,unconnected-(U2-PS-Pad2)*%
X120962500Y-110000000D03*
D16*
%TO.P,U2,1,VDD*%
%TO.N,/VCC_3V3*%
X118962500Y-110000000D03*
%TD*%
D17*
%TO.P,U1,1,INT2*%
%TO.N,unconnected-(U1-INT2-Pad1)*%
X116760000Y-100620000D03*
D14*
%TO.P,U1,2,NC*%
%TO.N,unconnected-(U1-NC-Pad2)*%
X119300000Y-100620000D03*
%TO.P,U1,3,VDD*%
%TO.N,/VCC_3V3*%
X121840000Y-100620000D03*
%TO.P,U1,4,GNDA*%
%TO.N,Net-(U1-GNDA)*%
X124380000Y-100620000D03*
%TO.P,U1,5,CSB2*%
%TO.N,unconnected-(U1-CSB2-Pad5)*%
X126920000Y-100620000D03*
%TO.P,U1,6,GNDIO*%
%TO.N,unconnected-(U1-GNDIO-Pad6)*%
X129460000Y-100620000D03*
%TO.P,U1,7,PS*%
%TO.N,unconnected-(U1-PS-Pad7)*%
X132000000Y-100620000D03*
%TO.P,U1,8,SCL/SCK*%
%TO.N,/I2C_SCL*%
X134540000Y-100620000D03*
%TO.P,U1,9,SDA/SDI*%
%TO.N,/I2C_SDA*%
X134540000Y-93000000D03*
%TO.P,U1,10,SDO2*%
%TO.N,unconnected-(U1-SDO2-Pad10)*%
X132000000Y-93000000D03*
%TO.P,U1,11,VDDIO*%
%TO.N,/VCC_3V3*%
X129460000Y-93000000D03*
%TO.P,U1,12,INT3*%
%TO.N,unconnected-(U1-INT3-Pad12)*%
X126920000Y-93000000D03*
%TO.P,U1,13,INT4*%
%TO.N,unconnected-(U1-INT4-Pad13)*%
X124380000Y-93000000D03*
%TO.P,U1,14,CSB1*%
%TO.N,unconnected-(U1-CSB1-Pad14)*%
X121840000Y-93000000D03*
%TO.P,U1,15,SDO1*%
%TO.N,unconnected-(U1-SDO1-Pad15)*%
X119300000Y-93000000D03*
%TO.P,U1,16,INT1*%
%TO.N,unconnected-(U1-INT1-Pad16)*%
X116760000Y-93000000D03*
%TD*%
D10*
%TO.P,J7,1,Pin_1*%
%TO.N,Net-(J7-Pin_1)*%
X138000000Y-70000000D03*
%TD*%
D18*
%TO.P,IC1,1,TX1*%
%TO.N,unconnected-(IC1-TX1-Pad1)*%
X141760000Y-71300000D03*
D14*
%TO.P,IC1,2,OUT2*%
%TO.N,unconnected-(IC1-OUT2-Pad2)*%
X141760000Y-73840000D03*
%TO.P,IC1,3,LRCLK2*%
%TO.N,Net-(IC1-LRCLK2)*%
X141760000Y-76380000D03*
%TO.P,IC1,4,BCLK2*%
%TO.N,Net-(IC1-BCLK2)*%
X141760000Y-78920000D03*
%TO.P,IC1,5,IN2*%
%TO.N,Net-(IC1-IN2)*%
X141760000Y-81460000D03*
%TO.P,IC1,6,OUT1D*%
%TO.N,Net-(IC1-OUT1D)*%
X141760000Y-84000000D03*
%TO.P,IC1,7,RX2*%
%TO.N,Net-(IC1-RX2)*%
X141760000Y-86540000D03*
%TO.P,IC1,8,TX2*%
%TO.N,Net-(IC1-TX2)*%
X141760000Y-89080000D03*
%TO.P,IC1,9,OUT1C*%
%TO.N,unconnected-(IC1-OUT1C-Pad9)*%
X141760000Y-91620000D03*
%TO.P,IC1,10,CS_1*%
%TO.N,unconnected-(IC1-CS_1-Pad10)*%
X141760000Y-94160000D03*
%TO.P,IC1,11,MOSI*%
%TO.N,/SPI_MOSI*%
X141760000Y-96700000D03*
%TO.P,IC1,12,MISO*%
%TO.N,/SPI_MISO*%
X141760000Y-99240000D03*
%TO.P,IC1,13,SCK*%
%TO.N,/SPI_SCK*%
X141760000Y-101780000D03*
%TO.P,IC1,14,A0*%
%TO.N,unconnected-(IC1-A0-Pad14)*%
X141760000Y-104320000D03*
%TO.P,IC1,15,A1*%
%TO.N,unconnected-(IC1-A1-Pad15)*%
X141760000Y-106860000D03*
%TO.P,IC1,16,A2*%
%TO.N,unconnected-(IC1-A2-Pad16)*%
X141760000Y-109400000D03*
%TO.P,IC1,17,A3*%
%TO.N,unconnected-(IC1-A3-Pad17)*%
X141760000Y-111940000D03*
%TO.P,IC1,18,A4*%
%TO.N,/I2C_SDA*%
X141760000Y-114480000D03*
%TO.P,IC1,19,A5*%
%TO.N,/I2C_SCL*%
X141760000Y-117020000D03*
%TO.P,IC1,20,A6*%
%TO.N,unconnected-(IC1-A6-Pad20)*%
X141760000Y-119560000D03*
%TO.P,IC1,21,A7*%
%TO.N,unconnected-(IC1-A7-Pad21)*%
X141760000Y-122100000D03*
%TO.P,IC1,22,A8*%
%TO.N,unconnected-(IC1-A8-Pad22)*%
X141760000Y-124640000D03*
%TO.P,IC1,23,A9*%
%TO.N,unconnected-(IC1-A9-Pad23)*%
X141760000Y-127180000D03*
%TO.P,IC1,24,A10*%
%TO.N,unconnected-(IC1-A10-Pad24)*%
X141760000Y-129720000D03*
%TO.P,IC1,25,A11*%
%TO.N,unconnected-(IC1-A11-Pad25)*%
X157000000Y-129720000D03*
%TO.P,IC1,26,A12*%
%TO.N,unconnected-(IC1-A12-Pad26)*%
X157000000Y-127180000D03*
%TO.P,IC1,27,A13*%
%TO.N,unconnected-(IC1-A13-Pad27)*%
X157000000Y-124640000D03*
%TO.P,IC1,28,RX7*%
%TO.N,unconnected-(IC1-RX7-Pad28)*%
X157000000Y-122100000D03*
%TO.P,IC1,29,TX7*%
%TO.N,unconnected-(IC1-TX7-Pad29)*%
X157000000Y-119560000D03*
%TO.P,IC1,30,CRX3*%
%TO.N,unconnected-(IC1-CRX3-Pad30)*%
X157000000Y-117020000D03*
%TO.P,IC1,31,CTX3*%
%TO.N,unconnected-(IC1-CTX3-Pad31)*%
X157000000Y-114480000D03*
%TO.P,IC1,32,OUT1B*%
%TO.N,unconnected-(IC1-OUT1B-Pad32)*%
X157000000Y-111940000D03*
%TO.P,IC1,33,MCLK2*%
%TO.N,unconnected-(IC1-MCLK2-Pad33)*%
X157000000Y-109400000D03*
%TO.P,IC1,34,RX8*%
%TO.N,unconnected-(IC1-RX8-Pad34)*%
X157000000Y-106860000D03*
%TO.P,IC1,35,TX8*%
%TO.N,unconnected-(IC1-TX8-Pad35)*%
X157000000Y-104320000D03*
%TO.P,IC1,36,CS_2*%
%TO.N,unconnected-(IC1-CS_2-Pad36)*%
X157000000Y-101780000D03*
%TO.P,IC1,37,CS_3*%
%TO.N,unconnected-(IC1-CS_3-Pad37)*%
X157000000Y-99240000D03*
%TO.P,IC1,38,A14*%
%TO.N,unconnected-(IC1-A14-Pad38)*%
X157000000Y-96700000D03*
%TO.P,IC1,39,A15*%
%TO.N,unconnected-(IC1-A15-Pad39)*%
X157000000Y-94160000D03*
%TO.P,IC1,40,A16*%
%TO.N,unconnected-(IC1-A16-Pad40)*%
X157000000Y-91620000D03*
%TO.P,IC1,41,A17*%
%TO.N,unconnected-(IC1-A17-Pad41)*%
X157000000Y-89080000D03*
%TO.P,IC1,42,3.3V_1*%
%TO.N,unconnected-(IC1-3.3V_1-Pad42)*%
X157000000Y-86540000D03*
%TO.P,IC1,43,VBAT*%
%TO.N,unconnected-(IC1-VBAT-Pad43)*%
X157000000Y-84000000D03*
%TO.P,IC1,44,3.3V_2*%
%TO.N,unconnected-(IC1-3.3V_2-Pad44)*%
X157000000Y-81460000D03*
%TO.P,IC1,45,GND_1*%
%TO.N,unconnected-(IC1-GND_1-Pad45)*%
X157000000Y-78920000D03*
%TO.P,IC1,46,PROGRAM*%
%TO.N,unconnected-(IC1-PROGRAM-Pad46)*%
X157000000Y-76380000D03*
%TO.P,IC1,47,ON/OFF*%
%TO.N,unconnected-(IC1-ON{slash}OFF-Pad47)*%
X157000000Y-73840000D03*
%TO.P,IC1,48,GND_2*%
%TO.N,Net-(D1-K)*%
X157000000Y-71300000D03*
%TD*%
D19*
%TO.P,D2,1,K*%
%TO.N,Net-(D1-K)*%
X169460000Y-80000000D03*
D20*
%TO.P,D2,2,A*%
%TO.N,Net-(D2-A)*%
X172000000Y-80000000D03*
%TD*%
D19*
%TO.P,D1,1,K*%
%TO.N,Net-(D1-K)*%
X169460000Y-72530000D03*
D20*
%TO.P,D1,2,A*%
%TO.N,Net-(D1-A)*%
X172000000Y-72530000D03*
%TD*%
D21*
%TO.N,/SPI_MOSI*%
X121000000Y-77000000D03*
X129000000Y-82000000D03*
%TO.N,/SPI_MISO*%
X124000000Y-78000000D03*
X128000000Y-84000000D03*
%TO.N,/SPI_SCK*%
X121000000Y-82000000D03*
X130000000Y-107000000D03*
X139000000Y-103000000D03*
X128000000Y-113000000D03*
X131000000Y-116000000D03*
%TO.N,/I2C_SCL*%
X139000000Y-108000000D03*
X136000000Y-106000000D03*
%TO.N,/VCC_3V3*%
X131000000Y-105000000D03*
X136000000Y-115080000D03*
%TO.N,Net-(U1-GNDA)*%
X131000000Y-104000000D03*
X139000000Y-115080000D03*
%TO.N,Net-(IC1-LRCLK2)*%
X154000000Y-87000000D03*
X154000000Y-110000000D03*
%TO.N,Net-(IC1-BCLK2)*%
X152000000Y-87000000D03*
X152000000Y-105000000D03*
%TO.N,VCC_5V*%
X160000000Y-94000000D03*
X160000000Y-88000000D03*
%TO.N,Net-(IC1-IN2)*%
X149000000Y-88000000D03*
X149000000Y-97000000D03*
%TO.N,Net-(IC1-OUT1D)*%
X147000000Y-88000000D03*
X147000000Y-94000000D03*
%TO.N,Net-(D2-A)*%
X168000000Y-91000000D03*
X169000000Y-85400000D03*
%TD*%
D22*
%TO.N,/SPI_MOSI*%
X129000000Y-82000000D02*
X124000000Y-77000000D01*
X124000000Y-77000000D02*
X121000000Y-77000000D01*
%TO.N,/SPI_MISO*%
X125000000Y-79000000D02*
X124000000Y-78000000D01*
X128000000Y-84000000D02*
X125000000Y-81000000D01*
X125000000Y-81000000D02*
X125000000Y-79000000D01*
%TO.N,/SPI_SCK*%
X128359000Y-89359000D02*
X121000000Y-82000000D01*
X128359000Y-101359000D02*
X128359000Y-89359000D01*
X130000000Y-103000000D02*
X128359000Y-101359000D01*
X130000000Y-103000000D02*
X139000000Y-103000000D01*
X130000000Y-107000000D02*
X130000000Y-103000000D01*
X131000000Y-116000000D02*
X128000000Y-113000000D01*
%TO.N,/I2C_SCL*%
X138000000Y-108000000D02*
X139000000Y-108000000D01*
X136000000Y-106000000D02*
X138000000Y-108000000D01*
%TO.N,/VCC_3V3*%
X136000000Y-115080000D02*
X136000000Y-110000000D01*
X136000000Y-110000000D02*
X131000000Y-105000000D01*
%TO.N,Net-(U1-GNDA)*%
X139000000Y-112000000D02*
X131000000Y-104000000D01*
X139000000Y-115080000D02*
X139000000Y-112000000D01*
%TO.N,Net-(IC1-LRCLK2)*%
X154000000Y-110000000D02*
X154000000Y-87000000D01*
%TO.N,Net-(IC1-BCLK2)*%
X152000000Y-105000000D02*
X152000000Y-87000000D01*
D23*
%TO.N,VCC_5V*%
X160000000Y-94000000D02*
X160000000Y-88000000D01*
D22*
%TO.N,Net-(IC1-IN2)*%
X149000000Y-89000000D02*
X149000000Y-88000000D01*
X149000000Y-97000000D02*
X149000000Y-89000000D01*
%TO.N,Net-(IC1-OUT1D)*%
X147000000Y-94000000D02*
X147000000Y-88000000D01*
%TO.N,Net-(D2-A)*%
X169000000Y-85400000D02*
X169000000Y-90000000D01*
X169000000Y-90000000D02*
X168000000Y-91000000D01*
%TD*%
%TA.AperFunction,Conductor*%
%TO.N,GND*%
G36*
X177442539Y-67520185D02*
G01*
X177488294Y-67572989D01*
X177499500Y-67624500D01*
X177499500Y-146375500D01*
X177479815Y-146442539D01*
X177427011Y-146488294D01*
X177375500Y-146499500D01*
X114624500Y-146499500D01*
X114557461Y-146479815D01*
X114511706Y-146427011D01*
X114500500Y-146375500D01*
X114500500Y-137899983D01*
X122119500Y-137899983D01*
X122119500Y-140100001D01*
X122119501Y-140100018D01*
X122130000Y-140202796D01*
X122130001Y-140202799D01*
X122175395Y-140339786D01*
X122185186Y-140369334D01*
X122277288Y-140518656D01*
X122401344Y-140642712D01*
X122550666Y-140734814D01*
X122717203Y-140789999D01*
X122819991Y-140800500D01*
X125020008Y-140800499D01*
X125122797Y-140789999D01*
X125289334Y-140734814D01*
X125438656Y-140642712D01*
X125562712Y-140518656D01*
X125654814Y-140369334D01*
X125709999Y-140202797D01*
X125720500Y-140100009D01*
X125720499Y-138882014D01*
X127200000Y-138882014D01*
X127200000Y-139117985D01*
X127230799Y-139351914D01*
X127291870Y-139579837D01*
X127382160Y-139797819D01*
X127382165Y-139797828D01*
X127500144Y-140002171D01*
X127500145Y-140002172D01*
X127562721Y-140083723D01*
X128398958Y-139247487D01*
X128423978Y-139307890D01*
X128495112Y-139414351D01*
X128585649Y-139504888D01*
X128692110Y-139576022D01*
X128752511Y-139601041D01*
X127916275Y-140437277D01*
X127997827Y-140499854D01*
X127997828Y-140499855D01*
X128202171Y-140617834D01*
X128202180Y-140617839D01*
X128420163Y-140708129D01*
X128420161Y-140708129D01*
X128648085Y-140769200D01*
X128882014Y-140799999D01*
X128882029Y-140800000D01*
X129117971Y-140800000D01*
X129117985Y-140799999D01*
X129351914Y-140769200D01*
X129579837Y-140708129D01*
X129797819Y-140617839D01*
X129797828Y-140617834D01*
X130002181Y-140499850D01*
X130083723Y-140437279D01*
X130083723Y-140437276D01*
X129247487Y-139601041D01*
X129307890Y-139576022D01*
X129414351Y-139504888D01*
X129504888Y-139414351D01*
X129576022Y-139307890D01*
X129601041Y-139247487D01*
X130437276Y-140083723D01*
X130437279Y-140083723D01*
X130499850Y-140002181D01*
X130617834Y-139797828D01*
X130617839Y-139797819D01*
X130708129Y-139579837D01*
X130769200Y-139351914D01*
X130799999Y-139117985D01*
X130800000Y-139117971D01*
X130800000Y-138882028D01*
X130799999Y-138882014D01*
X130769200Y-138648085D01*
X130708129Y-138420162D01*
X130617839Y-138202180D01*
X130617834Y-138202171D01*
X130499855Y-137997828D01*
X130499854Y-137997827D01*
X130437277Y-137916275D01*
X129601041Y-138752511D01*
X129576022Y-138692110D01*
X129504888Y-138585649D01*
X129414351Y-138495112D01*
X129307890Y-138423978D01*
X129247488Y-138398958D01*
X130083723Y-137562721D01*
X130002172Y-137500145D01*
X130002171Y-137500144D01*
X129797828Y-137382165D01*
X129797819Y-137382160D01*
X129579836Y-137291870D01*
X129579838Y-137291870D01*
X129351914Y-137230799D01*
X129117985Y-137200000D01*
X128882014Y-137200000D01*
X128648085Y-137230799D01*
X128420162Y-137291870D01*
X128202180Y-137382160D01*
X128202171Y-137382165D01*
X127997828Y-137500144D01*
X127997818Y-137500150D01*
X127916275Y-137562720D01*
X127916275Y-137562721D01*
X128752512Y-138398958D01*
X128692110Y-138423978D01*
X128585649Y-138495112D01*
X128495112Y-138585649D01*
X128423978Y-138692110D01*
X128398958Y-138752511D01*
X127562721Y-137916275D01*
X127562720Y-137916275D01*
X127500150Y-137997818D01*
X127500144Y-137997828D01*
X127382165Y-138202171D01*
X127382160Y-138202180D01*
X127291870Y-138420162D01*
X127230799Y-138648085D01*
X127200000Y-138882014D01*
X125720499Y-138882014D01*
X125720499Y-137899992D01*
X125712111Y-137817883D01*
X125709999Y-137797203D01*
X125709998Y-137797200D01*
X125661114Y-137649678D01*
X125661113Y-137649676D01*
X125654816Y-137630672D01*
X125654815Y-137630671D01*
X125654814Y-137630666D01*
X125562712Y-137481344D01*
X125438656Y-137357288D01*
X125335720Y-137293797D01*
X125289336Y-137265187D01*
X125289331Y-137265185D01*
X125246810Y-137251095D01*
X125122797Y-137210001D01*
X125122795Y-137210000D01*
X125020010Y-137199500D01*
X122819998Y-137199500D01*
X122819981Y-137199501D01*
X122717203Y-137210000D01*
X122717200Y-137210001D01*
X122550668Y-137265185D01*
X122550663Y-137265187D01*
X122401342Y-137357289D01*
X122277289Y-137481342D01*
X122185187Y-137630663D01*
X122185185Y-137630668D01*
X122178886Y-137649678D01*
X122130001Y-137797203D01*
X122130001Y-137797204D01*
X122130000Y-137797204D01*
X122119500Y-137899983D01*
X114500500Y-137899983D01*
X114500500Y-136022135D01*
X135649500Y-136022135D01*
X135649500Y-137817870D01*
X135649501Y-137817876D01*
X135655908Y-137877483D01*
X135706202Y-138012328D01*
X135706206Y-138012335D01*
X135792452Y-138127544D01*
X135792455Y-138127547D01*
X135907664Y-138213793D01*
X135907671Y-138213797D01*
X136039082Y-138262810D01*
X136095016Y-138304681D01*
X136119433Y-138370145D01*
X136104582Y-138438418D01*
X136083431Y-138466673D01*
X135969889Y-138580215D01*
X135844951Y-138752179D01*
X135748444Y-138941585D01*
X135682753Y-139143760D01*
X135675493Y-139189598D01*
X135649500Y-139353713D01*
X135649500Y-139566287D01*
X135682754Y-139776243D01*
X135689767Y-139797828D01*
X135748444Y-139978414D01*
X135844951Y-140167820D01*
X135969890Y-140339786D01*
X136120213Y-140490109D01*
X136292182Y-140615050D01*
X136300946Y-140619516D01*
X136351742Y-140667491D01*
X136368536Y-140735312D01*
X136345998Y-140801447D01*
X136300946Y-140840484D01*
X136292182Y-140844949D01*
X136120213Y-140969890D01*
X135969890Y-141120213D01*
X135844951Y-141292179D01*
X135748444Y-141481585D01*
X135682753Y-141683760D01*
X135649500Y-141893713D01*
X135649500Y-142106286D01*
X135682753Y-142316239D01*
X135748444Y-142518414D01*
X135844951Y-142707820D01*
X135969890Y-142879786D01*
X136120213Y-143030109D01*
X136292179Y-143155048D01*
X136292181Y-143155049D01*
X136292184Y-143155051D01*
X136481588Y-143251557D01*
X136683757Y-143317246D01*
X136893713Y-143350500D01*
X136893714Y-143350500D01*
X137106286Y-143350500D01*
X137106287Y-143350500D01*
X137316243Y-143317246D01*
X137518412Y-143251557D01*
X137707816Y-143155051D01*
X137729789Y-143139086D01*
X137879786Y-143030109D01*
X137879788Y-143030106D01*
X137879792Y-143030104D01*
X138030104Y-142879792D01*
X138030106Y-142879788D01*
X138030109Y-142879786D01*
X138155048Y-142707820D01*
X138155047Y-142707820D01*
X138155051Y-142707816D01*
X138251557Y-142518412D01*
X138317246Y-142316243D01*
X138350500Y-142106287D01*
X138350500Y-141893713D01*
X138317246Y-141683757D01*
X138251557Y-141481588D01*
X138155051Y-141292184D01*
X138155049Y-141292181D01*
X138155048Y-141292179D01*
X138030109Y-141120213D01*
X137879786Y-140969890D01*
X137707820Y-140844951D01*
X137707115Y-140844591D01*
X137699054Y-140840485D01*
X137648259Y-140792512D01*
X137631463Y-140724692D01*
X137653999Y-140658556D01*
X137699054Y-140619515D01*
X137707816Y-140615051D01*
X137729789Y-140599086D01*
X137879786Y-140490109D01*
X137879788Y-140490106D01*
X137879792Y-140490104D01*
X138030104Y-140339792D01*
X138030106Y-140339788D01*
X138030109Y-140339786D01*
X138155048Y-140167820D01*
X138155047Y-140167820D01*
X138155051Y-140167816D01*
X138251557Y-139978412D01*
X138317246Y-139776243D01*
X138350500Y-139566287D01*
X138350500Y-139353713D01*
X138317246Y-139143757D01*
X138251557Y-138941588D01*
X138155051Y-138752184D01*
X138155049Y-138752181D01*
X138155048Y-138752179D01*
X138030109Y-138580213D01*
X137916569Y-138466673D01*
X137883084Y-138405350D01*
X137888068Y-138335658D01*
X137929940Y-138279725D01*
X137960915Y-138262810D01*
X138092331Y-138213796D01*
X138207546Y-138127546D01*
X138293796Y-138012331D01*
X138344091Y-137877483D01*
X138350500Y-137817873D01*
X138350499Y-136022128D01*
X138344091Y-135962517D01*
X138293796Y-135827669D01*
X138293795Y-135827668D01*
X138293793Y-135827664D01*
X138207547Y-135712455D01*
X138207544Y-135712452D01*
X138092335Y-135626206D01*
X138092328Y-135626202D01*
X137957482Y-135575908D01*
X137957483Y-135575908D01*
X137897883Y-135569501D01*
X137897881Y-135569500D01*
X137897873Y-135569500D01*
X137897864Y-135569500D01*
X136102129Y-135569500D01*
X136102123Y-135569501D01*
X136042516Y-135575908D01*
X135907671Y-135626202D01*
X135907664Y-135626206D01*
X135792455Y-135712452D01*
X135792452Y-135712455D01*
X135706206Y-135827664D01*
X135706202Y-135827671D01*
X135655908Y-135962517D01*
X135651879Y-135999999D01*
X135649501Y-136022123D01*
X135649500Y-136022135D01*
X114500500Y-136022135D01*
X114500500Y-135102135D01*
X164569500Y-135102135D01*
X164569500Y-136897870D01*
X164569501Y-136897876D01*
X164575908Y-136957483D01*
X164626202Y-137092328D01*
X164626206Y-137092335D01*
X164712452Y-137207544D01*
X164712455Y-137207547D01*
X164827664Y-137293793D01*
X164827671Y-137293797D01*
X164962517Y-137344091D01*
X164962516Y-137344091D01*
X164969444Y-137344835D01*
X165022127Y-137350500D01*
X166817872Y-137350499D01*
X166877483Y-137344091D01*
X167012331Y-137293796D01*
X167127546Y-137207546D01*
X167213796Y-137092331D01*
X167262810Y-136960916D01*
X167304681Y-136904984D01*
X167370145Y-136880566D01*
X167438418Y-136895417D01*
X167466673Y-136916569D01*
X167580213Y-137030109D01*
X167752179Y-137155048D01*
X167752181Y-137155049D01*
X167752184Y-137155051D01*
X167941588Y-137251557D01*
X168143757Y-137317246D01*
X168353713Y-137350500D01*
X168353714Y-137350500D01*
X168566286Y-137350500D01*
X168566287Y-137350500D01*
X168776243Y-137317246D01*
X168978412Y-137251557D01*
X169167816Y-137155051D01*
X169254138Y-137092335D01*
X169339786Y-137030109D01*
X169339788Y-137030106D01*
X169339792Y-137030104D01*
X169490104Y-136879792D01*
X169490106Y-136879788D01*
X169490109Y-136879786D01*
X169575890Y-136761717D01*
X169615051Y-136707816D01*
X169619793Y-136698508D01*
X169667763Y-136647711D01*
X169735583Y-136630911D01*
X169801719Y-136653445D01*
X169840763Y-136698500D01*
X169845373Y-136707547D01*
X169884728Y-136761716D01*
X170517037Y-136129408D01*
X170534075Y-136192993D01*
X170599901Y-136307007D01*
X170692993Y-136400099D01*
X170807007Y-136465925D01*
X170870590Y-136482962D01*
X170238282Y-137115269D01*
X170238282Y-137115270D01*
X170292449Y-137154624D01*
X170481782Y-137251095D01*
X170683870Y-137316757D01*
X170893754Y-137350000D01*
X171106246Y-137350000D01*
X171316127Y-137316757D01*
X171316130Y-137316757D01*
X171518217Y-137251095D01*
X171707554Y-137154622D01*
X171761716Y-137115270D01*
X171761717Y-137115270D01*
X171129408Y-136482962D01*
X171192993Y-136465925D01*
X171307007Y-136400099D01*
X171400099Y-136307007D01*
X171465925Y-136192993D01*
X171482962Y-136129408D01*
X172115270Y-136761717D01*
X172115270Y-136761716D01*
X172154622Y-136707554D01*
X172251095Y-136518217D01*
X172316757Y-136316130D01*
X172316757Y-136316127D01*
X172350000Y-136106246D01*
X172350000Y-135893753D01*
X172316757Y-135683872D01*
X172316757Y-135683869D01*
X172251095Y-135481782D01*
X172154624Y-135292449D01*
X172115270Y-135238282D01*
X172115269Y-135238282D01*
X171482962Y-135870590D01*
X171465925Y-135807007D01*
X171400099Y-135692993D01*
X171307007Y-135599901D01*
X171192993Y-135534075D01*
X171129409Y-135517037D01*
X171761716Y-134884728D01*
X171707550Y-134845375D01*
X171518217Y-134748904D01*
X171316129Y-134683242D01*
X171106246Y-134650000D01*
X170893754Y-134650000D01*
X170683872Y-134683242D01*
X170683869Y-134683242D01*
X170481782Y-134748904D01*
X170292439Y-134845380D01*
X170238282Y-134884727D01*
X170238282Y-134884728D01*
X170870591Y-135517037D01*
X170807007Y-135534075D01*
X170692993Y-135599901D01*
X170599901Y-135692993D01*
X170534075Y-135807007D01*
X170517037Y-135870591D01*
X169884728Y-135238282D01*
X169884727Y-135238282D01*
X169845380Y-135292440D01*
X169845376Y-135292446D01*
X169840760Y-135301505D01*
X169792781Y-135352297D01*
X169724959Y-135369087D01*
X169658826Y-135346543D01*
X169619794Y-135301493D01*
X169615051Y-135292184D01*
X169615049Y-135292181D01*
X169615048Y-135292179D01*
X169490109Y-135120213D01*
X169339786Y-134969890D01*
X169167820Y-134844951D01*
X168978414Y-134748444D01*
X168978413Y-134748443D01*
X168978412Y-134748443D01*
X168776243Y-134682754D01*
X168776241Y-134682753D01*
X168776240Y-134682753D01*
X168614957Y-134657208D01*
X168566287Y-134649500D01*
X168353713Y-134649500D01*
X168305042Y-134657208D01*
X168143760Y-134682753D01*
X167941585Y-134748444D01*
X167752179Y-134844951D01*
X167580215Y-134969889D01*
X167466673Y-135083431D01*
X167405350Y-135116915D01*
X167335658Y-135111931D01*
X167279725Y-135070059D01*
X167262810Y-135039082D01*
X167213797Y-134907671D01*
X167213793Y-134907664D01*
X167127547Y-134792455D01*
X167127544Y-134792452D01*
X167012335Y-134706206D01*
X167012328Y-134706202D01*
X166877482Y-134655908D01*
X166877483Y-134655908D01*
X166817883Y-134649501D01*
X166817881Y-134649500D01*
X166817873Y-134649500D01*
X166817864Y-134649500D01*
X165022129Y-134649500D01*
X165022123Y-134649501D01*
X164962516Y-134655908D01*
X164827671Y-134706202D01*
X164827664Y-134706206D01*
X164712455Y-134792452D01*
X164712452Y-134792455D01*
X164626206Y-134907664D01*
X164626202Y-134907671D01*
X164575908Y-135042517D01*
X164569501Y-135102116D01*
X164569500Y-135102135D01*
X114500500Y-135102135D01*
X114500500Y-128897648D01*
X119619500Y-128897648D01*
X119619500Y-129102351D01*
X119651522Y-129304534D01*
X119714781Y-129499223D01*
X119807715Y-129681613D01*
X119928028Y-129847213D01*
X120072786Y-129991971D01*
X120227749Y-130104556D01*
X120238390Y-130112287D01*
X120354607Y-130171503D01*
X120420776Y-130205218D01*
X120420778Y-130205218D01*
X120420781Y-130205220D01*
X120463878Y-130219223D01*
X120615465Y-130268477D01*
X120716557Y-130284488D01*
X120817648Y-130300500D01*
X120817649Y-130300500D01*
X121022351Y-130300500D01*
X121022352Y-130300500D01*
X121224534Y-130268477D01*
X121419219Y-130205220D01*
X121601610Y-130112287D01*
X121722393Y-130024534D01*
X121767213Y-129991971D01*
X121767215Y-129991968D01*
X121767219Y-129991966D01*
X121911966Y-129847219D01*
X121911968Y-129847215D01*
X121911971Y-129847213D01*
X121964732Y-129774590D01*
X122032287Y-129681610D01*
X122125220Y-129499219D01*
X122188477Y-129304534D01*
X122220500Y-129102352D01*
X122220500Y-128897648D01*
X129779500Y-128897648D01*
X129779500Y-129102351D01*
X129811522Y-129304534D01*
X129874781Y-129499223D01*
X129967715Y-129681613D01*
X130088028Y-129847213D01*
X130232786Y-129991971D01*
X130387749Y-130104556D01*
X130398390Y-130112287D01*
X130514607Y-130171503D01*
X130580776Y-130205218D01*
X130580778Y-130205218D01*
X130580781Y-130205220D01*
X130623878Y-130219223D01*
X130775465Y-130268477D01*
X130876557Y-130284488D01*
X130977648Y-130300500D01*
X130977649Y-130300500D01*
X131182351Y-130300500D01*
X131182352Y-130300500D01*
X131384534Y-130268477D01*
X131579219Y-130205220D01*
X131761610Y-130112287D01*
X131882393Y-130024534D01*
X131927213Y-129991971D01*
X131927215Y-129991968D01*
X131927219Y-129991966D01*
X132071966Y-129847219D01*
X132071968Y-129847215D01*
X132071971Y-129847213D01*
X132124732Y-129774590D01*
X132192287Y-129681610D01*
X132285220Y-129499219D01*
X132348477Y-129304534D01*
X132380500Y-129102352D01*
X132380500Y-128897648D01*
X132353635Y-128728034D01*
X132348477Y-128695465D01*
X132291934Y-128521446D01*
X132285220Y-128500781D01*
X132285218Y-128500778D01*
X132285218Y-128500776D01*
X132227495Y-128387490D01*
X132192287Y-128318390D01*
X132174419Y-128293796D01*
X132071971Y-128152786D01*
X131927213Y-128008028D01*
X131761613Y-127887715D01*
X131761612Y-127887714D01*
X131761610Y-127887713D01*
X131704653Y-127858691D01*
X131579223Y-127794781D01*
X131384534Y-127731522D01*
X131209995Y-127703878D01*
X131182352Y-127699500D01*
X130977648Y-127699500D01*
X130953329Y-127703351D01*
X130775465Y-127731522D01*
X130580776Y-127794781D01*
X130398386Y-127887715D01*
X130232786Y-128008028D01*
X130088028Y-128152786D01*
X129967715Y-128318386D01*
X129874781Y-128500776D01*
X129811522Y-128695465D01*
X129779500Y-128897648D01*
X122220500Y-128897648D01*
X122193635Y-128728034D01*
X122188477Y-128695465D01*
X122131934Y-128521446D01*
X122125220Y-128500781D01*
X122125218Y-128500778D01*
X122125218Y-128500776D01*
X122067495Y-128387490D01*
X122032287Y-128318390D01*
X122014419Y-128293796D01*
X121911971Y-128152786D01*
X121767213Y-128008028D01*
X121601613Y-127887715D01*
X121601612Y-127887714D01*
X121601610Y-127887713D01*
X121544653Y-127858691D01*
X121419223Y-127794781D01*
X121224534Y-127731522D01*
X121049995Y-127703878D01*
X121022352Y-127699500D01*
X120817648Y-127699500D01*
X120793329Y-127703351D01*
X120615465Y-127731522D01*
X120420776Y-127794781D01*
X120238386Y-127887715D01*
X120072786Y-128008028D01*
X119928028Y-128152786D01*
X119807715Y-128318386D01*
X119714781Y-128500776D01*
X119651522Y-128695465D01*
X119619500Y-128897648D01*
X114500500Y-128897648D01*
X114500500Y-121897648D01*
X119539500Y-121897648D01*
X119539500Y-122102351D01*
X119571522Y-122304534D01*
X119634781Y-122499223D01*
X119727715Y-122681613D01*
X119848028Y-122847213D01*
X119992786Y-122991971D01*
X120130420Y-123091966D01*
X120158390Y-123112287D01*
X120274607Y-123171503D01*
X120340776Y-123205218D01*
X120340778Y-123205218D01*
X120340781Y-123205220D01*
X120445137Y-123239127D01*
X120535465Y-123268477D01*
X120636557Y-123284488D01*
X120737648Y-123300500D01*
X120737649Y-123300500D01*
X120942351Y-123300500D01*
X120942352Y-123300500D01*
X121144534Y-123268477D01*
X121339219Y-123205220D01*
X121521610Y-123112287D01*
X121614590Y-123044732D01*
X121687213Y-122991971D01*
X121687215Y-122991968D01*
X121687219Y-122991966D01*
X121831966Y-122847219D01*
X121831968Y-122847215D01*
X121831971Y-122847213D01*
X121884732Y-122774590D01*
X121952287Y-122681610D01*
X122045220Y-122499219D01*
X122108477Y-122304534D01*
X122140500Y-122102352D01*
X122140500Y-121897648D01*
X129699500Y-121897648D01*
X129699500Y-122102351D01*
X129731522Y-122304534D01*
X129794781Y-122499223D01*
X129887715Y-122681613D01*
X130008028Y-122847213D01*
X130152786Y-122991971D01*
X130290420Y-123091966D01*
X130318390Y-123112287D01*
X130434607Y-123171503D01*
X130500776Y-123205218D01*
X130500778Y-123205218D01*
X130500781Y-123205220D01*
X130605137Y-123239127D01*
X130695465Y-123268477D01*
X130796557Y-123284488D01*
X130897648Y-123300500D01*
X130897649Y-123300500D01*
X131102351Y-123300500D01*
X131102352Y-123300500D01*
X131304534Y-123268477D01*
X131499219Y-123205220D01*
X131681610Y-123112287D01*
X131774590Y-123044732D01*
X131847213Y-122991971D01*
X131847215Y-122991968D01*
X131847219Y-122991966D01*
X131991966Y-122847219D01*
X131991968Y-122847215D01*
X131991971Y-122847213D01*
X132044732Y-122774590D01*
X132112287Y-122681610D01*
X132205220Y-122499219D01*
X132268477Y-122304534D01*
X132300500Y-122102352D01*
X132300500Y-121897648D01*
X132268477Y-121695466D01*
X132205220Y-121500781D01*
X132205218Y-121500778D01*
X132205218Y-121500776D01*
X132171503Y-121434607D01*
X132112287Y-121318390D01*
X132104556Y-121307749D01*
X131991971Y-121152786D01*
X131847213Y-121008028D01*
X131681613Y-120887715D01*
X131681612Y-120887714D01*
X131681610Y-120887713D01*
X131624653Y-120858691D01*
X131499223Y-120794781D01*
X131304534Y-120731522D01*
X131129995Y-120703878D01*
X131102352Y-120699500D01*
X130897648Y-120699500D01*
X130873329Y-120703351D01*
X130695465Y-120731522D01*
X130500776Y-120794781D01*
X130318386Y-120887715D01*
X130152786Y-121008028D01*
X130008028Y-121152786D01*
X129887715Y-121318386D01*
X129794781Y-121500776D01*
X129731522Y-121695465D01*
X129699500Y-121897648D01*
X122140500Y-121897648D01*
X122108477Y-121695466D01*
X122045220Y-121500781D01*
X122045218Y-121500778D01*
X122045218Y-121500776D01*
X122011503Y-121434607D01*
X121952287Y-121318390D01*
X121944556Y-121307749D01*
X121831971Y-121152786D01*
X121687213Y-121008028D01*
X121521613Y-120887715D01*
X121521612Y-120887714D01*
X121521610Y-120887713D01*
X121464653Y-120858691D01*
X121339223Y-120794781D01*
X121144534Y-120731522D01*
X120969995Y-120703878D01*
X120942352Y-120699500D01*
X120737648Y-120699500D01*
X120713329Y-120703351D01*
X120535465Y-120731522D01*
X120340776Y-120794781D01*
X120158386Y-120887715D01*
X119992786Y-121008028D01*
X119848028Y-121152786D01*
X119727715Y-121318386D01*
X119634781Y-121500776D01*
X119571522Y-121695465D01*
X119539500Y-121897648D01*
X114500500Y-121897648D01*
X114500500Y-112921153D01*
X127199500Y-112921153D01*
X127199500Y-113078846D01*
X127230261Y-113233489D01*
X127230264Y-113233501D01*
X127290602Y-113379172D01*
X127290609Y-113379185D01*
X127378210Y-113510288D01*
X127378213Y-113510292D01*
X127489707Y-113621786D01*
X127489711Y-113621789D01*
X127620814Y-113709390D01*
X127620827Y-113709397D01*
X127766498Y-113769735D01*
X127766503Y-113769737D01*
X127831147Y-113782595D01*
X127921849Y-113800638D01*
X127983760Y-113833023D01*
X127985339Y-113834574D01*
X130165425Y-116014660D01*
X130198910Y-116075983D01*
X130199361Y-116078149D01*
X130230261Y-116233491D01*
X130230264Y-116233501D01*
X130290602Y-116379172D01*
X130290609Y-116379185D01*
X130378210Y-116510288D01*
X130378213Y-116510292D01*
X130489707Y-116621786D01*
X130489711Y-116621789D01*
X130620814Y-116709390D01*
X130620827Y-116709397D01*
X130766498Y-116769735D01*
X130766503Y-116769737D01*
X130921153Y-116800499D01*
X130921156Y-116800500D01*
X130921158Y-116800500D01*
X131078844Y-116800500D01*
X131078845Y-116800499D01*
X131233497Y-116769737D01*
X131379179Y-116709394D01*
X131510289Y-116621789D01*
X131621789Y-116510289D01*
X131709394Y-116379179D01*
X131769737Y-116233497D01*
X131800500Y-116078842D01*
X131800500Y-115921158D01*
X131800500Y-115921155D01*
X131800499Y-115921153D01*
X131797816Y-115907664D01*
X131769737Y-115766503D01*
X131762447Y-115748904D01*
X131709397Y-115620827D01*
X131709390Y-115620814D01*
X131621789Y-115489711D01*
X131621786Y-115489707D01*
X131510292Y-115378213D01*
X131510288Y-115378210D01*
X131379185Y-115290609D01*
X131379172Y-115290602D01*
X131233501Y-115230264D01*
X131233491Y-115230261D01*
X131078151Y-115199362D01*
X131016241Y-115166977D01*
X131014662Y-115165426D01*
X128834573Y-112985337D01*
X128801088Y-112924014D01*
X128800637Y-112921847D01*
X128800499Y-112921153D01*
X128769737Y-112766503D01*
X128769735Y-112766498D01*
X128709397Y-112620827D01*
X128709390Y-112620814D01*
X128621789Y-112489711D01*
X128621786Y-112489707D01*
X128510292Y-112378213D01*
X128510288Y-112378210D01*
X128379185Y-112290609D01*
X128379172Y-112290602D01*
X128233501Y-112230264D01*
X128233489Y-112230261D01*
X128078845Y-112199500D01*
X128078842Y-112199500D01*
X127921158Y-112199500D01*
X127921155Y-112199500D01*
X127766510Y-112230261D01*
X127766498Y-112230264D01*
X127620827Y-112290602D01*
X127620814Y-112290609D01*
X127489711Y-112378210D01*
X127489707Y-112378213D01*
X127378213Y-112489707D01*
X127378210Y-112489711D01*
X127290609Y-112620814D01*
X127290602Y-112620827D01*
X127230264Y-112766498D01*
X127230261Y-112766510D01*
X127199500Y-112921153D01*
X114500500Y-112921153D01*
X114500500Y-109277135D01*
X117787000Y-109277135D01*
X117787000Y-110722870D01*
X117787001Y-110722876D01*
X117793408Y-110782483D01*
X117843702Y-110917328D01*
X117843706Y-110917335D01*
X117929952Y-111032544D01*
X117929955Y-111032547D01*
X118045164Y-111118793D01*
X118045171Y-111118797D01*
X118180017Y-111169091D01*
X118180016Y-111169091D01*
X118186944Y-111169835D01*
X118239627Y-111175500D01*
X119685372Y-111175499D01*
X119744983Y-111169091D01*
X119879831Y-111118796D01*
X119995046Y-111032546D01*
X120058741Y-110947459D01*
X120114674Y-110905590D01*
X120184366Y-110900606D01*
X120230892Y-110921453D01*
X120346404Y-111005378D01*
X120399724Y-111032546D01*
X120511264Y-111089379D01*
X120511267Y-111089380D01*
X120599250Y-111117967D01*
X120687236Y-111146555D01*
X120869986Y-111175500D01*
X120869987Y-111175500D01*
X121055013Y-111175500D01*
X121055014Y-111175500D01*
X121237764Y-111146555D01*
X121413735Y-111089379D01*
X121578596Y-111005378D01*
X121728287Y-110896621D01*
X121859121Y-110765787D01*
X121862180Y-110761576D01*
X121917506Y-110718909D01*
X121987119Y-110712926D01*
X122048915Y-110745529D01*
X122062815Y-110761570D01*
X122065879Y-110765787D01*
X122196713Y-110896621D01*
X122346404Y-111005378D01*
X122399724Y-111032546D01*
X122511264Y-111089379D01*
X122511267Y-111089380D01*
X122599250Y-111117967D01*
X122687236Y-111146555D01*
X122869986Y-111175500D01*
X122869987Y-111175500D01*
X123055013Y-111175500D01*
X123055014Y-111175500D01*
X123237764Y-111146555D01*
X123413735Y-111089379D01*
X123578596Y-111005378D01*
X123728287Y-110896621D01*
X123859121Y-110765787D01*
X123862180Y-110761576D01*
X123917506Y-110718909D01*
X123987119Y-110712926D01*
X124048915Y-110745529D01*
X124062815Y-110761570D01*
X124065879Y-110765787D01*
X124196713Y-110896621D01*
X124346404Y-111005378D01*
X124399724Y-111032546D01*
X124511264Y-111089379D01*
X124511267Y-111089380D01*
X124599250Y-111117967D01*
X124687236Y-111146555D01*
X124869986Y-111175500D01*
X124869987Y-111175500D01*
X125055013Y-111175500D01*
X125055014Y-111175500D01*
X125237764Y-111146555D01*
X125413735Y-111089379D01*
X125578596Y-111005378D01*
X125728287Y-110896621D01*
X125859121Y-110765787D01*
X125862180Y-110761576D01*
X125917506Y-110718909D01*
X125987119Y-110712926D01*
X126048915Y-110745529D01*
X126062815Y-110761570D01*
X126065879Y-110765787D01*
X126196713Y-110896621D01*
X126346404Y-111005378D01*
X126399724Y-111032546D01*
X126511264Y-111089379D01*
X126511267Y-111089380D01*
X126599250Y-111117967D01*
X126687236Y-111146555D01*
X126869986Y-111175500D01*
X126869987Y-111175500D01*
X127055013Y-111175500D01*
X127055014Y-111175500D01*
X127237764Y-111146555D01*
X127413735Y-111089379D01*
X127578596Y-111005378D01*
X127728287Y-110896621D01*
X127859121Y-110765787D01*
X127862180Y-110761576D01*
X127917506Y-110718909D01*
X127987119Y-110712926D01*
X128048915Y-110745529D01*
X128062815Y-110761570D01*
X128065879Y-110765787D01*
X128196713Y-110896621D01*
X128346404Y-111005378D01*
X128399724Y-111032546D01*
X128511264Y-111089379D01*
X128511267Y-111089380D01*
X128599250Y-111117967D01*
X128687236Y-111146555D01*
X128869986Y-111175500D01*
X128869987Y-111175500D01*
X129055013Y-111175500D01*
X129055014Y-111175500D01*
X129237764Y-111146555D01*
X129413735Y-111089379D01*
X129578596Y-111005378D01*
X129728287Y-110896621D01*
X129859121Y-110765787D01*
X129862180Y-110761576D01*
X129917506Y-110718909D01*
X129987119Y-110712926D01*
X130048915Y-110745529D01*
X130062815Y-110761570D01*
X130065879Y-110765787D01*
X130196713Y-110896621D01*
X130346404Y-111005378D01*
X130399724Y-111032546D01*
X130511264Y-111089379D01*
X130511267Y-111089380D01*
X130599250Y-111117967D01*
X130687236Y-111146555D01*
X130869986Y-111175500D01*
X130869987Y-111175500D01*
X131055013Y-111175500D01*
X131055014Y-111175500D01*
X131237764Y-111146555D01*
X131413735Y-111089379D01*
X131578596Y-111005378D01*
X131728287Y-110896621D01*
X131859121Y-110765787D01*
X131862180Y-110761576D01*
X131917506Y-110718909D01*
X131987119Y-110712926D01*
X132048915Y-110745529D01*
X132062815Y-110761570D01*
X132065879Y-110765787D01*
X132196713Y-110896621D01*
X132346404Y-111005378D01*
X132399724Y-111032546D01*
X132511264Y-111089379D01*
X132511267Y-111089380D01*
X132599250Y-111117967D01*
X132687236Y-111146555D01*
X132869986Y-111175500D01*
X132869987Y-111175500D01*
X133055013Y-111175500D01*
X133055014Y-111175500D01*
X133237764Y-111146555D01*
X133413735Y-111089379D01*
X133578596Y-111005378D01*
X133728287Y-110896621D01*
X133859121Y-110765787D01*
X133967878Y-110616096D01*
X134051879Y-110451235D01*
X134109055Y-110275264D01*
X134138000Y-110092514D01*
X134138000Y-109907486D01*
X134109055Y-109724736D01*
X134051879Y-109548765D01*
X134051879Y-109548764D01*
X134009077Y-109464763D01*
X133967878Y-109383904D01*
X133859121Y-109234213D01*
X133728287Y-109103379D01*
X133578596Y-108994622D01*
X133413735Y-108910620D01*
X133413732Y-108910619D01*
X133237765Y-108853445D01*
X133095472Y-108830908D01*
X133055014Y-108824500D01*
X132869986Y-108824500D01*
X132829528Y-108830908D01*
X132687234Y-108853445D01*
X132511267Y-108910619D01*
X132511264Y-108910620D01*
X132346403Y-108994622D01*
X132297560Y-109030109D01*
X132196713Y-109103379D01*
X132196711Y-109103381D01*
X132196710Y-109103381D01*
X132065881Y-109234210D01*
X132062814Y-109238432D01*
X132007481Y-109281094D01*
X131937867Y-109287069D01*
X131876074Y-109254459D01*
X131862186Y-109238432D01*
X131859121Y-109234213D01*
X131728287Y-109103379D01*
X131578596Y-108994622D01*
X131413735Y-108910620D01*
X131413732Y-108910619D01*
X131237765Y-108853445D01*
X131095472Y-108830908D01*
X131055014Y-108824500D01*
X130869986Y-108824500D01*
X130829528Y-108830908D01*
X130687234Y-108853445D01*
X130511267Y-108910619D01*
X130511264Y-108910620D01*
X130346403Y-108994622D01*
X130297560Y-109030109D01*
X130196713Y-109103379D01*
X130196711Y-109103381D01*
X130196710Y-109103381D01*
X130065881Y-109234210D01*
X130062814Y-109238432D01*
X130007481Y-109281094D01*
X129937867Y-109287069D01*
X129876074Y-109254459D01*
X129862186Y-109238432D01*
X129859121Y-109234213D01*
X129728287Y-109103379D01*
X129578596Y-108994622D01*
X129413735Y-108910620D01*
X129413732Y-108910619D01*
X129237765Y-108853445D01*
X129095472Y-108830908D01*
X129055014Y-108824500D01*
X128869986Y-108824500D01*
X128829528Y-108830908D01*
X128687234Y-108853445D01*
X128511267Y-108910619D01*
X128511264Y-108910620D01*
X128346403Y-108994622D01*
X128297560Y-109030109D01*
X128196713Y-109103379D01*
X128196711Y-109103381D01*
X128196710Y-109103381D01*
X128065881Y-109234210D01*
X128062814Y-109238432D01*
X128007481Y-109281094D01*
X127937867Y-109287069D01*
X127876074Y-109254459D01*
X127862186Y-109238432D01*
X127859121Y-109234213D01*
X127728287Y-109103379D01*
X127578596Y-108994622D01*
X127413735Y-108910620D01*
X127413732Y-108910619D01*
X127237765Y-108853445D01*
X127095472Y-108830908D01*
X127055014Y-108824500D01*
X126869986Y-108824500D01*
X126829528Y-108830908D01*
X126687234Y-108853445D01*
X126511267Y-108910619D01*
X126511264Y-108910620D01*
X126346403Y-108994622D01*
X126297560Y-109030109D01*
X126196713Y-109103379D01*
X126196711Y-109103381D01*
X126196710Y-109103381D01*
X126065881Y-109234210D01*
X126062814Y-109238432D01*
X126007481Y-109281094D01*
X125937867Y-109287069D01*
X125876074Y-109254459D01*
X125862186Y-109238432D01*
X125859121Y-109234213D01*
X125728287Y-109103379D01*
X125578596Y-108994622D01*
X125413735Y-108910620D01*
X125413732Y-108910619D01*
X125237765Y-108853445D01*
X125095472Y-108830908D01*
X125055014Y-108824500D01*
X124869986Y-108824500D01*
X124829528Y-108830908D01*
X124687234Y-108853445D01*
X124511267Y-108910619D01*
X124511264Y-108910620D01*
X124346403Y-108994622D01*
X124297560Y-109030109D01*
X124196713Y-109103379D01*
X124196711Y-109103381D01*
X124196710Y-109103381D01*
X124065881Y-109234210D01*
X124062814Y-109238432D01*
X124007481Y-109281094D01*
X123937867Y-109287069D01*
X123876074Y-109254459D01*
X123862186Y-109238432D01*
X123859121Y-109234213D01*
X123728287Y-109103379D01*
X123578596Y-108994622D01*
X123413735Y-108910620D01*
X123413732Y-108910619D01*
X123237765Y-108853445D01*
X123095472Y-108830908D01*
X123055014Y-108824500D01*
X122869986Y-108824500D01*
X122829528Y-108830908D01*
X122687234Y-108853445D01*
X122511267Y-108910619D01*
X122511264Y-108910620D01*
X122346403Y-108994622D01*
X122297560Y-109030109D01*
X122196713Y-109103379D01*
X122196711Y-109103381D01*
X122196710Y-109103381D01*
X122065881Y-109234210D01*
X122062814Y-109238432D01*
X122007481Y-109281094D01*
X121937867Y-109287069D01*
X121876074Y-109254459D01*
X121862186Y-109238432D01*
X121859121Y-109234213D01*
X121728287Y-109103379D01*
X121578596Y-108994622D01*
X121413735Y-108910620D01*
X121413732Y-108910619D01*
X121237765Y-108853445D01*
X121095472Y-108830908D01*
X121055014Y-108824500D01*
X120869986Y-108824500D01*
X120829528Y-108830908D01*
X120687234Y-108853445D01*
X120511267Y-108910619D01*
X120511264Y-108910620D01*
X120346400Y-108994624D01*
X120230892Y-109078545D01*
X120165086Y-109102025D01*
X120097032Y-109086199D01*
X120058741Y-109052539D01*
X120004685Y-108980330D01*
X119995046Y-108967454D01*
X119995044Y-108967453D01*
X119995044Y-108967452D01*
X119879835Y-108881206D01*
X119879828Y-108881202D01*
X119744982Y-108830908D01*
X119744983Y-108830908D01*
X119685383Y-108824501D01*
X119685381Y-108824500D01*
X119685373Y-108824500D01*
X119685364Y-108824500D01*
X118239629Y-108824500D01*
X118239623Y-108824501D01*
X118180016Y-108830908D01*
X118045171Y-108881202D01*
X118045164Y-108881206D01*
X117929955Y-108967452D01*
X117929952Y-108967455D01*
X117843706Y-109082664D01*
X117843702Y-109082671D01*
X117793408Y-109217517D01*
X117787001Y-109277116D01*
X117787000Y-109277135D01*
X114500500Y-109277135D01*
X114500500Y-92897648D01*
X115459500Y-92897648D01*
X115459500Y-93102351D01*
X115491522Y-93304534D01*
X115554781Y-93499223D01*
X115647715Y-93681613D01*
X115768028Y-93847213D01*
X115912786Y-93991971D01*
X116045915Y-94088693D01*
X116078390Y-94112287D01*
X116157864Y-94152781D01*
X116260776Y-94205218D01*
X116260778Y-94205218D01*
X116260781Y-94205220D01*
X116347784Y-94233489D01*
X116455465Y-94268477D01*
X116556557Y-94284488D01*
X116657648Y-94300500D01*
X116657649Y-94300500D01*
X116862351Y-94300500D01*
X116862352Y-94300500D01*
X117064534Y-94268477D01*
X117259219Y-94205220D01*
X117441610Y-94112287D01*
X117534590Y-94044732D01*
X117607213Y-93991971D01*
X117607215Y-93991968D01*
X117607219Y-93991966D01*
X117751966Y-93847219D01*
X117751968Y-93847215D01*
X117751971Y-93847213D01*
X117872284Y-93681614D01*
X117872285Y-93681613D01*
X117872287Y-93681610D01*
X117919516Y-93588917D01*
X117967489Y-93538123D01*
X118035310Y-93521328D01*
X118101445Y-93543865D01*
X118140483Y-93588917D01*
X118177098Y-93660776D01*
X118187715Y-93681614D01*
X118308028Y-93847213D01*
X118452786Y-93991971D01*
X118585915Y-94088693D01*
X118618390Y-94112287D01*
X118697864Y-94152781D01*
X118800776Y-94205218D01*
X118800778Y-94205218D01*
X118800781Y-94205220D01*
X118887784Y-94233489D01*
X118995465Y-94268477D01*
X119096557Y-94284488D01*
X119197648Y-94300500D01*
X119197649Y-94300500D01*
X119402351Y-94300500D01*
X119402352Y-94300500D01*
X119604534Y-94268477D01*
X119799219Y-94205220D01*
X119981610Y-94112287D01*
X120074590Y-94044732D01*
X120147213Y-93991971D01*
X120147215Y-93991968D01*
X120147219Y-93991966D01*
X120291966Y-93847219D01*
X120291968Y-93847215D01*
X120291971Y-93847213D01*
X120412284Y-93681614D01*
X120412285Y-93681613D01*
X120412287Y-93681610D01*
X120459516Y-93588917D01*
X120507489Y-93538123D01*
X120575310Y-93521328D01*
X120641445Y-93543865D01*
X120680483Y-93588917D01*
X120717098Y-93660776D01*
X120727715Y-93681614D01*
X120848028Y-93847213D01*
X120992786Y-93991971D01*
X121125915Y-94088693D01*
X121158390Y-94112287D01*
X121237864Y-94152781D01*
X121340776Y-94205218D01*
X121340778Y-94205218D01*
X121340781Y-94205220D01*
X121427784Y-94233489D01*
X121535465Y-94268477D01*
X121636557Y-94284488D01*
X121737648Y-94300500D01*
X121737649Y-94300500D01*
X121942351Y-94300500D01*
X121942352Y-94300500D01*
X122144534Y-94268477D01*
X122339219Y-94205220D01*
X122521610Y-94112287D01*
X122614590Y-94044732D01*
X122687213Y-93991971D01*
X122687215Y-93991968D01*
X122687219Y-93991966D01*
X122831966Y-93847219D01*
X122831968Y-93847215D01*
X122831971Y-93847213D01*
X122952284Y-93681614D01*
X122952285Y-93681613D01*
X122952287Y-93681610D01*
X122999516Y-93588917D01*
X123047489Y-93538123D01*
X123115310Y-93521328D01*
X123181445Y-93543865D01*
X123220483Y-93588917D01*
X123257098Y-93660776D01*
X123267715Y-93681614D01*
X123388028Y-93847213D01*
X123532786Y-93991971D01*
X123665915Y-94088693D01*
X123698390Y-94112287D01*
X123777864Y-94152781D01*
X123880776Y-94205218D01*
X123880778Y-94205218D01*
X123880781Y-94205220D01*
X123967784Y-94233489D01*
X124075465Y-94268477D01*
X124176557Y-94284488D01*
X124277648Y-94300500D01*
X124277649Y-94300500D01*
X124482351Y-94300500D01*
X124482352Y-94300500D01*
X124684534Y-94268477D01*
X124879219Y-94205220D01*
X125061610Y-94112287D01*
X125154590Y-94044732D01*
X125227213Y-93991971D01*
X125227215Y-93991968D01*
X125227219Y-93991966D01*
X125371966Y-93847219D01*
X125371968Y-93847215D01*
X125371971Y-93847213D01*
X125492284Y-93681614D01*
X125492285Y-93681613D01*
X125492287Y-93681610D01*
X125539516Y-93588917D01*
X125587489Y-93538123D01*
X125655310Y-93521328D01*
X125721445Y-93543865D01*
X125760483Y-93588917D01*
X125797098Y-93660776D01*
X125807715Y-93681614D01*
X125928028Y-93847213D01*
X126072786Y-93991971D01*
X126205915Y-94088693D01*
X126238390Y-94112287D01*
X126317864Y-94152781D01*
X126420776Y-94205218D01*
X126420778Y-94205218D01*
X126420781Y-94205220D01*
X126507784Y-94233489D01*
X126615465Y-94268477D01*
X126716557Y-94284488D01*
X126817648Y-94300500D01*
X126817649Y-94300500D01*
X127022351Y-94300500D01*
X127022352Y-94300500D01*
X127224534Y-94268477D01*
X127419219Y-94205220D01*
X127578206Y-94124211D01*
X127646874Y-94111316D01*
X127711614Y-94137592D01*
X127751872Y-94194698D01*
X127758500Y-94234697D01*
X127758500Y-99385302D01*
X127738815Y-99452341D01*
X127686011Y-99498096D01*
X127616853Y-99508040D01*
X127578205Y-99495787D01*
X127419223Y-99414782D01*
X127419222Y-99414781D01*
X127419219Y-99414780D01*
X127328135Y-99385185D01*
X127224534Y-99351522D01*
X127049995Y-99323878D01*
X127022352Y-99319500D01*
X126817648Y-99319500D01*
X126793329Y-99323351D01*
X126615465Y-99351522D01*
X126420776Y-99414781D01*
X126238386Y-99507715D01*
X126072786Y-99628028D01*
X125928028Y-99772786D01*
X125807715Y-99938386D01*
X125760485Y-100031080D01*
X125712510Y-100081876D01*
X125644689Y-100098671D01*
X125578554Y-100076134D01*
X125539515Y-100031080D01*
X125533861Y-100019983D01*
X125492287Y-99938390D01*
X125440021Y-99866451D01*
X125371971Y-99772786D01*
X125227213Y-99628028D01*
X125061613Y-99507715D01*
X125061612Y-99507714D01*
X125061610Y-99507713D01*
X125001898Y-99477288D01*
X124879223Y-99414781D01*
X124684534Y-99351522D01*
X124509995Y-99323878D01*
X124482352Y-99319500D01*
X124277648Y-99319500D01*
X124253329Y-99323351D01*
X124075465Y-99351522D01*
X123880776Y-99414781D01*
X123698386Y-99507715D01*
X123532786Y-99628028D01*
X123388028Y-99772786D01*
X123267715Y-99938386D01*
X123220485Y-100031080D01*
X123172510Y-100081876D01*
X123104689Y-100098671D01*
X123038554Y-100076134D01*
X122999515Y-100031080D01*
X122993861Y-100019983D01*
X122952287Y-99938390D01*
X122900021Y-99866451D01*
X122831971Y-99772786D01*
X122687213Y-99628028D01*
X122521613Y-99507715D01*
X122521612Y-99507714D01*
X122521610Y-99507713D01*
X122461898Y-99477288D01*
X122339223Y-99414781D01*
X122144534Y-99351522D01*
X121969995Y-99323878D01*
X121942352Y-99319500D01*
X121737648Y-99319500D01*
X121713329Y-99323351D01*
X121535465Y-99351522D01*
X121340776Y-99414781D01*
X121158386Y-99507715D01*
X120992786Y-99628028D01*
X120848028Y-99772786D01*
X120727715Y-99938386D01*
X120680485Y-100031080D01*
X120632510Y-100081876D01*
X120564689Y-100098671D01*
X120498554Y-100076134D01*
X120459515Y-100031080D01*
X120453861Y-100019983D01*
X120412287Y-99938390D01*
X120360021Y-99866451D01*
X120291971Y-99772786D01*
X120147213Y-99628028D01*
X119981613Y-99507715D01*
X119981612Y-99507714D01*
X119981610Y-99507713D01*
X119921898Y-99477288D01*
X119799223Y-99414781D01*
X119604534Y-99351522D01*
X119429995Y-99323878D01*
X119402352Y-99319500D01*
X119197648Y-99319500D01*
X119173329Y-99323351D01*
X118995465Y-99351522D01*
X118800776Y-99414781D01*
X118618386Y-99507715D01*
X118452786Y-99628028D01*
X118308032Y-99772782D01*
X118308028Y-99772787D01*
X118239978Y-99866451D01*
X118184648Y-99909117D01*
X118115035Y-99915096D01*
X118053240Y-99882490D01*
X118021954Y-99832570D01*
X118002144Y-99772787D01*
X117994814Y-99750666D01*
X117902712Y-99601344D01*
X117778656Y-99477288D01*
X117629334Y-99385186D01*
X117462797Y-99330001D01*
X117462795Y-99330000D01*
X117360010Y-99319500D01*
X116159998Y-99319500D01*
X116159981Y-99319501D01*
X116057203Y-99330000D01*
X116057200Y-99330001D01*
X115890668Y-99385185D01*
X115890663Y-99385187D01*
X115741342Y-99477289D01*
X115617289Y-99601342D01*
X115525187Y-99750663D01*
X115525186Y-99750666D01*
X115470001Y-99917203D01*
X115470001Y-99917204D01*
X115470000Y-99917204D01*
X115459500Y-100019983D01*
X115459500Y-101220001D01*
X115459501Y-101220018D01*
X115470000Y-101322796D01*
X115470001Y-101322799D01*
X115486818Y-101373548D01*
X115525186Y-101489334D01*
X115617288Y-101638656D01*
X115741344Y-101762712D01*
X115890666Y-101854814D01*
X116057203Y-101909999D01*
X116159991Y-101920500D01*
X117360008Y-101920499D01*
X117462797Y-101909999D01*
X117629334Y-101854814D01*
X117778656Y-101762712D01*
X117902712Y-101638656D01*
X117994814Y-101489334D01*
X118021955Y-101407427D01*
X118061726Y-101349984D01*
X118126242Y-101323161D01*
X118195018Y-101335476D01*
X118239977Y-101373547D01*
X118308030Y-101467213D01*
X118308034Y-101467219D01*
X118452786Y-101611971D01*
X118555830Y-101686835D01*
X118618390Y-101732287D01*
X118734607Y-101791503D01*
X118800776Y-101825218D01*
X118800778Y-101825218D01*
X118800781Y-101825220D01*
X118891856Y-101854812D01*
X118995465Y-101888477D01*
X119096557Y-101904488D01*
X119197648Y-101920500D01*
X119197649Y-101920500D01*
X119402351Y-101920500D01*
X119402352Y-101920500D01*
X119604534Y-101888477D01*
X119799219Y-101825220D01*
X119981610Y-101732287D01*
X120110482Y-101638657D01*
X120147213Y-101611971D01*
X120147215Y-101611968D01*
X120147219Y-101611966D01*
X120291966Y-101467219D01*
X120291968Y-101467215D01*
X120291971Y-101467213D01*
X120412284Y-101301614D01*
X120412285Y-101301613D01*
X120412287Y-101301610D01*
X120459516Y-101208917D01*
X120507489Y-101158123D01*
X120575310Y-101141328D01*
X120641445Y-101163865D01*
X120680483Y-101208917D01*
X120686140Y-101220018D01*
X120727715Y-101301614D01*
X120848028Y-101467213D01*
X120992786Y-101611971D01*
X121095830Y-101686835D01*
X121158390Y-101732287D01*
X121274607Y-101791503D01*
X121340776Y-101825218D01*
X121340778Y-101825218D01*
X121340781Y-101825220D01*
X121431856Y-101854812D01*
X121535465Y-101888477D01*
X121636557Y-101904488D01*
X121737648Y-101920500D01*
X121737649Y-101920500D01*
X121942351Y-101920500D01*
X121942352Y-101920500D01*
X122144534Y-101888477D01*
X122339219Y-101825220D01*
X122521610Y-101732287D01*
X122650482Y-101638657D01*
X122687213Y-101611971D01*
X122687215Y-101611968D01*
X122687219Y-101611966D01*
X122831966Y-101467219D01*
X122831968Y-101467215D01*
X122831971Y-101467213D01*
X122952284Y-101301614D01*
X122952285Y-101301613D01*
X122952287Y-101301610D01*
X122999516Y-101208917D01*
X123047489Y-101158123D01*
X123115310Y-101141328D01*
X123181445Y-101163865D01*
X123220483Y-101208917D01*
X123226140Y-101220018D01*
X123267715Y-101301614D01*
X123388028Y-101467213D01*
X123532786Y-101611971D01*
X123635830Y-101686835D01*
X123698390Y-101732287D01*
X123814607Y-101791503D01*
X123880776Y-101825218D01*
X123880778Y-101825218D01*
X123880781Y-101825220D01*
X123971856Y-101854812D01*
X124075465Y-101888477D01*
X124176557Y-101904488D01*
X124277648Y-101920500D01*
X124277649Y-101920500D01*
X124482351Y-101920500D01*
X124482352Y-101920500D01*
X124684534Y-101888477D01*
X124879219Y-101825220D01*
X125061610Y-101732287D01*
X125190482Y-101638657D01*
X125227213Y-101611971D01*
X125227215Y-101611968D01*
X125227219Y-101611966D01*
X125371966Y-101467219D01*
X125371968Y-101467215D01*
X125371971Y-101467213D01*
X125492284Y-101301614D01*
X125492285Y-101301613D01*
X125492287Y-101301610D01*
X125539516Y-101208917D01*
X125587489Y-101158123D01*
X125655310Y-101141328D01*
X125721445Y-101163865D01*
X125760483Y-101208917D01*
X125766140Y-101220018D01*
X125807715Y-101301614D01*
X125928028Y-101467213D01*
X126072786Y-101611971D01*
X126175830Y-101686835D01*
X126238390Y-101732287D01*
X126354607Y-101791503D01*
X126420776Y-101825218D01*
X126420778Y-101825218D01*
X126420781Y-101825220D01*
X126511856Y-101854812D01*
X126615465Y-101888477D01*
X126716557Y-101904488D01*
X126817648Y-101920500D01*
X126817649Y-101920500D01*
X127022351Y-101920500D01*
X127022352Y-101920500D01*
X127224534Y-101888477D01*
X127419219Y-101825220D01*
X127601610Y-101732287D01*
X127687107Y-101670170D01*
X127752911Y-101646690D01*
X127820965Y-101662515D01*
X127851524Y-101686835D01*
X127860630Y-101696798D01*
X127878480Y-101727716D01*
X127990284Y-101839520D01*
X127990286Y-101839521D01*
X127999338Y-101848573D01*
X129363181Y-103212416D01*
X129396666Y-103273739D01*
X129399500Y-103300097D01*
X129399500Y-106420234D01*
X129379815Y-106487273D01*
X129378602Y-106489125D01*
X129290609Y-106620814D01*
X129290602Y-106620827D01*
X129230264Y-106766498D01*
X129230261Y-106766510D01*
X129199500Y-106921153D01*
X129199500Y-107078846D01*
X129230261Y-107233489D01*
X129230264Y-107233501D01*
X129290602Y-107379172D01*
X129290609Y-107379185D01*
X129378210Y-107510288D01*
X129378213Y-107510292D01*
X129489707Y-107621786D01*
X129489711Y-107621789D01*
X129620814Y-107709390D01*
X129620827Y-107709397D01*
X129758683Y-107766498D01*
X129766503Y-107769737D01*
X129921153Y-107800499D01*
X129921156Y-107800500D01*
X129921158Y-107800500D01*
X130078844Y-107800500D01*
X130078845Y-107800499D01*
X130233497Y-107769737D01*
X130379179Y-107709394D01*
X130510289Y-107621789D01*
X130621789Y-107510289D01*
X130709394Y-107379179D01*
X130769737Y-107233497D01*
X130800500Y-107078842D01*
X130800500Y-106921158D01*
X130800500Y-106921155D01*
X130800499Y-106921153D01*
X130797816Y-106907664D01*
X130769737Y-106766503D01*
X130746080Y-106709390D01*
X130709397Y-106620827D01*
X130709390Y-106620814D01*
X130621398Y-106489125D01*
X130600520Y-106422447D01*
X130600500Y-106420234D01*
X130600500Y-105886555D01*
X130620185Y-105819516D01*
X130672989Y-105773761D01*
X130742147Y-105763817D01*
X130749538Y-105765109D01*
X130761069Y-105767486D01*
X130766503Y-105769737D01*
X130921158Y-105800500D01*
X130921197Y-105800500D01*
X130922696Y-105800809D01*
X130953222Y-105817049D01*
X130983760Y-105833023D01*
X130984364Y-105833616D01*
X130984380Y-105833625D01*
X130984388Y-105833640D01*
X130985339Y-105834574D01*
X135363181Y-110212416D01*
X135396666Y-110273739D01*
X135399500Y-110300097D01*
X135399500Y-114500234D01*
X135379815Y-114567273D01*
X135378602Y-114569125D01*
X135290609Y-114700814D01*
X135290602Y-114700827D01*
X135230264Y-114846498D01*
X135230261Y-114846510D01*
X135199500Y-115001153D01*
X135199500Y-115158846D01*
X135230261Y-115313489D01*
X135230264Y-115313501D01*
X135290602Y-115459172D01*
X135290609Y-115459185D01*
X135378210Y-115590288D01*
X135378213Y-115590292D01*
X135489707Y-115701786D01*
X135489711Y-115701789D01*
X135620814Y-115789390D01*
X135620827Y-115789397D01*
X135754948Y-115844951D01*
X135766503Y-115849737D01*
X135921153Y-115880499D01*
X135921156Y-115880500D01*
X135921158Y-115880500D01*
X136078844Y-115880500D01*
X136078845Y-115880499D01*
X136233497Y-115849737D01*
X136371789Y-115792455D01*
X136379172Y-115789397D01*
X136379172Y-115789396D01*
X136379179Y-115789394D01*
X136510289Y-115701789D01*
X136621789Y-115590289D01*
X136709394Y-115459179D01*
X136769737Y-115313497D01*
X136800500Y-115158842D01*
X136800500Y-115001158D01*
X136800500Y-115001155D01*
X136800499Y-115001153D01*
X136769738Y-114846510D01*
X136769737Y-114846503D01*
X136744069Y-114784534D01*
X136709397Y-114700827D01*
X136709390Y-114700814D01*
X136621398Y-114569125D01*
X136600520Y-114502447D01*
X136600500Y-114500234D01*
X136600500Y-110749097D01*
X136620185Y-110682058D01*
X136672989Y-110636303D01*
X136742147Y-110626359D01*
X136805703Y-110655384D01*
X136812181Y-110661416D01*
X138363181Y-112212416D01*
X138396666Y-112273739D01*
X138399500Y-112300097D01*
X138399500Y-114500234D01*
X138379815Y-114567273D01*
X138378602Y-114569125D01*
X138290609Y-114700814D01*
X138290602Y-114700827D01*
X138230264Y-114846498D01*
X138230261Y-114846510D01*
X138199500Y-115001153D01*
X138199500Y-115158846D01*
X138230261Y-115313489D01*
X138230264Y-115313501D01*
X138290602Y-115459172D01*
X138290609Y-115459185D01*
X138378210Y-115590288D01*
X138378213Y-115590292D01*
X138489707Y-115701786D01*
X138489711Y-115701789D01*
X138620814Y-115789390D01*
X138620827Y-115789397D01*
X138754948Y-115844951D01*
X138766503Y-115849737D01*
X138921153Y-115880499D01*
X138921156Y-115880500D01*
X138921158Y-115880500D01*
X139078844Y-115880500D01*
X139078845Y-115880499D01*
X139233497Y-115849737D01*
X139371789Y-115792455D01*
X139379172Y-115789397D01*
X139379172Y-115789396D01*
X139379179Y-115789394D01*
X139510289Y-115701789D01*
X139621789Y-115590289D01*
X139709394Y-115459179D01*
X139769737Y-115313497D01*
X139800500Y-115158842D01*
X139800500Y-115001158D01*
X139800500Y-115001155D01*
X139800499Y-115001153D01*
X139769738Y-114846510D01*
X139769737Y-114846503D01*
X139744069Y-114784534D01*
X139709397Y-114700827D01*
X139709390Y-114700814D01*
X139621398Y-114569125D01*
X139600520Y-114502447D01*
X139600500Y-114500234D01*
X139600500Y-111920945D01*
X139600500Y-111920943D01*
X139559577Y-111768216D01*
X139559573Y-111768209D01*
X139480524Y-111631290D01*
X139480521Y-111631286D01*
X139480520Y-111631284D01*
X139368716Y-111519480D01*
X139368715Y-111519479D01*
X139364385Y-111515149D01*
X139364374Y-111515139D01*
X133770388Y-105921153D01*
X135199500Y-105921153D01*
X135199500Y-106078846D01*
X135230261Y-106233489D01*
X135230264Y-106233501D01*
X135290602Y-106379172D01*
X135290609Y-106379185D01*
X135378210Y-106510288D01*
X135378213Y-106510292D01*
X135489707Y-106621786D01*
X135489711Y-106621789D01*
X135620814Y-106709390D01*
X135620827Y-106709397D01*
X135716207Y-106748904D01*
X135766503Y-106769737D01*
X135831147Y-106782595D01*
X135921849Y-106800638D01*
X135983760Y-106833023D01*
X135985339Y-106834574D01*
X137515139Y-108364374D01*
X137515149Y-108364385D01*
X137519479Y-108368715D01*
X137519480Y-108368716D01*
X137631284Y-108480520D01*
X137682845Y-108510288D01*
X137718095Y-108530639D01*
X137718097Y-108530641D01*
X137756151Y-108552611D01*
X137768215Y-108559577D01*
X137920943Y-108600500D01*
X138079057Y-108600500D01*
X138420234Y-108600500D01*
X138487273Y-108620185D01*
X138489125Y-108621398D01*
X138620814Y-108709390D01*
X138620827Y-108709397D01*
X138747138Y-108761716D01*
X138766503Y-108769737D01*
X138921153Y-108800499D01*
X138921156Y-108800500D01*
X138921158Y-108800500D01*
X139078844Y-108800500D01*
X139078845Y-108800499D01*
X139233497Y-108769737D01*
X139379179Y-108709394D01*
X139510289Y-108621789D01*
X139621789Y-108510289D01*
X139709394Y-108379179D01*
X139769737Y-108233497D01*
X139800500Y-108078842D01*
X139800500Y-107921158D01*
X139800500Y-107921155D01*
X139800499Y-107921153D01*
X139769738Y-107766510D01*
X139769737Y-107766503D01*
X139745181Y-107707219D01*
X139709397Y-107620827D01*
X139709390Y-107620814D01*
X139621789Y-107489711D01*
X139621786Y-107489707D01*
X139510292Y-107378213D01*
X139510288Y-107378210D01*
X139379185Y-107290609D01*
X139379172Y-107290602D01*
X139233501Y-107230264D01*
X139233489Y-107230261D01*
X139078845Y-107199500D01*
X139078842Y-107199500D01*
X138921158Y-107199500D01*
X138921155Y-107199500D01*
X138766510Y-107230261D01*
X138766498Y-107230264D01*
X138620827Y-107290602D01*
X138620814Y-107290609D01*
X138489125Y-107378602D01*
X138471078Y-107384252D01*
X138455169Y-107394477D01*
X138424207Y-107398928D01*
X138422447Y-107399480D01*
X138420234Y-107399500D01*
X138300097Y-107399500D01*
X138233058Y-107379815D01*
X138212416Y-107363181D01*
X136834574Y-105985339D01*
X136801089Y-105924016D01*
X136800638Y-105921849D01*
X136776499Y-105800499D01*
X136769737Y-105766503D01*
X136769160Y-105765109D01*
X136709397Y-105620827D01*
X136709390Y-105620814D01*
X136621789Y-105489711D01*
X136621786Y-105489707D01*
X136510292Y-105378213D01*
X136510288Y-105378210D01*
X136379185Y-105290609D01*
X136379172Y-105290602D01*
X136233501Y-105230264D01*
X136233489Y-105230261D01*
X136078845Y-105199500D01*
X136078842Y-105199500D01*
X135921158Y-105199500D01*
X135921155Y-105199500D01*
X135766510Y-105230261D01*
X135766498Y-105230264D01*
X135620827Y-105290602D01*
X135620814Y-105290609D01*
X135489711Y-105378210D01*
X135489707Y-105378213D01*
X135378213Y-105489707D01*
X135378210Y-105489711D01*
X135290609Y-105620814D01*
X135290602Y-105620827D01*
X135230264Y-105766498D01*
X135230261Y-105766510D01*
X135199500Y-105921153D01*
X133770388Y-105921153D01*
X131834574Y-103985339D01*
X131825713Y-103969111D01*
X131812783Y-103955897D01*
X131802017Y-103925716D01*
X131801089Y-103924016D01*
X131800809Y-103922696D01*
X131800500Y-103921197D01*
X131800500Y-103921158D01*
X131769737Y-103766503D01*
X131767486Y-103761069D01*
X131765109Y-103749538D01*
X131767045Y-103726058D01*
X131764497Y-103702641D01*
X131769862Y-103691886D01*
X131770851Y-103679905D01*
X131785174Y-103661198D01*
X131795691Y-103640122D01*
X131806019Y-103633975D01*
X131813329Y-103624430D01*
X131835492Y-103616436D01*
X131855734Y-103604392D01*
X131875982Y-103601835D01*
X131879055Y-103600727D01*
X131881082Y-103601191D01*
X131886555Y-103600500D01*
X138420234Y-103600500D01*
X138487273Y-103620185D01*
X138489125Y-103621398D01*
X138620814Y-103709390D01*
X138620827Y-103709397D01*
X138758695Y-103766503D01*
X138766503Y-103769737D01*
X138921153Y-103800499D01*
X138921156Y-103800500D01*
X138921158Y-103800500D01*
X139078844Y-103800500D01*
X139078845Y-103800499D01*
X139233497Y-103769737D01*
X139379179Y-103709394D01*
X139510289Y-103621789D01*
X139621789Y-103510289D01*
X139709394Y-103379179D01*
X139769737Y-103233497D01*
X139800500Y-103078842D01*
X139800500Y-102921158D01*
X139800500Y-102921155D01*
X139800499Y-102921153D01*
X139794757Y-102892287D01*
X139769737Y-102766503D01*
X139769735Y-102766498D01*
X139709397Y-102620827D01*
X139709390Y-102620814D01*
X139621789Y-102489711D01*
X139621786Y-102489707D01*
X139510292Y-102378213D01*
X139510288Y-102378210D01*
X139379185Y-102290609D01*
X139379172Y-102290602D01*
X139233501Y-102230264D01*
X139233489Y-102230261D01*
X139078845Y-102199500D01*
X139078842Y-102199500D01*
X138921158Y-102199500D01*
X138921155Y-102199500D01*
X138766510Y-102230261D01*
X138766498Y-102230264D01*
X138620827Y-102290602D01*
X138620814Y-102290609D01*
X138489125Y-102378602D01*
X138422447Y-102399480D01*
X138420234Y-102399500D01*
X130300097Y-102399500D01*
X130233058Y-102379815D01*
X130212416Y-102363181D01*
X129887372Y-102038137D01*
X129853887Y-101976814D01*
X129858871Y-101907122D01*
X129900743Y-101851189D01*
X129936735Y-101832525D01*
X129959219Y-101825220D01*
X130141610Y-101732287D01*
X130270482Y-101638657D01*
X130307213Y-101611971D01*
X130307215Y-101611968D01*
X130307219Y-101611966D01*
X130451966Y-101467219D01*
X130451968Y-101467215D01*
X130451971Y-101467213D01*
X130572284Y-101301614D01*
X130572285Y-101301613D01*
X130572287Y-101301610D01*
X130619516Y-101208917D01*
X130667489Y-101158123D01*
X130735310Y-101141328D01*
X130801445Y-101163865D01*
X130840483Y-101208917D01*
X130846140Y-101220018D01*
X130887715Y-101301614D01*
X131008028Y-101467213D01*
X131152786Y-101611971D01*
X131255830Y-101686835D01*
X131318390Y-101732287D01*
X131434607Y-101791503D01*
X131500776Y-101825218D01*
X131500778Y-101825218D01*
X131500781Y-101825220D01*
X131591856Y-101854812D01*
X131695465Y-101888477D01*
X131796557Y-101904488D01*
X131897648Y-101920500D01*
X131897649Y-101920500D01*
X132102351Y-101920500D01*
X132102352Y-101920500D01*
X132304534Y-101888477D01*
X132499219Y-101825220D01*
X132681610Y-101732287D01*
X132810482Y-101638657D01*
X132847213Y-101611971D01*
X132847215Y-101611968D01*
X132847219Y-101611966D01*
X132991966Y-101467219D01*
X132991968Y-101467215D01*
X132991971Y-101467213D01*
X133112284Y-101301614D01*
X133112285Y-101301613D01*
X133112287Y-101301610D01*
X133159516Y-101208917D01*
X133207489Y-101158123D01*
X133275310Y-101141328D01*
X133341445Y-101163865D01*
X133380483Y-101208917D01*
X133386140Y-101220018D01*
X133427715Y-101301614D01*
X133548028Y-101467213D01*
X133692786Y-101611971D01*
X133795830Y-101686835D01*
X133858390Y-101732287D01*
X133974607Y-101791503D01*
X134040776Y-101825218D01*
X134040778Y-101825218D01*
X134040781Y-101825220D01*
X134131856Y-101854812D01*
X134235465Y-101888477D01*
X134336557Y-101904488D01*
X134437648Y-101920500D01*
X134437649Y-101920500D01*
X134642351Y-101920500D01*
X134642352Y-101920500D01*
X134844534Y-101888477D01*
X135039219Y-101825220D01*
X135221610Y-101732287D01*
X135350482Y-101638657D01*
X135387213Y-101611971D01*
X135387215Y-101611968D01*
X135387219Y-101611966D01*
X135531966Y-101467219D01*
X135531968Y-101467215D01*
X135531971Y-101467213D01*
X135600021Y-101373548D01*
X135652287Y-101301610D01*
X135745220Y-101119219D01*
X135808477Y-100924534D01*
X135840500Y-100722352D01*
X135840500Y-100517648D01*
X135814309Y-100352287D01*
X135808477Y-100315465D01*
X135745218Y-100120776D01*
X135693865Y-100019991D01*
X135652287Y-99938390D01*
X135600021Y-99866451D01*
X135531971Y-99772786D01*
X135387213Y-99628028D01*
X135221613Y-99507715D01*
X135221612Y-99507714D01*
X135221610Y-99507713D01*
X135161898Y-99477288D01*
X135039223Y-99414781D01*
X134844534Y-99351522D01*
X134669995Y-99323878D01*
X134642352Y-99319500D01*
X134437648Y-99319500D01*
X134413329Y-99323351D01*
X134235465Y-99351522D01*
X134040776Y-99414781D01*
X133858386Y-99507715D01*
X133692786Y-99628028D01*
X133548028Y-99772786D01*
X133427715Y-99938386D01*
X133380485Y-100031080D01*
X133332510Y-100081876D01*
X133264689Y-100098671D01*
X133198554Y-100076134D01*
X133159515Y-100031080D01*
X133153861Y-100019983D01*
X133112287Y-99938390D01*
X133060021Y-99866451D01*
X132991971Y-99772786D01*
X132847213Y-99628028D01*
X132681613Y-99507715D01*
X132681612Y-99507714D01*
X132681610Y-99507713D01*
X132621898Y-99477288D01*
X132499223Y-99414781D01*
X132304534Y-99351522D01*
X132129995Y-99323878D01*
X132102352Y-99319500D01*
X131897648Y-99319500D01*
X131873329Y-99323351D01*
X131695465Y-99351522D01*
X131500776Y-99414781D01*
X131318386Y-99507715D01*
X131152786Y-99628028D01*
X131008028Y-99772786D01*
X130887715Y-99938386D01*
X130840485Y-100031080D01*
X130792510Y-100081876D01*
X130724689Y-100098671D01*
X130658554Y-100076134D01*
X130619515Y-100031080D01*
X130613861Y-100019983D01*
X130572287Y-99938390D01*
X130520021Y-99866451D01*
X130451971Y-99772786D01*
X130307213Y-99628028D01*
X130141613Y-99507715D01*
X130141612Y-99507714D01*
X130141610Y-99507713D01*
X130081898Y-99477288D01*
X129959223Y-99414781D01*
X129764534Y-99351522D01*
X129589995Y-99323878D01*
X129562352Y-99319500D01*
X129357648Y-99319500D01*
X129301652Y-99328369D01*
X129155464Y-99351523D01*
X129155457Y-99351524D01*
X129121817Y-99362455D01*
X129051976Y-99364450D01*
X128992144Y-99328369D01*
X128961316Y-99265668D01*
X128959500Y-99244524D01*
X128959500Y-94375475D01*
X128979185Y-94308436D01*
X129031989Y-94262681D01*
X129101147Y-94252737D01*
X129121820Y-94257545D01*
X129155458Y-94268475D01*
X129155461Y-94268475D01*
X129155466Y-94268477D01*
X129357648Y-94300500D01*
X129357649Y-94300500D01*
X129562351Y-94300500D01*
X129562352Y-94300500D01*
X129764534Y-94268477D01*
X129959219Y-94205220D01*
X130141610Y-94112287D01*
X130234590Y-94044732D01*
X130307213Y-93991971D01*
X130307215Y-93991968D01*
X130307219Y-93991966D01*
X130451966Y-93847219D01*
X130451968Y-93847215D01*
X130451971Y-93847213D01*
X130572284Y-93681614D01*
X130572285Y-93681613D01*
X130572287Y-93681610D01*
X130619516Y-93588917D01*
X130667489Y-93538123D01*
X130735310Y-93521328D01*
X130801445Y-93543865D01*
X130840483Y-93588917D01*
X130877098Y-93660776D01*
X130887715Y-93681614D01*
X131008028Y-93847213D01*
X131152786Y-93991971D01*
X131285915Y-94088693D01*
X131318390Y-94112287D01*
X131397864Y-94152781D01*
X131500776Y-94205218D01*
X131500778Y-94205218D01*
X131500781Y-94205220D01*
X131587784Y-94233489D01*
X131695465Y-94268477D01*
X131796557Y-94284488D01*
X131897648Y-94300500D01*
X131897649Y-94300500D01*
X132102351Y-94300500D01*
X132102352Y-94300500D01*
X132304534Y-94268477D01*
X132499219Y-94205220D01*
X132681610Y-94112287D01*
X132774590Y-94044732D01*
X132847213Y-93991971D01*
X132847215Y-93991968D01*
X132847219Y-93991966D01*
X132991966Y-93847219D01*
X132991968Y-93847215D01*
X132991971Y-93847213D01*
X133112284Y-93681614D01*
X133112285Y-93681613D01*
X133112287Y-93681610D01*
X133159516Y-93588917D01*
X133207489Y-93538123D01*
X133275310Y-93521328D01*
X133341445Y-93543865D01*
X133380483Y-93588917D01*
X133417098Y-93660776D01*
X133427715Y-93681614D01*
X133548028Y-93847213D01*
X133692786Y-93991971D01*
X133825915Y-94088693D01*
X133858390Y-94112287D01*
X133937864Y-94152781D01*
X134040776Y-94205218D01*
X134040778Y-94205218D01*
X134040781Y-94205220D01*
X134127784Y-94233489D01*
X134235465Y-94268477D01*
X134336557Y-94284488D01*
X134437648Y-94300500D01*
X134437649Y-94300500D01*
X134642351Y-94300500D01*
X134642352Y-94300500D01*
X134844534Y-94268477D01*
X135039219Y-94205220D01*
X135221610Y-94112287D01*
X135314590Y-94044732D01*
X135387213Y-93991971D01*
X135387215Y-93991968D01*
X135387219Y-93991966D01*
X135531966Y-93847219D01*
X135531968Y-93847215D01*
X135531971Y-93847213D01*
X135639289Y-93699500D01*
X135652287Y-93681610D01*
X135745220Y-93499219D01*
X135808477Y-93304534D01*
X135840500Y-93102352D01*
X135840500Y-92897648D01*
X135814309Y-92732287D01*
X135808477Y-92695465D01*
X135745218Y-92500776D01*
X135699515Y-92411080D01*
X135652287Y-92318390D01*
X135640096Y-92301610D01*
X135531971Y-92152786D01*
X135387213Y-92008028D01*
X135221613Y-91887715D01*
X135221612Y-91887714D01*
X135221610Y-91887713D01*
X135164653Y-91858691D01*
X135039223Y-91794781D01*
X134844534Y-91731522D01*
X134669995Y-91703878D01*
X134642352Y-91699500D01*
X134437648Y-91699500D01*
X134413329Y-91703351D01*
X134235465Y-91731522D01*
X134040776Y-91794781D01*
X133858386Y-91887715D01*
X133692786Y-92008028D01*
X133548028Y-92152786D01*
X133427715Y-92318386D01*
X133380485Y-92411080D01*
X133332510Y-92461876D01*
X133264689Y-92478671D01*
X133198554Y-92456134D01*
X133159515Y-92411080D01*
X133158883Y-92409840D01*
X133112287Y-92318390D01*
X133100096Y-92301610D01*
X132991971Y-92152786D01*
X132847213Y-92008028D01*
X132681613Y-91887715D01*
X132681612Y-91887714D01*
X132681610Y-91887713D01*
X132624653Y-91858691D01*
X132499223Y-91794781D01*
X132304534Y-91731522D01*
X132129995Y-91703878D01*
X132102352Y-91699500D01*
X131897648Y-91699500D01*
X131873329Y-91703351D01*
X131695465Y-91731522D01*
X131500776Y-91794781D01*
X131318386Y-91887715D01*
X131152786Y-92008028D01*
X131008028Y-92152786D01*
X130887715Y-92318386D01*
X130840485Y-92411080D01*
X130792510Y-92461876D01*
X130724689Y-92478671D01*
X130658554Y-92456134D01*
X130619515Y-92411080D01*
X130618883Y-92409840D01*
X130572287Y-92318390D01*
X130560096Y-92301610D01*
X130451971Y-92152786D01*
X130307213Y-92008028D01*
X130141613Y-91887715D01*
X130141612Y-91887714D01*
X130141610Y-91887713D01*
X130084653Y-91858691D01*
X129959223Y-91794781D01*
X129764534Y-91731522D01*
X129589995Y-91703878D01*
X129562352Y-91699500D01*
X129357648Y-91699500D01*
X129301652Y-91708369D01*
X129155464Y-91731523D01*
X129155457Y-91731524D01*
X129121817Y-91742455D01*
X129051976Y-91744450D01*
X128992144Y-91708369D01*
X128961316Y-91645668D01*
X128959500Y-91624524D01*
X128959500Y-89448060D01*
X128959501Y-89448047D01*
X128959501Y-89279944D01*
X128959501Y-89279943D01*
X128918577Y-89127216D01*
X128909956Y-89112284D01*
X128839524Y-88990290D01*
X128839518Y-88990282D01*
X121834573Y-81985337D01*
X121801088Y-81924014D01*
X121800637Y-81921847D01*
X121769738Y-81766510D01*
X121769737Y-81766503D01*
X121768921Y-81764534D01*
X121709397Y-81620827D01*
X121709390Y-81620814D01*
X121621789Y-81489711D01*
X121621786Y-81489707D01*
X121510292Y-81378213D01*
X121510288Y-81378210D01*
X121379185Y-81290609D01*
X121379172Y-81290602D01*
X121233501Y-81230264D01*
X121233489Y-81230261D01*
X121078845Y-81199500D01*
X121078842Y-81199500D01*
X120921158Y-81199500D01*
X120921155Y-81199500D01*
X120766510Y-81230261D01*
X120766498Y-81230264D01*
X120620827Y-81290602D01*
X120620814Y-81290609D01*
X120489711Y-81378210D01*
X120489707Y-81378213D01*
X120378213Y-81489707D01*
X120378210Y-81489711D01*
X120290609Y-81620814D01*
X120290602Y-81620827D01*
X120230264Y-81766498D01*
X120230261Y-81766510D01*
X120199500Y-81921153D01*
X120199500Y-82078846D01*
X120230261Y-82233489D01*
X120230264Y-82233501D01*
X120290602Y-82379172D01*
X120290609Y-82379185D01*
X120378210Y-82510288D01*
X120378213Y-82510292D01*
X120489707Y-82621786D01*
X120489711Y-82621789D01*
X120620814Y-82709390D01*
X120620827Y-82709397D01*
X120766498Y-82769735D01*
X120766503Y-82769737D01*
X120831147Y-82782595D01*
X120921849Y-82800638D01*
X120983760Y-82833023D01*
X120985339Y-82834574D01*
X127722181Y-89571416D01*
X127755666Y-89632739D01*
X127758500Y-89659097D01*
X127758500Y-91765302D01*
X127738815Y-91832341D01*
X127686011Y-91878096D01*
X127616853Y-91888040D01*
X127578205Y-91875787D01*
X127419223Y-91794782D01*
X127419222Y-91794781D01*
X127419219Y-91794780D01*
X127328495Y-91765302D01*
X127224534Y-91731522D01*
X127049995Y-91703878D01*
X127022352Y-91699500D01*
X126817648Y-91699500D01*
X126793329Y-91703351D01*
X126615465Y-91731522D01*
X126420776Y-91794781D01*
X126238386Y-91887715D01*
X126072786Y-92008028D01*
X125928028Y-92152786D01*
X125807715Y-92318386D01*
X125760485Y-92411080D01*
X125712510Y-92461876D01*
X125644689Y-92478671D01*
X125578554Y-92456134D01*
X125539515Y-92411080D01*
X125538883Y-92409840D01*
X125492287Y-92318390D01*
X125480096Y-92301610D01*
X125371971Y-92152786D01*
X125227213Y-92008028D01*
X125061613Y-91887715D01*
X125061612Y-91887714D01*
X125061610Y-91887713D01*
X125004653Y-91858691D01*
X124879223Y-91794781D01*
X124684534Y-91731522D01*
X124509995Y-91703878D01*
X124482352Y-91699500D01*
X124277648Y-91699500D01*
X124253329Y-91703351D01*
X124075465Y-91731522D01*
X123880776Y-91794781D01*
X123698386Y-91887715D01*
X123532786Y-92008028D01*
X123388028Y-92152786D01*
X123267715Y-92318386D01*
X123220485Y-92411080D01*
X123172510Y-92461876D01*
X123104689Y-92478671D01*
X123038554Y-92456134D01*
X122999515Y-92411080D01*
X122998883Y-92409840D01*
X122952287Y-92318390D01*
X122940096Y-92301610D01*
X122831971Y-92152786D01*
X122687213Y-92008028D01*
X122521613Y-91887715D01*
X122521612Y-91887714D01*
X122521610Y-91887713D01*
X122464653Y-91858691D01*
X122339223Y-91794781D01*
X122144534Y-91731522D01*
X121969995Y-91703878D01*
X121942352Y-91699500D01*
X121737648Y-91699500D01*
X121713329Y-91703351D01*
X121535465Y-91731522D01*
X121340776Y-91794781D01*
X121158386Y-91887715D01*
X120992786Y-92008028D01*
X120848028Y-92152786D01*
X120727715Y-92318386D01*
X120680485Y-92411080D01*
X120632510Y-92461876D01*
X120564689Y-92478671D01*
X120498554Y-92456134D01*
X120459515Y-92411080D01*
X120458883Y-92409840D01*
X120412287Y-92318390D01*
X120400096Y-92301610D01*
X120291971Y-92152786D01*
X120147213Y-92008028D01*
X119981613Y-91887715D01*
X119981612Y-91887714D01*
X119981610Y-91887713D01*
X119924653Y-91858691D01*
X119799223Y-91794781D01*
X119604534Y-91731522D01*
X119429995Y-91703878D01*
X119402352Y-91699500D01*
X119197648Y-91699500D01*
X119173329Y-91703351D01*
X118995465Y-91731522D01*
X118800776Y-91794781D01*
X118618386Y-91887715D01*
X118452786Y-92008028D01*
X118308028Y-92152786D01*
X118187715Y-92318386D01*
X118140485Y-92411080D01*
X118092510Y-92461876D01*
X118024689Y-92478671D01*
X117958554Y-92456134D01*
X117919515Y-92411080D01*
X117918883Y-92409840D01*
X117872287Y-92318390D01*
X117860096Y-92301610D01*
X117751971Y-92152786D01*
X117607213Y-92008028D01*
X117441613Y-91887715D01*
X117441612Y-91887714D01*
X117441610Y-91887713D01*
X117384653Y-91858691D01*
X117259223Y-91794781D01*
X117064534Y-91731522D01*
X116889995Y-91703878D01*
X116862352Y-91699500D01*
X116657648Y-91699500D01*
X116633329Y-91703351D01*
X116455465Y-91731522D01*
X116260776Y-91794781D01*
X116078386Y-91887715D01*
X115912786Y-92008028D01*
X115768028Y-92152786D01*
X115647715Y-92318386D01*
X115554781Y-92500776D01*
X115491522Y-92695465D01*
X115459500Y-92897648D01*
X114500500Y-92897648D01*
X114500500Y-76921153D01*
X120199500Y-76921153D01*
X120199500Y-77078846D01*
X120230261Y-77233489D01*
X120230264Y-77233501D01*
X120290602Y-77379172D01*
X120290609Y-77379185D01*
X120378210Y-77510288D01*
X120378213Y-77510292D01*
X120489707Y-77621786D01*
X120489711Y-77621789D01*
X120620814Y-77709390D01*
X120620827Y-77709397D01*
X120758695Y-77766503D01*
X120766503Y-77769737D01*
X120921153Y-77800499D01*
X120921156Y-77800500D01*
X120921158Y-77800500D01*
X121078844Y-77800500D01*
X121078845Y-77800499D01*
X121233497Y-77769737D01*
X121379179Y-77709394D01*
X121460120Y-77655311D01*
X121510875Y-77621398D01*
X121577553Y-77600520D01*
X121579766Y-77600500D01*
X123113445Y-77600500D01*
X123180484Y-77620185D01*
X123226239Y-77672989D01*
X123236183Y-77742147D01*
X123231159Y-77760411D01*
X123232031Y-77760676D01*
X123230261Y-77766510D01*
X123199500Y-77921153D01*
X123199500Y-78078846D01*
X123230261Y-78233489D01*
X123230264Y-78233501D01*
X123290602Y-78379172D01*
X123290609Y-78379185D01*
X123378210Y-78510288D01*
X123378213Y-78510292D01*
X123489707Y-78621786D01*
X123489711Y-78621789D01*
X123620814Y-78709390D01*
X123620827Y-78709397D01*
X123766498Y-78769735D01*
X123766503Y-78769737D01*
X123831147Y-78782595D01*
X123921849Y-78800638D01*
X123983760Y-78833023D01*
X123985339Y-78834574D01*
X124363181Y-79212416D01*
X124396666Y-79273739D01*
X124399500Y-79300097D01*
X124399500Y-80913330D01*
X124399499Y-80913348D01*
X124399499Y-81079054D01*
X124399498Y-81079054D01*
X124419973Y-81155465D01*
X124440423Y-81231785D01*
X124455295Y-81257544D01*
X124469358Y-81281900D01*
X124469359Y-81281904D01*
X124469360Y-81281904D01*
X124519479Y-81368714D01*
X124519481Y-81368717D01*
X124638349Y-81487585D01*
X124638355Y-81487590D01*
X127165425Y-84014660D01*
X127198910Y-84075983D01*
X127199361Y-84078149D01*
X127230261Y-84233491D01*
X127230264Y-84233501D01*
X127290602Y-84379172D01*
X127290609Y-84379185D01*
X127378210Y-84510288D01*
X127378213Y-84510292D01*
X127489707Y-84621786D01*
X127489711Y-84621789D01*
X127620814Y-84709390D01*
X127620827Y-84709397D01*
X127766498Y-84769735D01*
X127766503Y-84769737D01*
X127921153Y-84800499D01*
X127921156Y-84800500D01*
X127921158Y-84800500D01*
X128078844Y-84800500D01*
X128078845Y-84800499D01*
X128233497Y-84769737D01*
X128379179Y-84709394D01*
X128510289Y-84621789D01*
X128621789Y-84510289D01*
X128709394Y-84379179D01*
X128769737Y-84233497D01*
X128800500Y-84078842D01*
X128800500Y-83921158D01*
X128800500Y-83921155D01*
X128800499Y-83921153D01*
X128769737Y-83766503D01*
X128740313Y-83695466D01*
X128709397Y-83620827D01*
X128709390Y-83620814D01*
X128621789Y-83489711D01*
X128621786Y-83489707D01*
X128510292Y-83378213D01*
X128510288Y-83378210D01*
X128379185Y-83290609D01*
X128379172Y-83290602D01*
X128233501Y-83230264D01*
X128233491Y-83230261D01*
X128078151Y-83199362D01*
X128016241Y-83166977D01*
X128014662Y-83165426D01*
X125636819Y-80787583D01*
X125603334Y-80726260D01*
X125600500Y-80699902D01*
X125600500Y-79749097D01*
X125620185Y-79682058D01*
X125672989Y-79636303D01*
X125742147Y-79626359D01*
X125805703Y-79655384D01*
X125812181Y-79661416D01*
X128165425Y-82014660D01*
X128198910Y-82075983D01*
X128199361Y-82078149D01*
X128230261Y-82233491D01*
X128230264Y-82233501D01*
X128290602Y-82379172D01*
X128290609Y-82379185D01*
X128378210Y-82510288D01*
X128378213Y-82510292D01*
X128489707Y-82621786D01*
X128489711Y-82621789D01*
X128620814Y-82709390D01*
X128620827Y-82709397D01*
X128766498Y-82769735D01*
X128766503Y-82769737D01*
X128880995Y-82792511D01*
X128921153Y-82800499D01*
X128921156Y-82800500D01*
X128921158Y-82800500D01*
X129078844Y-82800500D01*
X129078845Y-82800499D01*
X129233497Y-82769737D01*
X129379179Y-82709394D01*
X129510289Y-82621789D01*
X129621789Y-82510289D01*
X129709394Y-82379179D01*
X129769737Y-82233497D01*
X129800500Y-82078842D01*
X129800500Y-81921158D01*
X129800500Y-81921155D01*
X129800499Y-81921153D01*
X129769738Y-81766510D01*
X129769737Y-81766503D01*
X129768921Y-81764534D01*
X129709397Y-81620827D01*
X129709390Y-81620814D01*
X129621789Y-81489711D01*
X129621786Y-81489707D01*
X129510292Y-81378213D01*
X129510288Y-81378210D01*
X129379185Y-81290609D01*
X129379172Y-81290602D01*
X129233501Y-81230264D01*
X129233491Y-81230261D01*
X129078149Y-81199361D01*
X129016238Y-81166976D01*
X129014660Y-81165425D01*
X124487590Y-76638355D01*
X124487588Y-76638352D01*
X124368717Y-76519481D01*
X124368716Y-76519480D01*
X124280746Y-76468691D01*
X124231785Y-76440423D01*
X124079057Y-76399499D01*
X123920943Y-76399499D01*
X123913347Y-76399499D01*
X123913331Y-76399500D01*
X121579766Y-76399500D01*
X121512727Y-76379815D01*
X121510875Y-76378602D01*
X121379185Y-76290609D01*
X121379172Y-76290602D01*
X121233501Y-76230264D01*
X121233489Y-76230261D01*
X121078845Y-76199500D01*
X121078842Y-76199500D01*
X120921158Y-76199500D01*
X120921155Y-76199500D01*
X120766510Y-76230261D01*
X120766498Y-76230264D01*
X120620827Y-76290602D01*
X120620814Y-76290609D01*
X120489711Y-76378210D01*
X120489707Y-76378213D01*
X120378213Y-76489707D01*
X120378210Y-76489711D01*
X120290609Y-76620814D01*
X120290602Y-76620827D01*
X120230264Y-76766498D01*
X120230261Y-76766510D01*
X120199500Y-76921153D01*
X114500500Y-76921153D01*
X114500500Y-69102135D01*
X136649500Y-69102135D01*
X136649500Y-70897870D01*
X136649501Y-70897876D01*
X136655908Y-70957483D01*
X136706202Y-71092328D01*
X136706206Y-71092335D01*
X136792452Y-71207544D01*
X136792455Y-71207547D01*
X136907664Y-71293793D01*
X136907671Y-71293797D01*
X137042517Y-71344091D01*
X137042516Y-71344091D01*
X137049444Y-71344835D01*
X137102127Y-71350500D01*
X138897872Y-71350499D01*
X138957483Y-71344091D01*
X139092331Y-71293796D01*
X139207546Y-71207546D01*
X139293796Y-71092331D01*
X139344091Y-70957483D01*
X139350500Y-70897873D01*
X139350500Y-70699983D01*
X140459500Y-70699983D01*
X140459500Y-71900001D01*
X140459501Y-71900018D01*
X140470000Y-72002796D01*
X140470001Y-72002799D01*
X140517856Y-72147213D01*
X140525186Y-72169334D01*
X140617288Y-72318656D01*
X140741344Y-72442712D01*
X140890666Y-72534814D01*
X140972570Y-72561954D01*
X141030015Y-72601727D01*
X141056838Y-72666243D01*
X141044523Y-72735018D01*
X141006451Y-72779978D01*
X140912787Y-72848028D01*
X140912782Y-72848032D01*
X140768028Y-72992786D01*
X140647715Y-73158386D01*
X140554781Y-73340776D01*
X140491522Y-73535465D01*
X140459500Y-73737648D01*
X140459500Y-73942351D01*
X140491522Y-74144534D01*
X140554781Y-74339223D01*
X140647715Y-74521613D01*
X140768028Y-74687213D01*
X140912786Y-74831971D01*
X141067749Y-74944556D01*
X141078390Y-74952287D01*
X141169840Y-74998883D01*
X141171080Y-74999515D01*
X141221876Y-75047490D01*
X141238671Y-75115311D01*
X141216134Y-75181446D01*
X141171080Y-75220485D01*
X141078386Y-75267715D01*
X140912786Y-75388028D01*
X140768028Y-75532786D01*
X140647715Y-75698386D01*
X140554781Y-75880776D01*
X140491522Y-76075465D01*
X140459500Y-76277648D01*
X140459500Y-76482351D01*
X140491522Y-76684534D01*
X140554781Y-76879223D01*
X140647715Y-77061613D01*
X140768028Y-77227213D01*
X140912786Y-77371971D01*
X141067749Y-77484556D01*
X141078390Y-77492287D01*
X141169840Y-77538883D01*
X141171080Y-77539515D01*
X141221876Y-77587490D01*
X141238671Y-77655311D01*
X141216134Y-77721446D01*
X141171080Y-77760485D01*
X141078386Y-77807715D01*
X140912786Y-77928028D01*
X140768028Y-78072786D01*
X140647715Y-78238386D01*
X140554781Y-78420776D01*
X140491522Y-78615465D01*
X140459500Y-78817648D01*
X140459500Y-79022351D01*
X140491522Y-79224534D01*
X140554781Y-79419223D01*
X140647715Y-79601613D01*
X140768028Y-79767213D01*
X140912786Y-79911971D01*
X141067749Y-80024556D01*
X141078390Y-80032287D01*
X141169840Y-80078883D01*
X141171080Y-80079515D01*
X141221876Y-80127490D01*
X141238671Y-80195311D01*
X141216134Y-80261446D01*
X141171080Y-80300485D01*
X141078386Y-80347715D01*
X140912786Y-80468028D01*
X140768028Y-80612786D01*
X140647715Y-80778386D01*
X140554781Y-80960776D01*
X140491522Y-81155465D01*
X140459500Y-81357648D01*
X140459500Y-81562351D01*
X140491522Y-81764534D01*
X140554781Y-81959223D01*
X140647715Y-82141613D01*
X140768028Y-82307213D01*
X140912786Y-82451971D01*
X141067749Y-82564556D01*
X141078390Y-82572287D01*
X141169840Y-82618883D01*
X141171080Y-82619515D01*
X141221876Y-82667490D01*
X141238671Y-82735311D01*
X141216134Y-82801446D01*
X141171080Y-82840485D01*
X141078386Y-82887715D01*
X140912786Y-83008028D01*
X140768028Y-83152786D01*
X140647715Y-83318386D01*
X140554781Y-83500776D01*
X140491522Y-83695465D01*
X140459500Y-83897648D01*
X140459500Y-84102351D01*
X140491522Y-84304534D01*
X140554781Y-84499223D01*
X140647715Y-84681613D01*
X140768028Y-84847213D01*
X140912786Y-84991971D01*
X141067749Y-85104556D01*
X141078390Y-85112287D01*
X141169840Y-85158883D01*
X141171080Y-85159515D01*
X141221876Y-85207490D01*
X141238671Y-85275311D01*
X141216134Y-85341446D01*
X141171080Y-85380485D01*
X141078386Y-85427715D01*
X140912786Y-85548028D01*
X140768028Y-85692786D01*
X140647715Y-85858386D01*
X140554781Y-86040776D01*
X140491522Y-86235465D01*
X140459500Y-86437648D01*
X140459500Y-86642351D01*
X140491522Y-86844534D01*
X140554781Y-87039223D01*
X140603126Y-87134103D01*
X140636447Y-87199500D01*
X140647715Y-87221613D01*
X140768028Y-87387213D01*
X140912786Y-87531971D01*
X141067749Y-87644556D01*
X141078390Y-87652287D01*
X141169840Y-87698883D01*
X141171080Y-87699515D01*
X141221876Y-87747490D01*
X141238671Y-87815311D01*
X141216134Y-87881446D01*
X141171080Y-87920485D01*
X141078386Y-87967715D01*
X140912786Y-88088028D01*
X140768028Y-88232786D01*
X140647715Y-88398386D01*
X140554781Y-88580776D01*
X140491522Y-88775465D01*
X140459500Y-88977648D01*
X140459500Y-89182351D01*
X140491522Y-89384534D01*
X140554781Y-89579223D01*
X140595480Y-89659097D01*
X140642441Y-89751264D01*
X140647715Y-89761613D01*
X140768028Y-89927213D01*
X140912786Y-90071971D01*
X141041417Y-90165425D01*
X141078390Y-90192287D01*
X141152918Y-90230261D01*
X141171080Y-90239515D01*
X141221876Y-90287490D01*
X141238671Y-90355311D01*
X141216134Y-90421446D01*
X141171080Y-90460485D01*
X141078386Y-90507715D01*
X140912786Y-90628028D01*
X140768028Y-90772786D01*
X140647715Y-90938386D01*
X140554781Y-91120776D01*
X140491522Y-91315465D01*
X140460666Y-91510288D01*
X140459500Y-91517648D01*
X140459500Y-91722352D01*
X140460953Y-91731523D01*
X140491522Y-91924534D01*
X140554781Y-92119223D01*
X140647715Y-92301613D01*
X140768028Y-92467213D01*
X140912786Y-92611971D01*
X141040944Y-92705081D01*
X141078390Y-92732287D01*
X141169840Y-92778883D01*
X141171080Y-92779515D01*
X141221876Y-92827490D01*
X141238671Y-92895311D01*
X141216134Y-92961446D01*
X141171080Y-93000485D01*
X141078386Y-93047715D01*
X140912786Y-93168028D01*
X140768028Y-93312786D01*
X140647715Y-93478386D01*
X140554781Y-93660776D01*
X140491522Y-93855465D01*
X140469903Y-93991966D01*
X140459500Y-94057648D01*
X140459500Y-94262352D01*
X140459550Y-94262666D01*
X140491522Y-94464534D01*
X140554781Y-94659223D01*
X140611091Y-94769735D01*
X140626766Y-94800500D01*
X140647715Y-94841613D01*
X140768028Y-95007213D01*
X140912786Y-95151971D01*
X141067749Y-95264556D01*
X141078390Y-95272287D01*
X141169840Y-95318883D01*
X141171080Y-95319515D01*
X141221876Y-95367490D01*
X141238671Y-95435311D01*
X141216134Y-95501446D01*
X141171080Y-95540485D01*
X141078386Y-95587715D01*
X140912786Y-95708028D01*
X140768028Y-95852786D01*
X140647715Y-96018386D01*
X140554781Y-96200776D01*
X140491522Y-96395465D01*
X140459500Y-96597648D01*
X140459500Y-96802351D01*
X140491522Y-97004534D01*
X140554781Y-97199223D01*
X140618691Y-97324653D01*
X140646477Y-97379185D01*
X140647715Y-97381613D01*
X140768028Y-97547213D01*
X140912786Y-97691971D01*
X141062165Y-97800499D01*
X141078390Y-97812287D01*
X141169840Y-97858883D01*
X141171080Y-97859515D01*
X141221876Y-97907490D01*
X141238671Y-97975311D01*
X141216134Y-98041446D01*
X141171080Y-98080485D01*
X141078386Y-98127715D01*
X140912786Y-98248028D01*
X140768028Y-98392786D01*
X140647715Y-98558386D01*
X140554781Y-98740776D01*
X140491522Y-98935465D01*
X140459500Y-99137648D01*
X140459500Y-99342352D01*
X140460953Y-99351523D01*
X140491522Y-99544534D01*
X140554781Y-99739223D01*
X140602345Y-99832570D01*
X140641347Y-99909117D01*
X140647715Y-99921613D01*
X140768028Y-100087213D01*
X140912786Y-100231971D01*
X141040944Y-100325081D01*
X141078390Y-100352287D01*
X141169840Y-100398883D01*
X141171080Y-100399515D01*
X141221876Y-100447490D01*
X141238671Y-100515311D01*
X141216134Y-100581446D01*
X141171080Y-100620485D01*
X141078386Y-100667715D01*
X140912786Y-100788028D01*
X140768028Y-100932786D01*
X140647715Y-101098386D01*
X140554781Y-101280776D01*
X140491522Y-101475465D01*
X140459500Y-101677648D01*
X140459500Y-101882351D01*
X140491522Y-102084534D01*
X140554781Y-102279223D01*
X140647715Y-102461613D01*
X140768028Y-102627213D01*
X140912786Y-102771971D01*
X141067749Y-102884556D01*
X141078390Y-102892287D01*
X141169840Y-102938883D01*
X141171080Y-102939515D01*
X141221876Y-102987490D01*
X141238671Y-103055311D01*
X141216134Y-103121446D01*
X141171080Y-103160485D01*
X141078386Y-103207715D01*
X140912786Y-103328028D01*
X140768028Y-103472786D01*
X140647715Y-103638386D01*
X140554781Y-103820776D01*
X140491522Y-104015465D01*
X140459500Y-104217648D01*
X140459500Y-104422351D01*
X140491522Y-104624534D01*
X140554781Y-104819223D01*
X140647715Y-105001613D01*
X140768028Y-105167213D01*
X140912786Y-105311971D01*
X141067749Y-105424556D01*
X141078390Y-105432287D01*
X141169840Y-105478883D01*
X141171080Y-105479515D01*
X141221876Y-105527490D01*
X141238671Y-105595311D01*
X141216134Y-105661446D01*
X141171080Y-105700485D01*
X141078386Y-105747715D01*
X140912786Y-105868028D01*
X140768028Y-106012786D01*
X140647715Y-106178386D01*
X140554781Y-106360776D01*
X140491522Y-106555465D01*
X140459500Y-106757648D01*
X140459500Y-106962351D01*
X140491522Y-107164534D01*
X140554781Y-107359223D01*
X140647715Y-107541613D01*
X140768028Y-107707213D01*
X140912786Y-107851971D01*
X141067749Y-107964556D01*
X141078390Y-107972287D01*
X141169840Y-108018883D01*
X141171080Y-108019515D01*
X141221876Y-108067490D01*
X141238671Y-108135311D01*
X141216134Y-108201446D01*
X141171080Y-108240485D01*
X141078386Y-108287715D01*
X140912786Y-108408028D01*
X140768028Y-108552786D01*
X140647715Y-108718386D01*
X140554781Y-108900776D01*
X140491522Y-109095465D01*
X140459500Y-109297648D01*
X140459500Y-109502351D01*
X140491522Y-109704534D01*
X140554781Y-109899223D01*
X140647715Y-110081613D01*
X140768028Y-110247213D01*
X140912786Y-110391971D01*
X140994358Y-110451235D01*
X141078390Y-110512287D01*
X141169840Y-110558883D01*
X141171080Y-110559515D01*
X141221876Y-110607490D01*
X141238671Y-110675311D01*
X141216134Y-110741446D01*
X141171080Y-110780485D01*
X141078386Y-110827715D01*
X140912786Y-110948028D01*
X140768028Y-111092786D01*
X140647715Y-111258386D01*
X140554781Y-111440776D01*
X140491522Y-111635465D01*
X140459500Y-111837648D01*
X140459500Y-112042351D01*
X140491522Y-112244534D01*
X140554781Y-112439223D01*
X140618691Y-112564653D01*
X140647314Y-112620827D01*
X140647715Y-112621613D01*
X140768028Y-112787213D01*
X140912786Y-112931971D01*
X141067749Y-113044556D01*
X141078390Y-113052287D01*
X141169840Y-113098883D01*
X141171080Y-113099515D01*
X141221876Y-113147490D01*
X141238671Y-113215311D01*
X141216134Y-113281446D01*
X141171080Y-113320485D01*
X141078386Y-113367715D01*
X140912786Y-113488028D01*
X140768028Y-113632786D01*
X140647715Y-113798386D01*
X140554781Y-113980776D01*
X140491522Y-114175465D01*
X140459500Y-114377648D01*
X140459500Y-114582351D01*
X140491522Y-114784534D01*
X140554781Y-114979223D01*
X140647715Y-115161613D01*
X140768028Y-115327213D01*
X140912786Y-115471971D01*
X141067749Y-115584556D01*
X141078390Y-115592287D01*
X141169840Y-115638883D01*
X141171080Y-115639515D01*
X141221876Y-115687490D01*
X141238671Y-115755311D01*
X141216134Y-115821446D01*
X141171080Y-115860485D01*
X141078386Y-115907715D01*
X140912786Y-116028028D01*
X140768028Y-116172786D01*
X140647715Y-116338386D01*
X140554781Y-116520776D01*
X140491522Y-116715465D01*
X140459500Y-116917648D01*
X140459500Y-117122351D01*
X140491522Y-117324534D01*
X140554781Y-117519223D01*
X140611690Y-117630911D01*
X140646133Y-117698510D01*
X140647715Y-117701613D01*
X140768028Y-117867213D01*
X140912786Y-118011971D01*
X141054968Y-118115270D01*
X141078390Y-118132287D01*
X141169840Y-118178883D01*
X141171080Y-118179515D01*
X141221876Y-118227490D01*
X141238671Y-118295311D01*
X141216134Y-118361446D01*
X141171080Y-118400485D01*
X141078386Y-118447715D01*
X140912786Y-118568028D01*
X140768028Y-118712786D01*
X140647715Y-118878386D01*
X140554781Y-119060776D01*
X140491522Y-119255465D01*
X140459500Y-119457648D01*
X140459500Y-119662351D01*
X140491522Y-119864534D01*
X140554781Y-120059223D01*
X140647715Y-120241613D01*
X140768028Y-120407213D01*
X140912786Y-120551971D01*
X141067749Y-120664556D01*
X141078390Y-120672287D01*
X141169840Y-120718883D01*
X141171080Y-120719515D01*
X141221876Y-120767490D01*
X141238671Y-120835311D01*
X141216134Y-120901446D01*
X141171080Y-120940485D01*
X141078386Y-120987715D01*
X140912786Y-121108028D01*
X140768028Y-121252786D01*
X140647715Y-121418386D01*
X140554781Y-121600776D01*
X140491522Y-121795465D01*
X140459500Y-121997648D01*
X140459500Y-122202351D01*
X140491522Y-122404534D01*
X140554781Y-122599223D01*
X140647715Y-122781613D01*
X140768028Y-122947213D01*
X140912786Y-123091971D01*
X141067749Y-123204556D01*
X141078390Y-123212287D01*
X141169840Y-123258883D01*
X141171080Y-123259515D01*
X141221876Y-123307490D01*
X141238671Y-123375311D01*
X141216134Y-123441446D01*
X141171080Y-123480485D01*
X141078386Y-123527715D01*
X140912786Y-123648028D01*
X140768028Y-123792786D01*
X140647715Y-123958386D01*
X140554781Y-124140776D01*
X140491522Y-124335465D01*
X140459500Y-124537648D01*
X140459500Y-124742351D01*
X140491522Y-124944534D01*
X140554781Y-125139223D01*
X140647715Y-125321613D01*
X140768028Y-125487213D01*
X140912786Y-125631971D01*
X141014964Y-125706206D01*
X141078390Y-125752287D01*
X141157218Y-125792452D01*
X141171080Y-125799515D01*
X141221876Y-125847490D01*
X141238671Y-125915311D01*
X141216134Y-125981446D01*
X141171080Y-126020485D01*
X141078386Y-126067715D01*
X140912786Y-126188028D01*
X140768028Y-126332786D01*
X140647715Y-126498386D01*
X140554781Y-126680776D01*
X140491522Y-126875465D01*
X140459500Y-127077648D01*
X140459500Y-127282351D01*
X140491522Y-127484534D01*
X140554781Y-127679223D01*
X140647715Y-127861613D01*
X140768028Y-128027213D01*
X140912786Y-128171971D01*
X141067749Y-128284556D01*
X141078390Y-128292287D01*
X141169840Y-128338883D01*
X141171080Y-128339515D01*
X141221876Y-128387490D01*
X141238671Y-128455311D01*
X141216134Y-128521446D01*
X141171080Y-128560485D01*
X141078386Y-128607715D01*
X140912786Y-128728028D01*
X140768028Y-128872786D01*
X140647715Y-129038386D01*
X140554781Y-129220776D01*
X140491522Y-129415465D01*
X140459500Y-129617648D01*
X140459500Y-129822351D01*
X140491522Y-130024534D01*
X140554781Y-130219223D01*
X140647715Y-130401613D01*
X140768028Y-130567213D01*
X140912786Y-130711971D01*
X141067749Y-130824556D01*
X141078390Y-130832287D01*
X141194607Y-130891503D01*
X141260776Y-130925218D01*
X141260778Y-130925218D01*
X141260781Y-130925220D01*
X141365137Y-130959127D01*
X141455465Y-130988477D01*
X141556557Y-131004488D01*
X141657648Y-131020500D01*
X141657649Y-131020500D01*
X141862351Y-131020500D01*
X141862352Y-131020500D01*
X142064534Y-130988477D01*
X142259219Y-130925220D01*
X142441610Y-130832287D01*
X142534590Y-130764732D01*
X142607213Y-130711971D01*
X142607215Y-130711968D01*
X142607219Y-130711966D01*
X142751966Y-130567219D01*
X142751968Y-130567215D01*
X142751971Y-130567213D01*
X142804732Y-130494590D01*
X142872287Y-130401610D01*
X142965220Y-130219219D01*
X143028477Y-130024534D01*
X143060500Y-129822352D01*
X143060500Y-129617648D01*
X143028477Y-129415466D01*
X142965220Y-129220781D01*
X142965218Y-129220778D01*
X142965218Y-129220776D01*
X142904877Y-129102352D01*
X142872287Y-129038390D01*
X142864556Y-129027749D01*
X142751971Y-128872786D01*
X142607213Y-128728028D01*
X142441614Y-128607715D01*
X142435006Y-128604348D01*
X142348917Y-128560483D01*
X142298123Y-128512511D01*
X142281328Y-128444690D01*
X142303865Y-128378555D01*
X142348917Y-128339516D01*
X142441610Y-128292287D01*
X142462770Y-128276913D01*
X142607213Y-128171971D01*
X142607215Y-128171968D01*
X142607219Y-128171966D01*
X142751966Y-128027219D01*
X142751968Y-128027215D01*
X142751971Y-128027213D01*
X142845938Y-127897876D01*
X142872287Y-127861610D01*
X142965220Y-127679219D01*
X143028477Y-127484534D01*
X143060500Y-127282352D01*
X143060500Y-127077648D01*
X143037776Y-126934174D01*
X143028477Y-126875465D01*
X142965218Y-126680776D01*
X142931503Y-126614607D01*
X142872287Y-126498390D01*
X142860080Y-126481588D01*
X142751971Y-126332786D01*
X142607213Y-126188028D01*
X142441614Y-126067715D01*
X142392160Y-126042517D01*
X142348917Y-126020483D01*
X142298123Y-125972511D01*
X142281328Y-125904690D01*
X142303865Y-125838555D01*
X142348917Y-125799516D01*
X142441610Y-125752287D01*
X142505036Y-125706206D01*
X142607213Y-125631971D01*
X142607215Y-125631968D01*
X142607219Y-125631966D01*
X142751966Y-125487219D01*
X142751968Y-125487215D01*
X142751971Y-125487213D01*
X142804732Y-125414590D01*
X142872287Y-125321610D01*
X142965220Y-125139219D01*
X143028477Y-124944534D01*
X143060500Y-124742352D01*
X143060500Y-124537648D01*
X143028477Y-124335466D01*
X142965220Y-124140781D01*
X142965218Y-124140778D01*
X142965218Y-124140776D01*
X142931503Y-124074607D01*
X142872287Y-123958390D01*
X142864556Y-123947749D01*
X142751971Y-123792786D01*
X142607213Y-123648028D01*
X142441614Y-123527715D01*
X142435006Y-123524348D01*
X142348917Y-123480483D01*
X142298123Y-123432511D01*
X142281328Y-123364690D01*
X142303865Y-123298555D01*
X142348917Y-123259516D01*
X142441610Y-123212287D01*
X142462770Y-123196913D01*
X142607213Y-123091971D01*
X142607215Y-123091968D01*
X142607219Y-123091966D01*
X142751966Y-122947219D01*
X142751968Y-122947215D01*
X142751971Y-122947213D01*
X142804732Y-122874590D01*
X142872287Y-122781610D01*
X142965220Y-122599219D01*
X143028477Y-122404534D01*
X143060500Y-122202352D01*
X143060500Y-121997648D01*
X143028477Y-121795466D01*
X142965220Y-121600781D01*
X142965218Y-121600778D01*
X142965218Y-121600776D01*
X142914265Y-121500776D01*
X142872287Y-121418390D01*
X142864556Y-121407749D01*
X142751971Y-121252786D01*
X142607213Y-121108028D01*
X142441614Y-120987715D01*
X142435006Y-120984348D01*
X142348917Y-120940483D01*
X142298123Y-120892511D01*
X142281328Y-120824690D01*
X142303865Y-120758555D01*
X142348917Y-120719516D01*
X142441610Y-120672287D01*
X142462770Y-120656913D01*
X142607213Y-120551971D01*
X142607215Y-120551968D01*
X142607219Y-120551966D01*
X142751966Y-120407219D01*
X142751968Y-120407215D01*
X142751971Y-120407213D01*
X142804732Y-120334590D01*
X142872287Y-120241610D01*
X142965220Y-120059219D01*
X143028477Y-119864534D01*
X143060500Y-119662352D01*
X143060500Y-119457648D01*
X143028477Y-119255466D01*
X142965220Y-119060781D01*
X142965218Y-119060778D01*
X142965218Y-119060776D01*
X142931503Y-118994607D01*
X142872287Y-118878390D01*
X142864556Y-118867749D01*
X142751971Y-118712786D01*
X142607213Y-118568028D01*
X142441614Y-118447715D01*
X142435006Y-118444348D01*
X142348917Y-118400483D01*
X142298123Y-118352511D01*
X142281328Y-118284690D01*
X142303865Y-118218555D01*
X142348917Y-118179516D01*
X142441610Y-118132287D01*
X142496605Y-118092331D01*
X142607213Y-118011971D01*
X142607215Y-118011968D01*
X142607219Y-118011966D01*
X142751966Y-117867219D01*
X142751968Y-117867215D01*
X142751971Y-117867213D01*
X142828618Y-117761716D01*
X142872287Y-117701610D01*
X142965220Y-117519219D01*
X143028477Y-117324534D01*
X143060500Y-117122352D01*
X143060500Y-116917648D01*
X143028477Y-116715466D01*
X143018211Y-116683872D01*
X142965218Y-116520776D01*
X142931503Y-116454607D01*
X142872287Y-116338390D01*
X142838713Y-116292179D01*
X142751971Y-116172786D01*
X142607213Y-116028028D01*
X142441614Y-115907715D01*
X142396499Y-115884728D01*
X142348917Y-115860483D01*
X142298123Y-115812511D01*
X142281328Y-115744690D01*
X142303865Y-115678555D01*
X142348917Y-115639516D01*
X142441610Y-115592287D01*
X142462770Y-115576913D01*
X142607213Y-115471971D01*
X142607215Y-115471968D01*
X142607219Y-115471966D01*
X142751966Y-115327219D01*
X142751968Y-115327215D01*
X142751971Y-115327213D01*
X142822408Y-115230263D01*
X142872287Y-115161610D01*
X142965220Y-114979219D01*
X143028477Y-114784534D01*
X143060500Y-114582352D01*
X143060500Y-114377648D01*
X143028477Y-114175466D01*
X142965220Y-113980781D01*
X142965218Y-113980778D01*
X142965218Y-113980776D01*
X142931503Y-113914607D01*
X142872287Y-113798390D01*
X142851468Y-113769735D01*
X142751971Y-113632786D01*
X142607213Y-113488028D01*
X142441614Y-113367715D01*
X142435006Y-113364348D01*
X142348917Y-113320483D01*
X142298123Y-113272511D01*
X142281328Y-113204690D01*
X142303865Y-113138555D01*
X142348917Y-113099516D01*
X142441610Y-113052287D01*
X142533760Y-112985337D01*
X142607213Y-112931971D01*
X142607215Y-112931968D01*
X142607219Y-112931966D01*
X142751966Y-112787219D01*
X142751968Y-112787215D01*
X142751971Y-112787213D01*
X142804732Y-112714590D01*
X142872287Y-112621610D01*
X142965220Y-112439219D01*
X143028477Y-112244534D01*
X143060500Y-112042352D01*
X143060500Y-111837648D01*
X143028477Y-111635466D01*
X142965220Y-111440781D01*
X142965218Y-111440778D01*
X142965218Y-111440776D01*
X142931503Y-111374607D01*
X142872287Y-111258390D01*
X142864556Y-111247749D01*
X142751971Y-111092786D01*
X142607213Y-110948028D01*
X142441614Y-110827715D01*
X142422906Y-110818183D01*
X142348917Y-110780483D01*
X142298123Y-110732511D01*
X142281328Y-110664690D01*
X142303865Y-110598555D01*
X142348917Y-110559516D01*
X142441610Y-110512287D01*
X142525646Y-110451232D01*
X142607213Y-110391971D01*
X142607215Y-110391968D01*
X142607219Y-110391966D01*
X142751966Y-110247219D01*
X142751968Y-110247215D01*
X142751971Y-110247213D01*
X142804732Y-110174590D01*
X142872287Y-110081610D01*
X142965220Y-109899219D01*
X143028477Y-109704534D01*
X143060500Y-109502352D01*
X143060500Y-109297648D01*
X143053200Y-109251557D01*
X143028477Y-109095465D01*
X142984759Y-108960917D01*
X142965220Y-108900781D01*
X142965218Y-108900778D01*
X142965218Y-108900776D01*
X142914124Y-108800500D01*
X142872287Y-108718390D01*
X142864409Y-108707547D01*
X142751971Y-108552786D01*
X142607213Y-108408028D01*
X142441614Y-108287715D01*
X142435006Y-108284348D01*
X142348917Y-108240483D01*
X142298123Y-108192511D01*
X142281328Y-108124690D01*
X142303865Y-108058555D01*
X142348917Y-108019516D01*
X142441610Y-107972287D01*
X142462770Y-107956913D01*
X142607213Y-107851971D01*
X142607215Y-107851968D01*
X142607219Y-107851966D01*
X142751966Y-107707219D01*
X142751968Y-107707215D01*
X142751971Y-107707213D01*
X142829936Y-107599901D01*
X142872287Y-107541610D01*
X142965220Y-107359219D01*
X143028477Y-107164534D01*
X143060500Y-106962352D01*
X143060500Y-106757648D01*
X143028477Y-106555466D01*
X143006921Y-106489125D01*
X142999127Y-106465137D01*
X142965220Y-106360781D01*
X142965218Y-106360778D01*
X142965218Y-106360776D01*
X142931503Y-106294607D01*
X142872287Y-106178390D01*
X142799965Y-106078846D01*
X142751971Y-106012786D01*
X142607213Y-105868028D01*
X142441614Y-105747715D01*
X142435006Y-105744348D01*
X142348917Y-105700483D01*
X142298123Y-105652511D01*
X142281328Y-105584690D01*
X142303865Y-105518555D01*
X142348917Y-105479516D01*
X142441610Y-105432287D01*
X142462770Y-105416913D01*
X142607213Y-105311971D01*
X142607215Y-105311968D01*
X142607219Y-105311966D01*
X142751966Y-105167219D01*
X142751968Y-105167215D01*
X142751971Y-105167213D01*
X142816175Y-105078842D01*
X142872287Y-105001610D01*
X142965220Y-104819219D01*
X143028477Y-104624534D01*
X143060500Y-104422352D01*
X143060500Y-104217648D01*
X143028477Y-104015466D01*
X143013415Y-103969111D01*
X142965218Y-103820776D01*
X142908463Y-103709390D01*
X142872287Y-103638390D01*
X142859942Y-103621398D01*
X142751971Y-103472786D01*
X142607213Y-103328028D01*
X142441614Y-103207715D01*
X142435006Y-103204348D01*
X142348917Y-103160483D01*
X142298123Y-103112511D01*
X142281328Y-103044690D01*
X142303865Y-102978555D01*
X142348917Y-102939516D01*
X142441610Y-102892287D01*
X142462770Y-102876913D01*
X142607213Y-102771971D01*
X142607215Y-102771968D01*
X142607219Y-102771966D01*
X142751966Y-102627219D01*
X142751968Y-102627215D01*
X142751971Y-102627213D01*
X142804732Y-102554590D01*
X142872287Y-102461610D01*
X142965220Y-102279219D01*
X143028477Y-102084534D01*
X143060500Y-101882352D01*
X143060500Y-101677648D01*
X143028477Y-101475466D01*
X143025797Y-101467219D01*
X142978872Y-101322797D01*
X142965220Y-101280781D01*
X142965218Y-101280778D01*
X142965218Y-101280776D01*
X142905648Y-101163865D01*
X142872287Y-101098390D01*
X142810768Y-101013715D01*
X142751971Y-100932786D01*
X142607213Y-100788028D01*
X142441614Y-100667715D01*
X142435006Y-100664348D01*
X142348917Y-100620483D01*
X142298123Y-100572511D01*
X142281328Y-100504690D01*
X142303865Y-100438555D01*
X142348917Y-100399516D01*
X142441610Y-100352287D01*
X142492292Y-100315465D01*
X142607213Y-100231971D01*
X142607215Y-100231968D01*
X142607219Y-100231966D01*
X142751966Y-100087219D01*
X142751968Y-100087215D01*
X142751971Y-100087213D01*
X142804732Y-100014590D01*
X142872287Y-99921610D01*
X142965220Y-99739219D01*
X143028477Y-99544534D01*
X143060500Y-99342352D01*
X143060500Y-99137648D01*
X143028477Y-98935466D01*
X142965220Y-98740781D01*
X142965218Y-98740778D01*
X142965218Y-98740776D01*
X142931503Y-98674607D01*
X142872287Y-98558390D01*
X142864556Y-98547749D01*
X142751971Y-98392786D01*
X142607213Y-98248028D01*
X142441614Y-98127715D01*
X142435006Y-98124348D01*
X142348917Y-98080483D01*
X142298123Y-98032511D01*
X142281328Y-97964690D01*
X142303865Y-97898555D01*
X142348917Y-97859516D01*
X142441610Y-97812287D01*
X142500176Y-97769737D01*
X142607213Y-97691971D01*
X142607215Y-97691968D01*
X142607219Y-97691966D01*
X142751966Y-97547219D01*
X142751968Y-97547215D01*
X142751971Y-97547213D01*
X142804732Y-97474590D01*
X142872287Y-97381610D01*
X142965220Y-97199219D01*
X143028477Y-97004534D01*
X143060500Y-96802352D01*
X143060500Y-96597648D01*
X143040032Y-96468422D01*
X143028477Y-96395465D01*
X142966662Y-96205220D01*
X142965220Y-96200781D01*
X142965218Y-96200778D01*
X142965218Y-96200776D01*
X142920128Y-96112284D01*
X142872287Y-96018390D01*
X142853089Y-95991966D01*
X142751971Y-95852786D01*
X142607213Y-95708028D01*
X142441614Y-95587715D01*
X142435006Y-95584348D01*
X142348917Y-95540483D01*
X142298123Y-95492511D01*
X142281328Y-95424690D01*
X142303865Y-95358555D01*
X142348917Y-95319516D01*
X142441610Y-95272287D01*
X142462770Y-95256913D01*
X142607213Y-95151971D01*
X142607215Y-95151968D01*
X142607219Y-95151966D01*
X142751966Y-95007219D01*
X142751968Y-95007215D01*
X142751971Y-95007213D01*
X142854642Y-94865896D01*
X142872287Y-94841610D01*
X142965220Y-94659219D01*
X143028477Y-94464534D01*
X143060500Y-94262352D01*
X143060500Y-94057648D01*
X143028477Y-93855466D01*
X143025797Y-93847219D01*
X142988205Y-93731522D01*
X142965220Y-93660781D01*
X142965218Y-93660778D01*
X142965218Y-93660776D01*
X142905648Y-93543865D01*
X142872287Y-93478390D01*
X142864556Y-93467749D01*
X142751971Y-93312786D01*
X142607213Y-93168028D01*
X142441614Y-93047715D01*
X142435006Y-93044348D01*
X142348917Y-93000483D01*
X142298123Y-92952511D01*
X142281328Y-92884690D01*
X142303865Y-92818555D01*
X142348917Y-92779516D01*
X142441610Y-92732287D01*
X142492292Y-92695465D01*
X142607213Y-92611971D01*
X142607215Y-92611968D01*
X142607219Y-92611966D01*
X142751966Y-92467219D01*
X142751968Y-92467215D01*
X142751971Y-92467213D01*
X142804732Y-92394590D01*
X142872287Y-92301610D01*
X142965220Y-92119219D01*
X143028477Y-91924534D01*
X143060500Y-91722352D01*
X143060500Y-91517648D01*
X143028477Y-91315466D01*
X142965220Y-91120781D01*
X142965218Y-91120778D01*
X142965218Y-91120776D01*
X142911953Y-91016239D01*
X142872287Y-90938390D01*
X142859764Y-90921153D01*
X142751971Y-90772786D01*
X142607213Y-90628028D01*
X142441614Y-90507715D01*
X142406271Y-90489707D01*
X142348917Y-90460483D01*
X142298123Y-90412511D01*
X142281328Y-90344690D01*
X142303865Y-90278555D01*
X142348917Y-90239516D01*
X142441610Y-90192287D01*
X142478583Y-90165425D01*
X142607213Y-90071971D01*
X142607215Y-90071968D01*
X142607219Y-90071966D01*
X142751966Y-89927219D01*
X142751968Y-89927215D01*
X142751971Y-89927213D01*
X142804732Y-89854590D01*
X142872287Y-89761610D01*
X142965220Y-89579219D01*
X143028477Y-89384534D01*
X143060500Y-89182352D01*
X143060500Y-88977648D01*
X143028477Y-88775466D01*
X142965220Y-88580781D01*
X142965218Y-88580778D01*
X142965218Y-88580776D01*
X142923662Y-88499219D01*
X142872287Y-88398390D01*
X142858324Y-88379172D01*
X142751971Y-88232786D01*
X142607219Y-88088034D01*
X142594567Y-88078842D01*
X142441610Y-87967713D01*
X142350232Y-87921153D01*
X146199500Y-87921153D01*
X146199500Y-88078846D01*
X146230261Y-88233489D01*
X146230264Y-88233501D01*
X146290602Y-88379172D01*
X146290609Y-88379185D01*
X146378602Y-88510874D01*
X146399480Y-88577551D01*
X146399500Y-88579765D01*
X146399500Y-93420234D01*
X146379815Y-93487273D01*
X146378602Y-93489125D01*
X146290609Y-93620814D01*
X146290602Y-93620827D01*
X146230264Y-93766498D01*
X146230261Y-93766510D01*
X146199500Y-93921153D01*
X146199500Y-94078846D01*
X146230261Y-94233489D01*
X146230264Y-94233501D01*
X146290602Y-94379172D01*
X146290609Y-94379185D01*
X146378210Y-94510288D01*
X146378213Y-94510292D01*
X146489707Y-94621786D01*
X146489711Y-94621789D01*
X146620814Y-94709390D01*
X146620827Y-94709397D01*
X146766498Y-94769735D01*
X146766503Y-94769737D01*
X146908635Y-94798009D01*
X146921153Y-94800499D01*
X146921156Y-94800500D01*
X146921158Y-94800500D01*
X147078844Y-94800500D01*
X147078845Y-94800499D01*
X147233497Y-94769737D01*
X147379179Y-94709394D01*
X147510289Y-94621789D01*
X147621789Y-94510289D01*
X147709394Y-94379179D01*
X147769737Y-94233497D01*
X147800500Y-94078842D01*
X147800500Y-93921158D01*
X147800500Y-93921155D01*
X147800499Y-93921153D01*
X147787433Y-93855465D01*
X147769737Y-93766503D01*
X147734575Y-93681613D01*
X147709397Y-93620827D01*
X147709390Y-93620814D01*
X147621398Y-93489125D01*
X147600520Y-93422447D01*
X147600500Y-93420234D01*
X147600500Y-88579765D01*
X147620185Y-88512726D01*
X147621398Y-88510874D01*
X147709390Y-88379185D01*
X147709390Y-88379184D01*
X147709394Y-88379179D01*
X147769737Y-88233497D01*
X147800500Y-88078842D01*
X147800500Y-87921158D01*
X147800500Y-87921155D01*
X147800499Y-87921153D01*
X148199500Y-87921153D01*
X148199500Y-88078846D01*
X148230261Y-88233489D01*
X148230264Y-88233501D01*
X148290602Y-88379172D01*
X148290609Y-88379185D01*
X148378602Y-88510874D01*
X148399480Y-88577551D01*
X148399500Y-88579765D01*
X148399500Y-96420234D01*
X148379815Y-96487273D01*
X148378602Y-96489125D01*
X148290609Y-96620814D01*
X148290602Y-96620827D01*
X148230264Y-96766498D01*
X148230261Y-96766510D01*
X148199500Y-96921153D01*
X148199500Y-97078846D01*
X148230261Y-97233489D01*
X148230264Y-97233501D01*
X148290602Y-97379172D01*
X148290609Y-97379185D01*
X148378210Y-97510288D01*
X148378213Y-97510292D01*
X148489707Y-97621786D01*
X148489711Y-97621789D01*
X148620814Y-97709390D01*
X148620827Y-97709397D01*
X148766498Y-97769735D01*
X148766503Y-97769737D01*
X148921153Y-97800499D01*
X148921156Y-97800500D01*
X148921158Y-97800500D01*
X149078844Y-97800500D01*
X149078845Y-97800499D01*
X149233497Y-97769737D01*
X149379179Y-97709394D01*
X149510289Y-97621789D01*
X149621789Y-97510289D01*
X149709394Y-97379179D01*
X149769737Y-97233497D01*
X149800500Y-97078842D01*
X149800500Y-96921158D01*
X149800500Y-96921155D01*
X149800499Y-96921153D01*
X149776868Y-96802352D01*
X149769737Y-96766503D01*
X149769735Y-96766498D01*
X149709397Y-96620827D01*
X149709390Y-96620814D01*
X149621398Y-96489125D01*
X149600520Y-96422447D01*
X149600500Y-96420234D01*
X149600500Y-88579765D01*
X149620185Y-88512726D01*
X149621398Y-88510874D01*
X149709390Y-88379185D01*
X149709390Y-88379184D01*
X149709394Y-88379179D01*
X149769737Y-88233497D01*
X149800500Y-88078842D01*
X149800500Y-87921158D01*
X149800500Y-87921155D01*
X149800499Y-87921153D01*
X149798540Y-87911304D01*
X149769737Y-87766503D01*
X149756846Y-87735381D01*
X149709397Y-87620827D01*
X149709390Y-87620814D01*
X149621789Y-87489711D01*
X149621786Y-87489707D01*
X149510292Y-87378213D01*
X149510288Y-87378210D01*
X149379185Y-87290609D01*
X149379172Y-87290602D01*
X149233501Y-87230264D01*
X149233489Y-87230261D01*
X149078845Y-87199500D01*
X149078842Y-87199500D01*
X148921158Y-87199500D01*
X148921155Y-87199500D01*
X148766510Y-87230261D01*
X148766498Y-87230264D01*
X148620827Y-87290602D01*
X148620814Y-87290609D01*
X148489711Y-87378210D01*
X148489707Y-87378213D01*
X148378213Y-87489707D01*
X148378210Y-87489711D01*
X148290609Y-87620814D01*
X148290602Y-87620827D01*
X148230264Y-87766498D01*
X148230261Y-87766510D01*
X148199500Y-87921153D01*
X147800499Y-87921153D01*
X147798540Y-87911304D01*
X147769737Y-87766503D01*
X147756846Y-87735381D01*
X147709397Y-87620827D01*
X147709390Y-87620814D01*
X147621789Y-87489711D01*
X147621786Y-87489707D01*
X147510292Y-87378213D01*
X147510288Y-87378210D01*
X147379185Y-87290609D01*
X147379172Y-87290602D01*
X147233501Y-87230264D01*
X147233489Y-87230261D01*
X147078845Y-87199500D01*
X147078842Y-87199500D01*
X146921158Y-87199500D01*
X146921155Y-87199500D01*
X146766510Y-87230261D01*
X146766498Y-87230264D01*
X146620827Y-87290602D01*
X146620814Y-87290609D01*
X146489711Y-87378210D01*
X146489707Y-87378213D01*
X146378213Y-87489707D01*
X146378210Y-87489711D01*
X146290609Y-87620814D01*
X146290602Y-87620827D01*
X146230264Y-87766498D01*
X146230261Y-87766510D01*
X146199500Y-87921153D01*
X142350232Y-87921153D01*
X142345059Y-87918517D01*
X142341359Y-87916295D01*
X142320508Y-87893652D01*
X142298123Y-87872511D01*
X142297050Y-87868178D01*
X142294029Y-87864898D01*
X142288729Y-87834578D01*
X142281328Y-87804690D01*
X142282767Y-87800466D01*
X142281999Y-87796072D01*
X142293933Y-87767697D01*
X142303865Y-87738555D01*
X142307526Y-87735381D01*
X142309089Y-87731668D01*
X142322182Y-87722682D01*
X142348917Y-87699516D01*
X142441610Y-87652287D01*
X142541429Y-87579765D01*
X142607213Y-87531971D01*
X142607215Y-87531968D01*
X142607219Y-87531966D01*
X142751966Y-87387219D01*
X142751968Y-87387215D01*
X142751971Y-87387213D01*
X142814945Y-87300535D01*
X142872287Y-87221610D01*
X142965220Y-87039219D01*
X142992809Y-86954306D01*
X143003582Y-86921153D01*
X151199500Y-86921153D01*
X151199500Y-87078846D01*
X151230261Y-87233489D01*
X151230264Y-87233501D01*
X151290602Y-87379172D01*
X151290609Y-87379185D01*
X151378602Y-87510874D01*
X151399480Y-87577551D01*
X151399500Y-87579765D01*
X151399500Y-104420234D01*
X151379815Y-104487273D01*
X151378602Y-104489125D01*
X151290609Y-104620814D01*
X151290602Y-104620827D01*
X151230264Y-104766498D01*
X151230261Y-104766510D01*
X151199500Y-104921153D01*
X151199500Y-105078846D01*
X151230261Y-105233489D01*
X151230264Y-105233501D01*
X151290602Y-105379172D01*
X151290609Y-105379185D01*
X151378210Y-105510288D01*
X151378213Y-105510292D01*
X151489707Y-105621786D01*
X151489711Y-105621789D01*
X151620814Y-105709390D01*
X151620827Y-105709397D01*
X151755330Y-105765109D01*
X151766503Y-105769737D01*
X151921153Y-105800499D01*
X151921156Y-105800500D01*
X151921158Y-105800500D01*
X152078844Y-105800500D01*
X152078845Y-105800499D01*
X152233497Y-105769737D01*
X152379179Y-105709394D01*
X152510289Y-105621789D01*
X152621789Y-105510289D01*
X152709394Y-105379179D01*
X152769737Y-105233497D01*
X152800500Y-105078842D01*
X152800500Y-104921158D01*
X152800500Y-104921155D01*
X152800499Y-104921153D01*
X152769737Y-104766503D01*
X152710932Y-104624534D01*
X152709397Y-104620827D01*
X152709390Y-104620814D01*
X152621398Y-104489125D01*
X152600520Y-104422447D01*
X152600500Y-104420234D01*
X152600500Y-87579765D01*
X152620185Y-87512726D01*
X152621398Y-87510874D01*
X152709390Y-87379185D01*
X152709390Y-87379184D01*
X152709394Y-87379179D01*
X152769737Y-87233497D01*
X152800500Y-87078842D01*
X152800500Y-86921158D01*
X152800500Y-86921155D01*
X152800499Y-86921153D01*
X153199500Y-86921153D01*
X153199500Y-87078846D01*
X153230261Y-87233489D01*
X153230264Y-87233501D01*
X153290602Y-87379172D01*
X153290609Y-87379185D01*
X153378602Y-87510874D01*
X153399480Y-87577551D01*
X153399500Y-87579765D01*
X153399500Y-109420234D01*
X153379815Y-109487273D01*
X153378602Y-109489125D01*
X153290609Y-109620814D01*
X153290602Y-109620827D01*
X153230264Y-109766498D01*
X153230261Y-109766510D01*
X153199500Y-109921153D01*
X153199500Y-110078846D01*
X153230261Y-110233489D01*
X153230264Y-110233501D01*
X153290602Y-110379172D01*
X153290609Y-110379185D01*
X153378210Y-110510288D01*
X153378213Y-110510292D01*
X153489707Y-110621786D01*
X153489711Y-110621789D01*
X153620814Y-110709390D01*
X153620827Y-110709397D01*
X153766498Y-110769735D01*
X153766503Y-110769737D01*
X153921153Y-110800499D01*
X153921156Y-110800500D01*
X153921158Y-110800500D01*
X154078844Y-110800500D01*
X154078845Y-110800499D01*
X154233497Y-110769737D01*
X154379179Y-110709394D01*
X154510289Y-110621789D01*
X154621789Y-110510289D01*
X154709394Y-110379179D01*
X154769737Y-110233497D01*
X154800500Y-110078842D01*
X154800500Y-109921158D01*
X154800500Y-109921155D01*
X154800499Y-109921153D01*
X154769738Y-109766510D01*
X154769737Y-109766503D01*
X154744069Y-109704534D01*
X154709397Y-109620827D01*
X154709390Y-109620814D01*
X154621398Y-109489125D01*
X154600520Y-109422447D01*
X154600500Y-109420234D01*
X154600500Y-87579765D01*
X154620185Y-87512726D01*
X154621398Y-87510874D01*
X154709390Y-87379185D01*
X154709390Y-87379184D01*
X154709394Y-87379179D01*
X154769737Y-87233497D01*
X154800500Y-87078842D01*
X154800500Y-86921158D01*
X154800500Y-86921155D01*
X154800499Y-86921153D01*
X154785260Y-86844542D01*
X154769737Y-86766503D01*
X154741984Y-86699500D01*
X154709397Y-86620827D01*
X154709390Y-86620814D01*
X154621789Y-86489711D01*
X154621786Y-86489707D01*
X154510292Y-86378213D01*
X154510288Y-86378210D01*
X154379185Y-86290609D01*
X154379172Y-86290602D01*
X154233501Y-86230264D01*
X154233489Y-86230261D01*
X154078845Y-86199500D01*
X154078842Y-86199500D01*
X153921158Y-86199500D01*
X153921155Y-86199500D01*
X153766510Y-86230261D01*
X153766498Y-86230264D01*
X153620827Y-86290602D01*
X153620814Y-86290609D01*
X153489711Y-86378210D01*
X153489707Y-86378213D01*
X153378213Y-86489707D01*
X153378210Y-86489711D01*
X153290609Y-86620814D01*
X153290602Y-86620827D01*
X153230264Y-86766498D01*
X153230261Y-86766510D01*
X153199500Y-86921153D01*
X152800499Y-86921153D01*
X152785260Y-86844542D01*
X152769737Y-86766503D01*
X152741984Y-86699500D01*
X152709397Y-86620827D01*
X152709390Y-86620814D01*
X152621789Y-86489711D01*
X152621786Y-86489707D01*
X152510292Y-86378213D01*
X152510288Y-86378210D01*
X152379185Y-86290609D01*
X152379172Y-86290602D01*
X152233501Y-86230264D01*
X152233489Y-86230261D01*
X152078845Y-86199500D01*
X152078842Y-86199500D01*
X151921158Y-86199500D01*
X151921155Y-86199500D01*
X151766510Y-86230261D01*
X151766498Y-86230264D01*
X151620827Y-86290602D01*
X151620814Y-86290609D01*
X151489711Y-86378210D01*
X151489707Y-86378213D01*
X151378213Y-86489707D01*
X151378210Y-86489711D01*
X151290609Y-86620814D01*
X151290602Y-86620827D01*
X151230264Y-86766498D01*
X151230261Y-86766510D01*
X151199500Y-86921153D01*
X143003582Y-86921153D01*
X143018011Y-86876747D01*
X143018012Y-86876745D01*
X143028475Y-86844542D01*
X143028475Y-86844538D01*
X143028477Y-86844534D01*
X143060500Y-86642352D01*
X143060500Y-86437648D01*
X143037211Y-86290609D01*
X143028477Y-86235465D01*
X142965218Y-86040776D01*
X142909578Y-85931578D01*
X142872287Y-85858390D01*
X142814742Y-85779185D01*
X142751971Y-85692786D01*
X142607213Y-85548028D01*
X142441614Y-85427715D01*
X142435006Y-85424348D01*
X142348917Y-85380483D01*
X142298123Y-85332511D01*
X142281328Y-85264690D01*
X142303865Y-85198555D01*
X142348917Y-85159516D01*
X142441610Y-85112287D01*
X142462770Y-85096913D01*
X142607213Y-84991971D01*
X142607215Y-84991968D01*
X142607219Y-84991966D01*
X142751966Y-84847219D01*
X142751968Y-84847215D01*
X142751971Y-84847213D01*
X142808259Y-84769738D01*
X142872287Y-84681610D01*
X142965220Y-84499219D01*
X143028477Y-84304534D01*
X143060500Y-84102352D01*
X143060500Y-83897648D01*
X143028477Y-83695465D01*
X142965218Y-83500776D01*
X142902767Y-83378211D01*
X142872287Y-83318390D01*
X142852098Y-83290602D01*
X142751971Y-83152786D01*
X142607213Y-83008028D01*
X142441614Y-82887715D01*
X142435006Y-82884348D01*
X142348917Y-82840483D01*
X142298123Y-82792511D01*
X142281328Y-82724690D01*
X142303865Y-82658555D01*
X142348917Y-82619516D01*
X142441610Y-82572287D01*
X142462770Y-82556913D01*
X142607213Y-82451971D01*
X142607215Y-82451968D01*
X142607219Y-82451966D01*
X142751966Y-82307219D01*
X142751968Y-82307215D01*
X142751971Y-82307213D01*
X142805534Y-82233489D01*
X142872287Y-82141610D01*
X142965220Y-81959219D01*
X143028477Y-81764534D01*
X143060500Y-81562352D01*
X143060500Y-81357648D01*
X143040324Y-81230261D01*
X143028477Y-81155465D01*
X142998245Y-81062420D01*
X142965220Y-80960781D01*
X142965218Y-80960778D01*
X142965218Y-80960776D01*
X142931503Y-80894607D01*
X142872287Y-80778390D01*
X142852579Y-80751264D01*
X142751971Y-80612786D01*
X142607213Y-80468028D01*
X142441614Y-80347715D01*
X142402825Y-80327951D01*
X142348917Y-80300483D01*
X142298123Y-80252511D01*
X142281328Y-80184690D01*
X142303865Y-80118555D01*
X142348917Y-80079516D01*
X142441610Y-80032287D01*
X142462770Y-80016913D01*
X142607213Y-79911971D01*
X142607215Y-79911968D01*
X142607219Y-79911966D01*
X142751966Y-79767219D01*
X142751968Y-79767215D01*
X142751971Y-79767213D01*
X142804732Y-79694590D01*
X142872287Y-79601610D01*
X142965220Y-79419219D01*
X143028477Y-79224534D01*
X143060500Y-79022352D01*
X143060500Y-78817648D01*
X143048590Y-78742452D01*
X143028477Y-78615465D01*
X142965218Y-78420776D01*
X142931503Y-78354607D01*
X142872287Y-78238390D01*
X142864556Y-78227749D01*
X142751971Y-78072786D01*
X142607213Y-77928028D01*
X142441614Y-77807715D01*
X142427452Y-77800499D01*
X142348917Y-77760483D01*
X142298123Y-77712511D01*
X142281328Y-77644690D01*
X142303865Y-77578555D01*
X142348917Y-77539516D01*
X142441610Y-77492287D01*
X142462770Y-77476913D01*
X142607213Y-77371971D01*
X142607215Y-77371968D01*
X142607219Y-77371966D01*
X142751966Y-77227219D01*
X142751968Y-77227215D01*
X142751971Y-77227213D01*
X142859767Y-77078842D01*
X142872287Y-77061610D01*
X142965220Y-76879219D01*
X143028477Y-76684534D01*
X143060500Y-76482352D01*
X143060500Y-76277648D01*
X143028477Y-76075466D01*
X142965220Y-75880781D01*
X142965218Y-75880778D01*
X142965218Y-75880776D01*
X142931503Y-75814607D01*
X142872287Y-75698390D01*
X142864556Y-75687749D01*
X142751971Y-75532786D01*
X142607213Y-75388028D01*
X142441614Y-75267715D01*
X142435006Y-75264348D01*
X142348917Y-75220483D01*
X142298123Y-75172511D01*
X142281328Y-75104690D01*
X142303865Y-75038555D01*
X142348917Y-74999516D01*
X142441610Y-74952287D01*
X142462770Y-74936913D01*
X142607213Y-74831971D01*
X142607215Y-74831968D01*
X142607219Y-74831966D01*
X142751966Y-74687219D01*
X142751968Y-74687215D01*
X142751971Y-74687213D01*
X142804732Y-74614590D01*
X142872287Y-74521610D01*
X142965220Y-74339219D01*
X143028477Y-74144534D01*
X143060500Y-73942352D01*
X143060500Y-73737648D01*
X143037498Y-73592420D01*
X143028477Y-73535465D01*
X142998224Y-73442358D01*
X142965220Y-73340781D01*
X142965218Y-73340778D01*
X142965218Y-73340776D01*
X142926109Y-73264022D01*
X142872287Y-73158390D01*
X142864556Y-73147749D01*
X142751971Y-72992786D01*
X142607219Y-72848034D01*
X142607211Y-72848028D01*
X142513547Y-72779978D01*
X142470882Y-72724649D01*
X142464903Y-72655036D01*
X142497508Y-72593240D01*
X142547426Y-72561955D01*
X142629334Y-72534814D01*
X142778656Y-72442712D01*
X142902712Y-72318656D01*
X142994814Y-72169334D01*
X143049999Y-72002797D01*
X143060500Y-71900009D01*
X143060499Y-71197648D01*
X155699500Y-71197648D01*
X155699500Y-71402351D01*
X155731522Y-71604534D01*
X155794781Y-71799223D01*
X155887715Y-71981613D01*
X156008028Y-72147213D01*
X156152786Y-72291971D01*
X156307749Y-72404556D01*
X156318390Y-72412287D01*
X156409840Y-72458883D01*
X156411080Y-72459515D01*
X156461876Y-72507490D01*
X156478671Y-72575311D01*
X156456134Y-72641446D01*
X156411080Y-72680485D01*
X156318386Y-72727715D01*
X156152786Y-72848028D01*
X156008028Y-72992786D01*
X155887715Y-73158386D01*
X155794781Y-73340776D01*
X155731522Y-73535465D01*
X155699500Y-73737648D01*
X155699500Y-73942351D01*
X155731522Y-74144534D01*
X155794781Y-74339223D01*
X155887715Y-74521613D01*
X156008028Y-74687213D01*
X156152786Y-74831971D01*
X156307749Y-74944556D01*
X156318390Y-74952287D01*
X156409840Y-74998883D01*
X156411080Y-74999515D01*
X156461876Y-75047490D01*
X156478671Y-75115311D01*
X156456134Y-75181446D01*
X156411080Y-75220485D01*
X156318386Y-75267715D01*
X156152786Y-75388028D01*
X156008028Y-75532786D01*
X155887715Y-75698386D01*
X155794781Y-75880776D01*
X155731522Y-76075465D01*
X155699500Y-76277648D01*
X155699500Y-76482351D01*
X155731522Y-76684534D01*
X155794781Y-76879223D01*
X155887715Y-77061613D01*
X156008028Y-77227213D01*
X156152786Y-77371971D01*
X156307749Y-77484556D01*
X156318390Y-77492287D01*
X156409840Y-77538883D01*
X156411080Y-77539515D01*
X156461876Y-77587490D01*
X156478671Y-77655311D01*
X156456134Y-77721446D01*
X156411080Y-77760485D01*
X156318386Y-77807715D01*
X156152786Y-77928028D01*
X156008028Y-78072786D01*
X155887715Y-78238386D01*
X155794781Y-78420776D01*
X155731522Y-78615465D01*
X155699500Y-78817648D01*
X155699500Y-79022351D01*
X155731522Y-79224534D01*
X155794781Y-79419223D01*
X155887715Y-79601613D01*
X156008028Y-79767213D01*
X156152786Y-79911971D01*
X156307749Y-80024556D01*
X156318390Y-80032287D01*
X156409840Y-80078883D01*
X156411080Y-80079515D01*
X156461876Y-80127490D01*
X156478671Y-80195311D01*
X156456134Y-80261446D01*
X156411080Y-80300485D01*
X156318386Y-80347715D01*
X156152786Y-80468028D01*
X156008028Y-80612786D01*
X155887715Y-80778386D01*
X155794781Y-80960776D01*
X155731522Y-81155465D01*
X155699500Y-81357648D01*
X155699500Y-81562351D01*
X155731522Y-81764534D01*
X155794781Y-81959223D01*
X155887715Y-82141613D01*
X156008028Y-82307213D01*
X156152786Y-82451971D01*
X156307749Y-82564556D01*
X156318390Y-82572287D01*
X156409840Y-82618883D01*
X156411080Y-82619515D01*
X156461876Y-82667490D01*
X156478671Y-82735311D01*
X156456134Y-82801446D01*
X156411080Y-82840485D01*
X156318386Y-82887715D01*
X156152786Y-83008028D01*
X156008028Y-83152786D01*
X155887715Y-83318386D01*
X155794781Y-83500776D01*
X155731522Y-83695465D01*
X155699500Y-83897648D01*
X155699500Y-84102351D01*
X155731522Y-84304534D01*
X155794781Y-84499223D01*
X155887715Y-84681613D01*
X156008028Y-84847213D01*
X156152786Y-84991971D01*
X156307749Y-85104556D01*
X156318390Y-85112287D01*
X156409840Y-85158883D01*
X156411080Y-85159515D01*
X156461876Y-85207490D01*
X156478671Y-85275311D01*
X156456134Y-85341446D01*
X156411080Y-85380485D01*
X156318386Y-85427715D01*
X156152786Y-85548028D01*
X156008028Y-85692786D01*
X155887715Y-85858386D01*
X155794781Y-86040776D01*
X155731522Y-86235465D01*
X155699500Y-86437648D01*
X155699500Y-86642351D01*
X155731522Y-86844534D01*
X155794781Y-87039223D01*
X155843126Y-87134103D01*
X155876447Y-87199500D01*
X155887715Y-87221613D01*
X156008028Y-87387213D01*
X156152786Y-87531971D01*
X156307749Y-87644556D01*
X156318390Y-87652287D01*
X156409840Y-87698883D01*
X156411080Y-87699515D01*
X156461876Y-87747490D01*
X156478671Y-87815311D01*
X156456134Y-87881446D01*
X156411080Y-87920485D01*
X156318386Y-87967715D01*
X156152786Y-88088028D01*
X156008028Y-88232786D01*
X155887715Y-88398386D01*
X155794781Y-88580776D01*
X155731522Y-88775465D01*
X155699500Y-88977648D01*
X155699500Y-89182351D01*
X155731522Y-89384534D01*
X155794781Y-89579223D01*
X155835480Y-89659097D01*
X155882441Y-89751264D01*
X155887715Y-89761613D01*
X156008028Y-89927213D01*
X156152786Y-90071971D01*
X156281417Y-90165425D01*
X156318390Y-90192287D01*
X156392918Y-90230261D01*
X156411080Y-90239515D01*
X156461876Y-90287490D01*
X156478671Y-90355311D01*
X156456134Y-90421446D01*
X156411080Y-90460485D01*
X156318386Y-90507715D01*
X156152786Y-90628028D01*
X156008028Y-90772786D01*
X155887715Y-90938386D01*
X155794781Y-91120776D01*
X155731522Y-91315465D01*
X155700666Y-91510288D01*
X155699500Y-91517648D01*
X155699500Y-91722352D01*
X155700953Y-91731523D01*
X155731522Y-91924534D01*
X155794781Y-92119223D01*
X155887715Y-92301613D01*
X156008028Y-92467213D01*
X156152786Y-92611971D01*
X156280944Y-92705081D01*
X156318390Y-92732287D01*
X156409840Y-92778883D01*
X156411080Y-92779515D01*
X156461876Y-92827490D01*
X156478671Y-92895311D01*
X156456134Y-92961446D01*
X156411080Y-93000485D01*
X156318386Y-93047715D01*
X156152786Y-93168028D01*
X156008028Y-93312786D01*
X155887715Y-93478386D01*
X155794781Y-93660776D01*
X155731522Y-93855465D01*
X155709903Y-93991966D01*
X155699500Y-94057648D01*
X155699500Y-94262352D01*
X155699550Y-94262666D01*
X155731522Y-94464534D01*
X155794781Y-94659223D01*
X155851091Y-94769735D01*
X155866766Y-94800500D01*
X155887715Y-94841613D01*
X156008028Y-95007213D01*
X156152786Y-95151971D01*
X156307749Y-95264556D01*
X156318390Y-95272287D01*
X156409840Y-95318883D01*
X156411080Y-95319515D01*
X156461876Y-95367490D01*
X156478671Y-95435311D01*
X156456134Y-95501446D01*
X156411080Y-95540485D01*
X156318386Y-95587715D01*
X156152786Y-95708028D01*
X156008028Y-95852786D01*
X155887715Y-96018386D01*
X155794781Y-96200776D01*
X155731522Y-96395465D01*
X155699500Y-96597648D01*
X155699500Y-96802351D01*
X155731522Y-97004534D01*
X155794781Y-97199223D01*
X155858691Y-97324653D01*
X155886477Y-97379185D01*
X155887715Y-97381613D01*
X156008028Y-97547213D01*
X156152786Y-97691971D01*
X156302165Y-97800499D01*
X156318390Y-97812287D01*
X156409840Y-97858883D01*
X156411080Y-97859515D01*
X156461876Y-97907490D01*
X156478671Y-97975311D01*
X156456134Y-98041446D01*
X156411080Y-98080485D01*
X156318386Y-98127715D01*
X156152786Y-98248028D01*
X156008028Y-98392786D01*
X155887715Y-98558386D01*
X155794781Y-98740776D01*
X155731522Y-98935465D01*
X155699500Y-99137648D01*
X155699500Y-99342352D01*
X155700953Y-99351523D01*
X155731522Y-99544534D01*
X155794781Y-99739223D01*
X155842345Y-99832570D01*
X155881347Y-99909117D01*
X155887715Y-99921613D01*
X156008028Y-100087213D01*
X156152786Y-100231971D01*
X156280944Y-100325081D01*
X156318390Y-100352287D01*
X156409840Y-100398883D01*
X156411080Y-100399515D01*
X156461876Y-100447490D01*
X156478671Y-100515311D01*
X156456134Y-100581446D01*
X156411080Y-100620485D01*
X156318386Y-100667715D01*
X156152786Y-100788028D01*
X156008028Y-100932786D01*
X155887715Y-101098386D01*
X155794781Y-101280776D01*
X155731522Y-101475465D01*
X155699500Y-101677648D01*
X155699500Y-101882351D01*
X155731522Y-102084534D01*
X155794781Y-102279223D01*
X155887715Y-102461613D01*
X156008028Y-102627213D01*
X156152786Y-102771971D01*
X156307749Y-102884556D01*
X156318390Y-102892287D01*
X156409840Y-102938883D01*
X156411080Y-102939515D01*
X156461876Y-102987490D01*
X156478671Y-103055311D01*
X156456134Y-103121446D01*
X156411080Y-103160485D01*
X156318386Y-103207715D01*
X156152786Y-103328028D01*
X156008028Y-103472786D01*
X155887715Y-103638386D01*
X155794781Y-103820776D01*
X155731522Y-104015465D01*
X155699500Y-104217648D01*
X155699500Y-104422351D01*
X155731522Y-104624534D01*
X155794781Y-104819223D01*
X155887715Y-105001613D01*
X156008028Y-105167213D01*
X156152786Y-105311971D01*
X156307749Y-105424556D01*
X156318390Y-105432287D01*
X156409840Y-105478883D01*
X156411080Y-105479515D01*
X156461876Y-105527490D01*
X156478671Y-105595311D01*
X156456134Y-105661446D01*
X156411080Y-105700485D01*
X156318386Y-105747715D01*
X156152786Y-105868028D01*
X156008028Y-106012786D01*
X155887715Y-106178386D01*
X155794781Y-106360776D01*
X155731522Y-106555465D01*
X155699500Y-106757648D01*
X155699500Y-106962351D01*
X155731522Y-107164534D01*
X155794781Y-107359223D01*
X155887715Y-107541613D01*
X156008028Y-107707213D01*
X156152786Y-107851971D01*
X156307749Y-107964556D01*
X156318390Y-107972287D01*
X156409840Y-108018883D01*
X156411080Y-108019515D01*
X156461876Y-108067490D01*
X156478671Y-108135311D01*
X156456134Y-108201446D01*
X156411080Y-108240485D01*
X156318386Y-108287715D01*
X156152786Y-108408028D01*
X156008028Y-108552786D01*
X155887715Y-108718386D01*
X155794781Y-108900776D01*
X155731522Y-109095465D01*
X155699500Y-109297648D01*
X155699500Y-109502351D01*
X155731522Y-109704534D01*
X155794781Y-109899223D01*
X155887715Y-110081613D01*
X156008028Y-110247213D01*
X156152786Y-110391971D01*
X156234358Y-110451235D01*
X156318390Y-110512287D01*
X156409840Y-110558883D01*
X156411080Y-110559515D01*
X156461876Y-110607490D01*
X156478671Y-110675311D01*
X156456134Y-110741446D01*
X156411080Y-110780485D01*
X156318386Y-110827715D01*
X156152786Y-110948028D01*
X156008028Y-111092786D01*
X155887715Y-111258386D01*
X155794781Y-111440776D01*
X155731522Y-111635465D01*
X155699500Y-111837648D01*
X155699500Y-112042351D01*
X155731522Y-112244534D01*
X155794781Y-112439223D01*
X155858691Y-112564653D01*
X155887314Y-112620827D01*
X155887715Y-112621613D01*
X156008028Y-112787213D01*
X156152786Y-112931971D01*
X156307749Y-113044556D01*
X156318390Y-113052287D01*
X156409840Y-113098883D01*
X156411080Y-113099515D01*
X156461876Y-113147490D01*
X156478671Y-113215311D01*
X156456134Y-113281446D01*
X156411080Y-113320485D01*
X156318386Y-113367715D01*
X156152786Y-113488028D01*
X156008028Y-113632786D01*
X155887715Y-113798386D01*
X155794781Y-113980776D01*
X155731522Y-114175465D01*
X155699500Y-114377648D01*
X155699500Y-114582351D01*
X155731522Y-114784534D01*
X155794781Y-114979223D01*
X155887715Y-115161613D01*
X156008028Y-115327213D01*
X156152786Y-115471971D01*
X156307749Y-115584556D01*
X156318390Y-115592287D01*
X156409840Y-115638883D01*
X156411080Y-115639515D01*
X156461876Y-115687490D01*
X156478671Y-115755311D01*
X156456134Y-115821446D01*
X156411080Y-115860485D01*
X156318386Y-115907715D01*
X156152786Y-116028028D01*
X156008028Y-116172786D01*
X155887715Y-116338386D01*
X155794781Y-116520776D01*
X155731522Y-116715465D01*
X155699500Y-116917648D01*
X155699500Y-117122351D01*
X155731522Y-117324534D01*
X155794781Y-117519223D01*
X155851690Y-117630911D01*
X155886133Y-117698510D01*
X155887715Y-117701613D01*
X156008028Y-117867213D01*
X156152786Y-118011971D01*
X156294968Y-118115270D01*
X156318390Y-118132287D01*
X156409840Y-118178883D01*
X156411080Y-118179515D01*
X156461876Y-118227490D01*
X156478671Y-118295311D01*
X156456134Y-118361446D01*
X156411080Y-118400485D01*
X156318386Y-118447715D01*
X156152786Y-118568028D01*
X156008028Y-118712786D01*
X155887715Y-118878386D01*
X155794781Y-119060776D01*
X155731522Y-119255465D01*
X155699500Y-119457648D01*
X155699500Y-119662351D01*
X155731522Y-119864534D01*
X155794781Y-120059223D01*
X155887715Y-120241613D01*
X156008028Y-120407213D01*
X156152786Y-120551971D01*
X156307749Y-120664556D01*
X156318390Y-120672287D01*
X156409840Y-120718883D01*
X156411080Y-120719515D01*
X156461876Y-120767490D01*
X156478671Y-120835311D01*
X156456134Y-120901446D01*
X156411080Y-120940485D01*
X156318386Y-120987715D01*
X156152786Y-121108028D01*
X156008028Y-121252786D01*
X155887715Y-121418386D01*
X155794781Y-121600776D01*
X155731522Y-121795465D01*
X155699500Y-121997648D01*
X155699500Y-122202351D01*
X155731522Y-122404534D01*
X155794781Y-122599223D01*
X155887715Y-122781613D01*
X156008028Y-122947213D01*
X156152786Y-123091971D01*
X156307749Y-123204556D01*
X156318390Y-123212287D01*
X156409840Y-123258883D01*
X156411080Y-123259515D01*
X156461876Y-123307490D01*
X156478671Y-123375311D01*
X156456134Y-123441446D01*
X156411080Y-123480485D01*
X156318386Y-123527715D01*
X156152786Y-123648028D01*
X156008028Y-123792786D01*
X155887715Y-123958386D01*
X155794781Y-124140776D01*
X155731522Y-124335465D01*
X155699500Y-124537648D01*
X155699500Y-124742351D01*
X155731522Y-124944534D01*
X155794781Y-125139223D01*
X155887715Y-125321613D01*
X156008028Y-125487213D01*
X156152786Y-125631971D01*
X156254964Y-125706206D01*
X156318390Y-125752287D01*
X156397218Y-125792452D01*
X156411080Y-125799515D01*
X156461876Y-125847490D01*
X156478671Y-125915311D01*
X156456134Y-125981446D01*
X156411080Y-126020485D01*
X156318386Y-126067715D01*
X156152786Y-126188028D01*
X156008028Y-126332786D01*
X155887715Y-126498386D01*
X155794781Y-126680776D01*
X155731522Y-126875465D01*
X155699500Y-127077648D01*
X155699500Y-127282351D01*
X155731522Y-127484534D01*
X155794781Y-127679223D01*
X155887715Y-127861613D01*
X156008028Y-128027213D01*
X156152786Y-128171971D01*
X156307749Y-128284556D01*
X156318390Y-128292287D01*
X156409840Y-128338883D01*
X156411080Y-128339515D01*
X156461876Y-128387490D01*
X156478671Y-128455311D01*
X156456134Y-128521446D01*
X156411080Y-128560485D01*
X156318386Y-128607715D01*
X156152786Y-128728028D01*
X156008028Y-128872786D01*
X155887715Y-129038386D01*
X155794781Y-129220776D01*
X155731522Y-129415465D01*
X155699500Y-129617648D01*
X155699500Y-129822351D01*
X155731522Y-130024534D01*
X155794781Y-130219223D01*
X155887715Y-130401613D01*
X156008028Y-130567213D01*
X156152786Y-130711971D01*
X156307749Y-130824556D01*
X156318390Y-130832287D01*
X156434607Y-130891503D01*
X156500776Y-130925218D01*
X156500778Y-130925218D01*
X156500781Y-130925220D01*
X156605137Y-130959127D01*
X156695465Y-130988477D01*
X156796557Y-131004488D01*
X156897648Y-131020500D01*
X156897649Y-131020500D01*
X157102351Y-131020500D01*
X157102352Y-131020500D01*
X157304534Y-130988477D01*
X157499219Y-130925220D01*
X157681610Y-130832287D01*
X157774590Y-130764732D01*
X157847213Y-130711971D01*
X157847215Y-130711968D01*
X157847219Y-130711966D01*
X157991966Y-130567219D01*
X157991968Y-130567215D01*
X157991971Y-130567213D01*
X158044732Y-130494590D01*
X158112287Y-130401610D01*
X158205220Y-130219219D01*
X158268477Y-130024534D01*
X158300500Y-129822352D01*
X158300500Y-129617648D01*
X158268477Y-129415466D01*
X158205220Y-129220781D01*
X158205218Y-129220778D01*
X158205218Y-129220776D01*
X158144877Y-129102352D01*
X158112287Y-129038390D01*
X158104556Y-129027749D01*
X157991971Y-128872786D01*
X157847213Y-128728028D01*
X157681614Y-128607715D01*
X157675006Y-128604348D01*
X157588917Y-128560483D01*
X157538123Y-128512511D01*
X157521328Y-128444690D01*
X157543865Y-128378555D01*
X157588917Y-128339516D01*
X157681610Y-128292287D01*
X157702770Y-128276913D01*
X157847213Y-128171971D01*
X157847215Y-128171968D01*
X157847219Y-128171966D01*
X157991966Y-128027219D01*
X157991968Y-128027215D01*
X157991971Y-128027213D01*
X158085938Y-127897876D01*
X158112287Y-127861610D01*
X158205220Y-127679219D01*
X158268477Y-127484534D01*
X158300500Y-127282352D01*
X158300500Y-127077648D01*
X158277776Y-126934174D01*
X158268477Y-126875465D01*
X158205218Y-126680776D01*
X158171503Y-126614607D01*
X158112287Y-126498390D01*
X158100080Y-126481588D01*
X157991971Y-126332786D01*
X157847213Y-126188028D01*
X157728990Y-126102135D01*
X164489500Y-126102135D01*
X164489500Y-127897870D01*
X164489501Y-127897876D01*
X164495908Y-127957483D01*
X164546202Y-128092328D01*
X164546206Y-128092335D01*
X164632452Y-128207544D01*
X164632455Y-128207547D01*
X164747664Y-128293793D01*
X164747671Y-128293797D01*
X164882517Y-128344091D01*
X164882516Y-128344091D01*
X164889444Y-128344835D01*
X164942127Y-128350500D01*
X166737872Y-128350499D01*
X166797483Y-128344091D01*
X166932331Y-128293796D01*
X167047546Y-128207546D01*
X167133796Y-128092331D01*
X167182810Y-127960916D01*
X167224681Y-127904984D01*
X167290145Y-127880566D01*
X167358418Y-127895417D01*
X167386673Y-127916569D01*
X167500213Y-128030109D01*
X167672179Y-128155048D01*
X167672181Y-128155049D01*
X167672184Y-128155051D01*
X167861588Y-128251557D01*
X168063757Y-128317246D01*
X168273713Y-128350500D01*
X168273714Y-128350500D01*
X168486286Y-128350500D01*
X168486287Y-128350500D01*
X168696243Y-128317246D01*
X168898412Y-128251557D01*
X169087816Y-128155051D01*
X169174138Y-128092335D01*
X169259786Y-128030109D01*
X169259788Y-128030106D01*
X169259792Y-128030104D01*
X169410104Y-127879792D01*
X169410106Y-127879788D01*
X169410109Y-127879786D01*
X169495890Y-127761717D01*
X169535051Y-127707816D01*
X169539793Y-127698508D01*
X169587763Y-127647711D01*
X169655583Y-127630911D01*
X169721719Y-127653445D01*
X169760763Y-127698500D01*
X169765373Y-127707547D01*
X169804728Y-127761716D01*
X170437037Y-127129408D01*
X170454075Y-127192993D01*
X170519901Y-127307007D01*
X170612993Y-127400099D01*
X170727007Y-127465925D01*
X170790590Y-127482962D01*
X170158282Y-128115269D01*
X170158282Y-128115270D01*
X170212449Y-128154624D01*
X170401782Y-128251095D01*
X170603870Y-128316757D01*
X170813754Y-128350000D01*
X171026246Y-128350000D01*
X171236127Y-128316757D01*
X171236130Y-128316757D01*
X171438217Y-128251095D01*
X171627554Y-128154622D01*
X171681716Y-128115270D01*
X171681717Y-128115270D01*
X171049408Y-127482962D01*
X171112993Y-127465925D01*
X171227007Y-127400099D01*
X171320099Y-127307007D01*
X171385925Y-127192993D01*
X171402962Y-127129408D01*
X172035270Y-127761717D01*
X172035270Y-127761716D01*
X172074622Y-127707554D01*
X172171095Y-127518217D01*
X172236757Y-127316130D01*
X172236757Y-127316127D01*
X172270000Y-127106246D01*
X172270000Y-126893753D01*
X172236757Y-126683872D01*
X172236757Y-126683869D01*
X172171095Y-126481782D01*
X172074624Y-126292449D01*
X172035270Y-126238282D01*
X172035269Y-126238282D01*
X171402962Y-126870590D01*
X171385925Y-126807007D01*
X171320099Y-126692993D01*
X171227007Y-126599901D01*
X171112993Y-126534075D01*
X171049409Y-126517037D01*
X171681716Y-125884728D01*
X171627550Y-125845375D01*
X171438217Y-125748904D01*
X171236129Y-125683242D01*
X171026246Y-125650000D01*
X170813754Y-125650000D01*
X170603872Y-125683242D01*
X170603869Y-125683242D01*
X170401782Y-125748904D01*
X170212439Y-125845380D01*
X170158282Y-125884727D01*
X170158282Y-125884728D01*
X170790591Y-126517037D01*
X170727007Y-126534075D01*
X170612993Y-126599901D01*
X170519901Y-126692993D01*
X170454075Y-126807007D01*
X170437037Y-126870591D01*
X169804728Y-126238282D01*
X169804727Y-126238282D01*
X169765380Y-126292440D01*
X169765376Y-126292446D01*
X169760760Y-126301505D01*
X169712781Y-126352297D01*
X169644959Y-126369087D01*
X169578826Y-126346543D01*
X169539794Y-126301493D01*
X169535051Y-126292184D01*
X169535049Y-126292181D01*
X169535048Y-126292179D01*
X169410109Y-126120213D01*
X169259786Y-125969890D01*
X169087820Y-125844951D01*
X168898414Y-125748444D01*
X168898413Y-125748443D01*
X168898412Y-125748443D01*
X168696243Y-125682754D01*
X168696241Y-125682753D01*
X168696240Y-125682753D01*
X168534957Y-125657208D01*
X168486287Y-125649500D01*
X168273713Y-125649500D01*
X168225042Y-125657208D01*
X168063760Y-125682753D01*
X167861585Y-125748444D01*
X167672179Y-125844951D01*
X167500215Y-125969889D01*
X167386673Y-126083431D01*
X167325350Y-126116915D01*
X167255658Y-126111931D01*
X167199725Y-126070059D01*
X167182810Y-126039082D01*
X167133797Y-125907671D01*
X167133793Y-125907664D01*
X167047547Y-125792455D01*
X167047544Y-125792452D01*
X166932335Y-125706206D01*
X166932328Y-125706202D01*
X166797482Y-125655908D01*
X166797483Y-125655908D01*
X166737883Y-125649501D01*
X166737881Y-125649500D01*
X166737873Y-125649500D01*
X166737864Y-125649500D01*
X164942129Y-125649500D01*
X164942123Y-125649501D01*
X164882516Y-125655908D01*
X164747671Y-125706202D01*
X164747664Y-125706206D01*
X164632455Y-125792452D01*
X164632452Y-125792455D01*
X164546206Y-125907664D01*
X164546202Y-125907671D01*
X164495908Y-126042517D01*
X164489501Y-126102116D01*
X164489500Y-126102135D01*
X157728990Y-126102135D01*
X157681614Y-126067715D01*
X157632160Y-126042517D01*
X157588917Y-126020483D01*
X157538123Y-125972511D01*
X157521328Y-125904690D01*
X157543865Y-125838555D01*
X157588917Y-125799516D01*
X157681610Y-125752287D01*
X157745036Y-125706206D01*
X157847213Y-125631971D01*
X157847215Y-125631968D01*
X157847219Y-125631966D01*
X157991966Y-125487219D01*
X157991968Y-125487215D01*
X157991971Y-125487213D01*
X158044732Y-125414590D01*
X158112287Y-125321610D01*
X158205220Y-125139219D01*
X158268477Y-124944534D01*
X158300500Y-124742352D01*
X158300500Y-124537648D01*
X158268477Y-124335466D01*
X158205220Y-124140781D01*
X158205218Y-124140778D01*
X158205218Y-124140776D01*
X158171503Y-124074607D01*
X158112287Y-123958390D01*
X158104556Y-123947749D01*
X157991971Y-123792786D01*
X157847213Y-123648028D01*
X157681614Y-123527715D01*
X157675006Y-123524348D01*
X157588917Y-123480483D01*
X157538123Y-123432511D01*
X157521328Y-123364690D01*
X157543865Y-123298555D01*
X157588917Y-123259516D01*
X157681610Y-123212287D01*
X157702770Y-123196913D01*
X157847213Y-123091971D01*
X157847215Y-123091968D01*
X157847219Y-123091966D01*
X157991966Y-122947219D01*
X157991968Y-122947215D01*
X157991971Y-122947213D01*
X158044732Y-122874590D01*
X158112287Y-122781610D01*
X158205220Y-122599219D01*
X158268477Y-122404534D01*
X158300500Y-122202352D01*
X158300500Y-121997648D01*
X158268477Y-121795466D01*
X158205220Y-121600781D01*
X158205218Y-121600778D01*
X158205218Y-121600776D01*
X158154265Y-121500776D01*
X158112287Y-121418390D01*
X158104556Y-121407749D01*
X157991971Y-121252786D01*
X157847213Y-121108028D01*
X157681614Y-120987715D01*
X157675006Y-120984348D01*
X157588917Y-120940483D01*
X157538123Y-120892511D01*
X157521328Y-120824690D01*
X157543865Y-120758555D01*
X157588917Y-120719516D01*
X157681610Y-120672287D01*
X157702770Y-120656913D01*
X157847213Y-120551971D01*
X157847215Y-120551968D01*
X157847219Y-120551966D01*
X157991966Y-120407219D01*
X157991968Y-120407215D01*
X157991971Y-120407213D01*
X158044732Y-120334590D01*
X158112287Y-120241610D01*
X158205220Y-120059219D01*
X158268477Y-119864534D01*
X158300500Y-119662352D01*
X158300500Y-119457648D01*
X158268477Y-119255466D01*
X158205220Y-119060781D01*
X158205218Y-119060778D01*
X158205218Y-119060776D01*
X158171503Y-118994607D01*
X158112287Y-118878390D01*
X158104556Y-118867749D01*
X157991971Y-118712786D01*
X157847213Y-118568028D01*
X157681614Y-118447715D01*
X157675006Y-118444348D01*
X157588917Y-118400483D01*
X157538123Y-118352511D01*
X157521328Y-118284690D01*
X157543865Y-118218555D01*
X157588917Y-118179516D01*
X157681610Y-118132287D01*
X157736605Y-118092331D01*
X157847213Y-118011971D01*
X157847215Y-118011968D01*
X157847219Y-118011966D01*
X157991966Y-117867219D01*
X157991968Y-117867215D01*
X157991971Y-117867213D01*
X158068618Y-117761716D01*
X158112287Y-117701610D01*
X158205220Y-117519219D01*
X158268477Y-117324534D01*
X158300500Y-117122352D01*
X158300500Y-116917648D01*
X158268477Y-116715466D01*
X158258211Y-116683872D01*
X158205218Y-116520776D01*
X158171503Y-116454607D01*
X158112287Y-116338390D01*
X158039555Y-116238282D01*
X157991970Y-116172786D01*
X157991967Y-116172782D01*
X157921320Y-116102135D01*
X164489500Y-116102135D01*
X164489500Y-117897870D01*
X164489501Y-117897876D01*
X164495908Y-117957483D01*
X164546202Y-118092328D01*
X164546206Y-118092335D01*
X164632452Y-118207544D01*
X164632455Y-118207547D01*
X164747664Y-118293793D01*
X164747671Y-118293797D01*
X164882517Y-118344091D01*
X164882516Y-118344091D01*
X164889444Y-118344835D01*
X164942127Y-118350500D01*
X166737872Y-118350499D01*
X166797483Y-118344091D01*
X166932331Y-118293796D01*
X167047546Y-118207546D01*
X167133796Y-118092331D01*
X167182810Y-117960916D01*
X167224681Y-117904984D01*
X167290145Y-117880566D01*
X167358418Y-117895417D01*
X167386673Y-117916569D01*
X167500213Y-118030109D01*
X167672179Y-118155048D01*
X167672181Y-118155049D01*
X167672184Y-118155051D01*
X167861588Y-118251557D01*
X168063757Y-118317246D01*
X168273713Y-118350500D01*
X168273714Y-118350500D01*
X168486286Y-118350500D01*
X168486287Y-118350500D01*
X168696243Y-118317246D01*
X168898412Y-118251557D01*
X169087816Y-118155051D01*
X169174138Y-118092335D01*
X169259786Y-118030109D01*
X169259788Y-118030106D01*
X169259792Y-118030104D01*
X169410104Y-117879792D01*
X169410106Y-117879788D01*
X169410109Y-117879786D01*
X169495890Y-117761717D01*
X169535051Y-117707816D01*
X169539793Y-117698508D01*
X169587763Y-117647711D01*
X169655583Y-117630911D01*
X169721719Y-117653445D01*
X169760763Y-117698500D01*
X169765373Y-117707547D01*
X169804728Y-117761716D01*
X170437037Y-117129408D01*
X170454075Y-117192993D01*
X170519901Y-117307007D01*
X170612993Y-117400099D01*
X170727007Y-117465925D01*
X170790590Y-117482962D01*
X170158282Y-118115269D01*
X170158282Y-118115270D01*
X170212449Y-118154624D01*
X170401782Y-118251095D01*
X170603870Y-118316757D01*
X170813754Y-118350000D01*
X171026246Y-118350000D01*
X171236127Y-118316757D01*
X171236130Y-118316757D01*
X171438217Y-118251095D01*
X171627554Y-118154622D01*
X171681716Y-118115270D01*
X171681717Y-118115270D01*
X171049408Y-117482962D01*
X171112993Y-117465925D01*
X171227007Y-117400099D01*
X171320099Y-117307007D01*
X171385925Y-117192993D01*
X171402962Y-117129408D01*
X172035270Y-117761717D01*
X172035270Y-117761716D01*
X172074622Y-117707554D01*
X172171095Y-117518217D01*
X172236757Y-117316130D01*
X172236757Y-117316127D01*
X172270000Y-117106246D01*
X172270000Y-116893753D01*
X172236757Y-116683872D01*
X172236757Y-116683869D01*
X172171095Y-116481782D01*
X172074624Y-116292449D01*
X172035270Y-116238282D01*
X172035269Y-116238282D01*
X171402962Y-116870590D01*
X171385925Y-116807007D01*
X171320099Y-116692993D01*
X171227007Y-116599901D01*
X171112993Y-116534075D01*
X171049409Y-116517037D01*
X171681716Y-115884728D01*
X171627550Y-115845375D01*
X171438217Y-115748904D01*
X171236129Y-115683242D01*
X171026246Y-115650000D01*
X170813754Y-115650000D01*
X170603872Y-115683242D01*
X170603869Y-115683242D01*
X170401782Y-115748904D01*
X170212439Y-115845380D01*
X170158282Y-115884727D01*
X170158282Y-115884728D01*
X170790591Y-116517037D01*
X170727007Y-116534075D01*
X170612993Y-116599901D01*
X170519901Y-116692993D01*
X170454075Y-116807007D01*
X170437037Y-116870591D01*
X169804728Y-116238282D01*
X169804727Y-116238282D01*
X169765380Y-116292440D01*
X169765376Y-116292446D01*
X169760760Y-116301505D01*
X169712781Y-116352297D01*
X169644959Y-116369087D01*
X169578826Y-116346543D01*
X169539794Y-116301493D01*
X169535051Y-116292184D01*
X169535049Y-116292181D01*
X169535048Y-116292179D01*
X169410109Y-116120213D01*
X169259786Y-115969890D01*
X169087820Y-115844951D01*
X168898414Y-115748444D01*
X168898413Y-115748443D01*
X168898412Y-115748443D01*
X168696243Y-115682754D01*
X168696241Y-115682753D01*
X168696240Y-115682753D01*
X168534957Y-115657208D01*
X168486287Y-115649500D01*
X168273713Y-115649500D01*
X168225042Y-115657208D01*
X168063760Y-115682753D01*
X167962672Y-115715598D01*
X167873139Y-115744690D01*
X167861585Y-115748444D01*
X167672179Y-115844951D01*
X167500215Y-115969889D01*
X167386673Y-116083431D01*
X167325350Y-116116915D01*
X167255658Y-116111931D01*
X167199725Y-116070059D01*
X167182810Y-116039082D01*
X167133797Y-115907671D01*
X167133793Y-115907664D01*
X167047547Y-115792455D01*
X167047544Y-115792452D01*
X166932335Y-115706206D01*
X166932328Y-115706202D01*
X166797482Y-115655908D01*
X166797483Y-115655908D01*
X166737883Y-115649501D01*
X166737881Y-115649500D01*
X166737873Y-115649500D01*
X166737864Y-115649500D01*
X164942129Y-115649500D01*
X164942123Y-115649501D01*
X164882516Y-115655908D01*
X164747671Y-115706202D01*
X164747664Y-115706206D01*
X164632455Y-115792452D01*
X164632452Y-115792455D01*
X164546206Y-115907664D01*
X164546202Y-115907671D01*
X164495908Y-116042517D01*
X164489501Y-116102116D01*
X164489500Y-116102135D01*
X157921320Y-116102135D01*
X157847213Y-116028028D01*
X157681614Y-115907715D01*
X157636499Y-115884728D01*
X157588917Y-115860483D01*
X157538123Y-115812511D01*
X157521328Y-115744690D01*
X157543865Y-115678555D01*
X157588917Y-115639516D01*
X157681610Y-115592287D01*
X157702770Y-115576913D01*
X157847213Y-115471971D01*
X157847215Y-115471968D01*
X157847219Y-115471966D01*
X157991966Y-115327219D01*
X157991968Y-115327215D01*
X157991971Y-115327213D01*
X158062408Y-115230263D01*
X158112287Y-115161610D01*
X158205220Y-114979219D01*
X158268477Y-114784534D01*
X158300500Y-114582352D01*
X158300500Y-114377648D01*
X158268477Y-114175466D01*
X158205220Y-113980781D01*
X158205218Y-113980778D01*
X158205218Y-113980776D01*
X158171503Y-113914607D01*
X158112287Y-113798390D01*
X158091468Y-113769735D01*
X157991971Y-113632786D01*
X157847213Y-113488028D01*
X157681614Y-113367715D01*
X157675006Y-113364348D01*
X157588917Y-113320483D01*
X157538123Y-113272511D01*
X157521328Y-113204690D01*
X157543865Y-113138555D01*
X157588917Y-113099516D01*
X157681610Y-113052287D01*
X157773760Y-112985337D01*
X157847213Y-112931971D01*
X157847215Y-112931968D01*
X157847219Y-112931966D01*
X157991966Y-112787219D01*
X157991968Y-112787215D01*
X157991971Y-112787213D01*
X158044732Y-112714590D01*
X158112287Y-112621610D01*
X158205220Y-112439219D01*
X158268477Y-112244534D01*
X158300500Y-112042352D01*
X158300500Y-111837648D01*
X158268477Y-111635466D01*
X158205220Y-111440781D01*
X158205218Y-111440778D01*
X158205218Y-111440776D01*
X158171503Y-111374607D01*
X158112287Y-111258390D01*
X158104556Y-111247749D01*
X157991971Y-111092786D01*
X157847213Y-110948028D01*
X157681614Y-110827715D01*
X157662906Y-110818183D01*
X157588917Y-110780483D01*
X157538123Y-110732511D01*
X157521328Y-110664690D01*
X157543865Y-110598555D01*
X157588917Y-110559516D01*
X157681610Y-110512287D01*
X157765646Y-110451232D01*
X157847213Y-110391971D01*
X157847215Y-110391968D01*
X157847219Y-110391966D01*
X157991966Y-110247219D01*
X157991968Y-110247215D01*
X157991971Y-110247213D01*
X158044732Y-110174590D01*
X158112287Y-110081610D01*
X158205220Y-109899219D01*
X158268477Y-109704534D01*
X158300500Y-109502352D01*
X158300500Y-109297648D01*
X158293200Y-109251557D01*
X158268477Y-109095465D01*
X158224759Y-108960917D01*
X158205220Y-108900781D01*
X158205218Y-108900778D01*
X158205218Y-108900776D01*
X158154124Y-108800500D01*
X158112287Y-108718390D01*
X158104409Y-108707547D01*
X157991971Y-108552786D01*
X157847213Y-108408028D01*
X157681614Y-108287715D01*
X157675006Y-108284348D01*
X157588917Y-108240483D01*
X157538123Y-108192511D01*
X157521328Y-108124690D01*
X157543865Y-108058555D01*
X157588917Y-108019516D01*
X157681610Y-107972287D01*
X157702770Y-107956913D01*
X157847213Y-107851971D01*
X157847215Y-107851968D01*
X157847219Y-107851966D01*
X157991966Y-107707219D01*
X157991968Y-107707215D01*
X157991971Y-107707213D01*
X158069936Y-107599901D01*
X158112287Y-107541610D01*
X158205220Y-107359219D01*
X158268477Y-107164534D01*
X158278360Y-107102135D01*
X164489500Y-107102135D01*
X164489500Y-108897870D01*
X164489501Y-108897876D01*
X164495908Y-108957483D01*
X164546202Y-109092328D01*
X164546206Y-109092335D01*
X164632452Y-109207544D01*
X164632455Y-109207547D01*
X164747664Y-109293793D01*
X164747671Y-109293797D01*
X164882517Y-109344091D01*
X164882516Y-109344091D01*
X164889444Y-109344835D01*
X164942127Y-109350500D01*
X166737872Y-109350499D01*
X166797483Y-109344091D01*
X166932331Y-109293796D01*
X167047546Y-109207546D01*
X167133796Y-109092331D01*
X167182810Y-108960916D01*
X167224681Y-108904984D01*
X167290145Y-108880566D01*
X167358418Y-108895417D01*
X167386673Y-108916569D01*
X167500213Y-109030109D01*
X167672179Y-109155048D01*
X167672181Y-109155049D01*
X167672184Y-109155051D01*
X167861588Y-109251557D01*
X168063757Y-109317246D01*
X168273713Y-109350500D01*
X168273714Y-109350500D01*
X168486286Y-109350500D01*
X168486287Y-109350500D01*
X168696243Y-109317246D01*
X168898412Y-109251557D01*
X169087816Y-109155051D01*
X169160801Y-109102025D01*
X169259786Y-109030109D01*
X169259788Y-109030106D01*
X169259792Y-109030104D01*
X169410104Y-108879792D01*
X169410106Y-108879788D01*
X169410109Y-108879786D01*
X169490063Y-108769737D01*
X169535051Y-108707816D01*
X169539793Y-108698508D01*
X169587763Y-108647711D01*
X169655583Y-108630911D01*
X169721719Y-108653445D01*
X169760763Y-108698500D01*
X169765373Y-108707547D01*
X169804728Y-108761716D01*
X170437037Y-108129408D01*
X170454075Y-108192993D01*
X170519901Y-108307007D01*
X170612993Y-108400099D01*
X170727007Y-108465925D01*
X170790590Y-108482962D01*
X170158282Y-109115269D01*
X170158282Y-109115270D01*
X170212449Y-109154624D01*
X170401782Y-109251095D01*
X170603870Y-109316757D01*
X170813754Y-109350000D01*
X171026246Y-109350000D01*
X171236127Y-109316757D01*
X171236130Y-109316757D01*
X171438217Y-109251095D01*
X171627554Y-109154622D01*
X171681716Y-109115270D01*
X171681717Y-109115270D01*
X171049408Y-108482962D01*
X171112993Y-108465925D01*
X171227007Y-108400099D01*
X171320099Y-108307007D01*
X171385925Y-108192993D01*
X171402962Y-108129408D01*
X172035270Y-108761717D01*
X172035270Y-108761716D01*
X172074622Y-108707554D01*
X172171095Y-108518217D01*
X172236757Y-108316130D01*
X172236757Y-108316127D01*
X172270000Y-108106246D01*
X172270000Y-107893753D01*
X172236757Y-107683872D01*
X172236757Y-107683869D01*
X172171095Y-107481782D01*
X172074624Y-107292449D01*
X172035270Y-107238282D01*
X172035269Y-107238282D01*
X171402962Y-107870590D01*
X171385925Y-107807007D01*
X171320099Y-107692993D01*
X171227007Y-107599901D01*
X171112993Y-107534075D01*
X171049409Y-107517037D01*
X171681716Y-106884728D01*
X171627550Y-106845375D01*
X171438217Y-106748904D01*
X171236129Y-106683242D01*
X171026246Y-106650000D01*
X170813754Y-106650000D01*
X170603872Y-106683242D01*
X170603869Y-106683242D01*
X170401782Y-106748904D01*
X170212439Y-106845380D01*
X170158282Y-106884727D01*
X170158282Y-106884728D01*
X170790591Y-107517037D01*
X170727007Y-107534075D01*
X170612993Y-107599901D01*
X170519901Y-107692993D01*
X170454075Y-107807007D01*
X170437037Y-107870591D01*
X169804728Y-107238282D01*
X169804727Y-107238282D01*
X169765380Y-107292440D01*
X169765376Y-107292446D01*
X169760760Y-107301505D01*
X169712781Y-107352297D01*
X169644959Y-107369087D01*
X169578826Y-107346543D01*
X169539794Y-107301493D01*
X169535051Y-107292184D01*
X169535049Y-107292181D01*
X169535048Y-107292179D01*
X169410109Y-107120213D01*
X169259786Y-106969890D01*
X169087820Y-106844951D01*
X168898414Y-106748444D01*
X168898413Y-106748443D01*
X168898412Y-106748443D01*
X168696243Y-106682754D01*
X168696241Y-106682753D01*
X168696240Y-106682753D01*
X168534957Y-106657208D01*
X168486287Y-106649500D01*
X168273713Y-106649500D01*
X168225042Y-106657208D01*
X168063760Y-106682753D01*
X167861585Y-106748444D01*
X167672179Y-106844951D01*
X167500215Y-106969889D01*
X167386673Y-107083431D01*
X167325350Y-107116915D01*
X167255658Y-107111931D01*
X167199725Y-107070059D01*
X167182810Y-107039082D01*
X167133797Y-106907671D01*
X167133793Y-106907664D01*
X167047547Y-106792455D01*
X167047544Y-106792452D01*
X166932335Y-106706206D01*
X166932328Y-106706202D01*
X166797482Y-106655908D01*
X166797483Y-106655908D01*
X166737883Y-106649501D01*
X166737881Y-106649500D01*
X166737873Y-106649500D01*
X166737864Y-106649500D01*
X164942129Y-106649500D01*
X164942123Y-106649501D01*
X164882516Y-106655908D01*
X164747671Y-106706202D01*
X164747664Y-106706206D01*
X164632455Y-106792452D01*
X164632452Y-106792455D01*
X164546206Y-106907664D01*
X164546202Y-106907671D01*
X164495908Y-107042517D01*
X164489501Y-107102116D01*
X164489500Y-107102135D01*
X158278360Y-107102135D01*
X158278361Y-107102128D01*
X158281960Y-107079408D01*
X158300500Y-106962351D01*
X158300500Y-106757648D01*
X158268477Y-106555465D01*
X158239127Y-106465137D01*
X158205220Y-106360781D01*
X158205218Y-106360778D01*
X158205218Y-106360776D01*
X158171503Y-106294607D01*
X158112287Y-106178390D01*
X158039965Y-106078846D01*
X157991971Y-106012786D01*
X157847213Y-105868028D01*
X157681614Y-105747715D01*
X157675006Y-105744348D01*
X157588917Y-105700483D01*
X157538123Y-105652511D01*
X157521328Y-105584690D01*
X157543865Y-105518555D01*
X157588917Y-105479516D01*
X157681610Y-105432287D01*
X157702770Y-105416913D01*
X157847213Y-105311971D01*
X157847215Y-105311968D01*
X157847219Y-105311966D01*
X157991966Y-105167219D01*
X157991968Y-105167215D01*
X157991971Y-105167213D01*
X158056175Y-105078842D01*
X158112287Y-105001610D01*
X158205220Y-104819219D01*
X158268477Y-104624534D01*
X158300500Y-104422352D01*
X158300500Y-104217648D01*
X158268477Y-104015466D01*
X158253415Y-103969111D01*
X158205218Y-103820776D01*
X158148463Y-103709390D01*
X158112287Y-103638390D01*
X158099942Y-103621398D01*
X157991971Y-103472786D01*
X157847213Y-103328028D01*
X157681614Y-103207715D01*
X157675006Y-103204348D01*
X157588917Y-103160483D01*
X157538123Y-103112511D01*
X157521328Y-103044690D01*
X157543865Y-102978555D01*
X157588917Y-102939516D01*
X157681610Y-102892287D01*
X157702770Y-102876913D01*
X157847213Y-102771971D01*
X157847215Y-102771968D01*
X157847219Y-102771966D01*
X157991966Y-102627219D01*
X157991968Y-102627215D01*
X157991971Y-102627213D01*
X158044732Y-102554590D01*
X158112287Y-102461610D01*
X158205220Y-102279219D01*
X158268477Y-102084534D01*
X158300500Y-101882352D01*
X158300500Y-101677648D01*
X158268477Y-101475466D01*
X158265797Y-101467219D01*
X158218872Y-101322797D01*
X158205220Y-101280781D01*
X158205218Y-101280778D01*
X158205218Y-101280776D01*
X158145648Y-101163865D01*
X158112287Y-101098390D01*
X158050768Y-101013715D01*
X157991971Y-100932786D01*
X157847213Y-100788028D01*
X157681614Y-100667715D01*
X157675006Y-100664348D01*
X157588917Y-100620483D01*
X157538123Y-100572511D01*
X157521328Y-100504690D01*
X157543865Y-100438555D01*
X157588917Y-100399516D01*
X157681610Y-100352287D01*
X157732292Y-100315465D01*
X157847213Y-100231971D01*
X157847215Y-100231968D01*
X157847219Y-100231966D01*
X157991966Y-100087219D01*
X157991968Y-100087215D01*
X157991971Y-100087213D01*
X158044732Y-100014590D01*
X158112287Y-99921610D01*
X158205220Y-99739219D01*
X158268477Y-99544534D01*
X158300500Y-99342352D01*
X158300500Y-99137648D01*
X158268477Y-98935466D01*
X158205220Y-98740781D01*
X158205218Y-98740778D01*
X158205218Y-98740776D01*
X158171503Y-98674607D01*
X158112287Y-98558390D01*
X158104556Y-98547749D01*
X157991971Y-98392786D01*
X157847213Y-98248028D01*
X157681614Y-98127715D01*
X157675006Y-98124348D01*
X157588917Y-98080483D01*
X157538123Y-98032511D01*
X157521328Y-97964690D01*
X157543865Y-97898555D01*
X157588917Y-97859516D01*
X157681610Y-97812287D01*
X157740176Y-97769737D01*
X157847213Y-97691971D01*
X157847215Y-97691968D01*
X157847219Y-97691966D01*
X157991966Y-97547219D01*
X157991968Y-97547215D01*
X157991971Y-97547213D01*
X158044732Y-97474590D01*
X158112287Y-97381610D01*
X158205220Y-97199219D01*
X158268477Y-97004534D01*
X158300500Y-96802352D01*
X158300500Y-96597648D01*
X158280032Y-96468422D01*
X158268477Y-96395465D01*
X158206662Y-96205220D01*
X158205220Y-96200781D01*
X158205218Y-96200778D01*
X158205218Y-96200776D01*
X158160128Y-96112284D01*
X158112287Y-96018390D01*
X158093089Y-95991966D01*
X157991971Y-95852786D01*
X157847213Y-95708028D01*
X157681614Y-95587715D01*
X157675006Y-95584348D01*
X157588917Y-95540483D01*
X157538123Y-95492511D01*
X157521328Y-95424690D01*
X157543865Y-95358555D01*
X157588917Y-95319516D01*
X157681610Y-95272287D01*
X157702770Y-95256913D01*
X157847213Y-95151971D01*
X157847215Y-95151968D01*
X157847219Y-95151966D01*
X157991966Y-95007219D01*
X157991968Y-95007215D01*
X157991971Y-95007213D01*
X158094642Y-94865896D01*
X158112287Y-94841610D01*
X158205220Y-94659219D01*
X158268477Y-94464534D01*
X158300500Y-94262352D01*
X158300500Y-94057648D01*
X158268477Y-93855466D01*
X158265797Y-93847219D01*
X158228205Y-93731522D01*
X158205220Y-93660781D01*
X158205218Y-93660778D01*
X158205218Y-93660776D01*
X158145648Y-93543865D01*
X158112287Y-93478390D01*
X158104556Y-93467749D01*
X157991971Y-93312786D01*
X157847213Y-93168028D01*
X157681614Y-93047715D01*
X157675006Y-93044348D01*
X157588917Y-93000483D01*
X157538123Y-92952511D01*
X157521328Y-92884690D01*
X157543865Y-92818555D01*
X157588917Y-92779516D01*
X157681610Y-92732287D01*
X157732292Y-92695465D01*
X157847213Y-92611971D01*
X157847215Y-92611968D01*
X157847219Y-92611966D01*
X157991966Y-92467219D01*
X157991968Y-92467215D01*
X157991971Y-92467213D01*
X158044732Y-92394590D01*
X158112287Y-92301610D01*
X158205220Y-92119219D01*
X158268477Y-91924534D01*
X158300500Y-91722352D01*
X158300500Y-91517648D01*
X158268477Y-91315466D01*
X158205220Y-91120781D01*
X158205218Y-91120778D01*
X158205218Y-91120776D01*
X158151953Y-91016239D01*
X158112287Y-90938390D01*
X158099764Y-90921153D01*
X157991971Y-90772786D01*
X157847213Y-90628028D01*
X157681614Y-90507715D01*
X157646271Y-90489707D01*
X157588917Y-90460483D01*
X157538123Y-90412511D01*
X157521328Y-90344690D01*
X157543865Y-90278555D01*
X157588917Y-90239516D01*
X157681610Y-90192287D01*
X157718583Y-90165425D01*
X157847213Y-90071971D01*
X157847215Y-90071968D01*
X157847219Y-90071966D01*
X157991966Y-89927219D01*
X157991968Y-89927215D01*
X157991971Y-89927213D01*
X158044732Y-89854590D01*
X158112287Y-89761610D01*
X158205220Y-89579219D01*
X158268477Y-89384534D01*
X158300500Y-89182352D01*
X158300500Y-88977648D01*
X158268477Y-88775466D01*
X158205220Y-88580781D01*
X158205218Y-88580778D01*
X158205218Y-88580776D01*
X158163662Y-88499219D01*
X158112287Y-88398390D01*
X158098324Y-88379172D01*
X157991971Y-88232786D01*
X157847213Y-88088028D01*
X157738448Y-88009007D01*
X157738441Y-88009003D01*
X157681610Y-87967713D01*
X157585494Y-87918739D01*
X157582191Y-87916790D01*
X157577059Y-87911304D01*
X159099500Y-87911304D01*
X159099500Y-94088695D01*
X159134103Y-94262658D01*
X159134106Y-94262667D01*
X159201983Y-94426540D01*
X159201990Y-94426553D01*
X159300535Y-94574034D01*
X159300538Y-94574038D01*
X159425961Y-94699461D01*
X159425965Y-94699464D01*
X159573446Y-94798009D01*
X159573459Y-94798016D01*
X159678714Y-94841613D01*
X159737334Y-94865894D01*
X159737336Y-94865894D01*
X159737341Y-94865896D01*
X159911304Y-94900499D01*
X159911307Y-94900500D01*
X159911309Y-94900500D01*
X160088693Y-94900500D01*
X160088694Y-94900499D01*
X160103026Y-94897648D01*
X163619500Y-94897648D01*
X163619500Y-95102351D01*
X163651522Y-95304534D01*
X163714781Y-95499223D01*
X163807715Y-95681613D01*
X163928028Y-95847213D01*
X164072786Y-95991971D01*
X164227749Y-96104556D01*
X164238390Y-96112287D01*
X164354607Y-96171503D01*
X164420776Y-96205218D01*
X164420778Y-96205218D01*
X164420781Y-96205220D01*
X164525137Y-96239127D01*
X164615465Y-96268477D01*
X164716557Y-96284488D01*
X164817648Y-96300500D01*
X164817649Y-96300500D01*
X165022351Y-96300500D01*
X165022352Y-96300500D01*
X165224534Y-96268477D01*
X165419219Y-96205220D01*
X165601610Y-96112287D01*
X165694590Y-96044732D01*
X165767213Y-95991971D01*
X165767215Y-95991968D01*
X165767219Y-95991966D01*
X165911966Y-95847219D01*
X165911968Y-95847215D01*
X165911971Y-95847213D01*
X165964732Y-95774590D01*
X166032287Y-95681610D01*
X166125220Y-95499219D01*
X166188477Y-95304534D01*
X166220500Y-95102352D01*
X166220500Y-94897648D01*
X173779500Y-94897648D01*
X173779500Y-95102351D01*
X173811522Y-95304534D01*
X173874781Y-95499223D01*
X173967715Y-95681613D01*
X174088028Y-95847213D01*
X174232786Y-95991971D01*
X174387749Y-96104556D01*
X174398390Y-96112287D01*
X174514607Y-96171503D01*
X174580776Y-96205218D01*
X174580778Y-96205218D01*
X174580781Y-96205220D01*
X174685137Y-96239127D01*
X174775465Y-96268477D01*
X174876557Y-96284488D01*
X174977648Y-96300500D01*
X174977649Y-96300500D01*
X175182351Y-96300500D01*
X175182352Y-96300500D01*
X175384534Y-96268477D01*
X175579219Y-96205220D01*
X175761610Y-96112287D01*
X175854590Y-96044732D01*
X175927213Y-95991971D01*
X175927215Y-95991968D01*
X175927219Y-95991966D01*
X176071966Y-95847219D01*
X176071968Y-95847215D01*
X176071971Y-95847213D01*
X176124732Y-95774590D01*
X176192287Y-95681610D01*
X176285220Y-95499219D01*
X176348477Y-95304534D01*
X176380500Y-95102352D01*
X176380500Y-94897648D01*
X176364719Y-94798013D01*
X176348477Y-94695465D01*
X176285218Y-94500776D01*
X176247392Y-94426540D01*
X176192287Y-94318390D01*
X176179289Y-94300500D01*
X176071971Y-94152786D01*
X175927213Y-94008028D01*
X175761613Y-93887715D01*
X175761612Y-93887714D01*
X175761610Y-93887713D01*
X175698320Y-93855465D01*
X175579223Y-93794781D01*
X175384534Y-93731522D01*
X175209995Y-93703878D01*
X175182352Y-93699500D01*
X174977648Y-93699500D01*
X174953329Y-93703351D01*
X174775465Y-93731522D01*
X174580776Y-93794781D01*
X174398386Y-93887715D01*
X174232786Y-94008028D01*
X174088028Y-94152786D01*
X173967715Y-94318386D01*
X173874781Y-94500776D01*
X173811522Y-94695465D01*
X173779500Y-94897648D01*
X166220500Y-94897648D01*
X166204719Y-94798013D01*
X166188477Y-94695465D01*
X166125218Y-94500776D01*
X166087392Y-94426540D01*
X166032287Y-94318390D01*
X166019289Y-94300500D01*
X165911971Y-94152786D01*
X165767213Y-94008028D01*
X165601613Y-93887715D01*
X165601612Y-93887714D01*
X165601610Y-93887713D01*
X165538320Y-93855465D01*
X165419223Y-93794781D01*
X165224534Y-93731522D01*
X165049995Y-93703878D01*
X165022352Y-93699500D01*
X164817648Y-93699500D01*
X164793329Y-93703351D01*
X164615465Y-93731522D01*
X164420776Y-93794781D01*
X164238386Y-93887715D01*
X164072786Y-94008028D01*
X163928028Y-94152786D01*
X163807715Y-94318386D01*
X163714781Y-94500776D01*
X163651522Y-94695465D01*
X163619500Y-94897648D01*
X160103026Y-94897648D01*
X160146682Y-94888964D01*
X160262658Y-94865896D01*
X160262661Y-94865894D01*
X160262666Y-94865894D01*
X160426547Y-94798013D01*
X160433112Y-94793625D01*
X160439028Y-94789674D01*
X160559169Y-94709397D01*
X160574035Y-94699464D01*
X160699464Y-94574035D01*
X160798013Y-94426547D01*
X160865894Y-94262666D01*
X160865957Y-94262352D01*
X160895807Y-94112284D01*
X160900500Y-94088691D01*
X160900500Y-90921153D01*
X167199500Y-90921153D01*
X167199500Y-91078846D01*
X167230261Y-91233489D01*
X167230264Y-91233501D01*
X167290602Y-91379172D01*
X167290609Y-91379185D01*
X167378210Y-91510288D01*
X167378213Y-91510292D01*
X167489707Y-91621786D01*
X167489711Y-91621789D01*
X167620814Y-91709390D01*
X167620827Y-91709397D01*
X167705454Y-91744450D01*
X167766503Y-91769737D01*
X167892402Y-91794780D01*
X167921153Y-91800499D01*
X167921156Y-91800500D01*
X167921158Y-91800500D01*
X168078844Y-91800500D01*
X168078845Y-91800499D01*
X168233497Y-91769737D01*
X168379179Y-91709394D01*
X168510289Y-91621789D01*
X168621789Y-91510289D01*
X168709394Y-91379179D01*
X168769737Y-91233497D01*
X168792159Y-91120776D01*
X168800638Y-91078150D01*
X168833023Y-91016239D01*
X168834515Y-91014719D01*
X169480520Y-90368716D01*
X169559577Y-90231784D01*
X169600501Y-90079057D01*
X169600501Y-89920942D01*
X169600501Y-89913347D01*
X169600500Y-89913329D01*
X169600500Y-87897648D01*
X173779500Y-87897648D01*
X173779500Y-88102351D01*
X173811522Y-88304534D01*
X173874781Y-88499223D01*
X173967715Y-88681613D01*
X174088028Y-88847213D01*
X174232786Y-88991971D01*
X174387749Y-89104556D01*
X174398390Y-89112287D01*
X174514607Y-89171503D01*
X174580776Y-89205218D01*
X174580778Y-89205218D01*
X174580781Y-89205220D01*
X174685137Y-89239127D01*
X174775465Y-89268477D01*
X174876557Y-89284488D01*
X174977648Y-89300500D01*
X174977649Y-89300500D01*
X175182351Y-89300500D01*
X175182352Y-89300500D01*
X175384534Y-89268477D01*
X175579219Y-89205220D01*
X175761610Y-89112287D01*
X175854590Y-89044732D01*
X175927213Y-88991971D01*
X175927215Y-88991968D01*
X175927219Y-88991966D01*
X176071966Y-88847219D01*
X176071968Y-88847215D01*
X176071971Y-88847213D01*
X176124732Y-88774590D01*
X176192287Y-88681610D01*
X176285220Y-88499219D01*
X176348477Y-88304534D01*
X176380500Y-88102352D01*
X176380500Y-87897648D01*
X176366618Y-87810000D01*
X176348477Y-87695465D01*
X176310164Y-87577551D01*
X176285220Y-87500781D01*
X176285218Y-87500778D01*
X176285218Y-87500776D01*
X176227354Y-87387213D01*
X176192287Y-87318390D01*
X176172098Y-87290602D01*
X176071971Y-87152786D01*
X175927213Y-87008028D01*
X175761613Y-86887715D01*
X175761612Y-86887714D01*
X175761610Y-86887713D01*
X175704653Y-86858691D01*
X175579223Y-86794781D01*
X175384534Y-86731522D01*
X175209995Y-86703878D01*
X175182352Y-86699500D01*
X174977648Y-86699500D01*
X174953329Y-86703351D01*
X174775465Y-86731522D01*
X174580776Y-86794781D01*
X174398386Y-86887715D01*
X174232786Y-87008028D01*
X174088028Y-87152786D01*
X173967715Y-87318386D01*
X173874781Y-87500776D01*
X173811522Y-87695465D01*
X173779500Y-87897648D01*
X169600500Y-87897648D01*
X169600500Y-85979765D01*
X169620185Y-85912726D01*
X169621398Y-85910874D01*
X169656470Y-85858386D01*
X169709394Y-85779179D01*
X169769737Y-85633497D01*
X169800500Y-85478842D01*
X169800500Y-85321158D01*
X169800500Y-85321155D01*
X169800499Y-85321153D01*
X169777438Y-85205220D01*
X169769737Y-85166503D01*
X169769735Y-85166498D01*
X169709397Y-85020827D01*
X169709390Y-85020814D01*
X169621789Y-84889711D01*
X169621786Y-84889707D01*
X169510292Y-84778213D01*
X169510288Y-84778210D01*
X169379185Y-84690609D01*
X169379172Y-84690602D01*
X169233501Y-84630264D01*
X169233489Y-84630261D01*
X169078845Y-84599500D01*
X169078842Y-84599500D01*
X168921158Y-84599500D01*
X168921155Y-84599500D01*
X168766510Y-84630261D01*
X168766498Y-84630264D01*
X168620827Y-84690602D01*
X168620814Y-84690609D01*
X168489711Y-84778210D01*
X168489707Y-84778213D01*
X168378213Y-84889707D01*
X168378210Y-84889711D01*
X168290609Y-85020814D01*
X168290602Y-85020827D01*
X168230264Y-85166498D01*
X168230261Y-85166510D01*
X168199500Y-85321153D01*
X168199500Y-85478846D01*
X168230261Y-85633489D01*
X168230264Y-85633501D01*
X168290602Y-85779172D01*
X168290609Y-85779185D01*
X168378602Y-85910874D01*
X168399480Y-85977551D01*
X168399500Y-85979765D01*
X168399500Y-89699902D01*
X168379815Y-89766941D01*
X168363181Y-89787583D01*
X167985339Y-90165425D01*
X167924016Y-90198910D01*
X167921850Y-90199361D01*
X167766508Y-90230261D01*
X167766498Y-90230264D01*
X167620827Y-90290602D01*
X167620814Y-90290609D01*
X167489711Y-90378210D01*
X167489707Y-90378213D01*
X167378213Y-90489707D01*
X167378210Y-90489711D01*
X167290609Y-90620814D01*
X167290602Y-90620827D01*
X167230264Y-90766498D01*
X167230261Y-90766510D01*
X167199500Y-90921153D01*
X160900500Y-90921153D01*
X160900500Y-87911309D01*
X160900500Y-87911306D01*
X160897783Y-87897648D01*
X163619500Y-87897648D01*
X163619500Y-88102351D01*
X163651522Y-88304534D01*
X163714781Y-88499223D01*
X163807715Y-88681613D01*
X163928028Y-88847213D01*
X164072786Y-88991971D01*
X164227749Y-89104556D01*
X164238390Y-89112287D01*
X164354607Y-89171503D01*
X164420776Y-89205218D01*
X164420778Y-89205218D01*
X164420781Y-89205220D01*
X164525137Y-89239127D01*
X164615465Y-89268477D01*
X164716557Y-89284488D01*
X164817648Y-89300500D01*
X164817649Y-89300500D01*
X165022351Y-89300500D01*
X165022352Y-89300500D01*
X165224534Y-89268477D01*
X165419219Y-89205220D01*
X165601610Y-89112287D01*
X165694590Y-89044732D01*
X165767213Y-88991971D01*
X165767215Y-88991968D01*
X165767219Y-88991966D01*
X165911966Y-88847219D01*
X165911968Y-88847215D01*
X165911971Y-88847213D01*
X165964732Y-88774590D01*
X166032287Y-88681610D01*
X166125220Y-88499219D01*
X166188477Y-88304534D01*
X166220500Y-88102352D01*
X166220500Y-87897648D01*
X166206618Y-87810000D01*
X166188477Y-87695465D01*
X166150164Y-87577551D01*
X166125220Y-87500781D01*
X166125218Y-87500778D01*
X166125218Y-87500776D01*
X166067354Y-87387213D01*
X166032287Y-87318390D01*
X166012098Y-87290602D01*
X165911971Y-87152786D01*
X165767213Y-87008028D01*
X165601613Y-86887715D01*
X165601612Y-86887714D01*
X165601610Y-86887713D01*
X165544653Y-86858691D01*
X165419223Y-86794781D01*
X165224534Y-86731522D01*
X165049995Y-86703878D01*
X165022352Y-86699500D01*
X164817648Y-86699500D01*
X164793329Y-86703351D01*
X164615465Y-86731522D01*
X164420776Y-86794781D01*
X164238386Y-86887715D01*
X164072786Y-87008028D01*
X163928028Y-87152786D01*
X163807715Y-87318386D01*
X163714781Y-87500776D01*
X163651522Y-87695465D01*
X163619500Y-87897648D01*
X160897783Y-87897648D01*
X160865896Y-87737341D01*
X160865893Y-87737332D01*
X160863858Y-87732420D01*
X160817636Y-87620827D01*
X160798016Y-87573459D01*
X160798009Y-87573446D01*
X160699464Y-87425965D01*
X160699461Y-87425961D01*
X160574038Y-87300538D01*
X160574034Y-87300535D01*
X160426553Y-87201990D01*
X160426540Y-87201983D01*
X160262667Y-87134106D01*
X160262658Y-87134103D01*
X160088694Y-87099500D01*
X160088691Y-87099500D01*
X159911309Y-87099500D01*
X159911306Y-87099500D01*
X159737341Y-87134103D01*
X159737332Y-87134106D01*
X159573459Y-87201983D01*
X159573446Y-87201990D01*
X159425965Y-87300535D01*
X159425961Y-87300538D01*
X159300538Y-87425961D01*
X159300535Y-87425965D01*
X159201990Y-87573446D01*
X159201983Y-87573459D01*
X159134106Y-87737332D01*
X159134103Y-87737341D01*
X159099500Y-87911304D01*
X157577059Y-87911304D01*
X157560846Y-87893972D01*
X157538123Y-87872511D01*
X157537169Y-87868660D01*
X157534460Y-87865764D01*
X157528839Y-87835023D01*
X157521328Y-87804690D01*
X157522607Y-87800935D01*
X157521894Y-87797034D01*
X157533785Y-87768132D01*
X157543865Y-87738555D01*
X157547114Y-87735739D01*
X157548480Y-87732420D01*
X157561138Y-87723586D01*
X157588917Y-87699516D01*
X157681610Y-87652287D01*
X157781429Y-87579765D01*
X157847213Y-87531971D01*
X157847215Y-87531968D01*
X157847219Y-87531966D01*
X157991966Y-87387219D01*
X157991968Y-87387215D01*
X157991971Y-87387213D01*
X158054945Y-87300535D01*
X158112287Y-87221610D01*
X158205220Y-87039219D01*
X158268477Y-86844534D01*
X158300500Y-86642352D01*
X158300500Y-86437648D01*
X158277211Y-86290609D01*
X158268477Y-86235465D01*
X158205218Y-86040776D01*
X158149578Y-85931578D01*
X158112287Y-85858390D01*
X158054742Y-85779185D01*
X157991971Y-85692786D01*
X157847213Y-85548028D01*
X157681614Y-85427715D01*
X157675006Y-85424348D01*
X157588917Y-85380483D01*
X157538123Y-85332511D01*
X157521328Y-85264690D01*
X157543865Y-85198555D01*
X157588917Y-85159516D01*
X157681610Y-85112287D01*
X157702770Y-85096913D01*
X157847213Y-84991971D01*
X157847215Y-84991968D01*
X157847219Y-84991966D01*
X157991966Y-84847219D01*
X157991968Y-84847215D01*
X157991971Y-84847213D01*
X158048259Y-84769738D01*
X158112287Y-84681610D01*
X158205220Y-84499219D01*
X158268477Y-84304534D01*
X158300500Y-84102352D01*
X158300500Y-83897648D01*
X158268477Y-83695465D01*
X158205218Y-83500776D01*
X158142767Y-83378211D01*
X158112287Y-83318390D01*
X158092098Y-83290602D01*
X157991971Y-83152786D01*
X157847213Y-83008028D01*
X157681614Y-82887715D01*
X157675006Y-82884348D01*
X157588917Y-82840483D01*
X157538123Y-82792511D01*
X157521328Y-82724690D01*
X157543865Y-82658555D01*
X157588917Y-82619516D01*
X157681610Y-82572287D01*
X157702770Y-82556913D01*
X157847213Y-82451971D01*
X157847215Y-82451968D01*
X157847219Y-82451966D01*
X157991966Y-82307219D01*
X157991968Y-82307215D01*
X157991971Y-82307213D01*
X158045534Y-82233489D01*
X158112287Y-82141610D01*
X158205220Y-81959219D01*
X158268477Y-81764534D01*
X158300500Y-81562352D01*
X158300500Y-81357648D01*
X158280324Y-81230261D01*
X158268477Y-81155465D01*
X158238245Y-81062420D01*
X158205220Y-80960781D01*
X158205218Y-80960778D01*
X158205218Y-80960776D01*
X158171503Y-80894607D01*
X158112287Y-80778390D01*
X158092579Y-80751264D01*
X157991971Y-80612786D01*
X157847213Y-80468028D01*
X157681614Y-80347715D01*
X157642825Y-80327951D01*
X157588917Y-80300483D01*
X157538123Y-80252511D01*
X157521328Y-80184690D01*
X157543865Y-80118555D01*
X157588917Y-80079516D01*
X157681610Y-80032287D01*
X157702770Y-80016913D01*
X157847213Y-79911971D01*
X157847215Y-79911968D01*
X157847219Y-79911966D01*
X157991966Y-79767219D01*
X157991968Y-79767215D01*
X157991971Y-79767213D01*
X158044732Y-79694590D01*
X158112287Y-79601610D01*
X158205220Y-79419219D01*
X158268477Y-79224534D01*
X158295783Y-79052135D01*
X168059500Y-79052135D01*
X168059500Y-80947870D01*
X168059501Y-80947876D01*
X168065908Y-81007483D01*
X168116202Y-81142328D01*
X168116206Y-81142335D01*
X168202452Y-81257544D01*
X168202455Y-81257547D01*
X168317664Y-81343793D01*
X168317671Y-81343797D01*
X168452517Y-81394091D01*
X168452516Y-81394091D01*
X168459444Y-81394835D01*
X168512127Y-81400500D01*
X170407872Y-81400499D01*
X170467483Y-81394091D01*
X170602331Y-81343796D01*
X170717546Y-81257546D01*
X170803796Y-81142331D01*
X170831429Y-81068243D01*
X170833601Y-81062420D01*
X170875471Y-81006486D01*
X170940936Y-80982068D01*
X171009209Y-80996919D01*
X171037464Y-81018071D01*
X171087636Y-81068243D01*
X171087641Y-81068247D01*
X171243192Y-81181260D01*
X171265978Y-81197815D01*
X171394375Y-81263237D01*
X171462393Y-81297895D01*
X171462396Y-81297896D01*
X171567221Y-81331955D01*
X171672049Y-81366015D01*
X171889778Y-81400500D01*
X171889779Y-81400500D01*
X172110221Y-81400500D01*
X172110222Y-81400500D01*
X172327951Y-81366015D01*
X172537606Y-81297895D01*
X172734022Y-81197815D01*
X172912365Y-81068242D01*
X173068242Y-80912365D01*
X173197815Y-80734022D01*
X173297895Y-80537606D01*
X173366015Y-80327951D01*
X173400500Y-80110222D01*
X173400500Y-79889778D01*
X173366015Y-79672049D01*
X173297895Y-79462394D01*
X173297895Y-79462393D01*
X173263237Y-79394375D01*
X173197815Y-79265978D01*
X173139501Y-79185715D01*
X173068247Y-79087641D01*
X173068243Y-79087636D01*
X172912363Y-78931756D01*
X172912358Y-78931752D01*
X172734025Y-78802187D01*
X172734024Y-78802186D01*
X172734022Y-78802185D01*
X172616791Y-78742452D01*
X172537606Y-78702104D01*
X172537603Y-78702103D01*
X172327952Y-78633985D01*
X172211021Y-78615465D01*
X172110222Y-78599500D01*
X171889778Y-78599500D01*
X171817201Y-78610995D01*
X171672047Y-78633985D01*
X171462396Y-78702103D01*
X171462393Y-78702104D01*
X171265974Y-78802187D01*
X171087641Y-78931752D01*
X171087636Y-78931756D01*
X171037463Y-78981929D01*
X170976140Y-79015413D01*
X170906448Y-79010428D01*
X170850515Y-78968557D01*
X170833601Y-78937580D01*
X170803797Y-78857671D01*
X170803793Y-78857664D01*
X170717547Y-78742455D01*
X170717544Y-78742452D01*
X170602335Y-78656206D01*
X170602328Y-78656202D01*
X170467482Y-78605908D01*
X170467483Y-78605908D01*
X170407883Y-78599501D01*
X170407881Y-78599500D01*
X170407873Y-78599500D01*
X170407864Y-78599500D01*
X168512129Y-78599500D01*
X168512123Y-78599501D01*
X168452516Y-78605908D01*
X168317671Y-78656202D01*
X168317664Y-78656206D01*
X168202455Y-78742452D01*
X168202452Y-78742455D01*
X168116206Y-78857664D01*
X168116202Y-78857671D01*
X168065908Y-78992517D01*
X168059501Y-79052116D01*
X168059500Y-79052135D01*
X158295783Y-79052135D01*
X158300500Y-79022352D01*
X158300500Y-78817648D01*
X158288590Y-78742452D01*
X158268477Y-78615465D01*
X158205218Y-78420776D01*
X158171503Y-78354607D01*
X158112287Y-78238390D01*
X158104556Y-78227749D01*
X157991971Y-78072786D01*
X157847213Y-77928028D01*
X157681614Y-77807715D01*
X157667452Y-77800499D01*
X157588917Y-77760483D01*
X157538123Y-77712511D01*
X157521328Y-77644690D01*
X157543865Y-77578555D01*
X157588917Y-77539516D01*
X157681610Y-77492287D01*
X157702770Y-77476913D01*
X157847213Y-77371971D01*
X157847215Y-77371968D01*
X157847219Y-77371966D01*
X157991966Y-77227219D01*
X157991968Y-77227215D01*
X157991971Y-77227213D01*
X158099767Y-77078842D01*
X158112287Y-77061610D01*
X158205220Y-76879219D01*
X158268477Y-76684534D01*
X158300500Y-76482352D01*
X158300500Y-76277648D01*
X158268477Y-76075466D01*
X158205220Y-75880781D01*
X158205218Y-75880778D01*
X158205218Y-75880776D01*
X158171503Y-75814607D01*
X158112287Y-75698390D01*
X158104556Y-75687749D01*
X157991971Y-75532786D01*
X157847213Y-75388028D01*
X157681614Y-75267715D01*
X157675006Y-75264348D01*
X157588917Y-75220483D01*
X157538123Y-75172511D01*
X157521328Y-75104690D01*
X157543865Y-75038555D01*
X157588917Y-74999516D01*
X157681610Y-74952287D01*
X157702770Y-74936913D01*
X157847213Y-74831971D01*
X157847215Y-74831968D01*
X157847219Y-74831966D01*
X157991966Y-74687219D01*
X157991968Y-74687215D01*
X157991971Y-74687213D01*
X158044732Y-74614590D01*
X158112287Y-74521610D01*
X158205220Y-74339219D01*
X158268477Y-74144534D01*
X158300500Y-73942352D01*
X158300500Y-73737648D01*
X158277498Y-73592420D01*
X158268477Y-73535465D01*
X158238224Y-73442358D01*
X158205220Y-73340781D01*
X158205218Y-73340778D01*
X158205218Y-73340776D01*
X158166109Y-73264022D01*
X158112287Y-73158390D01*
X158104556Y-73147749D01*
X157991971Y-72992786D01*
X157847213Y-72848028D01*
X157681614Y-72727715D01*
X157675006Y-72724348D01*
X157588917Y-72680483D01*
X157538123Y-72632511D01*
X157521328Y-72564690D01*
X157543865Y-72498555D01*
X157588917Y-72459516D01*
X157681610Y-72412287D01*
X157810482Y-72318657D01*
X157847213Y-72291971D01*
X157847215Y-72291968D01*
X157847219Y-72291966D01*
X157991966Y-72147219D01*
X157991968Y-72147215D01*
X157991971Y-72147213D01*
X158096892Y-72002799D01*
X158112287Y-71981610D01*
X158205220Y-71799219D01*
X158268477Y-71604534D01*
X158272025Y-71582135D01*
X168059500Y-71582135D01*
X168059500Y-73477870D01*
X168059501Y-73477876D01*
X168065908Y-73537483D01*
X168116202Y-73672328D01*
X168116206Y-73672335D01*
X168202452Y-73787544D01*
X168202455Y-73787547D01*
X168317664Y-73873793D01*
X168317671Y-73873797D01*
X168452517Y-73924091D01*
X168452516Y-73924091D01*
X168459444Y-73924835D01*
X168512127Y-73930500D01*
X170407872Y-73930499D01*
X170467483Y-73924091D01*
X170602331Y-73873796D01*
X170717546Y-73787546D01*
X170803796Y-73672331D01*
X170831429Y-73598243D01*
X170833601Y-73592420D01*
X170875471Y-73536486D01*
X170940936Y-73512068D01*
X171009209Y-73526919D01*
X171037464Y-73548071D01*
X171087636Y-73598243D01*
X171087641Y-73598247D01*
X171189603Y-73672326D01*
X171265978Y-73727815D01*
X171394375Y-73793237D01*
X171462393Y-73827895D01*
X171462396Y-73827896D01*
X171567221Y-73861955D01*
X171672049Y-73896015D01*
X171889778Y-73930500D01*
X171889779Y-73930500D01*
X172110221Y-73930500D01*
X172110222Y-73930500D01*
X172327951Y-73896015D01*
X172537606Y-73827895D01*
X172734022Y-73727815D01*
X172912365Y-73598242D01*
X173068242Y-73442365D01*
X173197815Y-73264022D01*
X173297895Y-73067606D01*
X173366015Y-72857951D01*
X173400500Y-72640222D01*
X173400500Y-72419778D01*
X173366015Y-72202049D01*
X173301275Y-72002796D01*
X173297896Y-71992396D01*
X173297895Y-71992393D01*
X173263237Y-71924375D01*
X173197815Y-71795978D01*
X173139501Y-71715715D01*
X173068247Y-71617641D01*
X173068243Y-71617636D01*
X172912363Y-71461756D01*
X172912358Y-71461752D01*
X172734025Y-71332187D01*
X172734024Y-71332186D01*
X172734022Y-71332185D01*
X172616791Y-71272452D01*
X172537606Y-71232104D01*
X172537603Y-71232103D01*
X172327952Y-71163985D01*
X172219086Y-71146742D01*
X172110222Y-71129500D01*
X171889778Y-71129500D01*
X171817201Y-71140995D01*
X171672047Y-71163985D01*
X171462396Y-71232103D01*
X171462393Y-71232104D01*
X171265974Y-71332187D01*
X171087641Y-71461752D01*
X171087636Y-71461756D01*
X171037463Y-71511929D01*
X170976140Y-71545413D01*
X170906448Y-71540428D01*
X170850515Y-71498557D01*
X170833601Y-71467580D01*
X170803797Y-71387671D01*
X170803793Y-71387664D01*
X170717547Y-71272455D01*
X170717544Y-71272452D01*
X170602335Y-71186206D01*
X170602328Y-71186202D01*
X170467482Y-71135908D01*
X170467483Y-71135908D01*
X170407883Y-71129501D01*
X170407881Y-71129500D01*
X170407873Y-71129500D01*
X170407864Y-71129500D01*
X168512129Y-71129500D01*
X168512123Y-71129501D01*
X168452516Y-71135908D01*
X168317671Y-71186202D01*
X168317664Y-71186206D01*
X168202455Y-71272452D01*
X168202452Y-71272455D01*
X168116206Y-71387664D01*
X168116202Y-71387671D01*
X168065908Y-71522517D01*
X168059501Y-71582116D01*
X168059500Y-71582135D01*
X158272025Y-71582135D01*
X158300500Y-71402352D01*
X158300500Y-71197648D01*
X158268477Y-70995466D01*
X158205220Y-70800781D01*
X158205218Y-70800778D01*
X158205218Y-70800776D01*
X158153865Y-70699991D01*
X158112287Y-70618390D01*
X158096892Y-70597200D01*
X157991971Y-70452786D01*
X157847213Y-70308028D01*
X157681613Y-70187715D01*
X157681612Y-70187714D01*
X157681610Y-70187713D01*
X157621898Y-70157288D01*
X157499223Y-70094781D01*
X157304534Y-70031522D01*
X157129995Y-70003878D01*
X157102352Y-69999500D01*
X156897648Y-69999500D01*
X156873329Y-70003351D01*
X156695465Y-70031522D01*
X156500776Y-70094781D01*
X156318386Y-70187715D01*
X156152786Y-70308028D01*
X156008028Y-70452786D01*
X155887715Y-70618386D01*
X155794781Y-70800776D01*
X155731522Y-70995465D01*
X155699500Y-71197648D01*
X143060499Y-71197648D01*
X143060499Y-70699992D01*
X143060176Y-70696834D01*
X143049999Y-70597203D01*
X143049998Y-70597200D01*
X142994814Y-70430666D01*
X142902712Y-70281344D01*
X142778656Y-70157288D01*
X142629334Y-70065186D01*
X142462797Y-70010001D01*
X142462795Y-70010000D01*
X142360010Y-69999500D01*
X141159998Y-69999500D01*
X141159981Y-69999501D01*
X141057203Y-70010000D01*
X141057200Y-70010001D01*
X140890668Y-70065185D01*
X140890663Y-70065187D01*
X140741342Y-70157289D01*
X140617289Y-70281342D01*
X140525187Y-70430663D01*
X140525186Y-70430666D01*
X140470001Y-70597203D01*
X140470001Y-70597204D01*
X140470000Y-70597204D01*
X140459500Y-70699983D01*
X139350500Y-70699983D01*
X139350499Y-69999501D01*
X139350499Y-69102129D01*
X139350498Y-69102123D01*
X139350497Y-69102116D01*
X139344091Y-69042517D01*
X139293796Y-68907669D01*
X139293795Y-68907668D01*
X139293793Y-68907664D01*
X139207547Y-68792455D01*
X139207544Y-68792452D01*
X139092335Y-68706206D01*
X139092328Y-68706202D01*
X138957482Y-68655908D01*
X138957483Y-68655908D01*
X138897883Y-68649501D01*
X138897881Y-68649500D01*
X138897873Y-68649500D01*
X138897864Y-68649500D01*
X137102129Y-68649500D01*
X137102123Y-68649501D01*
X137042516Y-68655908D01*
X136907671Y-68706202D01*
X136907664Y-68706206D01*
X136792455Y-68792452D01*
X136792452Y-68792455D01*
X136706206Y-68907664D01*
X136706202Y-68907671D01*
X136655908Y-69042517D01*
X136649501Y-69102116D01*
X136649501Y-69102123D01*
X136649500Y-69102135D01*
X114500500Y-69102135D01*
X114500500Y-67624500D01*
X114520185Y-67557461D01*
X114572989Y-67511706D01*
X114624500Y-67500500D01*
X177375500Y-67500500D01*
X177442539Y-67520185D01*
G37*
%TD.AperFunction*%
%TD*%
M02*
