%TF.GenerationSoftware,KiCad,Pcbnew,9.0.6*%
%TF.CreationDate,2025-12-09T12:16:43+01:00*%
%TF.ProjectId,PCB Schematic Eclipse 1,50434220-5363-4686-956d-617469632045,rev?*%
%TF.SameCoordinates,Original*%
%TF.FileFunction,Legend,Top*%
%TF.FilePolarity,Positive*%
%FSLAX46Y46*%
G04 Gerber Fmt 4.6, Leading zero omitted, Abs format (unit mm)*
G04 Created by KiCad (PCBNEW 9.0.6) date 2025-12-09 12:16:43*
%MOMM*%
%LPD*%
G01*
G04 APERTURE LIST*
%ADD10C,0.150000*%
%ADD11C,0.120000*%
G04 APERTURE END LIST*
D10*
X162994819Y-136333333D02*
X163709104Y-136333333D01*
X163709104Y-136333333D02*
X163851961Y-136380952D01*
X163851961Y-136380952D02*
X163947200Y-136476190D01*
X163947200Y-136476190D02*
X163994819Y-136619047D01*
X163994819Y-136619047D02*
X163994819Y-136714285D01*
X163994819Y-135333333D02*
X163994819Y-135904761D01*
X163994819Y-135619047D02*
X162994819Y-135619047D01*
X162994819Y-135619047D02*
X163137676Y-135714285D01*
X163137676Y-135714285D02*
X163232914Y-135809523D01*
X163232914Y-135809523D02*
X163280533Y-135904761D01*
X126126666Y-132134819D02*
X126126666Y-132849104D01*
X126126666Y-132849104D02*
X126079047Y-132991961D01*
X126079047Y-132991961D02*
X125983809Y-133087200D01*
X125983809Y-133087200D02*
X125840952Y-133134819D01*
X125840952Y-133134819D02*
X125745714Y-133134819D01*
X127079047Y-132134819D02*
X126602857Y-132134819D01*
X126602857Y-132134819D02*
X126555238Y-132611009D01*
X126555238Y-132611009D02*
X126602857Y-132563390D01*
X126602857Y-132563390D02*
X126698095Y-132515771D01*
X126698095Y-132515771D02*
X126936190Y-132515771D01*
X126936190Y-132515771D02*
X127031428Y-132563390D01*
X127031428Y-132563390D02*
X127079047Y-132611009D01*
X127079047Y-132611009D02*
X127126666Y-132706247D01*
X127126666Y-132706247D02*
X127126666Y-132944342D01*
X127126666Y-132944342D02*
X127079047Y-133039580D01*
X127079047Y-133039580D02*
X127031428Y-133087200D01*
X127031428Y-133087200D02*
X126936190Y-133134819D01*
X126936190Y-133134819D02*
X126698095Y-133134819D01*
X126698095Y-133134819D02*
X126602857Y-133087200D01*
X126602857Y-133087200D02*
X126555238Y-133039580D01*
X136666666Y-133994819D02*
X136666666Y-134709104D01*
X136666666Y-134709104D02*
X136619047Y-134851961D01*
X136619047Y-134851961D02*
X136523809Y-134947200D01*
X136523809Y-134947200D02*
X136380952Y-134994819D01*
X136380952Y-134994819D02*
X136285714Y-134994819D01*
X137571428Y-133994819D02*
X137380952Y-133994819D01*
X137380952Y-133994819D02*
X137285714Y-134042438D01*
X137285714Y-134042438D02*
X137238095Y-134090057D01*
X137238095Y-134090057D02*
X137142857Y-134232914D01*
X137142857Y-134232914D02*
X137095238Y-134423390D01*
X137095238Y-134423390D02*
X137095238Y-134804342D01*
X137095238Y-134804342D02*
X137142857Y-134899580D01*
X137142857Y-134899580D02*
X137190476Y-134947200D01*
X137190476Y-134947200D02*
X137285714Y-134994819D01*
X137285714Y-134994819D02*
X137476190Y-134994819D01*
X137476190Y-134994819D02*
X137571428Y-134947200D01*
X137571428Y-134947200D02*
X137619047Y-134899580D01*
X137619047Y-134899580D02*
X137666666Y-134804342D01*
X137666666Y-134804342D02*
X137666666Y-134566247D01*
X137666666Y-134566247D02*
X137619047Y-134471009D01*
X137619047Y-134471009D02*
X137571428Y-134423390D01*
X137571428Y-134423390D02*
X137476190Y-134375771D01*
X137476190Y-134375771D02*
X137285714Y-134375771D01*
X137285714Y-134375771D02*
X137190476Y-134423390D01*
X137190476Y-134423390D02*
X137142857Y-134471009D01*
X137142857Y-134471009D02*
X137095238Y-134566247D01*
X125833333Y-87679580D02*
X125785714Y-87727200D01*
X125785714Y-87727200D02*
X125642857Y-87774819D01*
X125642857Y-87774819D02*
X125547619Y-87774819D01*
X125547619Y-87774819D02*
X125404762Y-87727200D01*
X125404762Y-87727200D02*
X125309524Y-87631961D01*
X125309524Y-87631961D02*
X125261905Y-87536723D01*
X125261905Y-87536723D02*
X125214286Y-87346247D01*
X125214286Y-87346247D02*
X125214286Y-87203390D01*
X125214286Y-87203390D02*
X125261905Y-87012914D01*
X125261905Y-87012914D02*
X125309524Y-86917676D01*
X125309524Y-86917676D02*
X125404762Y-86822438D01*
X125404762Y-86822438D02*
X125547619Y-86774819D01*
X125547619Y-86774819D02*
X125642857Y-86774819D01*
X125642857Y-86774819D02*
X125785714Y-86822438D01*
X125785714Y-86822438D02*
X125833333Y-86870057D01*
X126738095Y-86774819D02*
X126261905Y-86774819D01*
X126261905Y-86774819D02*
X126214286Y-87251009D01*
X126214286Y-87251009D02*
X126261905Y-87203390D01*
X126261905Y-87203390D02*
X126357143Y-87155771D01*
X126357143Y-87155771D02*
X126595238Y-87155771D01*
X126595238Y-87155771D02*
X126690476Y-87203390D01*
X126690476Y-87203390D02*
X126738095Y-87251009D01*
X126738095Y-87251009D02*
X126785714Y-87346247D01*
X126785714Y-87346247D02*
X126785714Y-87584342D01*
X126785714Y-87584342D02*
X126738095Y-87679580D01*
X126738095Y-87679580D02*
X126690476Y-87727200D01*
X126690476Y-87727200D02*
X126595238Y-87774819D01*
X126595238Y-87774819D02*
X126357143Y-87774819D01*
X126357143Y-87774819D02*
X126261905Y-87727200D01*
X126261905Y-87727200D02*
X126214286Y-87679580D01*
X141679580Y-139129166D02*
X141727200Y-139176785D01*
X141727200Y-139176785D02*
X141774819Y-139319642D01*
X141774819Y-139319642D02*
X141774819Y-139414880D01*
X141774819Y-139414880D02*
X141727200Y-139557737D01*
X141727200Y-139557737D02*
X141631961Y-139652975D01*
X141631961Y-139652975D02*
X141536723Y-139700594D01*
X141536723Y-139700594D02*
X141346247Y-139748213D01*
X141346247Y-139748213D02*
X141203390Y-139748213D01*
X141203390Y-139748213D02*
X141012914Y-139700594D01*
X141012914Y-139700594D02*
X140917676Y-139652975D01*
X140917676Y-139652975D02*
X140822438Y-139557737D01*
X140822438Y-139557737D02*
X140774819Y-139414880D01*
X140774819Y-139414880D02*
X140774819Y-139319642D01*
X140774819Y-139319642D02*
X140822438Y-139176785D01*
X140822438Y-139176785D02*
X140870057Y-139129166D01*
X141774819Y-138176785D02*
X141774819Y-138748213D01*
X141774819Y-138462499D02*
X140774819Y-138462499D01*
X140774819Y-138462499D02*
X140917676Y-138557737D01*
X140917676Y-138557737D02*
X141012914Y-138652975D01*
X141012914Y-138652975D02*
X141060533Y-138748213D01*
X137833333Y-117679580D02*
X137785714Y-117727200D01*
X137785714Y-117727200D02*
X137642857Y-117774819D01*
X137642857Y-117774819D02*
X137547619Y-117774819D01*
X137547619Y-117774819D02*
X137404762Y-117727200D01*
X137404762Y-117727200D02*
X137309524Y-117631961D01*
X137309524Y-117631961D02*
X137261905Y-117536723D01*
X137261905Y-117536723D02*
X137214286Y-117346247D01*
X137214286Y-117346247D02*
X137214286Y-117203390D01*
X137214286Y-117203390D02*
X137261905Y-117012914D01*
X137261905Y-117012914D02*
X137309524Y-116917676D01*
X137309524Y-116917676D02*
X137404762Y-116822438D01*
X137404762Y-116822438D02*
X137547619Y-116774819D01*
X137547619Y-116774819D02*
X137642857Y-116774819D01*
X137642857Y-116774819D02*
X137785714Y-116822438D01*
X137785714Y-116822438D02*
X137833333Y-116870057D01*
X138214286Y-116870057D02*
X138261905Y-116822438D01*
X138261905Y-116822438D02*
X138357143Y-116774819D01*
X138357143Y-116774819D02*
X138595238Y-116774819D01*
X138595238Y-116774819D02*
X138690476Y-116822438D01*
X138690476Y-116822438D02*
X138738095Y-116870057D01*
X138738095Y-116870057D02*
X138785714Y-116965295D01*
X138785714Y-116965295D02*
X138785714Y-117060533D01*
X138785714Y-117060533D02*
X138738095Y-117203390D01*
X138738095Y-117203390D02*
X138166667Y-117774819D01*
X138166667Y-117774819D02*
X138785714Y-117774819D01*
X154679580Y-139129166D02*
X154727200Y-139176785D01*
X154727200Y-139176785D02*
X154774819Y-139319642D01*
X154774819Y-139319642D02*
X154774819Y-139414880D01*
X154774819Y-139414880D02*
X154727200Y-139557737D01*
X154727200Y-139557737D02*
X154631961Y-139652975D01*
X154631961Y-139652975D02*
X154536723Y-139700594D01*
X154536723Y-139700594D02*
X154346247Y-139748213D01*
X154346247Y-139748213D02*
X154203390Y-139748213D01*
X154203390Y-139748213D02*
X154012914Y-139700594D01*
X154012914Y-139700594D02*
X153917676Y-139652975D01*
X153917676Y-139652975D02*
X153822438Y-139557737D01*
X153822438Y-139557737D02*
X153774819Y-139414880D01*
X153774819Y-139414880D02*
X153774819Y-139319642D01*
X153774819Y-139319642D02*
X153822438Y-139176785D01*
X153822438Y-139176785D02*
X153870057Y-139129166D01*
X154108152Y-138272023D02*
X154774819Y-138272023D01*
X153727200Y-138510118D02*
X154441485Y-138748213D01*
X154441485Y-138748213D02*
X154441485Y-138129166D01*
X160833333Y-72679580D02*
X160785714Y-72727200D01*
X160785714Y-72727200D02*
X160642857Y-72774819D01*
X160642857Y-72774819D02*
X160547619Y-72774819D01*
X160547619Y-72774819D02*
X160404762Y-72727200D01*
X160404762Y-72727200D02*
X160309524Y-72631961D01*
X160309524Y-72631961D02*
X160261905Y-72536723D01*
X160261905Y-72536723D02*
X160214286Y-72346247D01*
X160214286Y-72346247D02*
X160214286Y-72203390D01*
X160214286Y-72203390D02*
X160261905Y-72012914D01*
X160261905Y-72012914D02*
X160309524Y-71917676D01*
X160309524Y-71917676D02*
X160404762Y-71822438D01*
X160404762Y-71822438D02*
X160547619Y-71774819D01*
X160547619Y-71774819D02*
X160642857Y-71774819D01*
X160642857Y-71774819D02*
X160785714Y-71822438D01*
X160785714Y-71822438D02*
X160833333Y-71870057D01*
X161690476Y-71774819D02*
X161500000Y-71774819D01*
X161500000Y-71774819D02*
X161404762Y-71822438D01*
X161404762Y-71822438D02*
X161357143Y-71870057D01*
X161357143Y-71870057D02*
X161261905Y-72012914D01*
X161261905Y-72012914D02*
X161214286Y-72203390D01*
X161214286Y-72203390D02*
X161214286Y-72584342D01*
X161214286Y-72584342D02*
X161261905Y-72679580D01*
X161261905Y-72679580D02*
X161309524Y-72727200D01*
X161309524Y-72727200D02*
X161404762Y-72774819D01*
X161404762Y-72774819D02*
X161595238Y-72774819D01*
X161595238Y-72774819D02*
X161690476Y-72727200D01*
X161690476Y-72727200D02*
X161738095Y-72679580D01*
X161738095Y-72679580D02*
X161785714Y-72584342D01*
X161785714Y-72584342D02*
X161785714Y-72346247D01*
X161785714Y-72346247D02*
X161738095Y-72251009D01*
X161738095Y-72251009D02*
X161690476Y-72203390D01*
X161690476Y-72203390D02*
X161595238Y-72155771D01*
X161595238Y-72155771D02*
X161404762Y-72155771D01*
X161404762Y-72155771D02*
X161309524Y-72203390D01*
X161309524Y-72203390D02*
X161261905Y-72251009D01*
X161261905Y-72251009D02*
X161214286Y-72346247D01*
X125833333Y-104679580D02*
X125785714Y-104727200D01*
X125785714Y-104727200D02*
X125642857Y-104774819D01*
X125642857Y-104774819D02*
X125547619Y-104774819D01*
X125547619Y-104774819D02*
X125404762Y-104727200D01*
X125404762Y-104727200D02*
X125309524Y-104631961D01*
X125309524Y-104631961D02*
X125261905Y-104536723D01*
X125261905Y-104536723D02*
X125214286Y-104346247D01*
X125214286Y-104346247D02*
X125214286Y-104203390D01*
X125214286Y-104203390D02*
X125261905Y-104012914D01*
X125261905Y-104012914D02*
X125309524Y-103917676D01*
X125309524Y-103917676D02*
X125404762Y-103822438D01*
X125404762Y-103822438D02*
X125547619Y-103774819D01*
X125547619Y-103774819D02*
X125642857Y-103774819D01*
X125642857Y-103774819D02*
X125785714Y-103822438D01*
X125785714Y-103822438D02*
X125833333Y-103870057D01*
X126166667Y-103774819D02*
X126785714Y-103774819D01*
X126785714Y-103774819D02*
X126452381Y-104155771D01*
X126452381Y-104155771D02*
X126595238Y-104155771D01*
X126595238Y-104155771D02*
X126690476Y-104203390D01*
X126690476Y-104203390D02*
X126738095Y-104251009D01*
X126738095Y-104251009D02*
X126785714Y-104346247D01*
X126785714Y-104346247D02*
X126785714Y-104584342D01*
X126785714Y-104584342D02*
X126738095Y-104679580D01*
X126738095Y-104679580D02*
X126690476Y-104727200D01*
X126690476Y-104727200D02*
X126595238Y-104774819D01*
X126595238Y-104774819D02*
X126309524Y-104774819D01*
X126309524Y-104774819D02*
X126214286Y-104727200D01*
X126214286Y-104727200D02*
X126166667Y-104679580D01*
X125753333Y-120084819D02*
X125420000Y-119608628D01*
X125181905Y-120084819D02*
X125181905Y-119084819D01*
X125181905Y-119084819D02*
X125562857Y-119084819D01*
X125562857Y-119084819D02*
X125658095Y-119132438D01*
X125658095Y-119132438D02*
X125705714Y-119180057D01*
X125705714Y-119180057D02*
X125753333Y-119275295D01*
X125753333Y-119275295D02*
X125753333Y-119418152D01*
X125753333Y-119418152D02*
X125705714Y-119513390D01*
X125705714Y-119513390D02*
X125658095Y-119561009D01*
X125658095Y-119561009D02*
X125562857Y-119608628D01*
X125562857Y-119608628D02*
X125181905Y-119608628D01*
X126610476Y-119418152D02*
X126610476Y-120084819D01*
X126372381Y-119037200D02*
X126134286Y-119751485D01*
X126134286Y-119751485D02*
X126753333Y-119751485D01*
X162914819Y-127333333D02*
X163629104Y-127333333D01*
X163629104Y-127333333D02*
X163771961Y-127380952D01*
X163771961Y-127380952D02*
X163867200Y-127476190D01*
X163867200Y-127476190D02*
X163914819Y-127619047D01*
X163914819Y-127619047D02*
X163914819Y-127714285D01*
X163010057Y-126904761D02*
X162962438Y-126857142D01*
X162962438Y-126857142D02*
X162914819Y-126761904D01*
X162914819Y-126761904D02*
X162914819Y-126523809D01*
X162914819Y-126523809D02*
X162962438Y-126428571D01*
X162962438Y-126428571D02*
X163010057Y-126380952D01*
X163010057Y-126380952D02*
X163105295Y-126333333D01*
X163105295Y-126333333D02*
X163200533Y-126333333D01*
X163200533Y-126333333D02*
X163343390Y-126380952D01*
X163343390Y-126380952D02*
X163914819Y-126952380D01*
X163914819Y-126952380D02*
X163914819Y-126333333D01*
X162914819Y-117333333D02*
X163629104Y-117333333D01*
X163629104Y-117333333D02*
X163771961Y-117380952D01*
X163771961Y-117380952D02*
X163867200Y-117476190D01*
X163867200Y-117476190D02*
X163914819Y-117619047D01*
X163914819Y-117619047D02*
X163914819Y-117714285D01*
X162914819Y-116952380D02*
X162914819Y-116333333D01*
X162914819Y-116333333D02*
X163295771Y-116666666D01*
X163295771Y-116666666D02*
X163295771Y-116523809D01*
X163295771Y-116523809D02*
X163343390Y-116428571D01*
X163343390Y-116428571D02*
X163391009Y-116380952D01*
X163391009Y-116380952D02*
X163486247Y-116333333D01*
X163486247Y-116333333D02*
X163724342Y-116333333D01*
X163724342Y-116333333D02*
X163819580Y-116380952D01*
X163819580Y-116380952D02*
X163867200Y-116428571D01*
X163867200Y-116428571D02*
X163914819Y-116523809D01*
X163914819Y-116523809D02*
X163914819Y-116809523D01*
X163914819Y-116809523D02*
X163867200Y-116904761D01*
X163867200Y-116904761D02*
X163819580Y-116952380D01*
X169833333Y-86084819D02*
X169500000Y-85608628D01*
X169261905Y-86084819D02*
X169261905Y-85084819D01*
X169261905Y-85084819D02*
X169642857Y-85084819D01*
X169642857Y-85084819D02*
X169738095Y-85132438D01*
X169738095Y-85132438D02*
X169785714Y-85180057D01*
X169785714Y-85180057D02*
X169833333Y-85275295D01*
X169833333Y-85275295D02*
X169833333Y-85418152D01*
X169833333Y-85418152D02*
X169785714Y-85513390D01*
X169785714Y-85513390D02*
X169738095Y-85561009D01*
X169738095Y-85561009D02*
X169642857Y-85608628D01*
X169642857Y-85608628D02*
X169261905Y-85608628D01*
X170785714Y-86084819D02*
X170214286Y-86084819D01*
X170500000Y-86084819D02*
X170500000Y-85084819D01*
X170500000Y-85084819D02*
X170404762Y-85227676D01*
X170404762Y-85227676D02*
X170309524Y-85322914D01*
X170309524Y-85322914D02*
X170214286Y-85370533D01*
X162914819Y-108333333D02*
X163629104Y-108333333D01*
X163629104Y-108333333D02*
X163771961Y-108380952D01*
X163771961Y-108380952D02*
X163867200Y-108476190D01*
X163867200Y-108476190D02*
X163914819Y-108619047D01*
X163914819Y-108619047D02*
X163914819Y-108714285D01*
X163248152Y-107428571D02*
X163914819Y-107428571D01*
X162867200Y-107666666D02*
X163581485Y-107904761D01*
X163581485Y-107904761D02*
X163581485Y-107285714D01*
X169833333Y-93084819D02*
X169500000Y-92608628D01*
X169261905Y-93084819D02*
X169261905Y-92084819D01*
X169261905Y-92084819D02*
X169642857Y-92084819D01*
X169642857Y-92084819D02*
X169738095Y-92132438D01*
X169738095Y-92132438D02*
X169785714Y-92180057D01*
X169785714Y-92180057D02*
X169833333Y-92275295D01*
X169833333Y-92275295D02*
X169833333Y-92418152D01*
X169833333Y-92418152D02*
X169785714Y-92513390D01*
X169785714Y-92513390D02*
X169738095Y-92561009D01*
X169738095Y-92561009D02*
X169642857Y-92608628D01*
X169642857Y-92608628D02*
X169261905Y-92608628D01*
X170214286Y-92180057D02*
X170261905Y-92132438D01*
X170261905Y-92132438D02*
X170357143Y-92084819D01*
X170357143Y-92084819D02*
X170595238Y-92084819D01*
X170595238Y-92084819D02*
X170690476Y-92132438D01*
X170690476Y-92132438D02*
X170738095Y-92180057D01*
X170738095Y-92180057D02*
X170785714Y-92275295D01*
X170785714Y-92275295D02*
X170785714Y-92370533D01*
X170785714Y-92370533D02*
X170738095Y-92513390D01*
X170738095Y-92513390D02*
X170166667Y-93084819D01*
X170166667Y-93084819D02*
X170785714Y-93084819D01*
X125833333Y-127084819D02*
X125500000Y-126608628D01*
X125261905Y-127084819D02*
X125261905Y-126084819D01*
X125261905Y-126084819D02*
X125642857Y-126084819D01*
X125642857Y-126084819D02*
X125738095Y-126132438D01*
X125738095Y-126132438D02*
X125785714Y-126180057D01*
X125785714Y-126180057D02*
X125833333Y-126275295D01*
X125833333Y-126275295D02*
X125833333Y-126418152D01*
X125833333Y-126418152D02*
X125785714Y-126513390D01*
X125785714Y-126513390D02*
X125738095Y-126561009D01*
X125738095Y-126561009D02*
X125642857Y-126608628D01*
X125642857Y-126608628D02*
X125261905Y-126608628D01*
X126166667Y-126084819D02*
X126785714Y-126084819D01*
X126785714Y-126084819D02*
X126452381Y-126465771D01*
X126452381Y-126465771D02*
X126595238Y-126465771D01*
X126595238Y-126465771D02*
X126690476Y-126513390D01*
X126690476Y-126513390D02*
X126738095Y-126561009D01*
X126738095Y-126561009D02*
X126785714Y-126656247D01*
X126785714Y-126656247D02*
X126785714Y-126894342D01*
X126785714Y-126894342D02*
X126738095Y-126989580D01*
X126738095Y-126989580D02*
X126690476Y-127037200D01*
X126690476Y-127037200D02*
X126595238Y-127084819D01*
X126595238Y-127084819D02*
X126309524Y-127084819D01*
X126309524Y-127084819D02*
X126214286Y-127037200D01*
X126214286Y-127037200D02*
X126166667Y-126989580D01*
X116307319Y-110761904D02*
X117116842Y-110761904D01*
X117116842Y-110761904D02*
X117212080Y-110714285D01*
X117212080Y-110714285D02*
X117259700Y-110666666D01*
X117259700Y-110666666D02*
X117307319Y-110571428D01*
X117307319Y-110571428D02*
X117307319Y-110380952D01*
X117307319Y-110380952D02*
X117259700Y-110285714D01*
X117259700Y-110285714D02*
X117212080Y-110238095D01*
X117212080Y-110238095D02*
X117116842Y-110190476D01*
X117116842Y-110190476D02*
X116307319Y-110190476D01*
X116402557Y-109761904D02*
X116354938Y-109714285D01*
X116354938Y-109714285D02*
X116307319Y-109619047D01*
X116307319Y-109619047D02*
X116307319Y-109380952D01*
X116307319Y-109380952D02*
X116354938Y-109285714D01*
X116354938Y-109285714D02*
X116402557Y-109238095D01*
X116402557Y-109238095D02*
X116497795Y-109190476D01*
X116497795Y-109190476D02*
X116593033Y-109190476D01*
X116593033Y-109190476D02*
X116735890Y-109238095D01*
X116735890Y-109238095D02*
X117307319Y-109809523D01*
X117307319Y-109809523D02*
X117307319Y-109190476D01*
X124713095Y-68254819D02*
X124713095Y-69064342D01*
X124713095Y-69064342D02*
X124760714Y-69159580D01*
X124760714Y-69159580D02*
X124808333Y-69207200D01*
X124808333Y-69207200D02*
X124903571Y-69254819D01*
X124903571Y-69254819D02*
X125094047Y-69254819D01*
X125094047Y-69254819D02*
X125189285Y-69207200D01*
X125189285Y-69207200D02*
X125236904Y-69159580D01*
X125236904Y-69159580D02*
X125284523Y-69064342D01*
X125284523Y-69064342D02*
X125284523Y-68254819D01*
X125665476Y-68254819D02*
X126284523Y-68254819D01*
X126284523Y-68254819D02*
X125951190Y-68635771D01*
X125951190Y-68635771D02*
X126094047Y-68635771D01*
X126094047Y-68635771D02*
X126189285Y-68683390D01*
X126189285Y-68683390D02*
X126236904Y-68731009D01*
X126236904Y-68731009D02*
X126284523Y-68826247D01*
X126284523Y-68826247D02*
X126284523Y-69064342D01*
X126284523Y-69064342D02*
X126236904Y-69159580D01*
X126236904Y-69159580D02*
X126189285Y-69207200D01*
X126189285Y-69207200D02*
X126094047Y-69254819D01*
X126094047Y-69254819D02*
X125808333Y-69254819D01*
X125808333Y-69254819D02*
X125713095Y-69207200D01*
X125713095Y-69207200D02*
X125665476Y-69159580D01*
X145804819Y-139724404D02*
X146614342Y-139724404D01*
X146614342Y-139724404D02*
X146709580Y-139676785D01*
X146709580Y-139676785D02*
X146757200Y-139629166D01*
X146757200Y-139629166D02*
X146804819Y-139533928D01*
X146804819Y-139533928D02*
X146804819Y-139343452D01*
X146804819Y-139343452D02*
X146757200Y-139248214D01*
X146757200Y-139248214D02*
X146709580Y-139200595D01*
X146709580Y-139200595D02*
X146614342Y-139152976D01*
X146614342Y-139152976D02*
X145804819Y-139152976D01*
X146138152Y-138248214D02*
X146804819Y-138248214D01*
X145757200Y-138486309D02*
X146471485Y-138724404D01*
X146471485Y-138724404D02*
X146471485Y-138105357D01*
X113884819Y-97571904D02*
X114694342Y-97571904D01*
X114694342Y-97571904D02*
X114789580Y-97524285D01*
X114789580Y-97524285D02*
X114837200Y-97476666D01*
X114837200Y-97476666D02*
X114884819Y-97381428D01*
X114884819Y-97381428D02*
X114884819Y-97190952D01*
X114884819Y-97190952D02*
X114837200Y-97095714D01*
X114837200Y-97095714D02*
X114789580Y-97048095D01*
X114789580Y-97048095D02*
X114694342Y-97000476D01*
X114694342Y-97000476D02*
X113884819Y-97000476D01*
X114884819Y-96000476D02*
X114884819Y-96571904D01*
X114884819Y-96286190D02*
X113884819Y-96286190D01*
X113884819Y-96286190D02*
X114027676Y-96381428D01*
X114027676Y-96381428D02*
X114122914Y-96476666D01*
X114122914Y-96476666D02*
X114170533Y-96571904D01*
X137666666Y-67074819D02*
X137666666Y-67789104D01*
X137666666Y-67789104D02*
X137619047Y-67931961D01*
X137619047Y-67931961D02*
X137523809Y-68027200D01*
X137523809Y-68027200D02*
X137380952Y-68074819D01*
X137380952Y-68074819D02*
X137285714Y-68074819D01*
X138047619Y-67074819D02*
X138714285Y-67074819D01*
X138714285Y-67074819D02*
X138285714Y-68074819D01*
X148403810Y-69424819D02*
X148403810Y-68424819D01*
X149451428Y-69329580D02*
X149403809Y-69377200D01*
X149403809Y-69377200D02*
X149260952Y-69424819D01*
X149260952Y-69424819D02*
X149165714Y-69424819D01*
X149165714Y-69424819D02*
X149022857Y-69377200D01*
X149022857Y-69377200D02*
X148927619Y-69281961D01*
X148927619Y-69281961D02*
X148880000Y-69186723D01*
X148880000Y-69186723D02*
X148832381Y-68996247D01*
X148832381Y-68996247D02*
X148832381Y-68853390D01*
X148832381Y-68853390D02*
X148880000Y-68662914D01*
X148880000Y-68662914D02*
X148927619Y-68567676D01*
X148927619Y-68567676D02*
X149022857Y-68472438D01*
X149022857Y-68472438D02*
X149165714Y-68424819D01*
X149165714Y-68424819D02*
X149260952Y-68424819D01*
X149260952Y-68424819D02*
X149403809Y-68472438D01*
X149403809Y-68472438D02*
X149451428Y-68520057D01*
X150403809Y-69424819D02*
X149832381Y-69424819D01*
X150118095Y-69424819D02*
X150118095Y-68424819D01*
X150118095Y-68424819D02*
X150022857Y-68567676D01*
X150022857Y-68567676D02*
X149927619Y-68662914D01*
X149927619Y-68662914D02*
X149832381Y-68710533D01*
X169991905Y-76494819D02*
X169991905Y-75494819D01*
X169991905Y-75494819D02*
X170230000Y-75494819D01*
X170230000Y-75494819D02*
X170372857Y-75542438D01*
X170372857Y-75542438D02*
X170468095Y-75637676D01*
X170468095Y-75637676D02*
X170515714Y-75732914D01*
X170515714Y-75732914D02*
X170563333Y-75923390D01*
X170563333Y-75923390D02*
X170563333Y-76066247D01*
X170563333Y-76066247D02*
X170515714Y-76256723D01*
X170515714Y-76256723D02*
X170468095Y-76351961D01*
X170468095Y-76351961D02*
X170372857Y-76447200D01*
X170372857Y-76447200D02*
X170230000Y-76494819D01*
X170230000Y-76494819D02*
X169991905Y-76494819D01*
X170944286Y-75590057D02*
X170991905Y-75542438D01*
X170991905Y-75542438D02*
X171087143Y-75494819D01*
X171087143Y-75494819D02*
X171325238Y-75494819D01*
X171325238Y-75494819D02*
X171420476Y-75542438D01*
X171420476Y-75542438D02*
X171468095Y-75590057D01*
X171468095Y-75590057D02*
X171515714Y-75685295D01*
X171515714Y-75685295D02*
X171515714Y-75780533D01*
X171515714Y-75780533D02*
X171468095Y-75923390D01*
X171468095Y-75923390D02*
X170896667Y-76494819D01*
X170896667Y-76494819D02*
X171515714Y-76494819D01*
X169991905Y-69024819D02*
X169991905Y-68024819D01*
X169991905Y-68024819D02*
X170230000Y-68024819D01*
X170230000Y-68024819D02*
X170372857Y-68072438D01*
X170372857Y-68072438D02*
X170468095Y-68167676D01*
X170468095Y-68167676D02*
X170515714Y-68262914D01*
X170515714Y-68262914D02*
X170563333Y-68453390D01*
X170563333Y-68453390D02*
X170563333Y-68596247D01*
X170563333Y-68596247D02*
X170515714Y-68786723D01*
X170515714Y-68786723D02*
X170468095Y-68881961D01*
X170468095Y-68881961D02*
X170372857Y-68977200D01*
X170372857Y-68977200D02*
X170230000Y-69024819D01*
X170230000Y-69024819D02*
X169991905Y-69024819D01*
X171515714Y-69024819D02*
X170944286Y-69024819D01*
X171230000Y-69024819D02*
X171230000Y-68024819D01*
X171230000Y-68024819D02*
X171134762Y-68167676D01*
X171134762Y-68167676D02*
X171039524Y-68262914D01*
X171039524Y-68262914D02*
X170944286Y-68310533D01*
D11*
%TO.C,J1*%
X164540000Y-137380000D02*
X164540000Y-136000000D01*
X165920000Y-137380000D02*
X164540000Y-137380000D01*
X167190000Y-137380000D02*
X172380000Y-137380000D01*
X167190000Y-137380000D02*
X167190000Y-134620000D01*
X172380000Y-137380000D02*
X172380000Y-134620000D01*
X167190000Y-134620000D02*
X172380000Y-134620000D01*
%TO.C,J5*%
X121260000Y-133680000D02*
X131660000Y-133680000D01*
X121260000Y-136700000D02*
X131660000Y-136700000D01*
X121260000Y-141600000D02*
X131660000Y-141600000D01*
X121260000Y-143100000D02*
X131660000Y-143100000D01*
X121260000Y-143720000D02*
X121260000Y-133680000D01*
X123620000Y-143720000D02*
X121260000Y-143720000D01*
X131660000Y-133680000D02*
X131660000Y-143720000D01*
X131660000Y-143720000D02*
X124220000Y-143720000D01*
X124360000Y-144330000D02*
X123480000Y-144330000D01*
X123920000Y-143720000D01*
X124360000Y-144330000D01*
G36*
X124360000Y-144330000D02*
G01*
X123480000Y-144330000D01*
X123920000Y-143720000D01*
X124360000Y-144330000D01*
G37*
%TO.C,J6*%
X135620000Y-135540000D02*
X137000000Y-135540000D01*
X135620000Y-136920000D02*
X135620000Y-135540000D01*
X135620000Y-138190000D02*
X135620000Y-143380000D01*
X135620000Y-138190000D02*
X138380000Y-138190000D01*
X135620000Y-143380000D02*
X138380000Y-143380000D01*
X138380000Y-138190000D02*
X138380000Y-143380000D01*
%TO.C,C5*%
X125738748Y-89735000D02*
X126261252Y-89735000D01*
X125738748Y-88265000D02*
X126261252Y-88265000D01*
%TO.C,C1*%
X143735000Y-139223752D02*
X143735000Y-138701248D01*
X142265000Y-139223752D02*
X142265000Y-138701248D01*
%TO.C,C2*%
X137738748Y-119735000D02*
X138261252Y-119735000D01*
X137738748Y-118265000D02*
X138261252Y-118265000D01*
%TO.C,C4*%
X156735000Y-139223752D02*
X156735000Y-138701248D01*
X155265000Y-139223752D02*
X155265000Y-138701248D01*
%TO.C,C6*%
X160738748Y-74735000D02*
X161261252Y-74735000D01*
X160738748Y-73265000D02*
X161261252Y-73265000D01*
%TO.C,C3*%
X125738748Y-106735000D02*
X126261252Y-106735000D01*
X125738748Y-105265000D02*
X126261252Y-105265000D01*
%TO.C,R4*%
X121880000Y-122000000D02*
X122650000Y-122000000D01*
X129960000Y-122000000D02*
X129190000Y-122000000D01*
X122650000Y-120630000D02*
X129190000Y-120630000D01*
X129190000Y-123370000D01*
X122650000Y-123370000D01*
X122650000Y-120630000D01*
%TO.C,J2*%
X167110000Y-125620000D02*
X172300000Y-125620000D01*
X172300000Y-128380000D02*
X172300000Y-125620000D01*
X167110000Y-128380000D02*
X167110000Y-125620000D01*
X167110000Y-128380000D02*
X172300000Y-128380000D01*
X165840000Y-128380000D02*
X164460000Y-128380000D01*
X164460000Y-128380000D02*
X164460000Y-127000000D01*
%TO.C,J3*%
X164460000Y-118380000D02*
X164460000Y-117000000D01*
X165840000Y-118380000D02*
X164460000Y-118380000D01*
X167110000Y-118380000D02*
X172300000Y-118380000D01*
X167110000Y-118380000D02*
X167110000Y-115620000D01*
X172300000Y-118380000D02*
X172300000Y-115620000D01*
X167110000Y-115620000D02*
X172300000Y-115620000D01*
%TO.C,R1*%
X166730000Y-86630000D02*
X173270000Y-86630000D01*
X173270000Y-89370000D01*
X166730000Y-89370000D01*
X166730000Y-86630000D01*
X174040000Y-88000000D02*
X173270000Y-88000000D01*
X165960000Y-88000000D02*
X166730000Y-88000000D01*
%TO.C,J4*%
X167110000Y-106620000D02*
X172300000Y-106620000D01*
X172300000Y-109380000D02*
X172300000Y-106620000D01*
X167110000Y-109380000D02*
X167110000Y-106620000D01*
X167110000Y-109380000D02*
X172300000Y-109380000D01*
X165840000Y-109380000D02*
X164460000Y-109380000D01*
X164460000Y-109380000D02*
X164460000Y-108000000D01*
%TO.C,R2*%
X166730000Y-93630000D02*
X173270000Y-93630000D01*
X173270000Y-96370000D01*
X166730000Y-96370000D01*
X166730000Y-93630000D01*
X174040000Y-95000000D02*
X173270000Y-95000000D01*
X165960000Y-95000000D02*
X166730000Y-95000000D01*
%TO.C,R3*%
X122730000Y-127630000D02*
X129270000Y-127630000D01*
X129270000Y-130370000D01*
X122730000Y-130370000D01*
X122730000Y-127630000D01*
X130040000Y-129000000D02*
X129270000Y-129000000D01*
X121960000Y-129000000D02*
X122730000Y-129000000D01*
%TO.C,U2*%
X119962500Y-108890000D02*
X134072500Y-108890000D01*
X134072500Y-111110000D02*
X134072500Y-108890000D01*
X119962500Y-111110000D02*
X119962500Y-108890000D01*
X119962500Y-111110000D02*
X134072500Y-111110000D01*
X118962500Y-111110000D02*
X117852500Y-111110000D01*
X117852500Y-111110000D02*
X117852500Y-110000000D01*
%TO.C,U3*%
X116875000Y-70100000D02*
X116635000Y-69764000D01*
X117115000Y-69764000D01*
X116875000Y-70100000D01*
G36*
X116875000Y-70100000D02*
G01*
X116635000Y-69764000D01*
X117115000Y-69764000D01*
X116875000Y-70100000D01*
G37*
X133575000Y-86100000D02*
X133575000Y-85700000D01*
X133575000Y-69900000D02*
X133575000Y-70300000D01*
X117375000Y-86100000D02*
X133575000Y-86100000D01*
X117375000Y-85700000D02*
X117375000Y-86100000D01*
X117375000Y-69900000D02*
X133575000Y-69900000D01*
%TO.C,U4*%
X147190000Y-141022500D02*
X147190000Y-136902500D01*
X147285000Y-141022500D02*
X147190000Y-141022500D01*
X152310000Y-141022500D02*
X152215000Y-141022500D01*
X147190000Y-136902500D02*
X147285000Y-136902500D01*
X152215000Y-136902500D02*
X152310000Y-136902500D01*
X152310000Y-136902500D02*
X152310000Y-141022500D01*
X147280000Y-141562500D02*
X146950000Y-141802500D01*
X146950000Y-141322500D01*
X147280000Y-141562500D01*
G36*
X147280000Y-141562500D02*
G01*
X146950000Y-141802500D01*
X146950000Y-141322500D01*
X147280000Y-141562500D01*
G37*
%TO.C,U1*%
X115430000Y-99460000D02*
X135870000Y-99460000D01*
X135870000Y-99460000D02*
X135870000Y-94160000D01*
X115430000Y-97810000D02*
X115430000Y-99460000D01*
X115430000Y-94160000D02*
X115430000Y-95810000D01*
X135870000Y-94160000D02*
X115430000Y-94160000D01*
X115430000Y-95810000D02*
G75*
G02*
X115430000Y-97810000I0J-1000000D01*
G01*
%TO.C,J7*%
X136620000Y-68620000D02*
X138000000Y-68620000D01*
X136620000Y-70000000D02*
X136620000Y-68620000D01*
X136620000Y-71270000D02*
X136620000Y-71380000D01*
X136620000Y-71270000D02*
X139380000Y-71270000D01*
X136620000Y-71380000D02*
X139380000Y-71380000D01*
X139380000Y-71270000D02*
X139380000Y-71380000D01*
%TO.C,IC1*%
X142920000Y-69970000D02*
X142920000Y-131050000D01*
X142920000Y-131050000D02*
X155840000Y-131050000D01*
X148380000Y-69970000D02*
X142920000Y-69970000D01*
X155840000Y-69970000D02*
X150380000Y-69970000D01*
X155840000Y-131050000D02*
X155840000Y-69970000D01*
X150380000Y-69970000D02*
G75*
G02*
X148380000Y-69970000I-1000000J0D01*
G01*
%TO.C,D2*%
X168170000Y-78455000D02*
X168170000Y-81545000D01*
X168170000Y-78455170D02*
G75*
G02*
X173720000Y-80000000I2560000J-1544830D01*
G01*
X173720000Y-80000000D02*
G75*
G02*
X168170000Y-81544830I-2990000J0D01*
G01*
X173230000Y-80000000D02*
G75*
G02*
X168230000Y-80000000I-2500000J0D01*
G01*
X168230000Y-80000000D02*
G75*
G02*
X173230000Y-80000000I2500000J0D01*
G01*
%TO.C,D1*%
X168170000Y-70985000D02*
X168170000Y-74075000D01*
X168170000Y-70985170D02*
G75*
G02*
X173720000Y-72530000I2560000J-1544830D01*
G01*
X173720000Y-72530000D02*
G75*
G02*
X168170000Y-74074830I-2990000J0D01*
G01*
X173230000Y-72530000D02*
G75*
G02*
X168230000Y-72530000I-2500000J0D01*
G01*
X168230000Y-72530000D02*
G75*
G02*
X173230000Y-72530000I2500000J0D01*
G01*
%TD*%
M02*
