M48
; DRILL file {KiCad 9.0.6} date 2025-12-09T12:16:56+0100
; FORMAT={-:-/ absolute / metric / decimal}
; #@! TF.CreationDate,2025-12-09T12:16:56+01:00
; #@! TF.GenerationSoftware,Kicad,Pcbnew,9.0.6
; #@! TF.FileFunction,Plated,1,2,PTH
FMAT,2
METRIC
; #@! TA.AperFunction,Plated,PTH,ViaDrill
T1C0.300
; #@! TA.AperFunction,Plated,PTH,ComponentDrill
T2C0.800
; #@! TA.AperFunction,Plated,PTH,ComponentDrill
T3C0.900
; #@! TA.AperFunction,Plated,PTH,ComponentDrill
T4C1.000
; #@! TA.AperFunction,Plated,PTH,ComponentDrill
T5C1.300
%
G90
G05
T1
X121.0Y-77.0
X121.0Y-82.0
X124.0Y-78.0
X128.0Y-84.0
X128.0Y-113.0
X129.0Y-82.0
X130.0Y-107.0
X131.0Y-104.0
X131.0Y-105.0
X131.0Y-116.0
X136.0Y-106.0
X136.0Y-115.08
X139.0Y-103.0
X139.0Y-108.0
X139.0Y-115.08
X147.0Y-88.0
X147.0Y-94.0
X149.0Y-88.0
X149.0Y-97.0
X152.0Y-87.0
X152.0Y-105.0
X154.0Y-87.0
X154.0Y-110.0
X160.0Y-88.0
X160.0Y-94.0
X168.0Y-91.0
X169.0Y-85.4
T2
X116.76Y-93.0
X116.76Y-100.62
X118.962Y-110.0
X119.3Y-93.0
X119.3Y-100.62
X120.84Y-122.0
X120.92Y-129.0
X120.962Y-110.0
X121.84Y-93.0
X121.84Y-100.62
X122.962Y-110.0
X124.38Y-93.0
X124.38Y-100.62
X124.962Y-110.0
X126.92Y-93.0
X126.92Y-100.62
X126.962Y-110.0
X128.963Y-110.0
X129.46Y-93.0
X129.46Y-100.62
X130.963Y-110.0
X131.0Y-122.0
X131.08Y-129.0
X132.0Y-93.0
X132.0Y-100.62
X132.963Y-110.0
X134.54Y-93.0
X134.54Y-100.62
X141.76Y-71.3
X141.76Y-73.84
X141.76Y-76.38
X141.76Y-78.92
X141.76Y-81.46
X141.76Y-84.0
X141.76Y-86.54
X141.76Y-89.08
X141.76Y-91.62
X141.76Y-94.16
X141.76Y-96.7
X141.76Y-99.24
X141.76Y-101.78
X141.76Y-104.32
X141.76Y-106.86
X141.76Y-109.4
X141.76Y-111.94
X141.76Y-114.48
X141.76Y-117.02
X141.76Y-119.56
X141.76Y-122.1
X141.76Y-124.64
X141.76Y-127.18
X141.76Y-129.72
X157.0Y-71.3
X157.0Y-73.84
X157.0Y-76.38
X157.0Y-78.92
X157.0Y-81.46
X157.0Y-84.0
X157.0Y-86.54
X157.0Y-89.08
X157.0Y-91.62
X157.0Y-94.16
X157.0Y-96.7
X157.0Y-99.24
X157.0Y-101.78
X157.0Y-104.32
X157.0Y-106.86
X157.0Y-109.4
X157.0Y-111.94
X157.0Y-114.48
X157.0Y-117.02
X157.0Y-119.56
X157.0Y-122.1
X157.0Y-124.64
X157.0Y-127.18
X157.0Y-129.72
X164.92Y-88.0
X164.92Y-95.0
X175.08Y-88.0
X175.08Y-95.0
T3
X169.46Y-72.53
X169.46Y-80.0
X172.0Y-72.53
X172.0Y-80.0
T4
X137.0Y-136.92
X137.0Y-139.46
X137.0Y-142.0
X138.0Y-70.0
X165.84Y-108.0
X165.84Y-117.0
X165.84Y-127.0
X165.92Y-136.0
X168.38Y-108.0
X168.38Y-117.0
X168.38Y-127.0
X168.46Y-136.0
X170.92Y-108.0
X170.92Y-117.0
X170.92Y-127.0
X171.0Y-136.0
T5
X123.92Y-139.0
X129.0Y-139.0
M30
